<svg width="425" height="430" viewBox="0 0 425 430" fill="none" xmlns="http://www.w3.org/2000/svg">
<path fill-rule="evenodd" clip-rule="evenodd" d="M121.511 197.146C122.588 196.18 121.537 198.395 122.659 197.218C122.443 195.778 123.594 193.488 122.705 192.468C122.521 193.813 121.995 193.739 121.267 194.939C122.52 193.361 122.716 196.151 121.511 197.146ZM148.979 206.24C149.442 206.382 149.405 205.394 149.843 205.441C152.892 207.332 155.281 211.234 159.819 211.28C161.265 214.572 164.789 215.285 167.289 216.849C169.099 217.979 170.285 220.699 173.614 218.936C170.322 216.283 166.156 214.656 163.884 211.892C159.695 210.702 155.7 207.045 150.625 203.903C150.543 203.429 151.859 202.084 151.528 201.765C150.724 202.657 150.014 203.101 149.394 203.097C142.853 197.958 137.062 194.2 132.81 190.886C132.739 190.381 134.187 187.613 132.771 188.813C132.857 189.068 132.778 190.667 132.194 190.483C130.202 187.74 121.274 184.402 119.757 179.619C119.919 179.869 119.712 180.348 119.51 180.825C116.21 178.157 111.892 177.718 110.397 174.183C112.327 178.249 114.293 183.163 119.138 182.629C118.81 183.097 118.481 183.564 118.153 184.029C120.68 182.426 120.162 187.291 121.188 187.383C126.285 184.564 124.749 190.405 127.963 191.811C130.281 189.554 131.877 192.511 132.191 193.895C137.408 196.936 143.89 200.893 148.979 206.24ZM107.602 176.45C107.189 175.382 108.407 175.19 109.122 174.715C109.377 173.348 108.127 172.963 106.865 173.238C108.564 173.15 106.013 176.277 106.905 175.31C107.25 175.525 107.933 174.09 108.303 174.176C107.746 175.001 107.234 175.599 106.78 175.912C107.701 175.575 106.705 177.621 107.602 176.45ZM105.097 176.176C107.095 171.197 101.94 171.903 101.366 168.274C100.575 169.105 99.9412 169.164 99.3547 169.005C98.613 168.158 97.2247 165.507 95.3299 167.057C96.0967 167.453 95.4021 168.76 95.7804 169.397C96.9716 168.176 98.9392 169.071 98.899 170.076C97.5355 171.879 98.5091 169.314 97.4222 170.472C99.0367 171.246 103.802 171.738 105.097 176.176ZM95.2481 166.319C93.8904 166.071 93.9512 162.902 91.8406 164.775C93.1698 164.636 93.878 167.574 95.2481 166.319ZM114.297 176.733C114.873 177.06 116.037 176.308 116.229 175.265C115.787 174.77 115.1 175.471 114.297 176.733ZM109.209 172.036C109.734 171.363 110.35 170.264 110.73 170.301C111.329 171.239 113.156 172.727 114.341 171.985C108.391 166.089 101.066 161.509 97.5139 157.565C97.7454 157.566 97.928 157.817 98.2537 157.365C97.8367 156.373 96.8975 157.918 96.24 158.097C94.936 155.1 91.1344 154.114 89.8843 151.776C90.085 151.32 89.7713 151.186 89.5513 150.994C89.6187 151.279 89.7518 151.527 89.8843 151.776C89.8199 151.921 89.7037 152.101 89.5078 152.33C87.6941 150.435 86.2402 151.808 86.4713 148.978C85.2576 150.739 84.9351 148.148 83.7214 149.907C90.0907 156.296 101.776 162.623 108.471 168.826C107.953 170.323 106.931 169.138 107.279 170.096C108.331 169.103 107.382 171.558 108.634 170.298C108.887 167.384 109.538 170.283 109.209 172.036ZM58.7174 135.606C57.7422 137.254 59.0858 136.973 59.9499 136.411C59.3772 135.806 59.9923 134.462 58.761 134.267C58.114 135.019 58.2228 135.665 57.7747 135.67C56.8254 135.562 58.8495 133.601 57.7343 133.597C57.1706 134.453 56.7605 134.558 56.4591 134.131C54.7549 136.792 56.8558 137.68 58.7174 135.606ZM51.7386 131.042C51.7448 132.654 53.6158 134.138 54.9809 134.526C56.0962 129.634 51.1122 132.532 51.8237 128.367C51.3261 128.899 50.8861 129.149 50.5504 128.897C48.7319 131.556 50.5431 131.507 51.7386 131.042ZM61.6377 132.734C60.6123 132.85 61.6546 131.675 61.472 131.266C60.8167 132.191 60.4954 131.493 59.7473 132.867C60.3487 133.613 60.2665 134.067 61.6377 132.734ZM79.6555 145.886C75.0013 142.732 71.9129 138.134 66.3146 137.163C70.2056 140.081 73.7932 143.699 79.6555 145.886ZM83.9233 153.454C83.8167 153.346 83.7289 153.224 84.0465 152.851C84.3803 153.11 84.8247 152.837 85.3197 152.321C84.8119 151.396 83.8812 152.522 83.1024 152.917C83.7985 152.721 82.8031 154.764 83.9233 153.454ZM81.956 146.026C80.9093 147.342 80.4903 145.61 79.533 146.489C79.8539 146.901 79.4203 147.782 79.3662 148.429C82.19 147.063 80.9255 150.516 83.8425 149.308C84.0541 147.231 79.7886 148.037 81.956 146.026ZM107.411 159.262C107.195 158.841 107.877 158.687 108.397 157.859C106.759 158.564 109.009 155.995 107.494 156.586C107.738 157.127 107.416 157.599 106.712 158.123C106.906 158.389 106.763 160.137 107.411 159.262ZM70.5947 127.674C71.2375 127.188 72.0115 126.064 72.5244 126.208C70.9825 128.552 73.6648 128.786 74.2923 126.679C72.9098 127.956 72.062 123.394 68.9553 123.189C67.821 126.665 69.6978 126.151 70.5947 127.674ZM60.3347 117.55C59.5319 117.377 59.4804 114.447 58.2828 116.208C58.2639 116.895 58.7832 119.533 60.3347 117.55ZM55.5311 113.727C55.7617 112.712 54.7737 112.609 53.9718 113.388C54.2525 114.052 54.4914 114.401 55.5311 113.727ZM54.0937 112.79C54.3452 111.488 52.9409 109.848 51.5504 110.441C52.5071 111.509 52.604 113.326 54.0937 112.79ZM176.142 188.512C175.282 186.855 174.436 185.737 172.858 186.365C172.935 187.548 174.972 188.882 176.142 188.512ZM172.242 185.963C171.93 185.608 171.731 183.867 170.601 184.888C170.467 185.519 171.386 186.815 172.242 185.963ZM190.018 196.904C190.815 198.387 192.897 198.523 194.247 198.989C193.289 197.911 192.398 196.863 190.018 196.904ZM182.629 192.072C180.632 190.927 178.692 188.664 176.224 189.248C179.207 190.456 179.743 192.617 182.629 192.072ZM90.0966 137.014C90.3971 137.376 90.884 139.745 92.2711 137.759C91.0214 137.562 91.5624 135.691 90.0966 137.014ZM75.0307 126.481C73.9321 127.876 74.6808 129.03 75.7283 127.618C76.0229 126.315 74.776 127.596 75.0307 126.481ZM59.8811 118.622C62.81 118.63 63.278 122.912 66.902 121.846C64.3629 120.707 63.8598 117.173 59.8811 118.622ZM81.0646 131.11C78.9508 130.371 78.2949 126.543 75.274 128.69C77.571 129.039 77.9082 133.79 81.0646 131.11ZM132.016 156.24C131.796 154.891 130.243 154.372 130.663 152.625C131.881 154.167 134.679 156.989 136.533 155.782C133.184 152.584 129.094 151.471 126.642 147.266C126.851 146.874 127.285 146.341 127.093 146.198C126.656 146.819 126.216 147.445 125.778 148.068C125.656 146.953 123.918 145.452 122.577 146.654C123.092 149.851 125.859 151.754 127.829 152.82C127.92 152.526 127.317 151.477 128.076 151.615C128.814 153.344 130.337 155.971 132.016 156.24ZM118.018 145.039C119.162 144.478 118.359 146.305 119.578 145.379C119.362 145.046 120.129 142.803 119.209 143.774C119.299 143.979 119.174 144.32 118.759 144.84C118.495 144.616 117.9 144.43 118.018 145.039ZM117.608 144.772C118.046 144.148 118.484 143.525 118.924 142.902C115.85 139.049 112.972 138.448 109.116 135.119C109.984 141.532 115.717 139.346 117.608 144.772ZM108.293 134.583C107.992 133.211 103.51 133.042 105.46 131.368C105.662 130.739 102.715 131.721 102.831 131.695C104.156 132.959 106.458 136.015 108.293 134.583ZM101.601 130.888C102.044 130.242 102.419 129.928 102.793 129.621C102.603 129.043 103.049 127.435 101.766 128.951C102.087 129.362 101.654 130.244 101.601 130.888ZM138.426 152.243C137.866 150.58 135.475 150.061 136.375 147.49C136.711 147.747 137.156 147.471 137.647 146.959C135.713 148.056 138.56 144.66 136.952 145.82C135.894 147.184 133.625 143.821 132.477 144.938C132.84 148.622 134.942 152.266 138.426 152.243ZM146.845 154.335C146.771 149.989 144.788 154.483 142.657 150.915C142.065 153.314 145.895 153.878 142.692 156.401C145.47 154.438 146.492 160.984 149.178 159.96C149.4 158.774 148.284 158.421 149.388 156.684C149.225 157.367 150.214 157.471 150.949 157.019C149.264 156.411 148.904 153.307 146.845 154.335ZM150.826 157.621C151.446 157.623 151.766 159.082 152.591 158.094C152.019 157.385 152.102 156.449 150.826 157.621ZM236.057 201.758C239.309 202.939 238.821 204.473 242.05 204.314C241.22 202.83 238.788 199.53 236.057 201.758ZM252.561 209.824C251.954 209.24 250.642 209.098 250.836 208.013C250.136 210.025 251.11 210.871 252.561 209.824ZM158.8 147.14C156.58 146.196 156.791 143.083 154.572 145.056C155.896 144.469 156.917 148.933 158.8 147.14ZM140.536 131.783C140.865 131.316 141.195 130.846 141.523 130.381C141.504 129.594 139.747 129.509 140.459 127.634C138.205 130.417 137.999 125.875 135.899 126.021C135.474 129.63 139.291 129.212 140.536 131.783ZM134.422 126.417C134.98 122.26 130.362 123.908 131.182 119.52C134.79 121.421 136.648 125.435 141.526 126.969C141.467 126.306 140.614 126.138 140.952 125.229C143.366 125.242 143.171 127.209 143.126 129.381C143.87 128.03 144.186 128.754 144.728 128.38C144.548 129.833 144.433 132.076 146.328 130.793C142.194 121.144 128.347 112.408 121.784 108.598C125.066 112.873 129.044 113.03 130.936 117.315C128.104 118.604 128.991 112.802 125.148 114.893C126.648 115.152 127.409 117.807 128.593 118.514C129.4 117.082 130.538 120.178 128.18 121.654C130.145 122.951 133.107 124.707 134.422 126.417ZM123.424 113.083C121.898 110.402 120.2 110.338 118.088 109.591C119.837 111.859 120.775 114.383 123.424 113.083ZM105.814 100.2C105.225 100.045 104.592 100.102 103.802 100.93C104.389 101.453 104.859 103.402 106.264 102.542C106.389 101.364 104.919 101.179 105.28 100.535C105.422 100.59 105.571 100.623 105.814 100.2ZM102.239 100.595C104.038 98.2182 103.286 100.88 103.925 100.33C103.69 99.9985 104.503 99.2126 104.912 98.9278C102.609 99.0933 103.442 96.7083 100.311 98.6504C100.27 97.3642 98.3023 97.2806 99.3691 95.3028C98.3728 96.0104 98.9699 95.9105 98.0551 97.1713C99.3893 97.5634 99.3601 98.8075 99.8578 99.7199C101.548 97.1984 101.765 100.027 102.239 100.595ZM96.7417 95.6314C95.042 95.2473 96.0128 92.9987 94.7284 92.9526C95.0379 93.9851 93.713 96.0331 94.3969 96.8328C95.5568 93.9991 95.0569 97.0998 96.7417 95.6314ZM149.492 130.131C149.796 135.004 154.228 135.949 156.671 138.241C156.288 137.8 157.078 136.684 157.783 136.234C155.098 133.687 152.658 130.823 149.492 130.131ZM110.985 105.629C111.422 105.76 110.984 108.15 111.476 106.636C111.37 106.525 111.284 106.405 111.6 106.032C112.449 106.29 112.621 106.97 112.913 107.574C114.156 105.912 111.667 105.221 110.985 105.629ZM116.948 95.8796C117.263 94.3655 115.764 95.8906 115.182 95.4067C115.364 95.148 115.388 94.7692 114.977 95.2722C114.711 96.9589 115.689 96.4051 116.948 95.8796ZM137.845 210.561C136.363 211.533 137.213 210.999 135.914 212.029C131.239 207.168 128.099 205.232 123.478 201.165C123.784 200.811 124.011 200.835 124.341 200.365C123.594 200.271 121.237 201.249 122.208 198.284C121.776 198.501 121.298 198.933 120.809 199.42C120.622 199.187 121.237 198.453 121.591 197.883C121.363 197.863 121.057 198.219 120.853 198.082C119.941 198.173 121.193 198.948 119.866 199.484C118.69 198.159 120.306 196.364 117.607 198.008C116.82 197.068 117.237 194.944 115.473 195.932C115.231 195.389 115.552 194.916 116.256 194.392C114.149 195.429 114.128 193.484 112.642 192.712C113.217 192.174 113.694 192.129 114.121 192.314C115.087 190.598 112.862 191.912 113.671 189.972C114.628 189.918 115.616 188.897 115.765 189.979C116.377 186.625 112.118 185.093 110.595 184.548C111.475 184.339 111.962 181.97 110.718 183.947C110.655 183.287 111.589 182.005 111.214 181.54C112.074 180.349 112.639 181.497 112.939 179.94C112.335 179.358 111.559 181.954 110.596 181.14C110.408 182.042 111.016 182.45 109.775 184.011C109.546 183.61 109.129 184.123 108.703 184.679C108.588 183.185 110.877 183.317 110.146 182.206C108.811 183.353 106.81 182.724 105.955 182.198C106.954 185.088 109.92 184.27 110.715 187.357C108.599 190.001 108.319 187.722 108.334 186.483C107.726 186.25 108.05 187.471 107.018 188.352C106.995 187.908 105.607 187.24 105.377 187.278C105.419 185.703 106.881 186.646 107.514 185.946C107.155 185.551 106.321 182.896 103.735 186.203C104.108 185.096 104.851 183.76 104.354 183.196C104.151 183.672 103.944 184.15 104.105 184.4C102.832 184.828 104.93 181.848 106.079 181.596C104.607 178.601 99.42 175.904 95.5728 172.675C93.6979 171.105 91.2395 169.719 90.0716 167.715C89.3435 166.462 85.3966 164.33 83.0928 163.15C82.9163 162.825 83.7476 161.868 84.2024 161.147C80.991 162.929 80.8593 158.826 77.3872 158.053C77.2021 157.821 77.8147 157.088 78.1692 156.519C77.9299 156.043 76.2737 157.38 77.6773 155.514C73.6843 157.065 72.3614 153.026 70.2456 152.019C69.9493 151.875 69.1282 152.64 69.1782 152.685C68.7811 152.333 69.2926 150.526 68.522 150.209C67.6178 149.835 67.429 149.439 66.799 148.397C66.2297 147.46 64.9454 145.73 64.5828 145.585C64.2982 145.469 63.6404 146.574 63.3089 146.118C63.0443 145.747 63.7272 144.882 63.6737 144.416C63.4899 144.604 61.76 143.651 60.7658 143.768C62.2757 142.046 57.5771 141.649 56.497 139.614C57.2814 138.737 57.7577 139.101 58.0166 137.878C56.3713 137.808 54.6852 140.189 55.2263 136.734C52.9276 138.05 53.1192 136.606 51.4905 135.655C52.1451 134.729 52.467 135.428 53.2151 134.054C51.6975 135.627 52.3983 132.986 50.7942 134.516C50.6664 134.31 50.9535 133.859 51.202 133.665C48.8183 134.643 47.2382 132.066 46.1948 130.827C47.3261 129.71 47.2479 129.071 47.9216 129.225C47.7737 128.235 46.6921 126.84 48.457 125.485C47.7717 125.826 47.5583 125.688 47.6373 124.945C47.1718 125.491 47.1437 125.767 47.2456 125.96C45.4618 123.556 42.6037 120.598 41.7681 118.378C40.8377 119.516 41.3825 118.521 40.0848 118.641C40.5353 118.331 41.0474 117.731 41.606 116.906C41.0187 116.738 39.9265 119.04 39.4698 118.236C41.5915 114.87 37.1115 117.258 38.199 115.36C37.9042 115.278 37.4249 116.1 37.0071 116.627C36.6955 115.283 36.163 115.408 34.5429 115.017C37.6055 114.1 34.9492 113.788 33.8446 113.879C34.4599 112.77 34.7056 113.47 35.243 112.744C35.516 111.675 34.9779 110.607 33.6814 112.406C34.3133 109.505 33.11 108.776 32.6198 106.25C34.8832 104.99 36.7629 105.796 39.1904 107.137C39.6398 107.131 39.5289 106.486 40.1766 105.734C43.8635 106.579 45.7834 109.932 49.9081 109.369C47.1009 103.255 40.0722 101.712 36.3652 97.0956C38.6124 96.7235 39.4261 96.8341 41.5798 97.7773C42.3386 96.3434 40.7082 96.3983 40.9243 95.3025C41.7656 94.6099 42.253 95.6349 43.0186 95.307C41.2995 91.8869 37.9171 90.9404 34.5633 87.7303C35.5609 85.8991 35.7159 88.1683 36.825 85.796C42.8249 90.7525 51.1835 89.2934 52.6698 94.796C51.7757 95.7495 51.3913 94.2241 50.7011 94.1872C50.9792 97.3555 53.7709 98.3831 55.8707 99.6186C61.7428 103.069 67.6816 106.389 73.3605 109.69C73.6734 109.231 73.3654 109.16 73.2773 108.954C80.477 110.771 89.5704 116.623 94.0099 122.51C94.5526 122.137 94.8692 122.861 95.6106 121.511C95.6692 124.953 98.6295 124.552 100.823 125.606C106.438 128.293 110.305 134.909 115.767 136.74C113.571 138.643 116.267 137.317 117.203 137.68C120.946 139.136 124.897 144.249 128.861 146.669C129.428 142.925 123.865 143.203 123.445 139.031C124.19 137.667 124.176 140 124.923 138.633C124.144 133.066 118.045 135.049 117.252 129.521C116.639 129.803 116.797 130.346 115.852 130.655C109.767 128.141 102.761 121.191 96.7254 116.098C96.0109 115.493 94.4592 116.459 93.478 116.024C85.2331 112.358 82.1587 103.256 74.3924 100.129C78.9489 101.086 80.7696 104.304 86.1351 106.443C86.4298 106.525 86.9086 105.702 87.3272 105.173C89.9316 106.93 89.8196 108.956 91.8829 110.2C101.844 116.224 112.38 124.923 125.013 129.14C126.043 129.271 126.175 127.514 127.068 127.07C127.673 130.551 131.842 129.29 131.252 133.901C132.102 133.844 131.612 132.49 131.623 132.097C134.594 131.908 133.49 138.498 137.287 138.528C138.103 136.884 136.879 136.512 137.289 135.118C137.473 134.688 138.685 135.797 138.396 136.525C140.583 134.502 143.109 138.23 144.472 139.817C146.389 137.765 147.972 142.824 150.509 141.034C145.737 136.303 137.579 133.487 133.558 127.217C132.921 127.965 133.096 128.207 133.309 128.421C132.251 128.738 131.71 128.074 132.532 126.547C131.776 125.936 132.092 127.307 131.135 127.68C130.843 126.844 130.862 126.486 130.765 126.074C127.993 126.202 127.16 123.162 125.881 121.515C122.694 118.418 126.699 122.879 128.635 120.585C125.421 116.517 118.862 114.546 116.279 110.458C117.838 108.013 117.012 110.924 118.209 108.992C117.253 107.114 115.241 107.007 114.229 105.704C113.425 107.43 115.44 107.399 113.896 109.586C112.096 108.825 110.726 106.849 109.383 106.63C111.802 103.271 108.46 102.605 106.713 104.887C105.463 105.053 107.223 103.342 106.345 103.28C106.007 103.225 105.484 104.072 105.687 104.214C102.562 102.948 95.5872 99.0283 93.1666 96.026C93.1072 95.5383 93.4887 94.7746 94.0725 93.8861C93.1911 93.8911 93.1345 95.473 92.4268 96.223C91.3364 94.0579 88.8766 94.7728 88.9789 92.6058C90.0674 90.7196 90.3683 92.6451 91.075 92.6088C91.3788 91.4147 90.4103 91.9811 91.9802 90.4715C86.8322 87.7584 85.6317 86.9114 81.5121 83.6249C86.3163 82.3644 87.6288 87.7483 91.777 86.9262C92.6923 89.4112 95.1146 88.7866 96.3754 90.6139C96.9827 90.8491 96.6601 89.6256 97.6914 88.744C98.7043 88.6456 98.1854 89.0065 98.9225 89.5513C99.9479 88.3872 99.1333 88.3696 99.2929 87.7459C100.319 86.6468 99.5612 89.2351 100.854 88.0834C101.143 85.4613 97.2432 88.7864 96.6252 86.0016C97.0927 85.0183 96.2407 85.2757 97.4057 84.4662C96.3228 83.9171 96.4326 82.6222 95.0669 82.2515C94.1636 81.6756 95.5993 81.4229 95.8081 82.0526C97.9378 82.9844 101.475 82.8584 101.347 85.678C103.261 84.7367 102.195 86.8584 103.525 86.4184C103.226 87.294 102.356 88.4903 101.468 88.4877C103.603 92.7586 108.576 93.8206 112.224 96.2022C113.024 92.3993 108.141 94.0925 108.327 90.2404C110.512 90.2332 111.627 91.7717 113.172 92.7275C111.713 94.0413 113.639 95.0062 114.566 95.0048C115.013 95.0022 114.907 94.3523 115.553 93.6018C116.345 95.2636 118.035 94.7476 119.658 96.2865C119.427 97.0435 118.629 98.1539 118.957 98.5613C120.719 95.1681 119.123 100.106 120.929 99.1662C117.159 101.925 119.409 95.9416 116.701 97.082C117.692 100.476 118.765 103.443 122.156 103.383C122.989 102.165 121.626 102.315 123.188 100.642C124.721 101.651 125.018 102.803 126.882 103.059C126.372 103.651 126.094 103.11 125.73 102.99C125.666 106.868 128.789 108.797 131.352 110.76C132.311 110.187 132.318 109.278 132.257 108.622C133.201 107.432 133.601 108.884 134.475 108.024C135.041 115.317 144.162 113.84 144.325 121.29C144.884 120.366 145.55 120.915 146.789 119.491C148.459 120.399 148.913 122.659 151.757 121.376C151.736 124.547 157.345 123.103 155.078 129.007C159.526 126.59 161.01 128.311 163.702 131.232C163.181 131.876 162.972 130.997 162.427 131.766C162.842 133.167 164.365 133.879 165.258 134.984C165.958 133.411 164.418 133.234 163.659 132.571C165.495 130.245 164.956 132.841 166.37 132.976C164.527 138.253 169.373 138.266 171.827 139.278C172.183 138.27 171.014 138.211 171.047 137.405C174.212 136.75 174.42 140.717 176.92 140.561C176.479 141.186 176.042 141.807 175.604 142.431C178.813 146.132 182.325 147.048 186.934 148.476C187.583 148.516 187.198 147.585 188.128 147.207C192.887 150.011 197.357 154.441 203.276 155.067C203.375 154.503 200.98 154.342 202.744 151.99C203.047 153.237 205.136 154.369 204.793 156.744C210.038 159.345 216.574 161.508 222.038 164.611C226.559 167.174 231.823 168.603 236.284 171.196C245.086 176.312 251.221 182.414 258.492 187.767C260.608 189.324 262.237 191.218 262.347 195.066C258.831 198.979 257.686 196.83 254.746 196.921C254.701 198.086 253.963 199.684 254.744 200.334C254.483 200.58 252.968 201.796 253.428 202.204C249.661 206.142 248.122 202.88 245.173 204.99C244.925 207.884 248.309 206.525 249.975 208.814C250.627 207.096 249.936 206.215 249.03 205.468C251.988 204.86 254.261 208.041 255.024 211.433C252.758 212.996 253.43 210.255 250.959 210.822C249.888 213.309 248.325 213.181 247.258 215.228C247.25 216.283 248.102 216.802 248.652 217.506C247.731 217.839 246.468 219.829 245.653 219.639C244.458 221.258 244.722 221.968 244.5 222.981C244.744 223.469 246.669 221.27 246.35 220.778C248.129 219.137 247.369 223.593 249.061 221.183C248.071 223.45 246.663 222.516 245.65 223.051C245.158 224.582 245.857 225.369 245.853 226.595C244.468 227.526 244.2 225.543 243.595 225.118C243.147 225.123 243.254 225.77 242.609 226.521C243.326 228.247 245.332 230.452 246.342 231.01C244.919 233.099 245.918 230.408 244.862 231.41C244.779 233.954 242.199 237.73 239.391 242.164C237.648 242.262 236.958 242.738 235.862 241.218C235.334 241.488 235.137 242.273 234.134 242.82C233.109 245.112 234.894 246.483 235.898 246.703C233.923 248.406 234.146 250.68 234.374 251.85C233.356 253.409 232.786 252.781 231.908 253.65C228.895 259.492 225.322 258.611 222.251 260.983C217.593 259.42 215.113 254.105 210.47 252.597C209.003 252.119 206.871 252.599 205.459 252.049C202.245 250.804 199.607 248.525 196.509 246.88C187.12 241.889 179.28 235.464 169.045 230.966C165.805 229.542 161.6 228.144 158.205 225.924C152.541 222.221 145.8 219.668 142.649 214.384C142.122 214.654 141.903 215.545 141.045 215.385C141.246 212.473 135.913 215.53 137.845 210.561Z" fill="#FFDDDB"/>
<path fill-rule="evenodd" clip-rule="evenodd" d="M304.461 232.15C303.373 233.104 304.449 230.902 303.313 232.065C303.513 233.508 302.336 235.784 303.214 236.814C303.413 235.472 303.938 235.552 304.68 234.36C303.409 235.924 303.245 233.131 304.461 232.15ZM277.098 222.744C276.636 222.598 276.662 223.585 276.225 223.534C273.198 221.608 270.853 217.679 266.316 217.582C264.908 214.273 261.392 213.52 258.91 211.928C257.113 210.777 255.958 208.044 252.609 209.768C255.87 212.459 260.018 214.133 262.258 216.923C266.433 218.161 270.387 221.863 275.426 225.062C275.502 225.537 274.171 226.868 274.498 227.19C275.312 226.307 276.027 225.872 276.647 225.883C283.129 231.096 288.877 234.92 293.091 238.282C293.156 238.787 291.677 241.539 293.107 240.354C293.024 240.099 293.12 238.501 293.703 238.692C295.664 241.457 304.553 244.896 306.015 249.696C305.856 249.444 306.068 248.968 306.276 248.494C309.545 251.199 313.858 251.687 315.313 255.239C313.429 251.151 311.519 246.215 306.668 246.694C307.002 246.23 307.336 245.766 307.67 245.304C305.124 246.879 305.698 242.02 304.673 241.916C299.544 244.678 301.146 238.854 297.949 237.412C295.604 239.642 294.043 236.667 293.745 235.28C288.562 232.18 282.126 228.149 277.098 222.744ZM318.133 253.003C318.534 254.076 317.314 254.254 316.593 254.721C316.323 256.085 317.568 256.484 318.834 256.224C317.133 256.292 319.72 253.194 318.817 254.151C318.475 253.933 317.775 255.36 317.406 255.27C317.973 254.451 318.491 253.859 318.949 253.55C318.024 253.877 319.043 251.842 318.133 253.003ZM320.635 253.307C318.58 258.262 323.743 257.615 324.275 261.25C325.076 260.428 325.711 260.376 326.295 260.542C327.027 261.397 328.385 264.063 330.298 262.536C329.535 262.131 330.245 260.832 329.874 260.191C328.669 261.398 326.711 260.481 326.763 259.476C328.147 257.688 327.144 260.243 328.244 259.097C326.639 258.305 321.879 257.758 320.635 253.307ZM330.371 263.274C331.726 263.538 331.629 266.706 333.761 264.857C332.43 264.981 331.755 262.036 330.371 263.274ZM311.442 252.645C310.87 252.311 309.697 253.05 309.493 254.09C309.93 254.59 310.625 253.898 311.442 252.645ZM316.476 257.399C315.943 258.066 315.315 259.158 314.935 259.116C314.347 258.172 312.537 256.663 311.344 257.392C317.226 263.355 324.498 268.018 328.006 272.002C327.774 271.998 327.595 271.745 327.264 272.194C327.669 273.191 328.626 271.657 329.286 271.484C330.555 274.496 334.346 275.525 335.569 277.877C335.363 278.332 335.675 278.469 335.893 278.664C335.829 278.378 335.699 278.129 335.569 277.877C335.635 277.734 335.753 277.554 335.952 277.328C337.744 279.243 339.213 277.887 338.95 280.714C340.184 278.967 340.476 281.561 341.71 279.817C335.414 273.355 323.801 266.896 317.177 260.617C317.713 259.126 318.721 260.322 318.384 259.361C317.321 260.341 318.297 257.898 317.031 259.143C316.745 262.055 316.127 259.148 316.476 257.399ZM366.55 294.401C367.544 292.764 366.197 293.03 365.326 293.582C365.892 294.194 365.262 295.53 366.491 295.74C367.146 294.995 367.045 294.348 367.493 294.348C368.441 294.467 366.395 296.405 367.51 296.422C368.083 295.572 368.495 295.472 368.791 295.902C370.525 293.26 368.435 292.349 366.55 294.401ZM373.476 299.045C373.488 297.433 371.634 295.927 370.274 295.523C369.103 300.402 374.12 297.562 373.361 301.718C373.864 301.192 374.307 300.947 374.64 301.202C376.489 298.565 374.677 298.593 373.476 299.045ZM363.597 297.24C364.624 297.135 363.568 298.299 363.746 298.71C364.412 297.792 364.725 298.494 365.489 297.129C364.896 296.375 364.983 295.923 363.597 297.24ZM345.73 283.884C350.348 287.09 353.384 291.723 358.971 292.758C355.113 289.796 351.567 286.138 345.73 283.884ZM341.549 276.267C341.654 276.377 341.74 276.499 341.419 276.869C341.088 276.606 340.64 276.874 340.139 277.384C340.637 278.316 341.58 277.2 342.363 276.814C341.665 277.002 342.684 274.97 341.549 276.267ZM343.431 283.717C344.493 282.413 344.892 284.15 345.859 283.282C345.543 282.867 345.987 281.99 346.048 281.344C343.209 282.677 344.513 279.239 341.582 280.414C341.347 282.488 345.621 281.731 343.431 283.717ZM318.129 270.193C318.34 270.616 317.656 270.762 317.127 271.584C318.772 270.898 316.494 273.441 318.015 272.867C317.777 272.324 318.105 271.855 318.815 271.339C318.623 271.072 318.786 269.325 318.129 270.193ZM354.583 302.198C353.935 302.677 353.148 303.792 352.637 303.642C354.205 301.316 351.526 301.05 350.874 303.151C352.271 301.889 353.067 306.461 356.171 306.701C357.345 303.238 355.462 303.731 354.583 302.198ZM364.727 312.438C365.528 312.62 365.546 315.55 366.764 313.803C366.79 313.117 366.301 310.473 364.727 312.438ZM369.487 316.315C369.245 317.327 370.231 317.442 371.042 316.672C370.769 316.005 370.534 315.653 369.487 316.315ZM370.913 317.268C370.647 318.567 372.033 320.223 373.43 319.646C372.485 318.568 372.409 316.749 370.913 317.268ZM249.735 240.162C250.576 241.829 251.41 242.957 252.995 242.346C252.93 241.162 250.909 239.806 249.735 240.162ZM253.606 242.756C253.914 243.114 254.093 244.857 255.235 243.849C255.375 243.219 254.472 241.914 253.606 242.756ZM235.955 231.613C235.175 230.121 233.095 229.961 231.75 229.48C232.696 230.569 233.576 231.627 235.955 231.613ZM243.289 236.529C245.273 237.696 247.187 239.981 249.661 239.426C246.692 238.184 246.181 236.017 243.289 236.529ZM335.189 292.636C334.892 292.271 334.432 289.897 333.023 291.867C334.27 292.078 333.708 293.943 335.189 292.636ZM350.134 303.34C351.248 301.957 350.513 300.795 349.449 302.195C349.14 303.495 350.401 302.228 350.134 303.34ZM365.193 311.371C362.264 311.33 361.845 307.043 358.209 308.067C360.735 309.235 361.198 312.775 365.193 311.371ZM344.153 298.643C346.258 299.405 346.87 303.241 349.916 301.128C347.623 300.754 347.34 295.999 344.153 298.643ZM293.491 272.934C293.696 274.286 295.242 274.822 294.802 276.564C293.602 275.008 290.836 272.155 288.968 273.341C292.281 276.577 296.358 277.736 298.762 281.969C298.549 282.359 298.109 282.887 298.299 283.032C298.743 282.416 299.19 281.795 299.636 281.177C299.745 282.293 301.465 283.813 302.82 282.627C302.341 279.424 299.597 277.49 297.639 276.401C297.544 276.695 298.135 277.751 297.378 277.604C296.659 275.866 295.166 273.223 293.491 272.934ZM307.361 284.294C306.21 284.842 307.034 283.024 305.804 283.936C306.016 284.272 305.224 286.505 306.155 285.546C306.067 285.34 306.196 285 306.617 284.485C306.879 284.712 307.471 284.904 307.361 284.294ZM307.768 284.566C307.322 285.185 306.877 285.803 306.431 286.421C309.46 290.308 312.331 290.942 316.149 294.315C315.354 287.892 309.596 290.013 307.768 284.566ZM316.966 294.86C317.251 296.235 321.731 296.455 319.762 298.107C319.552 298.733 322.511 297.786 322.395 297.81C321.084 296.531 318.817 293.449 316.966 294.86ZM323.616 298.631C323.165 299.271 322.786 299.582 322.409 299.884C322.592 300.464 322.128 302.067 323.428 300.566C323.112 300.151 323.555 299.274 323.616 298.631ZM287.035 276.858C287.576 278.527 289.962 279.073 289.033 281.635C288.7 281.373 288.252 281.644 287.754 282.151C289.701 281.076 286.815 284.439 288.437 283.297C289.51 281.946 291.741 285.334 292.902 284.23C292.58 280.543 290.519 276.875 287.035 276.858ZM278.641 274.671C278.665 279.017 280.699 274.546 282.79 278.138C283.409 275.746 279.586 275.138 282.818 272.652C280.017 274.583 279.07 268.026 276.372 269.019C276.137 270.202 277.248 270.568 276.125 272.293C276.296 271.612 275.308 271.496 274.567 271.94C276.245 272.567 276.57 275.675 278.641 274.671ZM274.698 271.339C274.078 271.33 273.774 269.868 272.938 270.847C273.502 271.561 273.408 272.496 274.698 271.339ZM189.975 226.235C186.736 225.017 187.242 223.489 184.011 223.61C184.824 225.104 187.218 228.432 189.975 226.235ZM173.564 217.982C174.164 218.573 175.474 218.729 175.267 219.812C175.99 217.808 175.027 216.952 173.564 217.982ZM266.605 281.729C268.815 282.698 268.567 285.809 270.809 283.861C269.478 284.433 268.509 279.958 266.605 281.729ZM284.693 297.293C284.359 297.756 284.023 298.222 283.69 298.684C283.7 299.47 285.456 299.576 284.723 301.442C287.008 298.685 287.163 303.23 289.264 303.107C289.73 299.503 285.908 299.878 284.693 297.293ZM290.746 302.728C290.14 306.878 294.777 305.283 293.906 309.661C290.321 307.72 288.509 303.684 283.648 302.096C283.7 302.759 284.55 302.937 284.202 303.842C281.789 303.801 282.006 301.837 282.076 299.665C281.317 301.007 281.009 300.28 280.463 300.647C280.659 299.197 280.799 296.955 278.89 298.217C282.914 307.912 296.66 316.805 303.18 320.689C299.947 316.378 295.97 316.175 294.127 311.869C296.974 310.612 296.021 316.404 299.888 314.357C298.39 314.08 297.66 311.417 296.484 310.697C295.661 312.119 294.558 309.011 296.932 307.562C294.983 306.243 292.041 304.453 290.746 302.728ZM301.591 316.186C303.086 318.885 304.783 318.968 306.887 319.738C305.163 317.451 304.254 314.916 301.591 316.186ZM319.053 329.269C319.641 329.431 320.274 329.381 321.074 328.562C320.493 328.033 320.045 326.078 318.63 326.922C318.491 328.099 319.959 328.3 319.591 328.94C319.45 328.884 319.301 328.848 319.053 329.269ZM322.632 328.915C320.806 331.271 321.589 328.617 320.944 329.16C321.174 329.495 320.352 330.271 319.941 330.551C322.245 330.412 321.385 332.787 324.538 330.881C324.565 332.168 326.531 332.274 325.442 334.239C326.446 333.543 325.848 333.636 326.777 332.386C325.447 331.979 325.491 330.735 325.004 329.817C323.284 332.319 323.1 329.488 322.632 328.915ZM328.073 333.941C329.768 334.344 328.772 336.581 330.056 336.642C329.758 335.606 331.106 333.573 330.431 332.766C329.239 335.586 329.774 332.491 328.073 333.941ZM275.719 298.843C275.47 293.966 271.049 292.971 268.633 290.651C269.011 291.097 268.208 292.203 267.498 292.646C270.153 295.223 272.561 298.115 275.719 298.843ZM313.945 323.781C313.509 323.645 313.974 321.261 313.465 322.769C313.57 322.881 313.655 323.002 313.333 323.372C312.488 323.104 312.323 322.422 312.038 321.815C310.777 323.462 313.257 324.181 313.945 323.781ZM307.871 333.462C307.538 334.973 309.055 333.465 309.632 333.955C309.446 334.212 309.418 334.59 309.834 334.092C310.12 332.409 309.136 332.951 307.871 333.462ZM288.28 218.551C289.773 217.595 288.917 218.12 290.228 217.105C294.848 222.019 297.965 223.99 302.54 228.109C302.229 228.46 302.003 228.433 301.668 228.899C302.413 229.002 304.782 228.051 303.776 231.005C304.211 230.792 304.694 230.366 305.188 229.884C305.373 230.12 304.749 230.847 304.389 231.413C304.617 231.435 304.927 231.083 305.129 231.222C306.043 231.142 304.799 230.352 306.132 229.832C307.293 231.169 305.657 232.947 308.375 231.333C309.151 232.282 308.709 234.401 310.485 233.434C310.721 233.979 310.394 234.448 309.684 234.965C311.803 233.951 311.802 235.896 313.278 236.685C312.697 237.216 312.22 237.256 311.795 237.066C310.81 238.771 313.049 237.483 312.218 239.413C311.261 239.456 310.262 240.466 310.125 239.383C309.475 242.73 313.715 244.31 315.232 244.872C314.351 245.071 313.837 247.434 315.103 245.471C315.159 246.132 314.21 247.404 314.58 247.872C313.706 249.054 313.154 247.899 312.836 249.453C313.434 250.041 314.24 247.455 315.192 248.28C315.391 247.38 314.788 246.965 316.046 245.419C316.271 245.822 316.693 245.314 317.125 244.762C317.224 246.258 314.937 246.1 315.655 247.219C317.003 246.087 318.997 246.739 319.845 247.275C318.879 244.373 315.904 245.158 315.144 242.062C317.291 239.442 317.544 241.724 317.515 242.963C318.12 243.203 317.811 241.978 318.852 241.108C318.871 241.553 320.251 242.237 320.481 242.201C320.421 243.776 318.971 242.816 318.329 243.509C318.683 243.908 319.487 246.573 322.111 243.295C321.725 244.397 320.967 245.726 321.458 246.295C321.666 245.821 321.879 245.346 321.72 245.094C322.998 244.68 320.866 247.636 319.714 247.876C321.153 250.887 326.309 253.643 330.119 256.915C331.976 258.506 334.418 259.921 335.563 261.938C336.277 263.199 340.199 265.376 342.489 266.581C342.662 266.909 341.82 267.857 341.357 268.571C344.589 266.826 344.674 270.93 348.137 271.743C348.319 271.977 347.698 272.703 347.337 273.269C347.571 273.747 349.242 272.429 347.818 274.279C351.828 272.774 353.105 276.827 355.209 277.858C355.504 278.006 356.334 277.25 356.284 277.205C356.677 277.56 356.145 279.361 356.912 279.687C357.812 280.072 357.996 280.47 358.614 281.519C359.173 282.463 360.437 284.207 360.798 284.356C361.082 284.475 361.752 283.378 362.078 283.838C362.339 284.212 361.646 285.069 361.694 285.535C361.88 285.349 363.599 286.322 364.594 286.216C363.065 287.921 367.759 288.372 368.816 290.419C368.021 291.287 367.549 290.917 367.276 292.138C368.921 292.226 370.634 289.864 370.053 293.313C372.367 292.023 372.159 293.465 373.777 294.435C373.112 295.353 372.798 294.65 372.034 296.016C373.569 294.46 372.839 297.093 374.46 295.582C374.585 295.789 374.293 296.236 374.043 296.427C376.437 295.477 377.988 298.072 379.017 299.322C377.873 300.427 377.944 301.066 377.272 300.905C377.409 301.897 378.474 303.303 376.694 304.639C377.383 304.305 377.595 304.445 377.508 305.187C377.979 304.647 378.011 304.372 377.911 304.178C379.667 306.601 382.492 309.592 383.302 311.821C384.245 310.693 383.689 311.682 384.988 311.577C384.534 311.882 384.015 312.477 383.447 313.295C384.033 313.47 385.151 311.18 385.598 311.989C383.438 315.331 387.945 312.994 386.836 314.88C387.13 314.965 387.619 314.148 388.043 313.626C388.339 314.974 388.873 314.854 390.488 315.264C387.415 316.146 390.068 316.489 391.174 316.41C390.546 317.512 390.308 316.809 389.762 317.529C389.477 318.595 390.003 319.668 391.32 317.884C390.655 320.778 391.85 321.521 392.311 324.052C390.034 325.286 388.164 324.459 385.751 323.091C385.302 323.092 385.406 323.738 384.749 324.482C381.072 323.595 379.191 320.221 375.06 320.737C377.797 326.882 384.808 328.505 388.462 333.164C386.211 333.51 385.398 333.39 383.256 332.423C382.481 333.848 384.112 333.812 383.883 334.905C383.034 335.588 382.558 334.557 381.789 334.876C383.469 338.316 386.84 339.301 390.157 342.549C389.139 344.369 389.01 342.098 387.874 344.457C381.931 339.433 373.556 340.797 372.132 335.277C373.037 334.334 373.404 335.864 374.094 335.909C373.852 332.737 371.072 331.678 368.987 330.419C363.154 326.902 357.254 323.514 351.613 320.149C351.295 320.604 351.602 320.679 351.687 320.886C344.509 318.987 335.483 313.032 331.11 307.095C330.564 307.462 330.255 306.734 329.499 308.075C329.479 304.633 326.514 305 324.333 303.922C318.749 301.171 314.958 294.511 309.517 292.618C311.734 290.74 309.024 292.035 308.091 291.662C304.365 290.163 300.473 285.006 296.537 282.541C295.927 286.278 301.493 286.063 301.866 290.239C301.105 291.595 301.146 289.263 300.383 290.621C301.098 296.196 307.22 294.283 307.95 299.82C308.566 299.545 308.414 299 309.362 298.702C315.418 301.285 322.345 308.314 328.322 313.476C329.03 314.089 330.592 313.14 331.569 313.587C339.771 317.346 342.742 326.482 350.472 329.698C345.927 328.688 344.143 325.45 338.802 323.25C338.508 323.165 338.02 323.982 337.595 324.507C335.011 322.72 335.146 320.696 333.097 319.428C323.205 313.291 312.769 304.473 300.185 300.113C299.156 299.97 299.005 301.725 298.106 302.159C297.541 298.671 293.358 299.885 294 295.28C293.15 295.327 293.624 296.687 293.608 297.081C290.636 297.235 291.815 290.658 288.019 290.585C287.183 292.22 288.404 292.606 287.978 293.995C287.788 294.423 286.59 293.3 286.886 292.575C284.677 294.573 282.194 290.817 280.848 289.214C278.909 291.245 277.384 286.168 274.826 287.929C279.544 292.714 287.669 295.623 291.618 301.938C292.264 301.197 292.092 300.953 291.881 300.737C292.943 300.432 293.476 301.102 292.637 302.62C293.386 303.239 293.086 301.865 294.046 301.502C294.329 302.341 294.306 302.7 294.398 303.113C297.172 303.016 297.97 306.066 299.23 307.727C302.381 310.86 298.428 306.354 296.466 308.625C299.633 312.729 306.169 314.775 308.706 318.892C307.119 321.32 307.978 318.418 306.76 320.336C307.693 322.225 309.704 322.355 310.701 323.67C311.525 321.952 309.509 321.961 311.078 319.792C312.87 320.573 314.218 322.564 315.557 322.799C313.1 326.13 316.435 326.834 318.208 324.572C319.46 324.421 317.68 326.111 318.557 326.183C318.895 326.242 319.428 325.401 319.226 325.256C322.337 326.558 329.266 330.557 331.652 333.587C331.706 334.075 331.316 334.834 330.722 335.716C331.603 335.721 331.678 334.14 332.394 333.398C333.46 335.575 335.928 334.889 335.801 337.054C334.691 338.928 334.412 336.999 333.705 337.027C333.387 338.218 334.362 337.663 332.775 339.154C337.892 341.926 339.083 342.786 343.165 346.12C338.347 347.325 337.096 341.927 332.938 342.702C332.051 340.206 329.622 340.803 328.382 338.962C327.777 338.72 328.086 339.947 327.045 340.817C326.031 340.904 326.554 340.549 325.823 339.995C324.784 341.148 325.599 341.175 325.432 341.797C324.393 342.884 325.181 340.304 323.875 341.441C323.557 344.06 327.494 340.779 328.08 343.571C327.601 344.549 328.456 344.301 327.282 345.097C328.358 345.659 328.234 346.952 329.595 347.339C330.492 347.925 329.054 348.161 328.852 347.529C326.733 346.573 323.195 346.659 323.354 343.841C321.43 344.76 322.52 342.651 321.186 343.076C321.494 342.204 322.378 341.017 323.266 341.03C321.18 336.735 316.219 335.616 312.598 333.194C311.755 336.987 316.657 335.35 316.427 339.199C314.242 339.182 313.145 337.63 311.611 336.657C313.085 335.36 311.17 334.373 310.242 334.364C309.796 334.362 309.894 335.013 309.24 335.756C308.467 334.085 306.771 334.582 305.166 333.025C305.406 332.27 306.216 331.169 305.892 330.758C304.092 334.131 305.744 329.211 303.928 330.131C307.729 327.415 305.41 333.372 308.132 332.263C307.179 328.858 306.14 325.879 302.748 325.9C301.902 327.108 303.267 326.974 301.685 328.629C300.164 327.603 299.88 326.447 298.019 326.171C298.536 325.584 298.807 326.128 299.17 326.252C299.278 322.375 296.178 320.411 293.637 318.419C292.671 318.981 292.654 319.89 292.708 320.547C291.75 321.725 291.367 320.27 290.483 321.119C290 313.821 280.863 315.193 280.785 307.742C280.215 308.66 279.556 308.103 278.301 309.513C276.641 308.586 276.213 306.321 273.354 307.572C273.412 304.401 267.786 305.781 270.121 299.903C265.645 302.269 264.181 300.532 261.522 297.58C262.05 296.942 262.249 297.824 262.803 297.06C262.404 295.654 260.89 294.926 260.009 293.811C259.291 295.376 260.829 295.57 261.581 296.241C259.718 298.547 260.286 295.957 258.874 295.806C260.777 290.55 255.932 290.482 253.489 289.442C253.122 290.446 254.29 290.519 254.248 291.324C251.075 291.943 250.913 287.974 248.411 288.102C248.859 287.482 249.303 286.865 249.749 286.247C246.582 282.509 243.08 281.553 238.488 280.073C237.839 280.025 238.213 280.961 237.28 281.328C232.552 278.47 228.134 273.989 222.222 273.296C222.117 273.859 224.509 274.047 222.719 276.379C222.43 275.128 220.354 273.973 220.724 271.602C215.51 268.942 208.998 266.704 203.57 263.539C199.079 260.925 193.831 259.436 189.4 256.792C180.657 251.577 174.591 245.406 167.382 239.97C165.284 238.388 163.677 236.476 163.61 232.627C167.17 228.755 168.291 230.916 171.231 230.859C171.29 229.694 172.047 228.105 171.273 227.446C171.537 227.203 173.065 226.005 172.61 225.592C176.421 221.697 177.923 224.976 180.896 222.9C181.177 220.008 177.778 221.329 176.138 219.021C175.466 220.731 176.147 221.62 177.044 222.378C174.08 222.952 171.843 219.745 171.119 216.344C173.402 214.808 172.7 217.541 175.177 217.002C176.276 214.528 177.837 214.674 178.928 212.638C178.948 211.584 178.101 211.055 177.559 210.345C178.485 210.022 179.77 208.047 180.583 208.246C181.796 206.641 181.541 205.928 181.774 204.917C181.535 204.427 179.585 206.603 179.899 207.099C178.102 208.72 178.912 204.273 177.192 206.663C178.208 204.407 179.605 205.357 180.625 204.834C181.134 203.309 180.444 202.515 180.462 201.288C181.857 200.373 182.102 202.359 182.703 202.791C183.151 202.791 183.052 202.143 183.705 201.399C183.007 199.665 181.026 197.437 180.023 196.868C181.47 194.795 180.44 197.474 181.508 196.485C181.619 193.942 184.243 190.195 187.101 185.793C188.845 185.716 189.54 185.248 190.619 186.78C191.149 186.516 191.355 185.733 192.365 185.197C193.415 182.917 191.646 181.527 190.645 181.295C192.64 179.615 192.442 177.338 192.228 176.166C193.263 174.618 193.827 175.252 194.714 174.394C197.794 168.587 201.356 169.508 204.454 167.171C209.094 168.787 211.513 174.13 216.139 175.691C217.6 176.185 219.738 175.729 221.143 176.295C224.343 177.577 226.955 179.886 230.034 181.566C239.365 186.664 247.132 193.178 257.315 197.792C260.538 199.253 264.727 200.698 268.096 202.957C273.718 206.724 280.43 209.353 283.52 214.674C284.051 214.409 284.28 213.52 285.136 213.69C284.901 216.6 290.269 213.603 288.28 218.551Z" fill="#FFDDDB"/>
<path fill-rule="evenodd" clip-rule="evenodd" d="M272.66 128.098C271.571 129.052 272.648 126.85 271.512 128.013C271.712 129.456 270.535 131.732 271.413 132.762C271.612 131.42 272.136 131.5 272.879 130.308C271.608 131.872 271.444 129.079 272.66 128.098ZM245.297 118.692C244.835 118.546 244.861 119.533 244.424 119.482C241.396 117.556 239.052 113.627 234.515 113.53C233.106 110.221 229.591 109.468 227.108 107.876C225.311 106.725 224.156 103.992 220.808 105.716C224.069 108.407 228.216 110.081 230.457 112.871C234.632 114.109 238.585 117.811 243.625 121.01C243.701 121.485 242.369 122.816 242.697 123.138C243.511 122.255 244.226 121.82 244.846 121.831C251.328 127.044 257.076 130.868 261.29 134.23C261.355 134.735 259.875 137.487 261.306 136.302C261.223 136.047 261.319 134.449 261.901 134.64C263.862 137.405 272.752 140.844 274.213 145.644C274.055 145.392 274.267 144.916 274.474 144.442C277.744 147.147 282.057 147.635 283.511 151.187C281.628 147.099 279.718 142.163 274.867 142.642C275.2 142.178 275.535 141.714 275.868 141.252C273.322 142.827 273.896 137.968 272.872 137.864C267.742 140.626 269.345 134.802 266.147 133.36C263.803 135.59 262.241 132.615 261.944 131.228C256.761 128.128 250.324 124.097 245.297 118.692ZM286.332 148.951C286.733 150.024 285.513 150.202 284.792 150.669C284.522 152.033 285.767 152.432 287.033 152.172C285.332 152.24 287.919 149.142 287.016 150.099C286.674 149.881 285.974 151.308 285.605 151.218C286.172 150.399 286.69 149.807 287.147 149.498C286.223 149.825 287.242 147.79 286.332 148.951ZM288.833 149.255C286.779 154.21 291.941 153.563 292.474 157.198C293.275 156.376 293.909 156.324 294.494 156.49C295.226 157.345 296.584 160.011 298.496 158.484C297.734 158.079 298.444 156.78 298.073 156.139C296.867 157.346 294.91 156.429 294.962 155.424C296.346 153.636 295.343 156.191 296.443 155.045C294.837 154.253 290.078 153.706 288.833 149.255ZM298.57 159.222C299.925 159.486 299.828 162.654 301.959 160.805C300.629 160.929 299.954 157.984 298.57 159.222ZM279.641 148.593C279.068 148.259 277.896 148.998 277.692 150.038C278.128 150.538 278.824 149.846 279.641 148.593ZM284.674 153.347C284.142 154.014 283.513 155.106 283.134 155.064C282.546 154.12 280.736 152.611 279.543 153.34C285.425 159.303 292.697 163.966 296.204 167.95C295.973 167.946 295.793 167.693 295.462 168.142C295.868 169.139 296.825 167.605 297.484 167.432C298.754 170.444 302.544 171.473 303.768 173.825C303.562 174.28 303.874 174.417 304.092 174.612C304.028 174.326 303.897 174.077 303.768 173.825C303.834 173.682 303.952 173.502 304.15 173.276C305.942 175.191 307.412 173.835 307.149 176.662C308.382 174.915 308.675 177.509 309.909 175.765C303.613 169.303 292 162.844 285.376 156.565C285.911 155.074 286.92 156.27 286.583 155.309C285.519 156.289 286.496 153.846 285.23 155.091C284.944 158.003 284.326 155.096 284.674 153.347ZM334.748 190.349C335.742 188.712 334.396 188.978 333.525 189.53C334.091 190.142 333.461 191.478 334.69 191.688C335.345 190.943 335.244 190.296 335.692 190.296C336.64 190.415 334.594 192.353 335.709 192.37C336.282 191.52 336.693 191.42 336.99 191.85C338.724 189.208 336.634 188.297 334.748 190.349ZM341.675 194.993C341.687 193.381 339.833 191.875 338.472 191.471C337.302 196.35 342.318 193.51 341.559 197.666C342.063 197.14 342.506 196.895 342.839 197.15C344.687 194.513 342.876 194.541 341.675 194.993ZM331.796 193.188C332.822 193.083 331.767 194.247 331.945 194.658C332.61 193.74 332.924 194.442 333.687 193.077C333.095 192.323 333.182 191.871 331.796 193.188ZM313.929 179.832C318.547 183.038 321.583 187.671 327.17 188.706C323.312 185.744 319.766 182.086 313.929 179.832ZM309.747 172.215C309.853 172.325 309.939 172.447 309.617 172.817C309.287 172.554 308.839 172.822 308.338 173.332C308.835 174.264 309.779 173.148 310.562 172.762C309.864 172.95 310.882 170.918 309.747 172.215ZM311.63 179.665C312.692 178.361 313.091 180.098 314.058 179.23C313.742 178.815 314.185 177.938 314.247 177.292C311.408 178.625 312.712 175.187 309.781 176.362C309.546 178.436 313.82 177.679 311.63 179.665ZM286.327 166.141C286.539 166.564 285.855 166.71 285.325 167.532C286.971 166.846 284.692 169.389 286.214 168.815C285.976 168.272 286.303 167.803 287.014 167.287C286.822 167.02 286.985 165.273 286.327 166.141ZM322.782 198.146C322.133 198.625 321.347 199.74 320.835 199.59C322.404 197.264 319.724 196.998 319.073 199.099C320.47 197.837 321.266 202.409 324.37 202.649C325.544 199.186 323.661 199.679 322.782 198.146ZM332.926 208.386C333.727 208.568 333.745 211.498 334.962 209.751C334.989 209.065 334.5 206.421 332.926 208.386ZM337.686 212.263C337.443 213.275 338.43 213.39 339.241 212.62C338.968 211.953 338.733 211.601 337.686 212.263ZM339.112 213.216C338.846 214.515 340.231 216.171 341.629 215.594C340.684 214.516 340.608 212.697 339.112 213.216ZM217.934 136.11C218.775 137.777 219.608 138.905 221.193 138.294C221.129 137.11 219.108 135.754 217.934 136.11ZM221.805 138.704C222.112 139.062 222.292 140.805 223.433 139.797C223.574 139.167 222.67 137.862 221.805 138.704ZM204.154 127.561C203.374 126.069 201.294 125.909 199.949 125.428C200.895 126.517 201.774 127.575 204.154 127.561ZM211.488 132.477C213.472 133.644 215.386 135.929 217.86 135.374C214.891 134.132 214.38 131.965 211.488 132.477ZM303.387 188.584C303.091 188.219 302.631 185.845 301.221 187.815C302.469 188.026 301.907 189.891 303.387 188.584ZM318.332 199.288C319.447 197.905 318.711 196.743 317.648 198.143C317.338 199.443 318.6 198.176 318.332 199.288ZM333.392 207.319C330.463 207.278 330.044 202.991 326.408 204.015C328.934 205.183 329.397 208.723 333.392 207.319ZM312.352 194.591C314.457 195.353 315.069 199.189 318.114 197.076C315.821 196.702 315.538 191.947 312.352 194.591ZM261.69 168.882C261.894 170.234 263.441 170.77 263.001 172.512C261.801 170.956 259.035 168.103 257.167 169.289C260.48 172.525 264.557 173.684 266.961 177.917C266.748 178.307 266.308 178.835 266.498 178.98C266.942 178.364 267.389 177.743 267.834 177.125C267.944 178.241 269.664 179.761 271.018 178.575C270.54 175.372 267.795 173.438 265.838 172.349C265.743 172.643 266.334 173.699 265.577 173.552C264.858 171.814 263.365 169.171 261.69 168.882ZM275.559 180.242C274.409 180.79 275.232 178.972 274.003 179.884C274.215 180.22 273.423 182.453 274.354 181.494C274.266 181.288 274.395 180.948 274.816 180.433C275.078 180.66 275.67 180.852 275.559 180.242ZM275.966 180.514C275.521 181.133 275.075 181.751 274.629 182.369C277.659 186.256 280.53 186.89 284.348 190.263C283.553 183.84 277.795 185.961 275.966 180.514ZM285.164 190.808C285.45 192.183 289.929 192.403 287.96 194.055C287.751 194.681 290.71 193.734 290.593 193.758C289.283 192.479 287.015 189.397 285.164 190.808ZM291.814 194.579C291.363 195.219 290.985 195.53 290.608 195.832C290.791 196.412 290.326 198.015 291.627 196.514C291.311 196.099 291.754 195.222 291.814 194.579ZM255.234 172.806C255.775 174.475 258.161 175.021 257.232 177.583C256.899 177.321 256.45 177.592 255.953 178.099C257.899 177.024 255.014 180.387 256.636 179.245C257.708 177.894 259.939 181.282 261.1 180.178C260.779 176.491 258.718 172.823 255.234 172.806ZM246.84 170.619C246.864 174.965 248.898 170.494 250.988 174.086C251.607 171.694 247.784 171.086 251.016 168.6C248.216 170.531 247.269 163.974 244.57 164.967C244.336 166.15 245.447 166.516 244.324 168.241C244.494 167.56 243.506 167.444 242.766 167.888C244.444 168.515 244.769 171.623 246.84 170.619ZM242.897 167.287C242.277 167.278 241.973 165.816 241.137 166.795C241.701 167.509 241.607 168.444 242.897 167.287ZM158.173 122.183C154.935 120.965 155.441 119.437 152.209 119.558C153.023 121.052 155.417 124.38 158.173 122.183ZM141.763 113.93C142.363 114.521 143.673 114.677 143.466 115.76C144.189 113.756 143.226 112.9 141.763 113.93ZM234.804 177.677C237.013 178.646 236.766 181.757 239.008 179.809C237.677 180.381 236.707 175.906 234.804 177.677ZM252.892 193.241C252.558 193.704 252.222 194.17 251.889 194.632C251.899 195.418 253.655 195.524 252.922 197.39C255.207 194.633 255.361 199.178 257.463 199.055C257.928 195.451 254.107 195.826 252.892 193.241ZM258.945 198.676C258.339 202.826 262.976 201.231 262.105 205.609C258.52 203.668 256.707 199.632 251.847 198.044C251.898 198.707 252.749 198.885 252.401 199.79C249.987 199.749 250.204 197.785 250.275 195.613C249.515 196.955 249.208 196.228 248.661 196.595C248.858 195.145 248.998 192.903 247.089 194.165C251.113 203.86 264.859 212.753 271.378 216.637C268.145 212.326 264.169 212.123 262.326 207.817C265.172 206.56 264.22 212.352 268.087 210.305C266.589 210.028 265.859 207.365 264.683 206.645C263.86 208.067 262.757 204.959 265.131 203.51C263.182 202.191 260.239 200.401 258.945 198.676ZM269.79 212.134C271.285 214.833 272.982 214.916 275.086 215.686C273.362 213.399 272.453 210.864 269.79 212.134ZM287.252 225.217C287.84 225.379 288.473 225.329 289.273 224.51C288.691 223.981 288.244 222.026 286.828 222.87C286.69 224.047 288.158 224.248 287.79 224.888C287.649 224.832 287.5 224.796 287.252 225.217ZM290.831 224.863C289.005 227.219 289.788 224.565 289.142 225.108C289.373 225.443 288.551 226.219 288.14 226.499C290.444 226.36 289.584 228.735 292.736 226.829C292.764 228.116 294.73 228.222 293.641 230.187C294.645 229.491 294.047 229.584 294.976 228.334C293.646 227.927 293.69 226.683 293.202 225.765C291.483 228.267 291.298 225.436 290.831 224.863ZM296.272 229.889C297.967 230.292 296.971 232.529 298.254 232.59C297.957 231.554 299.305 229.521 298.63 228.714C297.438 231.534 297.973 228.439 296.272 229.889ZM243.918 194.791C243.669 189.914 239.248 188.919 236.831 186.599C237.21 187.045 236.407 188.151 235.697 188.594C238.352 191.171 240.76 194.063 243.918 194.791ZM282.143 219.729C281.708 219.593 282.173 217.209 281.664 218.717C281.768 218.829 281.853 218.95 281.532 219.32C280.686 219.052 280.522 218.37 280.237 217.763C278.976 219.41 281.456 220.129 282.143 219.729ZM276.069 229.41C275.737 230.921 277.254 229.413 277.83 229.903C277.645 230.16 277.617 230.538 278.033 230.04C278.319 228.357 277.334 228.899 276.069 229.41ZM256.479 114.499C257.972 113.543 257.116 114.068 258.427 113.053C263.047 117.967 266.164 119.938 270.739 124.057C270.428 124.408 270.202 124.381 269.867 124.847C270.612 124.95 272.981 123.999 271.975 126.953C272.41 126.74 272.893 126.314 273.387 125.832C273.572 126.068 272.948 126.795 272.588 127.361C272.816 127.383 273.125 127.031 273.328 127.17C274.241 127.09 272.998 126.3 274.331 125.78C275.492 127.117 273.855 128.895 276.573 127.281C277.349 128.23 276.908 130.349 278.683 129.382C278.919 129.927 278.593 130.396 277.883 130.913C280.002 129.899 280.001 131.844 281.477 132.633C280.896 133.164 280.419 133.204 279.994 133.014C279.008 134.719 281.248 133.431 280.417 135.361C279.46 135.404 278.461 136.414 278.324 135.331C277.673 138.678 281.914 140.258 283.431 140.82C282.549 141.019 282.035 143.382 283.302 141.419C283.357 142.08 282.409 143.352 282.779 143.82C281.904 145.002 281.352 143.847 281.035 145.401C281.632 145.989 282.438 143.403 283.391 144.228C283.59 143.328 282.986 142.913 284.245 141.367C284.47 141.77 284.892 141.262 285.324 140.71C285.423 142.206 283.136 142.048 283.853 143.167C285.202 142.035 287.195 142.687 288.044 143.223C287.078 140.321 284.103 141.106 283.343 138.01C285.489 135.39 285.743 137.672 285.714 138.911C286.319 139.151 286.01 137.926 287.051 137.056C287.069 137.501 288.45 138.185 288.68 138.149C288.62 139.724 287.169 138.764 286.528 139.457C286.882 139.856 287.686 142.521 290.31 139.243C289.924 140.345 289.166 141.674 289.657 142.243C289.865 141.769 290.077 141.294 289.919 141.042C291.197 140.628 289.065 143.584 287.913 143.824C289.352 146.835 294.507 149.591 298.317 152.863C300.174 154.454 302.617 155.869 303.762 157.886C304.476 159.147 308.398 161.324 310.688 162.529C310.861 162.857 310.019 163.805 309.556 164.519C312.787 162.774 312.872 166.878 316.335 167.691C316.518 167.925 315.897 168.651 315.536 169.217C315.77 169.695 317.441 168.377 316.016 170.227C320.027 168.722 321.304 172.775 323.408 173.806C323.702 173.954 324.532 173.198 324.483 173.153C324.876 173.508 324.344 175.309 325.111 175.635C326.011 176.02 326.195 176.418 326.813 177.467C327.372 178.411 328.636 180.155 328.997 180.304C329.28 180.423 329.951 179.326 330.277 179.786C330.537 180.16 329.845 181.017 329.893 181.483C330.079 181.297 331.798 182.27 332.793 182.164C331.264 183.869 335.957 184.32 337.014 186.367C336.22 187.235 335.748 186.865 335.475 188.086C337.12 188.174 338.833 185.812 338.252 189.261C340.566 187.971 340.358 189.413 341.975 190.383C341.31 191.301 340.996 190.598 340.233 191.964C341.768 190.408 341.037 193.041 342.659 191.53C342.784 191.737 342.492 192.184 342.241 192.375C344.636 191.425 346.187 194.02 347.216 195.27C346.072 196.375 346.143 197.014 345.471 196.853C345.608 197.845 346.673 199.251 344.893 200.587C345.582 200.253 345.794 200.393 345.707 201.135C346.178 200.595 346.209 200.32 346.11 200.126C347.866 202.549 350.69 205.54 351.501 207.769C352.444 206.641 351.888 207.63 353.187 207.525C352.733 207.83 352.214 208.425 351.646 209.243C352.231 209.418 353.35 207.128 353.797 207.937C351.637 211.279 356.144 208.942 355.035 210.828C355.329 210.913 355.818 210.096 356.241 209.574C356.538 210.922 357.072 210.802 358.687 211.212C355.614 212.094 358.267 212.437 359.372 212.358C358.745 213.46 358.507 212.757 357.961 213.477C357.676 214.543 358.202 215.616 359.519 213.832C358.854 216.726 360.049 217.469 360.51 220C358.233 221.234 356.362 220.407 353.95 219.039C353.501 219.04 353.604 219.686 352.948 220.43C349.271 219.543 347.389 216.169 343.259 216.685C345.996 222.83 353.007 224.453 356.661 229.112C354.41 229.458 353.597 229.338 351.454 228.371C350.679 229.796 352.31 229.76 352.082 230.853C351.233 231.536 350.757 230.505 349.988 230.824C351.668 234.264 355.039 235.249 358.356 238.497C357.338 240.317 357.209 238.046 356.073 240.405C350.129 235.381 341.755 236.745 340.331 231.225C341.236 230.282 341.603 231.812 342.293 231.857C342.051 228.685 339.271 227.626 337.185 226.367C331.353 222.85 325.452 219.462 319.811 216.097C319.493 216.552 319.8 216.627 319.886 216.834C312.708 214.935 303.681 208.98 299.309 203.043C298.762 203.41 298.454 202.682 297.697 204.023C297.678 200.581 294.713 200.948 292.532 199.87C286.948 197.119 283.157 190.459 277.715 188.566C279.933 186.688 277.222 187.983 276.29 187.61C272.564 186.111 268.672 180.954 264.736 178.489C264.126 182.226 269.691 182.011 270.065 186.187C269.304 187.543 269.344 185.211 268.582 186.569C269.297 192.144 275.419 190.231 276.149 195.768C276.765 195.493 276.613 194.948 277.561 194.65C283.617 197.233 290.544 204.262 296.521 209.424C297.228 210.037 298.791 209.088 299.767 209.535C307.97 213.294 310.94 222.43 318.671 225.646C314.125 224.636 312.341 221.398 307.001 219.198C306.707 219.113 306.219 219.93 305.794 220.455C303.21 218.668 303.345 216.644 301.296 215.376C291.404 209.239 280.968 200.421 268.384 196.061C267.355 195.918 267.204 197.673 266.305 198.107C265.74 194.619 261.557 195.833 262.199 191.228C261.349 191.275 261.823 192.635 261.807 193.029C258.834 193.183 260.013 186.606 256.217 186.533C255.382 188.168 256.602 188.554 256.177 189.943C255.987 190.371 254.789 189.248 255.085 188.523C252.876 190.521 250.392 186.765 249.047 185.162C247.107 187.193 245.582 182.116 243.025 183.877C247.743 188.662 255.868 191.571 259.817 197.886C260.462 197.145 260.29 196.901 260.08 196.685C261.142 196.38 261.675 197.05 260.836 198.568C261.585 199.187 261.284 197.813 262.245 197.45C262.527 198.289 262.505 198.648 262.597 199.061C265.371 198.964 266.168 202.014 267.428 203.675C270.58 206.808 266.626 202.302 264.665 204.573C267.832 208.677 274.368 210.723 276.905 214.84C275.318 217.268 276.177 214.366 274.958 216.284C275.892 218.173 277.903 218.303 278.9 219.618C279.724 217.9 277.708 217.909 279.277 215.74C281.069 216.521 282.416 218.512 283.756 218.747C281.299 222.078 284.633 222.782 286.407 220.52C287.658 220.369 285.879 222.059 286.756 222.131C287.094 222.19 287.626 221.349 287.425 221.204C290.535 222.506 297.465 226.505 299.851 229.535C299.905 230.023 299.515 230.782 298.921 231.664C299.802 231.669 299.877 230.088 300.593 229.346C301.659 231.523 304.126 230.837 303.999 233.002C302.89 234.876 302.611 232.947 301.904 232.975C301.586 234.166 302.561 233.611 300.974 235.102C306.091 237.874 307.282 238.734 311.364 242.068C306.545 243.273 305.294 237.875 301.137 238.65C300.25 236.154 297.821 236.751 296.581 234.91C295.976 234.668 296.285 235.895 295.244 236.765C294.23 236.852 294.753 236.497 294.022 235.943C292.983 237.096 293.798 237.123 293.631 237.745C292.592 238.832 293.38 236.252 292.074 237.389C291.755 240.008 295.692 236.727 296.279 239.519C295.8 240.497 296.655 240.249 295.481 241.045C296.557 241.607 296.433 242.9 297.794 243.287C298.691 243.873 297.252 244.109 297.051 243.477C294.932 242.521 291.393 242.607 291.553 239.789C289.628 240.708 290.719 238.599 289.384 239.024C289.693 238.152 290.576 236.965 291.464 236.978C289.378 232.683 284.418 231.564 280.796 229.142C279.953 232.935 284.856 231.298 284.625 235.147C282.441 235.13 281.344 233.578 279.81 232.605C281.283 231.308 279.368 230.321 278.441 230.312C277.994 230.31 278.093 230.961 277.439 231.704C276.666 230.033 274.97 230.53 273.364 228.973C273.604 228.218 274.414 227.117 274.091 226.706C272.291 230.079 273.943 225.159 272.127 226.079C275.928 223.363 273.609 229.32 276.33 228.211C275.378 224.806 274.339 221.827 270.947 221.848C270.101 223.056 271.465 222.922 269.884 224.577C268.362 223.551 268.078 222.395 266.218 222.119C266.735 221.532 267.006 222.076 267.369 222.2C267.477 218.323 264.377 216.359 261.836 214.367C260.87 214.929 260.853 215.838 260.907 216.495C259.949 217.673 259.566 216.218 258.682 217.067C258.199 209.769 249.062 211.141 248.984 203.69C248.414 204.608 247.754 204.051 246.5 205.461C244.839 204.534 244.412 202.269 241.553 203.52C241.61 200.349 235.985 201.729 238.319 195.851C233.844 198.217 232.379 196.48 229.721 193.528C230.249 192.89 230.448 193.772 231.002 193.008C230.603 191.602 229.088 190.874 228.207 189.759C227.49 191.324 229.028 191.518 229.78 192.189C227.917 194.495 228.485 191.905 227.073 191.754C228.976 186.498 224.13 186.43 221.688 185.39C221.321 186.394 222.488 186.467 222.447 187.272C219.274 187.891 219.112 183.922 216.61 184.05C217.058 183.43 217.502 182.813 217.947 182.195C214.781 178.457 211.279 177.501 206.687 176.021C206.038 175.973 206.412 176.909 205.479 177.276C200.751 174.418 196.332 169.937 190.421 169.244C190.315 169.807 192.708 169.995 190.917 172.327C190.629 171.076 188.553 169.921 188.923 167.55C183.708 164.89 177.197 162.652 171.769 159.487C167.277 156.873 162.03 155.384 157.598 152.74C148.856 147.525 142.79 141.354 135.581 135.918C133.482 134.336 131.875 132.424 131.809 128.575C135.369 124.703 136.49 126.864 139.43 126.807C139.488 125.642 140.245 124.053 139.471 123.394C139.736 123.151 141.264 121.953 140.809 121.54C144.62 117.645 146.122 120.924 149.095 118.848C149.376 115.956 145.976 117.277 144.337 114.969C143.665 116.679 144.346 117.568 145.243 118.326C142.279 118.9 140.042 115.693 139.318 112.292C141.601 110.756 140.899 113.489 143.375 112.95C144.475 110.476 146.036 110.622 147.127 108.586C147.146 107.532 146.3 107.003 145.758 106.293C146.683 105.97 147.969 103.995 148.781 104.194C149.995 102.589 149.739 101.876 149.972 100.865C149.734 100.375 147.784 102.551 148.097 103.047C146.3 104.668 147.11 100.221 145.391 102.611C146.407 100.355 147.804 101.305 148.823 100.782C149.333 99.2571 148.643 98.4625 148.661 97.2357C150.056 96.3206 150.301 98.3073 150.902 98.7385C151.35 98.7391 151.251 98.0906 151.904 97.347C151.206 95.6133 149.225 93.3854 148.222 92.8158C149.669 90.7431 148.639 93.4223 149.707 92.4332C149.818 89.89 152.442 86.1431 155.3 81.7412C157.044 81.664 157.739 81.1959 158.818 82.7276C159.348 82.4635 159.554 81.6813 160.564 81.1454C161.614 78.8651 159.845 77.4745 158.844 77.243C160.838 75.5627 160.641 73.286 160.427 72.1135C161.462 70.5659 162.025 71.2003 162.913 70.3418C165.992 64.5345 169.555 65.4559 172.653 63.1194C177.292 64.7352 179.712 70.0777 184.338 71.6388C185.799 72.1335 187.937 71.6775 189.341 72.2431C192.541 73.5247 195.154 75.834 198.232 77.5138C207.564 82.6115 215.331 89.1258 225.514 93.7401C228.737 95.2009 232.926 96.646 236.295 98.9048C241.917 102.672 248.628 105.301 251.719 110.622C252.249 110.357 252.478 109.468 253.335 109.638C253.1 112.548 258.468 109.551 256.479 114.499Z" fill="#FFDDDB"/>
<path fill-rule="evenodd" clip-rule="evenodd" d="M132.937 269.16C134.017 268.196 132.96 270.408 134.085 269.234C133.873 267.794 135.029 265.507 134.142 264.485C133.955 265.829 133.43 265.753 132.698 266.952C133.955 265.377 134.144 268.168 132.937 269.16ZM160.384 278.319C160.847 278.461 160.812 277.474 161.249 277.521C164.294 279.42 166.674 283.327 171.212 283.383C172.65 286.679 176.172 287.401 178.669 288.97C180.476 290.105 181.656 292.828 184.989 291.073C181.703 288.412 177.541 286.775 175.276 284.005C171.089 282.806 167.103 279.139 162.035 275.986C161.954 275.511 163.274 274.169 162.944 273.849C162.138 274.739 161.426 275.181 160.806 275.176C154.277 270.022 148.495 266.25 144.251 262.926C144.182 262.421 145.636 259.656 144.217 260.853C144.302 261.108 144.22 262.707 143.636 262.521C141.65 259.774 132.73 256.415 131.225 251.628C131.386 251.879 131.178 252.357 130.975 252.833C127.682 250.158 123.364 249.708 121.877 246.17C123.798 250.241 125.752 255.159 130.599 254.637C130.269 255.104 129.939 255.571 129.61 256.035C132.141 254.438 131.611 259.301 132.637 259.396C137.741 256.589 136.191 262.426 139.402 263.84C141.726 261.588 143.314 264.549 143.625 265.934C148.835 268.987 155.308 272.96 160.384 278.319ZM119.077 248.431C118.667 247.361 119.885 247.172 120.602 246.699C120.859 245.332 119.611 244.945 118.348 245.217C120.047 245.133 117.489 248.254 118.383 247.289C118.727 247.504 119.414 246.071 119.783 246.158C119.224 246.982 118.712 247.578 118.257 247.891C119.178 247.556 118.178 249.6 119.077 248.431ZM116.573 248.15C118.583 243.177 113.426 243.87 112.861 240.24C112.067 241.069 111.434 241.126 110.848 240.966C110.108 240.117 108.726 237.464 106.827 239.009C107.593 239.407 106.895 240.712 107.272 241.35C108.466 240.131 110.432 241.031 110.389 242.036C109.022 243.836 110.001 241.273 108.912 242.428C110.524 243.206 115.289 243.71 116.573 248.15ZM106.747 238.271C105.39 238.02 105.458 234.851 103.343 236.718C104.673 236.583 105.374 239.522 106.747 238.271ZM125.772 248.729C126.347 249.058 127.512 248.308 127.707 247.266C127.266 246.77 126.577 247.469 125.772 248.729ZM120.695 244.021C121.221 243.349 121.84 242.251 122.22 242.289C122.816 243.228 124.64 244.721 125.827 243.981C119.891 238.072 112.577 233.474 109.034 229.522C109.265 229.524 109.447 229.775 109.774 229.323C109.359 228.33 108.417 229.873 107.759 230.051C106.462 227.051 102.662 226.056 101.418 223.715C101.62 223.259 101.306 223.125 101.087 222.932C101.153 223.217 101.286 223.465 101.418 223.715C101.353 223.859 101.236 224.04 101.04 224.268C99.2308 222.369 97.7736 223.739 98.0114 220.909C96.7936 222.667 96.4772 220.076 95.2594 221.831C101.614 228.235 113.284 234.59 119.965 240.809C119.443 242.305 118.423 241.117 118.769 242.076C119.824 241.086 118.869 243.538 120.124 242.281C120.384 239.367 121.028 242.268 120.695 244.021ZM70.2893 207.471C69.3101 209.117 70.6544 208.84 71.5198 208.28C70.9485 207.672 71.5668 206.33 70.336 206.132C69.6872 206.883 69.7945 207.529 69.3464 207.533C68.3973 207.422 70.426 205.466 69.3109 205.46C68.7451 206.314 68.3348 206.418 68.0344 205.991C66.3239 208.648 68.4227 209.541 70.2893 207.471ZM63.3212 202.89C63.3236 204.502 65.1911 205.992 66.5552 206.383C67.6821 201.493 62.6912 204.379 63.4126 200.216C62.9138 200.747 62.4732 200.996 62.1381 200.743C60.3133 203.397 62.1246 203.353 63.3212 202.89ZM73.2162 204.606C72.1906 204.72 73.2357 203.547 73.0541 203.137C72.3966 204.061 72.0769 203.362 71.3256 204.734C71.9252 205.482 71.8419 205.936 73.2162 204.606ZM91.2029 217.801C86.5562 214.636 83.4787 210.03 77.8827 209.046C81.7668 211.973 85.3458 215.599 91.2029 217.801ZM95.4529 225.379C95.3465 225.27 95.2591 225.149 95.5775 224.776C95.9106 225.036 96.3558 224.764 96.8519 224.249C96.3463 223.323 95.413 224.447 94.6332 224.84C95.3298 224.645 94.3296 226.686 95.4529 225.379ZM93.5032 217.946C92.4533 219.26 92.0384 217.527 91.079 218.404C91.399 218.816 90.9633 219.696 90.9076 220.343C93.7347 218.984 92.4621 222.434 95.3819 221.233C95.5983 219.156 91.331 219.952 93.5032 217.946ZM118.927 231.242C118.712 230.821 119.394 230.669 119.916 229.841C118.277 230.543 120.532 227.979 119.016 228.567C119.259 229.108 118.936 229.58 118.23 230.102C118.424 230.368 118.277 232.116 118.927 231.242ZM82.1852 199.567C82.8291 199.083 83.6058 197.96 84.1183 198.106C82.571 200.446 85.2527 200.687 85.8852 198.581C84.4997 199.855 83.6626 195.291 80.5565 195.079C79.4139 198.552 81.2919 198.042 82.1852 199.567ZM71.9492 189.419C71.1468 189.244 71.1022 186.314 69.9004 188.072C69.8799 188.759 70.393 191.398 71.9492 189.419ZM67.1546 185.585C67.3876 184.571 66.3998 184.465 65.5961 185.242C65.8752 185.906 66.1133 186.256 67.1546 185.585ZM65.7194 184.644C65.974 183.343 64.5735 181.7 63.1817 182.289C64.1358 183.359 64.2284 185.177 65.7194 184.644ZM187.588 260.655C186.732 258.995 185.889 257.875 184.309 258.5C184.384 259.683 186.417 261.021 187.588 260.655ZM183.694 258.096C183.383 257.74 183.188 255.999 182.056 257.018C181.921 257.648 182.836 258.946 183.694 258.096ZM201.445 269.079C202.238 270.564 204.32 270.705 205.669 271.174C204.713 270.094 203.824 269.044 201.445 269.079ZM194.067 264.23C192.072 263.08 190.138 260.813 187.669 261.39C190.649 262.605 191.18 264.768 194.067 264.23ZM101.665 208.954C101.965 209.316 102.446 211.686 103.838 209.703C102.588 209.503 103.134 207.634 101.665 208.954ZM86.624 198.384C85.5221 199.778 86.2681 200.933 87.319 199.524C87.6166 198.221 86.3667 199.499 86.624 198.384ZM71.493 190.49C74.4219 190.504 74.8798 194.788 78.5063 193.731C75.9699 192.585 75.4752 189.05 71.493 190.49ZM92.6469 203.028C90.535 202.284 89.8881 198.455 86.8621 200.594C89.1582 200.948 89.4842 205.7 92.6469 203.028ZM143.538 228.278C143.322 226.929 141.77 226.406 142.194 224.661C143.409 226.205 146.2 229.033 148.057 227.831C144.716 224.625 140.628 223.503 138.186 219.292C138.396 218.9 138.831 218.368 138.64 218.224C138.201 218.845 137.76 219.469 137.32 220.092C137.2 218.976 135.467 217.472 134.123 218.67C134.63 221.869 137.392 223.778 139.36 224.849C139.452 224.554 138.851 223.504 139.609 223.644C140.344 225.375 141.861 228.005 143.538 228.278ZM129.567 217.044C130.713 216.486 129.906 218.311 131.127 217.388C130.912 217.054 131.684 214.814 130.761 215.782C130.851 215.987 130.725 216.328 130.309 216.847C130.045 216.622 129.451 216.435 129.567 217.044ZM129.158 216.776C129.598 216.153 130.037 215.531 130.478 214.909C127.414 211.049 124.537 210.442 120.688 207.103C121.541 213.518 127.28 211.346 129.158 216.776ZM119.867 206.566C119.569 205.193 115.088 205.013 117.042 203.344C117.246 202.716 114.296 203.69 114.412 203.665C115.733 204.932 118.029 207.993 119.867 206.566ZM113.183 202.855C113.629 202.21 114.004 201.896 114.378 201.59C114.19 201.012 114.64 199.405 113.353 200.918C113.673 201.33 113.238 202.211 113.183 202.855ZM149.959 224.296C149.402 222.632 147.012 222.108 147.918 219.538C148.253 219.797 148.699 219.522 149.192 219.011C147.255 220.103 150.11 216.714 148.499 217.87C147.438 219.231 145.177 215.863 144.026 216.978C144.381 220.662 146.474 224.311 149.959 224.296ZM158.372 226.408C158.309 222.062 156.315 226.551 154.193 222.978C153.595 225.376 157.424 225.949 154.214 228.464C156.997 226.508 158.004 233.057 160.692 232.039C160.917 230.854 159.802 230.498 160.91 228.763C160.745 229.446 161.734 229.553 162.47 229.102C160.787 228.49 160.434 225.385 158.372 226.408ZM162.345 229.704C162.965 229.707 163.282 231.167 164.11 230.181C163.539 229.471 163.624 228.535 162.345 229.704ZM247.472 274.042C250.722 275.231 250.229 276.763 253.459 276.613C252.632 275.126 250.208 271.82 247.472 274.042ZM263.957 282.147C263.351 281.562 262.04 281.417 262.237 280.332C261.532 282.342 262.503 283.19 263.957 282.147ZM170.344 219.242C168.126 218.293 168.345 215.18 166.121 217.148C167.447 216.563 168.457 221.03 170.344 219.242ZM152.116 203.842C152.447 203.375 152.778 202.906 153.107 202.442C153.09 201.655 151.333 201.565 152.049 199.692C149.789 202.47 149.593 197.927 147.493 198.069C147.06 201.676 150.878 201.268 152.116 203.842ZM146.015 198.461C146.583 194.305 141.961 195.943 142.792 191.557C146.395 193.466 148.243 197.485 153.118 199.03C153.061 198.366 152.208 198.197 152.548 197.288C154.962 197.308 154.763 199.273 154.712 201.446C155.459 200.097 155.774 200.821 156.316 200.449C156.133 201.901 156.013 204.144 157.911 202.865C153.799 193.207 139.974 184.438 133.42 180.613C136.691 184.895 140.669 185.061 142.551 189.351C139.716 190.633 140.617 184.833 136.768 186.915C138.268 187.178 139.022 189.835 140.205 190.545C141.015 189.115 142.146 192.213 139.785 193.683C141.746 194.985 144.705 196.748 146.015 198.461ZM135.048 185.101C133.529 182.416 131.832 182.349 129.721 181.597C131.465 183.869 132.397 186.395 135.048 185.101ZM117.469 172.176C116.88 172.02 116.248 172.076 115.455 172.902C116.041 173.426 116.506 175.377 117.914 174.52C118.042 173.342 116.572 173.154 116.934 172.51C117.076 172.565 117.225 172.599 117.469 172.176ZM113.894 172.563C115.698 170.191 114.939 172.851 115.58 172.302C115.346 171.97 116.161 171.186 116.57 170.902C114.267 171.062 115.106 168.679 111.97 170.614C111.932 169.328 109.964 169.239 111.036 167.264C110.038 167.969 110.635 167.871 109.718 169.13C111.051 169.525 111.019 170.769 111.514 171.682C113.211 169.165 113.421 171.994 113.894 172.563ZM108.408 167.587C106.709 167.198 107.685 164.952 106.401 164.903C106.708 165.936 105.378 167.981 106.06 168.782C107.227 165.951 106.72 169.051 108.408 167.587ZM161.076 202.21C161.369 207.085 165.799 208.04 168.236 210.338C167.854 209.896 168.647 208.782 169.353 208.333C166.675 205.78 164.241 202.91 161.076 202.21ZM122.627 177.618C123.064 177.75 122.62 180.138 123.116 178.626C123.01 178.515 122.924 178.395 123.242 178.022C124.09 178.283 124.261 178.962 124.551 179.567C125.798 177.908 123.311 177.212 122.627 177.618ZM128.613 167.883C128.932 166.369 127.429 167.891 126.848 167.405C127.032 167.147 127.056 166.768 126.644 167.27C126.374 168.957 127.353 168.405 128.613 167.883ZM149.24 282.613C147.756 283.582 148.607 283.049 147.305 284.076C142.641 279.204 139.506 277.261 134.894 273.183C135.202 272.829 135.429 272.855 135.759 272.385C135.013 272.289 132.653 273.262 133.632 270.299C133.199 270.515 132.72 270.946 132.23 271.432C132.043 271.198 132.661 270.466 133.016 269.897C132.787 269.876 132.481 270.231 132.277 270.093C131.365 270.182 132.615 270.961 131.286 271.493C130.114 270.166 131.734 268.374 129.031 270.012C128.246 269.07 128.668 266.948 126.902 267.931C126.661 267.388 126.983 266.915 127.688 266.393C125.579 267.425 125.563 265.48 124.079 264.704C124.655 264.168 125.132 264.124 125.559 264.31C126.529 262.596 124.301 263.905 125.115 261.967C126.071 261.915 127.061 260.897 127.208 261.979C127.828 258.626 123.573 257.084 122.051 256.535C122.931 256.329 123.424 253.961 122.175 255.935C122.114 255.275 123.051 253.995 122.677 253.529C123.54 252.34 124.103 253.49 124.406 251.933C123.803 251.35 123.021 253.944 122.06 253.128C121.87 254.029 122.477 254.439 121.232 255.996C121.004 255.595 120.586 256.107 120.159 256.662C120.047 255.168 122.336 255.305 121.608 254.192C120.27 255.337 118.27 254.703 117.417 254.175C118.409 257.067 121.377 256.256 122.165 259.345C120.042 261.984 119.768 259.704 119.786 258.465C119.179 258.231 119.499 259.452 118.466 260.332C118.443 259.887 117.057 259.216 116.827 259.253C116.872 257.679 118.332 258.625 118.967 257.926C118.609 257.531 117.781 254.873 115.187 258.174C115.563 257.069 116.309 255.734 115.813 255.169C115.609 255.644 115.401 256.122 115.562 256.373C114.288 256.797 116.393 253.823 117.542 253.573C116.077 250.574 110.896 247.865 107.057 244.627C105.186 243.053 102.731 241.661 101.567 239.654C100.842 238.399 96.9005 236.258 94.5995 235.073C94.4237 234.747 95.2573 233.792 95.7138 233.073C92.4982 234.847 92.3762 230.744 88.906 229.962C88.7213 229.73 89.3357 228.998 89.6915 228.43C89.4534 227.953 87.794 229.286 89.202 227.424C85.2054 228.965 83.8921 224.924 81.7786 223.912C81.4827 223.766 80.6597 224.53 80.7096 224.575C80.3133 224.222 80.8292 222.417 80.0592 222.098C79.156 221.721 78.9681 221.325 78.3406 220.282C77.7734 219.343 76.4932 217.61 76.131 217.464C75.8467 217.348 75.1863 218.451 74.8559 217.994C74.5921 217.622 75.2771 216.759 75.2247 216.293C75.0404 216.481 73.3128 215.523 72.3183 215.638C73.8323 213.92 69.1347 213.511 68.0593 211.474C68.8458 210.599 69.3213 210.964 69.5831 209.741C67.9379 209.668 66.2462 212.045 66.7955 208.591C64.4936 209.902 64.6887 208.458 63.0622 207.503C63.719 206.579 64.0392 207.279 64.7906 205.906C63.2692 207.476 63.9763 204.837 62.3686 206.362C62.2413 206.156 62.5294 205.706 62.7785 205.513C60.3924 206.484 58.8184 203.904 57.7779 202.663C58.9119 201.548 58.8352 200.909 59.5085 201.065C59.3629 200.074 58.2847 198.677 60.0527 197.326C59.3667 197.666 59.1536 197.527 59.2343 196.785C58.7675 197.329 58.7388 197.605 58.8402 197.798C57.0621 195.39 54.211 192.425 53.3806 190.203C52.4475 191.339 52.9948 190.345 51.6968 190.462C52.148 190.153 52.6614 189.554 53.222 188.731C52.6351 188.562 51.5375 190.861 51.0827 190.056C53.2124 186.694 48.7267 189.072 49.8187 187.176C49.5241 187.094 49.0428 187.915 48.6238 188.441C48.3154 187.096 47.7826 187.22 46.1634 186.825C49.2282 185.916 46.5726 185.597 45.4678 185.685C46.0857 184.578 46.3298 185.278 46.8689 184.554C47.1444 183.485 46.6088 182.417 45.3081 184.213C45.9468 181.313 44.7453 180.581 44.2611 178.054C46.5274 176.799 48.4051 177.61 50.8295 178.956C51.2789 178.951 51.1696 178.306 51.819 177.556C55.5039 178.409 57.4159 181.767 61.542 181.213C58.7492 175.093 51.7241 173.533 48.0281 168.908C50.2761 168.541 51.0896 168.654 53.241 169.602C54.0032 168.17 52.3726 168.221 52.5914 167.126C53.4343 166.435 53.9193 167.461 54.6856 167.135C52.9746 163.711 49.5944 162.757 46.2483 159.539C47.2502 157.71 47.3998 159.979 48.5145 157.61C54.5027 162.58 62.8647 161.141 64.3381 166.647C63.4417 167.598 63.0609 166.072 62.3708 166.034C62.6414 169.203 65.4307 170.237 67.5276 171.477C73.3915 174.942 79.3225 178.275 84.9935 181.59C85.3074 181.132 84.9997 181.06 84.912 180.853C92.1074 182.688 101.187 188.561 105.613 194.458C106.156 194.087 106.471 194.812 107.216 193.464C107.266 196.906 110.227 196.512 112.418 197.57C118.027 200.271 121.878 206.896 127.336 208.74C125.136 210.638 127.834 209.318 128.77 209.683C132.509 211.148 136.448 216.27 140.406 218.699C140.982 214.957 135.419 215.223 135.008 211.049C135.757 209.687 135.737 212.019 136.487 210.655C135.722 205.086 129.618 207.054 128.838 201.524C128.224 201.805 128.381 202.349 127.436 202.655C121.356 200.127 114.366 193.16 108.343 188.053C107.63 187.446 106.076 188.409 105.096 187.971C96.8598 184.286 93.8069 175.177 86.048 172.031C90.6022 173 92.4153 176.221 97.7758 178.373C98.0703 178.456 98.551 177.634 98.9708 177.106C101.571 178.87 101.454 180.895 103.515 182.144C113.461 188.192 123.977 196.915 136.6 201.161C137.63 201.295 137.765 199.538 138.66 199.096C139.257 202.579 143.429 201.328 142.828 205.938C143.678 205.883 143.191 204.527 143.203 204.134C146.175 203.953 145.055 210.54 148.852 210.579C149.672 208.937 148.448 208.562 148.861 207.169C149.047 206.739 150.256 207.852 149.966 208.579C152.157 206.561 154.674 210.295 156.034 211.885C157.955 209.837 159.526 214.9 162.068 213.116C157.307 208.374 149.155 205.538 145.15 199.259C144.511 200.005 144.685 200.248 144.898 200.462C143.838 200.777 143.3 200.111 144.125 198.587C143.37 197.974 143.683 199.345 142.726 199.716C142.436 198.88 142.455 198.521 142.359 198.11C139.587 198.231 138.761 195.188 137.486 193.539C134.307 190.434 138.301 194.904 140.242 192.616C137.038 188.54 130.483 186.554 127.91 182.46C129.474 180.018 128.642 182.927 129.843 180.998C128.892 179.118 126.88 179.006 125.872 177.7C125.063 179.425 127.079 179.398 125.53 181.582C123.731 180.816 122.365 178.838 121.023 178.615C123.45 175.262 120.11 174.588 118.357 176.865C117.107 177.028 118.871 175.322 117.993 175.258C117.655 175.202 117.13 176.048 117.333 176.191C114.21 174.917 107.245 170.981 104.832 167.973C104.774 167.485 105.157 166.722 105.743 165.835C104.861 165.838 104.801 167.42 104.092 168.168C103.006 166 100.545 166.709 100.652 164.543C101.745 162.659 102.042 164.585 102.748 164.551C103.055 163.357 102.085 163.921 103.659 162.415C98.5169 159.69 97.3184 158.84 93.2066 155.544C98.0138 154.295 99.3135 159.682 103.464 158.87C104.373 161.357 106.797 160.738 108.053 162.568C108.66 162.805 108.34 161.581 109.374 160.701C110.387 160.605 109.867 160.965 110.603 161.512C111.631 160.35 110.817 160.33 110.978 159.707C112.007 158.61 111.242 161.197 112.538 160.048C112.833 157.427 108.925 160.743 108.314 157.957C108.784 156.974 107.931 157.23 109.098 156.423C108.017 155.871 108.129 154.577 106.765 154.203C105.863 153.625 107.299 153.375 107.506 154.006C109.634 154.942 113.171 154.825 113.037 157.644C114.953 156.707 113.882 158.826 115.212 158.39C114.912 159.264 114.039 160.459 113.151 160.454C115.276 164.73 120.246 165.804 123.889 168.194C124.698 164.393 119.811 166.075 120.006 162.223C122.191 162.221 123.302 163.762 124.845 164.721C123.383 166.032 125.307 167.001 126.234 167.002C126.681 167.001 126.576 166.35 127.224 165.601C128.012 167.265 129.703 166.753 131.322 168.296C131.089 169.052 130.289 170.161 130.616 170.569C132.386 167.18 130.779 172.114 132.586 171.178C128.81 173.928 131.074 167.95 128.363 169.084C129.346 172.481 130.412 175.45 133.804 175.398C134.639 174.182 133.276 174.329 134.843 172.66C136.373 173.672 136.667 174.825 138.531 175.085C138.019 175.676 137.743 175.135 137.379 175.014C137.306 178.892 140.424 180.828 142.982 182.797C143.943 182.226 143.952 181.317 143.892 180.661C144.839 179.474 145.236 180.926 146.112 180.069C146.661 187.362 155.785 185.908 155.93 193.357C156.492 192.435 157.156 192.986 158.398 191.564C160.067 192.476 160.515 194.738 163.362 193.461C163.333 196.632 168.946 195.201 166.665 201.1C171.119 198.694 172.599 200.418 175.284 203.345C174.762 203.988 174.554 203.108 174.007 203.877C174.419 205.279 175.94 205.994 176.831 207.1C177.535 205.529 175.995 205.349 175.237 204.684C177.079 202.362 176.535 204.957 177.948 205.096C176.092 210.368 180.938 210.393 183.39 211.41C183.748 210.404 182.58 210.341 182.614 209.536C185.781 208.888 185.979 212.856 188.48 212.705C188.038 213.329 187.599 213.949 187.159 214.572C190.359 218.281 193.869 219.205 198.475 220.644C199.124 220.686 198.742 219.754 199.672 219.378C204.425 222.194 208.884 226.634 214.801 227.274C214.902 226.71 212.507 226.543 214.277 224.196C214.577 225.444 216.663 226.58 216.314 228.955C221.553 231.568 228.085 233.746 233.541 236.862C238.056 239.436 243.316 240.877 247.771 243.481C256.561 248.617 262.682 254.733 269.94 260.104C272.052 261.666 273.677 263.564 273.777 267.412C270.253 271.317 269.113 269.166 266.173 269.249C266.125 270.414 265.382 272.01 266.162 272.662C265.9 272.908 264.383 274.12 264.842 274.529C261.066 278.458 259.534 275.192 256.58 277.295C256.325 280.189 259.713 278.838 261.373 281.131C262.03 279.415 261.34 278.532 260.437 277.783C263.395 277.182 265.661 280.368 266.416 283.762C264.147 285.319 264.825 282.58 262.353 283.141C261.276 285.625 259.713 285.494 258.641 287.539C258.631 288.593 259.482 289.114 260.03 289.819C259.108 290.151 257.84 292.138 257.026 291.945C255.827 293.562 256.089 294.272 255.865 295.285C256.108 295.773 258.038 293.579 257.72 293.087C259.503 291.449 258.733 295.903 260.431 293.498C259.435 295.763 258.029 294.825 257.015 295.357C256.519 296.887 257.216 297.676 257.209 298.903C255.822 299.83 255.559 297.846 254.955 297.42C254.507 297.423 254.612 298.071 253.965 298.821C254.679 300.548 256.68 302.758 257.688 303.318C256.26 305.404 257.266 302.716 256.207 303.714C256.118 306.258 253.529 310.029 250.71 314.456C248.967 314.549 248.276 315.024 247.183 313.502C246.656 313.77 246.457 314.555 245.452 315.099C244.422 317.389 246.204 318.764 247.207 318.986C245.228 320.684 245.446 322.959 245.67 324.13C244.649 325.687 244.08 325.057 243.2 325.924C240.173 331.759 236.602 330.869 233.526 333.234C228.872 331.66 226.404 326.34 221.765 324.82C220.299 324.339 218.166 324.814 216.756 324.261C213.544 323.008 210.911 320.723 207.818 319.071C198.441 314.057 190.615 307.613 180.391 303.091C177.155 301.66 172.953 300.252 169.563 298.024C163.908 294.307 157.173 291.739 154.034 286.447C153.507 286.716 153.286 287.607 152.428 287.445C152.636 284.533 147.296 287.578 149.24 282.613Z" fill="#FFDDDB"/>
</svg>
