<svg width="54" height="54" viewBox="0 0 54 54" fill="none" xmlns="http://www.w3.org/2000/svg">
<circle cx="27" cy="27" r="26.5" transform="matrix(-1 0 0 1 54 0)" stroke="currentColor"/>
<path d="M18.1833 27.3174C18.1835 27.3176 18.1837 27.3178 18.1839 27.318L21.4496 30.568C21.6943 30.8115 22.09 30.8106 22.3335 30.5659C22.577 30.3212 22.5761 29.9255 22.3314 29.682L20.1388 27.5L33.375 27.5C33.7202 27.5 34 27.2202 34 26.875C34 26.5298 33.7202 26.25 33.375 26.25L20.1388 26.25L22.3314 24.068C22.5761 23.8245 22.577 23.4288 22.3335 23.1841C22.09 22.9394 21.6942 22.9386 21.4496 23.182L18.1838 26.432C18.1837 26.4322 18.1835 26.4324 18.1833 26.4326C17.9385 26.6769 17.9393 27.0739 18.1833 27.3174Z" fill="#505050"/>
</svg>
