<svg width="23" height="26" viewBox="0 0 23 26" fill="none" xmlns="http://www.w3.org/2000/svg">
<path fill-rule="evenodd" clip-rule="evenodd" d="M4.54532 0H18.1407C18.7038 0 19.1865 0.488478 19.1865 1.05837V3.01228C24.1741 3.82641 23.6914 12.5376 18.6233 12.619C17.4971 15.0614 15.3251 16.5268 12.9921 17.0153V21.3302H14.7619C15.0837 21.3302 15.3251 21.6559 15.4055 21.9815L16.21 25.1566C16.2904 25.4823 15.8882 25.8079 15.5664 25.8079H7.20003C6.7978 25.8079 6.39557 25.4823 6.47602 25.1566L7.28048 21.9815C7.44137 21.6559 7.60226 21.3302 8.00449 21.3302H9.69385V17.0153C7.36092 16.5268 5.18888 15.0614 4.06264 12.619C-1.00545 12.5376 -1.48812 3.82641 3.49952 3.01228V1.05837C3.49952 0.488478 3.9822 0 4.54532 0ZM11.705 4.15206L12.5095 6.51304H15.0837C15.9686 6.51304 15.9686 6.75728 15.2446 7.24576L13.2335 8.71119L14.0379 11.235C14.2793 12.0491 14.0379 12.1305 13.3944 11.6421L11.3832 10.1766L9.29162 11.6421C8.56761 12.212 8.48717 12.0491 8.7285 11.235L9.53296 8.79261L7.44137 7.24576C6.71736 6.75728 6.87825 6.51304 7.68271 6.59446H10.1765L10.981 4.07065C11.2223 3.25652 11.4637 3.33793 11.705 4.15206ZM19.1865 10.9908V4.55913C21.8412 5.37326 21.8412 10.1766 19.1865 10.9908ZM3.49952 10.9908V4.55913C0.844807 5.37326 0.844807 10.1766 3.49952 10.9908Z" fill="url(#paint0_linear_1_288)"/>
<defs>
<linearGradient id="paint0_linear_1_288" x1="11.343" y1="0" x2="11.343" y2="25.8079" gradientUnits="userSpaceOnUse">
<stop stop-color="#FD8C4D"/>
<stop offset="1" stop-color="#FD6C4D"/>
</linearGradient>
</defs>
</svg>
