<svg width="82" height="68" viewBox="0 0 82 68" fill="none" xmlns="http://www.w3.org/2000/svg">
<g id="Icon" clip-path="url(#clip0_5_252)">
<g id="Group">
<path id="Vector" fill-rule="evenodd" clip-rule="evenodd" d="M45.4209 44.3817C42.8255 44.3817 40.23 44.6412 37.8942 45.4198L30.1079 27.771C29.8484 28.0305 29.8484 28.2901 29.8484 28.2901L29.3293 29.0687L28.2911 28.8092C28.2911 28.8092 28.0316 28.8092 27.772 28.8092L35.5583 46.1985C29.8484 48.5343 25.4361 52.687 23.3598 58.1374C24.1384 58.3969 24.9171 58.916 25.1766 59.6946C25.4361 59.9542 25.6957 60.4732 26.2148 60.7328C26.9934 60.9923 27.772 60.9923 28.5506 60.7328C29.0697 60.4732 29.3293 59.9542 29.5888 59.6946C30.627 57.3587 33.7415 57.3587 34.7797 59.6946C35.0392 59.9542 35.2987 60.4732 35.8178 60.7328C36.5965 60.9923 37.3751 60.9923 38.1537 60.7328C38.6728 60.4732 38.9323 59.9542 39.1919 59.6946C40.23 57.3587 43.3446 57.3587 44.6423 59.6946C44.6423 59.9542 45.1614 60.4732 45.4209 60.7328C46.1995 60.9923 47.2377 60.9923 47.7568 60.7328C48.2759 60.4732 48.5354 59.9542 48.7949 59.6946C50.0927 57.3587 52.9476 57.3587 54.2453 59.6946C54.5049 59.9542 54.7644 60.4732 55.024 60.7328C55.8026 60.9923 56.8408 60.9923 57.3598 60.7328C57.8789 60.4732 58.1385 59.9542 58.398 59.6946C59.6957 57.3587 62.5507 57.3587 63.8484 59.6946C64.1079 59.9542 64.3675 60.4732 64.627 60.7328C65.4056 60.9923 66.4438 60.9923 67.2224 60.7328C67.482 60.4732 67.7415 60.2137 68.0011 59.6946C65.4056 50.8702 56.3217 44.3817 45.4209 44.3817Z" fill="#FF7B29"/>
<path id="Vector_2" d="M81.5011 62.0307C82.2798 60.4734 80.2034 58.9162 79.4248 60.4734C78.9057 61.252 78.3866 61.7711 77.608 62.2902C76.3103 63.0688 74.753 63.0688 73.4553 62.2902C72.6767 61.7711 72.1576 61.252 71.8981 60.4734C71.379 59.6948 70.0813 59.6948 69.8217 60.4734C69.3027 61.252 68.7836 61.7711 68.005 62.2902C66.7072 63.0688 65.15 63.0688 63.8523 62.2902C63.0737 61.7711 62.5546 61.252 62.0355 60.4734C61.7759 59.6948 60.4782 59.6948 59.9592 60.4734C59.6996 61.252 59.1805 61.7711 58.4019 62.2902C57.1042 63.0688 55.5469 63.0688 54.2492 62.2902C53.4706 61.7711 52.9515 61.252 52.4324 60.4734C52.1729 59.6948 50.8752 59.6948 50.3561 60.4734C50.0966 61.252 49.5775 61.7711 48.7988 62.2902C47.5011 63.0688 45.9439 63.0688 44.6462 62.2902C43.8675 61.7711 43.3485 61.252 42.8294 60.4734C42.3103 59.6948 41.2721 59.6948 40.753 60.4734C40.4935 61.252 39.7149 61.7711 39.1958 62.2902C37.8981 63.0688 36.0813 63.0688 34.7836 62.2902C34.2645 61.7711 33.7454 61.252 33.2263 60.4734C32.7072 59.6948 31.6691 59.6948 31.15 60.4734C30.6309 61.252 30.1118 61.7711 29.5927 62.2902C28.295 63.0688 26.4782 63.0688 25.1805 62.2902C24.6614 61.7711 24.1424 61.252 23.6233 60.4734C23.1042 59.6948 22.066 59.6948 21.5469 60.4734C21.0279 61.252 20.5088 61.7711 19.9897 62.2902C18.692 63.0688 16.8752 63.0688 15.5775 62.2902C15.0584 61.7711 14.2798 61.252 14.0202 60.4734C13.5011 59.6948 12.463 59.6948 11.9439 60.4734C11.4248 61.252 10.9057 61.7711 10.3866 62.2902C9.08892 63.0688 7.27213 63.0688 5.97442 62.2902C5.45533 61.7711 4.67671 61.252 4.41716 60.4734C3.379 58.9162 1.5622 60.4734 2.34083 62.0307C2.85991 63.0688 3.89808 64.107 4.93625 64.6261C7.01258 65.9238 9.34846 65.9238 11.4248 64.6261C11.9439 64.3665 12.463 63.8475 12.982 63.3284C13.5011 63.8475 14.0202 64.3665 14.5393 64.6261C16.6156 65.9238 18.9515 65.9238 21.0279 64.6261C21.5469 64.3665 22.066 63.8475 22.5851 63.3284C23.1042 63.8475 23.6233 64.3665 24.1424 64.6261C26.2187 65.9238 28.5546 65.9238 30.6309 64.6261C31.15 64.3665 31.6691 63.8475 32.1882 63.3284C32.7072 63.8475 33.2263 64.3665 33.7454 64.6261C35.8217 65.9238 38.1576 65.9238 40.234 64.6261C40.753 64.3665 41.2721 63.8475 41.7912 63.3284C42.3103 63.8475 42.8294 64.3665 43.3485 64.6261C45.4248 65.9238 48.0202 65.9238 50.0966 64.6261C50.6156 64.3665 51.1347 63.8475 51.3943 63.3284C51.9133 63.8475 52.4324 64.3665 52.9515 64.6261C55.0279 65.9238 57.6233 65.9238 59.6996 64.6261C60.2187 64.3665 60.7378 63.8475 60.9973 63.3284C61.5164 63.8475 62.0355 64.3665 62.5546 64.6261C64.6309 65.9238 67.2263 65.9238 69.3027 64.6261C69.8217 64.3665 70.3408 63.8475 70.8599 63.3284C71.1195 63.8475 71.6385 64.3665 72.1576 64.6261C74.234 65.9238 76.8294 65.9238 78.9057 64.6261C79.9439 64.107 80.7225 63.0688 81.5011 62.0307Z" fill="#FF7B29"/>
<path id="Vector_3" fill-rule="evenodd" clip-rule="evenodd" d="M42.5692 21.0229C42.8287 20.5038 43.0882 20.2443 43.3478 19.7252C45.6837 17.3893 49.0577 15.8321 52.4317 15.8321C53.2104 15.8321 54.2485 15.8321 55.0272 16.0916V15.8321C49.3172 3.11452 34.7829 -2.85494 21.0272 1.29773C25.1798 2.07636 28.8134 3.89315 32.1875 6.22903C36.0806 9.60307 39.9737 15.0535 42.5692 21.0229Z" fill="#FF7B29"/>
<path id="Vector_4" fill-rule="evenodd" clip-rule="evenodd" d="M14.0173 4.41235C1.81881 11.6795 -3.37203 26.733 2.33789 39.4505C2.59744 38.6719 3.11652 38.1528 3.89515 37.3742C6.23102 35.0383 9.60507 33.4811 12.9791 33.4811C13.4982 33.2215 13.7577 33.4811 14.2768 33.4811C11.6814 27.5116 10.1242 21.023 10.3837 16.0917C10.6432 11.9391 11.9409 8.04594 14.0173 4.41235Z" fill="#FF7B29"/>
<path id="Vector_5" fill-rule="evenodd" clip-rule="evenodd" d="M17.3904 2.59546C14.2759 6.74813 12.7187 11.1603 12.1996 16.0916C11.9401 21.0229 13.4973 26.9924 16.0927 32.7023C16.3523 32.1832 16.6118 31.9237 16.8714 31.6642C19.2072 29.0687 22.5813 27.5115 25.9553 27.5115C26.9935 27.5115 27.7721 27.5115 28.5507 27.771C29.0698 26.9924 29.5889 26.2138 30.108 25.6947C32.4439 23.0993 36.0775 21.8016 39.192 21.542C39.7111 21.542 40.2301 21.542 40.7492 21.542C38.4133 16.0916 34.7798 10.9008 30.8866 7.7863C27.253 4.67179 22.5813 3.11454 17.3904 2.59546Z" fill="#FF7B29"/>
</g>
</g>
<defs>
<clipPath id="clip0_5_252">
<rect width="81.4962" height="68" fill="white"/>
</clipPath>
</defs>
</svg>
