<svg width="23" height="27" viewBox="0 0 23 27" fill="none" xmlns="http://www.w3.org/2000/svg">
<path d="M22.7469 15.6159L20.6001 12.3146C20.4886 12.1171 20.4329 11.8914 20.405 11.6657C20.0425 7.6026 16.892 4.35779 12.8772 3.96277C12.9609 4.80924 12.6263 5.65571 11.9851 6.22003L10.5631 7.43331L11.0092 9.26733C11.2044 10.0574 11.0092 10.8756 10.5074 11.5246C10.0055 12.1453 9.25276 12.5404 8.44422 12.5404C7.97025 12.5404 7.49628 12.4275 7.07807 12.1736L5.48888 11.186L3.92757 12.1736C3.87181 12.23 3.78817 12.2582 3.70453 12.2864C3.70453 12.3428 3.70453 12.3711 3.70453 12.4275C3.70453 15.2209 5.01491 17.9296 7.07807 19.7072C7.329 19.9329 7.4684 20.215 7.4684 20.5536V26.0275C7.4684 26.4225 7.77509 26.7329 8.13753 26.7611H15.3586C15.8047 26.7893 16.1671 26.4507 16.1671 26.0275V22.5852C16.1671 22.3594 16.3623 22.1901 16.5575 22.1901H19.0667C19.8474 22.1901 20.4607 21.5412 20.4607 20.7794V17.337C20.4607 17.196 20.5723 17.0549 20.7395 17.0549H21.9663C22.7191 17.0831 23.1651 16.2366 22.7469 15.6159Z" fill="url(#paint0_linear_1_296)"/>
<path d="M5.96357 9.26182L8.08248 10.5597C8.66797 10.9265 9.42074 10.3905 9.25346 9.71327L8.66797 7.28672C8.61221 7.00456 8.69585 6.69419 8.9189 6.49668L10.8148 4.86016C11.3445 4.40871 11.0657 3.53402 10.3687 3.47759L7.88732 3.28008C7.60852 3.25187 7.32971 3.08257 7.21819 2.80041L6.27025 0.486722C5.99145 -0.162241 5.09928 -0.162241 4.82047 0.486722L3.87254 2.80041C3.76102 3.08257 3.51009 3.25187 3.20341 3.28008L0.722051 3.47759C0.02504 3.50581 -0.253764 4.3805 0.275964 4.83195L2.17183 6.46846C2.39488 6.66597 2.47852 6.97634 2.42276 7.2585L1.83727 9.71327C1.66999 10.3905 2.42276 10.9265 3.00825 10.5597L5.12716 9.26182C5.40596 9.12074 5.71265 9.12074 5.96357 9.26182Z" fill="url(#paint1_linear_1_296)"/>
<defs>
<linearGradient id="paint0_linear_1_296" x1="13.3061" y1="3.96277" x2="13.3061" y2="26.7627" gradientUnits="userSpaceOnUse">
<stop stop-color="#FD8C4D"/>
<stop offset="1" stop-color="#FD6C4D"/>
</linearGradient>
<linearGradient id="paint1_linear_1_296" x1="5.54536" y1="0" x2="5.54536" y2="10.6789" gradientUnits="userSpaceOnUse">
<stop stop-color="#FD8C4D"/>
<stop offset="1" stop-color="#FD6C4D"/>
</linearGradient>
</defs>
</svg>
