<svg width="14" height="14" viewBox="0 0 14 14" fill="none" xmlns="http://www.w3.org/2000/svg">
<path d="M7 7.4375C7.9665 7.4375 8.75 6.654 8.75 5.6875C8.75 4.721 7.9665 3.9375 7 3.9375C6.0335 3.9375 5.25 4.721 5.25 5.6875C5.25 6.654 6.0335 7.4375 7 7.4375Z" stroke="#676A6C" stroke-width="1.2" stroke-linecap="round" stroke-linejoin="round"/>
<path d="M11.375 5.6875C11.375 9.625 7 12.6875 7 12.6875C7 12.6875 2.625 9.625 2.625 5.6875C2.625 4.52718 3.08594 3.41438 3.90641 2.59391C4.72688 1.77344 5.83968 1.3125 7 1.3125C8.16032 1.3125 9.27312 1.77344 10.0936 2.59391C10.9141 3.41438 11.375 4.52718 11.375 5.6875V5.6875Z" stroke="#676A6C" stroke-width="1.2" stroke-linecap="round" stroke-linejoin="round"/>
</svg>
