<svg width="68" height="68" viewBox="0 0 68 68" fill="none" xmlns="http://www.w3.org/2000/svg">
<g id="Icon">
<g id="Group">
<path id="Vector" d="M67.7457 57.7575C67.3737 57.3113 66.7044 57.2475 66.2581 57.63C63.9312 59.5957 60.5525 59.5957 58.2044 57.6194C55.6862 55.4838 52.2225 55.08 49.3431 56.4082L56.2707 32.1619C56.4194 31.6413 56.1537 31.0888 55.6438 30.8869L34.3937 22.3869C34.1388 22.2913 33.8625 22.2913 33.6075 22.3869L12.3575 30.8869C11.8475 31.0888 11.5818 31.6413 11.7306 32.1619L18.6581 56.4082C15.7787 55.08 12.315 55.4838 9.78626 57.6194C7.45939 59.585 4.08058 59.585 1.7537 57.6194C1.29683 57.2369 0.627451 57.3006 0.255602 57.7469C-0.126883 58.1932 -0.073771 58.8625 0.372461 59.245C3.49622 61.88 8.03311 61.88 11.1569 59.245C13.4837 57.2794 16.8731 57.2794 19.2 59.245C19.3912 59.4044 19.5931 59.5638 19.795 59.7019C19.8056 59.7125 19.8162 59.7232 19.8268 59.7338C19.8906 59.7763 19.965 59.8187 20.0394 59.8613C22.8444 61.6994 26.4675 61.6675 29.2512 59.7869C29.5063 59.6275 29.7506 59.4469 29.9843 59.245C31.1425 58.2675 32.5662 57.7788 33.9794 57.7681C33.99 57.7681 33.99 57.7788 34.0006 57.7788C34.0113 57.7788 34.0113 57.7681 34.0219 57.7681C35.435 57.7788 36.8588 58.2675 38.0168 59.245C38.2506 59.4469 38.495 59.6275 38.7394 59.7869C41.5444 61.6888 45.21 61.6994 48.0256 59.8187C48.0894 59.7869 48.1425 59.7444 48.1956 59.7125C48.4081 59.5638 48.61 59.4044 48.8013 59.245C51.1281 57.2794 54.5069 57.2794 56.8444 59.2557C58.4062 60.5731 60.3188 61.2319 62.2419 61.2319C64.1544 61.2319 66.0669 60.5731 67.6182 59.2557C68.075 58.8732 68.1281 58.2038 67.7457 57.7575ZM35.0631 55.7175C34.3618 55.6325 33.6393 55.6325 32.9381 55.7175V32.9375C32.9381 32.3531 33.4163 31.875 34.0006 31.875C34.585 31.875 35.0631 32.3531 35.0631 32.9375V55.7175Z" fill="#FF7B29"/>
</g>
<g id="Group_2">
<path id="Vector_2" d="M67.6182 66.0344C66.0669 67.3413 64.1544 68 62.2419 68C60.3188 68 58.4062 67.3413 56.8444 66.0238C54.5069 64.0582 51.1281 64.0582 48.8013 66.0238C45.6775 68.6587 41.1406 68.6587 38.0168 66.0238C35.69 64.0582 32.3112 64.0582 29.9843 66.0238C26.8606 68.6587 22.3238 68.6587 19.2 66.0238C16.8731 64.0582 13.4837 64.0582 11.1569 66.0238C8.03311 68.6587 3.50685 68.6587 0.372461 66.0238C-0.073771 65.6413 -0.126883 64.9719 0.255602 64.5257C0.62745 64.0794 1.29683 64.0156 1.7537 64.3981C4.08058 66.3638 7.45939 66.3638 9.78626 64.3981C12.91 61.7631 17.4468 61.7631 20.5706 64.3981C22.8975 66.3638 26.2762 66.3638 28.6137 64.3981C31.7269 61.7631 36.2638 61.7631 39.3875 64.3981C41.7144 66.3638 45.1038 66.3638 47.4306 64.3981C50.5544 61.7631 55.0912 61.7631 58.2044 64.3981C60.5525 66.3638 63.9312 66.3638 66.2581 64.4087C66.7044 64.0263 67.3737 64.09 67.7457 64.5362C68.1281 64.9825 68.075 65.6519 67.6182 66.0344Z" fill="#FF7B29"/>
</g>
<g id="Group_3">
<path id="Vector_3" d="M34 20.1876C34.3931 20.1876 34.7756 20.2619 35.1369 20.4001L54.1875 28.0182V25.7754H54.1878V19.1222C54.1878 18.5354 53.7126 18.0597 53.1253 18.0597C52.5381 18.0597 52.0628 18.5354 52.0628 19.1222V23.7917L34.3931 16.7238C34.1381 16.6282 33.8619 16.6282 33.6069 16.7238L15.9378 23.7915V19.1222C15.9378 18.5354 15.4626 18.0597 14.8753 18.0597C14.288 18.0597 13.8128 18.5354 13.8128 19.1222V25.3598C13.8128 25.3605 13.8125 25.3612 13.8125 25.3619V28.0182L32.8206 20.4107C33.2244 20.2619 33.6069 20.1876 34 20.1876Z" fill="#FF7B29"/>
</g>
<g id="Group_4">
<path id="Vector_4" d="M34 14.5244C34.3931 14.5244 34.7756 14.5987 35.1369 14.7369L48.875 20.2301V18.1386H48.8753V12.7472C48.8753 12.1604 48.4001 11.6847 47.8128 11.6847C47.2256 11.6847 46.7503 12.1604 46.7503 12.7472V16.1417L35.0625 11.4666V2.125H37.1875C37.7719 2.125 38.25 1.64686 38.25 1.0625C38.25 0.478138 37.7719 0 37.1875 0H30.8125C30.2281 0 29.75 0.478138 29.75 1.0625C29.75 1.64686 30.2281 2.125 30.8125 2.125H32.9375V11.4666L21.2503 16.1414V12.7472C21.2503 12.1604 20.7751 11.6847 20.1878 11.6847C19.6005 11.6847 19.1253 12.1604 19.1253 12.7472V17.7098C19.1253 17.7105 19.125 17.7112 19.125 17.7119V20.2301L32.8206 14.7475C33.2244 14.5987 33.6069 14.5244 34 14.5244Z" fill="#FF7B29"/>
</g>
</g>
</svg>
