<svg width="54" height="55" viewBox="0 0 54 55" fill="none" xmlns="http://www.w3.org/2000/svg">
<g id="Iocn">
<rect id="Rectangle 70" y="0.418106" width="54" height="53.896" rx="12" fill="white"/>
<g id="Group 85">
<path id="Subtract" fill-rule="evenodd" clip-rule="evenodd" d="M22.1765 12.1954H30.8235C31.3352 12.1954 31.75 12.5529 31.75 12.9938V19.3815H28.9706V18.3169C28.9706 17.729 28.4175 17.2523 27.7353 17.2523H25.2647C24.5825 17.2523 24.0294 17.729 24.0294 18.3169V19.3815H21.25V12.9938C21.25 12.5529 21.6648 12.1954 22.1765 12.1954ZM28.0441 18.3169V19.3815H24.9559V18.3169C24.9559 18.1699 25.0941 18.0508 25.2647 18.0508H27.7353C27.9059 18.0508 28.0441 18.1699 28.0441 18.3169ZM20.3235 19.3815V12.9938C20.3235 12.1119 21.1531 11.3969 22.1765 11.3969H30.8235C31.8469 11.3969 32.6765 12.1119 32.6765 12.9938V19.3815H34.2206C35.7556 19.3815 37 20.454 37 21.7769V38.2785C37 39.6015 35.7556 40.6739 34.2206 40.6739H18.7794C17.2444 40.6739 16 39.6015 16 38.2785V21.7769C16 20.454 17.2444 19.3815 18.7794 19.3815H20.3235ZM22.1765 24.1723C21.8353 24.1723 21.5588 24.4106 21.5588 24.7046V35.8831C21.5588 36.1771 21.8353 36.4154 22.1765 36.4154C22.5176 36.4154 22.7941 36.1771 22.7941 35.8831V24.7046C22.7941 24.4106 22.5176 24.1723 22.1765 24.1723ZM26.5 24.1723C26.1589 24.1723 25.8824 24.4106 25.8824 24.7046V35.8831C25.8824 36.1771 26.1589 36.4154 26.5 36.4154C26.8411 36.4154 27.1176 36.1771 27.1176 35.8831V24.7046C27.1176 24.4106 26.8411 24.1723 26.5 24.1723ZM30.2059 24.7046C30.2059 24.4106 30.4824 24.1723 30.8235 24.1723C31.1647 24.1723 31.4412 24.4106 31.4412 24.7046V35.8831C31.4412 36.1771 31.1647 36.4154 30.8235 36.4154C30.4824 36.4154 30.2059 36.1771 30.2059 35.8831V24.7046Z" fill="#FF7B29"/>
<path id="Rectangle 58" d="M18.9344 41.7384H22.6403V42.5368C22.6403 42.9778 22.2255 43.3353 21.7139 43.3353H19.8609C19.3492 43.3353 18.9344 42.9778 18.9344 42.5368V41.7384Z" fill="#FF7B29"/>
<path id="Rectangle 59" d="M30.3592 41.7384H34.0651V42.5368C34.0651 42.9778 33.6503 43.3353 33.1386 43.3353H31.2857C30.774 43.3353 30.3592 42.9778 30.3592 42.5368V41.7384Z" fill="#FF7B29"/>
</g>
</g>
</svg>
