<svg width="54" height="54" viewBox="0 0 54 54" fill="none" xmlns="http://www.w3.org/2000/svg">
  <circle cx="27" cy="27" r="26.5" stroke="currentColor"/>
  <path d="M35.8167 27.3174C35.8165 27.3176 35.8163 27.3178 35.8161 27.318L32.5504 30.568C32.3057 30.8115 31.91 30.8106 31.6665 30.5659C31.423 30.3212 31.4239 29.9255 31.6686 29.682L33.8612 27.5H20.625C20.2798 27.5 20 27.2202 20 26.875C20 26.5298 20.2798 26.25 20.625 26.25H33.8612L31.6686 24.068C31.4239 23.8245 31.423 23.4288 31.6665 23.1841C31.91 22.9394 32.3058 22.9386 32.5504 23.182L35.8162 26.432C35.8163 26.4322 35.8165 26.4324 35.8167 26.4326C36.0615 26.6769 36.0607 27.0739 35.8167 27.3174Z" fill="#505050"/>
</svg>
