<svg width="54" height="55" viewBox="0 0 54 55" fill="none" xmlns="http://www.w3.org/2000/svg">
<g id="Iocn">
<rect id="Rectangle 71" y="0.198425" width="54" height="53.896" rx="12" fill="white"/>
<path id="Subtract" fill-rule="evenodd" clip-rule="evenodd" d="M36.782 11.8645C36.85 12.3067 36.546 12.7202 36.1031 12.788L17.2127 15.6825C17.0955 15.7004 16.9889 15.747 16.8995 15.8143C16.9611 15.8089 17.0234 15.8061 17.0864 15.8061H37.0232C38.1755 15.8061 39.1096 16.7386 39.1096 17.889V41.0327C39.1096 42.183 38.1755 43.1156 37.0232 43.1156H17.0864C15.9341 43.1156 15 42.183 15 41.0327V19.5091V17.889V16.3688C15 15.2261 15.8353 14.2545 16.9665 14.0812L35.8569 11.1867C36.2998 11.1189 36.714 11.4223 36.782 11.8645ZM21.9141 30.115C22.016 30.115 22.0993 30.1548 22.0993 30.2041C22.0993 30.2526 22.0162 30.293 21.9141 30.293C21.8125 30.293 21.6806 30.2528 21.6209 30.2041C21.561 30.1548 21.4432 30.115 21.3592 30.115C21.2753 30.115 21.2521 30.0571 21.3083 29.9873C21.3644 29.9174 21.4822 29.9174 21.57 29.9873C21.6576 30.0573 21.8125 30.115 21.9141 30.115ZM22.7497 30.3822C22.6864 30.3334 22.6233 30.2588 22.6092 30.2169L22.4818 30.293L22.354 30.3694C22.2137 30.4302 21.984 30.5789 21.8436 30.7004H22.0987H22.2519H22.7494C22.8125 30.7004 22.8641 30.6491 22.8641 30.5862C22.8643 30.523 22.8127 30.4313 22.7497 30.3822ZM25.951 21.4102C25.9489 21.4101 25.946 21.4098 25.9423 21.4094C25.9301 21.4082 25.9097 21.4063 25.8854 21.4053C25.8976 21.4004 25.9106 21.3991 25.9263 21.403L25.9286 21.4035C25.9467 21.4079 25.9544 21.4098 25.9543 21.4102C25.9543 21.4103 25.9539 21.4104 25.953 21.4103C25.9525 21.4103 25.9518 21.4103 25.951 21.4102ZM28.4267 26.262V26.2679C28.3466 26.3871 28.2812 26.5419 28.2812 26.6121C28.2812 26.6819 28.2938 26.7766 28.3095 26.8223C28.3249 26.8678 28.4095 26.8419 28.4968 26.7647C28.5846 26.6876 28.685 26.6074 28.72 26.5864C28.7551 26.5653 28.7837 26.479 28.7837 26.3951V26.3443C28.7837 26.3084 28.7393 26.2344 28.7042 26.1761C28.6897 26.1518 28.6767 26.1302 28.6692 26.1152C28.6624 26.1018 28.6522 26.0849 28.6406 26.0658C28.6082 26.0124 28.5656 25.9423 28.5608 25.8861L28.5544 25.8097C28.5054 25.7046 28.4137 25.6185 28.3513 25.6185H28.3379C28.3317 25.6185 28.3256 25.6487 28.3184 25.6848L28.3184 25.6848C28.31 25.7267 28.3 25.7765 28.2863 25.7969L28.261 25.8354C28.3029 25.9616 28.3779 26.1505 28.4267 26.256V26.262ZM27.9802 26.5485L27.9165 26.5613C27.8709 26.5704 27.8906 26.4162 27.9055 26.2998C27.9114 26.2537 27.9165 26.2135 27.9165 26.1918C27.9165 26.1313 27.9724 26.1028 28.0398 26.0684C28.0577 26.0593 28.0764 26.0497 28.0951 26.039L28.1846 25.988C28.1914 26.058 28.1741 26.1984 28.1462 26.3003C28.1181 26.4017 28.0435 26.5134 27.9802 26.5485ZM33.0701 33.3113C32.8809 33.5583 32.6994 33.7855 32.6668 33.8163C32.6346 33.8469 32.5349 33.992 32.4449 34.1397L32.4196 34.1907L32.394 34.2416C32.4641 34.339 32.541 34.4198 32.5649 34.4198C32.5888 34.4198 32.6382 34.4251 32.6749 34.4324L32.7004 34.4198L32.7009 34.4196C32.7263 34.4067 32.7515 34.3939 32.7767 34.3303C32.7846 34.3108 32.7925 34.2961 32.8 34.2822C32.8169 34.2506 32.8318 34.2227 32.8406 34.1522C32.8487 34.0877 32.9231 33.9469 32.9799 33.8391C33.0129 33.7766 33.04 33.7252 33.0448 33.7065L33.0578 33.6553C33.1206 33.4455 33.2184 33.1415 33.2747 32.9803L33.1726 33.1458L33.0701 33.3113ZM18.0137 29.4611C18.0137 24.484 22.0694 20.4348 27.0548 20.4348C32.04 20.4348 36.0959 24.4838 36.0959 29.4608C36.0959 34.4379 32.04 38.4869 27.0548 38.4869C22.0694 38.4869 18.0137 34.4381 18.0137 29.4611ZM32.6194 22.8774C32.3745 22.6708 32.1184 22.4777 31.8516 22.299C31.8356 22.4028 31.8231 22.5521 31.8714 22.6C31.9481 22.6768 32.1778 23.2878 32.1778 23.2878L32.4263 23.496C32.532 23.3246 32.6784 23.0587 32.6085 23.0076C32.5765 22.9846 32.5859 22.9378 32.6194 22.8774ZM30.1139 28.1166L29.9577 28.3317C29.9577 28.3317 29.7791 28.2074 29.83 28.1162C29.8503 28.0802 29.8826 28.0666 29.9093 28.0552C29.9501 28.038 29.9782 28.0261 29.9321 27.9492C29.8554 27.8217 29.6259 27.669 29.6259 27.669H29.4216C29.4216 27.669 29.09 27.4907 29.0135 27.669C28.9956 27.7107 28.9791 27.7555 28.9627 27.7999C28.9089 27.9455 28.8561 28.0885 28.7582 28.1164C28.6308 28.1527 28.1716 28.5099 28.4011 28.4587C28.6308 28.4076 28.7582 28.3057 28.7582 28.3057C29.0521 28.2325 29.1815 28.2762 29.2591 28.3024C29.2624 28.3036 29.2656 28.3047 29.2688 28.3057C29.2896 28.3127 29.3332 28.3215 29.3861 28.3323C29.5273 28.361 29.7349 28.4033 29.7533 28.4587C29.7791 28.5352 30.1139 28.8154 30.1139 28.8154L30.3913 28.9426L30.672 28.7646L30.9015 28.7901H31.3609C31.3609 28.7901 31.6926 28.6986 31.7436 28.604C31.7947 28.5099 31.8712 28.2655 31.8712 28.2655H31.2332L30.8761 27.9494H30.6975L30.7229 28.2551L30.3146 28.1166H30.1139ZM31.3355 27.2482C31.259 27.3382 31.0804 27.4146 31.0804 27.4146L31.2332 27.5901C31.4376 27.5931 31.6161 27.5901 31.6161 27.5901L32.0244 27.5916L32.1776 27.4403C32.1776 27.4403 31.8966 27.3129 31.8712 27.2365C31.8456 27.1599 31.7052 26.9053 31.7052 26.9053L31.565 27.2482C31.565 27.2482 31.4118 27.158 31.3355 27.2482ZM32.1776 29.5678C32.1265 29.4015 31.9989 29.223 31.9989 29.223H31.7436C31.7436 29.223 31.7691 29.7838 31.8712 29.8599C31.9731 29.9363 32.203 30.1654 32.2795 30.2928C32.356 30.4203 32.5857 30.7002 32.5857 30.7002C32.5857 30.7002 32.6366 30.5051 32.5857 30.259C32.5565 30.1179 32.4434 29.9662 32.3425 29.831C32.2675 29.7304 32.1993 29.6389 32.1776 29.5678ZM26.1046 24.5361L26.0997 24.5403C26.0982 24.5416 26.0956 24.5437 26.0926 24.5461C26.089 24.5488 26.087 24.5504 26.0867 24.5505C26.0862 24.5511 26.0857 24.5515 26.0851 24.552C26.0845 24.5525 26.0838 24.5531 26.0831 24.5537C26.0798 24.5564 26.0771 24.5584 26.0747 24.5602C26.0734 24.5611 26.0722 24.562 26.071 24.5629C26.0761 24.5599 25.8924 24.7884 25.6614 25.0732L25.5178 25.1209C25.4566 25.1413 25.4281 25.1698 25.4109 25.187C25.3852 25.2127 25.3851 25.2127 25.3392 25.1209C25.3078 25.0581 25.3022 25.0469 25.2942 25.0449C25.2827 25.0419 25.2664 25.0581 25.1617 24.9679C25.0561 24.8771 25.0848 24.8492 25.1202 24.8148C25.1443 24.7913 25.1716 24.7648 25.1617 24.7133C25.1543 24.6742 25.1369 24.6399 25.1208 24.6082C25.0844 24.5366 25.0548 24.4782 25.1617 24.4076L25.316 24.3057L25.3164 24.3037C25.3712 24.0523 25.4159 23.8471 25.4159 23.7709C25.4159 23.7327 25.4542 23.6117 25.4925 23.4906C25.5308 23.3696 25.5691 23.2485 25.5691 23.2103C25.5691 23.1722 25.5755 23.0958 25.5818 23.0194C25.5882 22.943 25.5945 22.8667 25.5945 22.8285V22.7521C25.5945 22.7238 25.583 22.6436 25.5691 22.5734L25.4927 22.446L25.4162 22.3186C25.3599 22.2126 25.3599 22.0065 25.4162 21.8601L25.6203 21.7072L25.7929 21.5783C25.844 21.4823 25.9291 21.4096 25.9828 21.4153L25.9265 21.4019L25.9107 21.3979C25.8971 21.401 25.833 21.404 25.7686 21.404L25.7226 21.4272C25.6205 21.4783 25.2632 21.6821 25.212 21.7584C25.1613 21.8346 24.9572 22.0894 24.8551 22.1146L24.753 22.1403C24.6755 22.1265 24.558 22.0231 24.4914 21.911C24.4249 21.7993 24.3701 21.56 24.3701 21.3798C24.3701 21.3372 24.4146 21.2864 24.4948 21.2298C23.8016 21.4453 23.1453 21.7448 22.5388 22.1177L22.89 22.2932H23.0941L23.8855 22.6757H24.3699L24.5231 22.9555V23.1593V23.4092L24.6252 23.5922L24.5996 23.6943C24.574 23.796 24.574 23.8724 24.574 23.8724L24.6252 24.1017L24.472 24.4329H24.2425V24.6367L23.936 24.8656C23.936 24.8656 23.7577 24.662 23.6556 24.5857C23.5536 24.5093 23.4259 24.4838 23.4259 24.4838L23.5024 24.2544H23.7317L24.0125 23.6943C24.0125 23.6943 23.8338 23.4648 23.7575 23.4137C23.681 23.3631 23.5278 23.7196 23.5278 23.7196L23.3748 24.1274L23.0939 24.2804L23.1448 24.5095L22.8135 24.5603L22.8642 24.1274C22.8642 24.1274 22.6856 24.2295 22.6091 24.2804C22.5326 24.331 22.2776 24.535 22.1755 24.6369C22.0734 24.7388 21.9458 24.8918 21.9458 24.9679C21.9458 25.0443 21.8437 25.2481 21.8437 25.2481L21.9202 25.554C21.9202 25.554 22.252 25.8595 22.252 25.9359C22.252 26.0122 22.3027 26.3941 22.3027 26.3941L22.4559 26.0886L22.7624 25.7829L22.8644 25.5283V25.3498L22.9921 25.0694C22.9921 25.0694 23.0688 24.8656 23.1197 24.7892C23.1708 24.7131 23.4771 24.9167 23.4771 24.9167L23.7577 25.1462C23.7577 25.1462 23.6298 25.2228 23.6045 25.2992C23.5791 25.3755 23.783 25.4011 23.783 25.4011L24.0635 25.1464V25.5034C24.0635 25.5034 24.1406 25.7833 24.2169 25.7323C24.2936 25.6814 24.3445 26.0124 24.3445 26.1397V26.5051L24.421 26.8278C24.421 26.8278 24.3957 27.0063 24.3445 27.0827C24.2936 27.1589 24.0637 27.108 24.0637 27.108L23.8598 26.9553C23.8598 26.9553 24.1408 26.5983 24.1662 26.5219C24.1915 26.4456 23.8342 26.6496 23.8342 26.6496C23.8342 26.6496 23.4773 26.7255 23.3496 26.8532L23.4773 27.0063L23.6814 27.2608H23.4519L23.0943 27.4392H22.8902L22.7628 27.5665L22.5842 27.7956L22.3799 27.9487C22.3799 27.9487 22.1759 28.3053 22.1248 28.3819C22.0739 28.4582 22.0229 28.5346 21.9209 28.6876C21.8688 28.7655 21.83 28.8103 21.7994 28.8456C21.7701 28.8795 21.7483 28.9046 21.7295 28.942C21.6912 29.0184 21.5635 29.2222 21.5635 29.2222C21.5635 29.2222 21.6656 29.3749 21.7295 29.4517C21.793 29.5278 21.5126 29.7061 21.5126 29.7061L21.2829 29.4262L21.0025 29.0692L20.7216 29.1966H20.4666L20.0329 29.5025C20.0329 29.5025 19.8797 29.8338 19.8797 29.9101C19.8797 29.9865 19.9053 30.1139 20.0329 30.2411C20.1603 30.3686 20.2882 30.4194 20.3647 30.4449C20.4414 30.4703 20.5179 30.4194 20.5179 30.4194C20.5179 30.4194 20.6709 30.2411 20.773 30.1905C20.8748 30.1392 20.9769 30.2667 20.9769 30.2667L20.8748 30.5724C20.8748 30.5724 21.0792 30.7253 21.1555 30.7759C21.232 30.8272 21.2575 30.9544 21.2575 30.9544L21.385 31.235L21.6147 31.3622L21.9464 31.3876L22.125 31.3367C22.125 31.3367 22.3034 31.2091 22.4054 31.1582C22.5077 31.1074 22.6354 31.1074 22.6354 31.1074C22.6354 31.1074 22.8395 31.2859 23.069 31.3114C23.2987 31.3367 23.3754 31.2606 23.3754 31.2606L23.4263 31.3878C23.4263 31.3878 23.6303 31.5663 23.7068 31.6426C23.7835 31.7188 23.8344 31.7443 24.0639 31.8207C24.2938 31.897 24.3194 31.897 24.3194 31.897C24.3194 31.897 24.5745 32.2538 24.6512 32.2793C24.7277 32.3049 24.9062 32.3812 24.9062 32.3812C24.9062 32.3812 25.2632 32.5087 25.3908 32.5593C25.454 32.5847 25.5047 32.6101 25.5491 32.6324C25.5942 32.655 25.6329 32.6744 25.6714 32.6871C25.7479 32.7129 25.9265 32.9035 25.9265 32.9035C25.9265 32.9035 25.7735 33.1966 25.6714 33.3492C25.6326 33.4074 25.6233 33.4213 25.6267 33.426C25.6323 33.4337 25.6714 33.4172 25.6714 33.5279C25.6714 33.6361 25.6808 33.6692 25.6996 33.7353C25.7118 33.7783 25.7279 33.8351 25.7479 33.9354C25.7664 34.0274 25.7715 34.0531 25.7717 34.053C25.7721 34.053 25.7571 33.9722 25.7733 34.0373C25.7991 34.1392 25.7226 34.2158 25.5947 34.2922C25.4671 34.3688 25.5947 34.4449 25.5947 34.4449C25.5947 34.4449 25.3906 34.6232 25.3143 34.6741C25.2374 34.7253 25.1611 34.776 25.1611 34.776C25.1611 34.776 25.1864 34.9287 25.1611 35.0306C25.1353 35.1331 25.1611 35.2093 25.1611 35.2093V35.3876V35.5405L24.9825 35.6933C24.9825 35.6933 24.9312 35.9226 24.8549 36.1009C24.8268 36.166 24.8193 36.1835 24.8185 36.1832C24.8172 36.1827 24.8362 36.1288 24.8037 36.1772C24.7528 36.2536 24.6252 36.3553 24.6252 36.3553V36.5082C24.6252 36.5606 24.6252 36.5771 24.6293 36.5782C24.6372 36.5803 24.6601 36.5257 24.7272 36.5593C24.8293 36.6101 24.7272 36.7378 24.7272 36.7378V36.9158L24.8035 37.0435L24.88 37.1198C24.9565 37.1962 24.9056 37.349 24.9056 37.349L25.1607 37.8584H25.1089C25.7347 38.0031 26.3859 38.0791 27.0548 38.0791C31.4644 38.0791 35.1121 34.7615 35.6262 30.4926C35.6241 30.4832 35.6228 30.4779 35.6228 30.4779C35.6228 30.4779 35.4185 30.2148 35.3164 30.0744C35.2907 30.0391 35.2585 29.9933 35.2235 29.9436C35.1197 29.7959 34.9912 29.613 34.9339 29.5659C34.8574 29.5034 34.4236 29.1956 34.3471 29.2211C34.2706 29.2464 33.8365 29.2211 33.8365 29.2211C33.8365 29.2211 33.1478 28.9407 32.9693 28.9154C32.7907 28.8901 33.301 29.2211 33.301 29.2211L33.5054 29.3996C33.5054 29.3996 33.7351 29.4251 33.8114 29.4506C33.8879 29.4759 34.0155 29.5659 34.0155 29.5659V29.9601C34.0155 29.9601 33.7093 30.3167 33.4798 30.4781C33.2501 30.6396 32.8416 30.7243 32.7395 30.6985C32.6377 30.673 32.8674 31.0044 32.8674 31.0044C32.8674 31.0044 33.1736 30.8519 33.2501 30.8004C33.3264 30.7496 33.2757 31.1065 33.2501 31.1829C33.2367 31.2234 33.1375 31.3564 33.0395 31.4879C32.9522 31.605 32.8658 31.7209 32.8418 31.769C32.7909 31.8707 32.4591 32.2272 32.3571 32.3291C32.2552 32.431 32.3061 32.6093 32.3061 32.6093C32.3061 32.6093 32.3826 33.2462 32.3571 33.3479C32.3315 33.4502 32.102 33.7557 31.9999 33.8831C31.8979 34.0105 31.7702 34.1382 31.6735 34.2146C31.6172 34.2589 31.5901 34.3718 31.5574 34.5086C31.5337 34.6075 31.5071 34.7188 31.4642 34.8255C31.3622 35.0802 31.2345 35.208 31.0815 35.2589C30.9281 35.3097 30.4691 35.4627 30.4691 35.4627L30.2647 35.0293C30.2647 35.0293 30.214 34.7745 30.126 34.6981C30.0689 34.6487 30.037 34.4813 30.0077 34.3281C29.9918 34.2451 29.9768 34.1663 29.959 34.1127C29.908 33.9595 29.959 33.7051 29.959 33.7051L29.9843 33.5517L30.1058 33.2715V32.7882C30.1058 32.7882 29.9841 32.6863 29.9078 32.6863C29.8397 32.6863 29.691 32.4851 29.6051 32.3687C29.5942 32.354 29.5844 32.3407 29.5758 32.3293C29.5389 32.2801 29.5496 32.1951 29.5619 32.0975C29.575 31.9931 29.59 31.8743 29.5505 31.7692L29.2954 31.6641L28.989 31.5146C28.989 31.5146 28.7846 31.5907 28.7084 31.642C28.6585 31.6752 28.6193 31.665 28.5768 31.6539C28.5543 31.6481 28.5309 31.642 28.5044 31.642H28.1471C28.1471 31.642 28.1473 31.642 28.0706 31.5656C27.9939 31.4892 27.7642 31.5656 27.7642 31.5656L27.6623 31.4382C27.5949 31.3543 27.5608 31.2925 27.5308 31.2381C27.5153 31.2101 27.5009 31.184 27.4835 31.1578C27.4324 31.0814 27.2427 30.6992 27.2427 30.6992C27.2427 30.6992 27.2285 30.3937 27.2427 30.2918C27.2486 30.2499 27.2342 30.2166 27.2216 30.1874C27.2036 30.1458 27.1892 30.1126 27.2427 30.075C27.2897 30.0423 27.3251 29.9653 27.3694 29.8688C27.4109 29.7785 27.4603 29.671 27.5345 29.5666C27.6005 29.4737 27.6381 29.4015 27.6758 29.3291C27.7256 29.2334 27.7757 29.1372 27.8918 28.9924C27.9938 28.8651 27.9938 28.8651 27.9938 28.8555C27.9938 28.846 27.9938 28.8269 28.0957 28.6614C28.1762 28.5311 28.1933 28.5034 28.186 28.4935C28.1748 28.4783 28.1058 28.5055 28.1213 28.2653C28.1469 27.8692 28.022 28.2653 28.022 28.2653L28.0448 27.9738C28.0448 27.9738 27.9937 27.7445 28.0448 27.5901C28.0722 27.5064 28.0999 27.5212 28.1498 27.5478C28.1922 27.5705 28.2506 27.6017 28.3386 27.5886C28.5306 27.5603 28.5805 27.4641 28.5805 27.4641L28.4784 27.2469C28.4784 27.2469 28.4273 27.057 28.4784 26.904C28.5296 26.7511 28.7844 26.904 28.7844 26.904V26.5473C28.7844 26.5473 29.142 26.1907 29.3206 26.0888C29.4991 25.9869 29.78 26.0888 29.78 26.0888H30.1054C30.1054 26.0888 30.494 25.6557 30.5196 25.5793C30.5335 25.5379 30.6077 25.4738 30.693 25.4C30.7647 25.3381 30.8441 25.2694 30.9023 25.2017C31.0297 25.053 30.7237 25.2017 30.7237 25.2017L30.2899 25.0188C30.2899 25.0188 30.4687 24.4584 30.392 24.3821C30.3514 24.3417 30.3109 24.4295 30.2634 24.5325C30.221 24.6244 30.1731 24.7283 30.1145 24.7643C29.9903 24.8405 30.0855 25.1975 30.1051 25.2019C30.1245 25.2062 29.8307 25.8344 29.8307 25.8344L29.4733 25.5797L29.3968 25.6308C29.3201 25.6816 29.1162 25.4268 29.0395 25.3249C28.9632 25.223 29.0906 25.019 29.1927 24.9171C29.2948 24.8154 29.6008 24.4333 29.6266 24.3314C29.6387 24.2827 29.6627 24.2162 29.6901 24.1404C29.7197 24.0585 29.7532 23.9657 29.7798 23.873C29.8123 23.7591 29.9493 23.6866 30.0705 23.6225C30.1388 23.5864 30.202 23.5529 30.2388 23.5162C30.341 23.4143 30.5705 23.4907 30.5705 23.4907C30.5705 23.4907 30.7235 23.6181 30.8514 23.6692C30.9788 23.7203 31.0809 23.8222 31.0809 23.8222C31.0809 23.8222 31.3104 23.873 31.3359 23.9749C31.3615 24.077 31.6728 23.9749 31.6728 23.9749C31.6728 23.9749 31.9735 23.8222 32.1408 23.7458C32.308 23.6694 32.3308 23.6439 32.3308 23.6439C32.3308 23.6439 32.3324 23.6416 32.3353 23.6374C32.3377 23.6338 32.3411 23.6289 32.3453 23.6228C32.2678 23.5235 32.1947 23.4382 32.1408 23.4146C32.0249 23.3637 31.6728 23.0835 31.6728 23.0835C31.6728 23.0835 31.6266 22.931 31.6728 22.8291C31.6911 22.7884 31.6712 22.7313 31.65 22.671C31.6183 22.5804 31.5839 22.4825 31.6728 22.4213C31.7417 22.3734 31.7894 22.3209 31.8209 22.2777C30.8103 21.6076 29.6508 21.1439 28.4036 20.9473C28.3923 20.9737 28.3755 21.013 28.3504 21.0711C28.3136 21.1572 28.3123 21.1603 28.3122 21.1635C28.3122 21.1669 28.3136 21.1703 28.2741 21.277C28.227 21.4031 28.2185 21.4026 28.1895 21.401C28.1712 21.4 28.1447 21.3985 28.0953 21.4281L27.9679 21.5044C28.038 21.5742 28.0552 21.6889 28.0062 21.7591L28.0056 21.76C27.9566 21.8292 27.916 21.8865 27.7635 21.988L27.6103 22.0899C27.6947 22.146 27.7292 22.2492 27.687 22.319L27.5745 22.5992C27.5046 22.7728 27.545 22.7802 27.5711 22.785C27.5871 22.788 27.5978 22.79 27.5745 22.8287C27.5453 22.8768 27.5404 22.9022 27.5326 22.9424C27.5238 22.9873 27.5114 23.0507 27.4575 23.185C27.4223 23.2727 27.4113 23.3001 27.4151 23.3024C27.4225 23.3067 27.4838 23.2201 27.5338 23.2869C27.5893 23.3611 27.5776 23.3813 27.5572 23.4162C27.5496 23.4293 27.5408 23.4444 27.5338 23.4652L27.5082 23.5413C27.3959 23.7096 27.1662 23.9158 26.9979 24L26.7428 24.0766C26.6379 24.1081 26.6193 24.1137 26.6195 24.1182C26.6199 24.1247 26.6587 24.129 26.5385 24.204C26.4365 24.2675 26.4365 24.2675 26.4205 24.2834C26.4046 24.2994 26.3726 24.3312 26.2067 24.4584L26.1466 24.5048L26.1046 24.5361ZM26.0963 24.5433C26.0949 24.5444 26.0937 24.5453 26.0926 24.5461C26.085 24.5523 26.0747 24.5607 26.0712 24.5637C26.0749 24.5609 26.0788 24.5577 26.0829 24.5545C26.0842 24.5534 26.0856 24.5523 26.087 24.5512C26.087 24.5513 26.0869 24.5513 26.0869 24.5514C26.0868 24.5515 26.0866 24.5516 26.0865 24.5516C26.0865 24.5516 26.0868 24.5516 26.0869 24.5514C26.0878 24.5507 26.0899 24.5491 26.0926 24.5469C26.0934 24.5462 26.0943 24.5455 26.0953 24.5447C26.0925 24.5469 26.0898 24.5491 26.087 24.5512C26.0899 24.5487 26.0929 24.5462 26.0958 24.5437C26.096 24.5436 26.0961 24.5435 26.0963 24.5433ZM26.1244 24.5219C26.1127 24.5309 26.1029 24.5383 26.0963 24.5433C26.0992 24.5408 26.102 24.5384 26.1044 24.5363C26.1221 24.5231 26.1268 24.5197 26.1244 24.5219ZM26.1244 24.5219C26.1307 24.5171 26.1375 24.5119 26.1447 24.5063L26.1461 24.5052C26.1395 24.5104 26.1333 24.5154 26.1274 24.52C26.1207 24.5252 26.1145 24.53 26.1089 24.5342C26.1166 24.5282 26.1225 24.5235 26.1244 24.5219ZM18.4501 29.6053C18.4501 29.6053 18.4401 29.5966 18.4235 29.5819C18.4237 29.597 18.4239 29.6121 18.4239 29.6274C18.4384 29.6136 18.4501 29.6053 18.4501 29.6053ZM18.4319 29.8228L18.4301 29.8214C18.5888 33.651 21.2622 36.8435 24.8423 37.7919L24.6254 37.6291L24.2936 37.2473C24.2936 37.2473 24.2171 37.069 24.115 36.8905C24.0703 36.8125 24.0647 36.8027 24.0576 36.8015C24.0485 36.7999 24.0369 36.8125 23.9363 36.712C23.7577 36.5336 23.9363 36.3808 23.9363 36.3808C23.9363 36.3808 23.8595 36.2279 23.8084 36.1515C23.7577 36.0751 23.8084 35.9226 23.8084 35.9226L23.6045 35.5152C23.6045 35.5152 23.5278 35.1838 23.4768 35.1074C23.4486 35.0649 23.4596 35.0224 23.4706 34.98C23.4794 34.946 23.4882 34.912 23.4768 34.8781C23.4515 34.8017 23.2981 34.6743 23.2981 34.6743C23.2981 34.6743 23.3492 34.5724 23.2981 34.3688C23.2471 34.165 23.1448 34.3688 23.1448 34.3688V34.2669C23.1448 34.2669 23.0428 34.1397 22.9663 34.012C22.8898 33.8846 22.7114 34.012 22.7114 34.012V33.9101L22.4306 33.6553L22.2264 33.4768C22.1245 33.3878 22.1245 33.3878 22.1404 33.4037C22.1564 33.4196 22.1883 33.4514 22.1502 33.426C22.0737 33.3753 21.9207 33.1971 21.9207 33.1971V33.0186V32.8405L21.7675 32.6363L21.7928 32.4836C21.8046 32.4132 21.8055 32.4076 21.8031 32.4047C21.8003 32.4012 21.7928 32.4016 21.7928 32.3053C21.7928 32.1266 21.9207 32.3053 21.9207 32.3053V32.1266L21.7165 31.8722L21.6398 31.7447H21.5377L21.3082 31.5918L21.1806 31.4392C21.1288 31.3774 21.119 31.3656 21.1171 31.3668C21.1144 31.3685 21.1288 31.398 21.0528 31.3374C20.9251 31.2357 20.8995 31.1589 20.8995 31.1589C20.8995 31.1589 20.721 31.1333 20.5682 30.9808C20.4146 30.8279 20.3892 30.9808 20.3892 30.9808C20.3892 30.9808 20.2616 30.9044 20.0321 30.7511C19.9475 30.6948 19.9253 30.68 19.9271 30.6761C19.9301 30.6694 20.0039 30.6948 19.9556 30.5983C19.9119 30.5112 19.8849 30.5401 19.8556 30.5715C19.8334 30.5951 19.81 30.6203 19.777 30.5983C19.7503 30.5805 19.7204 30.5721 19.6854 30.5621C19.6199 30.5435 19.536 30.5197 19.4194 30.42C19.3302 30.3438 19.3302 30.3438 19.3365 30.3533C19.3429 30.3629 19.3557 30.382 19.292 30.3439C19.2186 30.2999 19.2382 30.2728 19.2631 30.2382C19.2815 30.2128 19.3028 30.1833 19.292 30.1401C19.2667 30.0382 19.1646 29.9363 19.1646 29.9363L19.0881 29.8855C19.0114 29.8346 18.8771 29.5287 18.8771 29.5287C18.8771 29.5287 18.7817 29.2483 18.7052 29.2483C18.6287 29.2483 18.6796 29.3757 18.6796 29.3757L18.7305 29.5798C18.7521 29.6655 18.7556 29.6792 18.7599 29.6795C18.7658 29.6798 18.7734 29.6548 18.8326 29.7582C18.8688 29.8213 18.8794 29.8397 18.8769 29.8418C18.8723 29.8455 18.8236 29.7943 18.8072 29.8601C18.7819 29.9622 18.8072 30.0131 18.8072 30.0131C18.8072 30.0131 18.8072 30.0133 18.6287 29.9367C18.5449 29.9008 18.5397 29.8986 18.5394 29.8958C18.5391 29.8927 18.5449 29.8889 18.4501 29.8348C18.443 29.8308 18.4375 29.8268 18.4319 29.8228Z" fill="#FF7B29"/>
</g>
</svg>
