<svg width="28" height="23" viewBox="0 0 28 23" fill="none" xmlns="http://www.w3.org/2000/svg">
<path d="M13.1248 17.5744L11.7628 17.5431C11.3294 17.5431 10.958 17.2612 10.8032 16.8539C10.6484 16.4467 10.7723 15.9768 11.0818 15.6948L14.2701 12.7814V0.93981C14.2701 0.438578 13.8677 0 13.3415 0H0.928643C0.433367 0 0 0.407251 0 0.93981V21.8349C0 22.3361 0.402412 22.7747 0.928643 22.7747H5.2004V18.5142C5.2004 18.3263 5.35517 18.1383 5.57186 18.1383H8.79115C8.97688 18.1383 9.16261 18.295 9.16261 18.5142V22.7434H13.3105C13.2177 22.5241 13.1867 22.3048 13.1867 22.0855V17.5744H13.1248ZM2.50734 4.98099C2.50734 4.82436 2.63115 4.69905 2.78593 4.69905H5.66472C5.8195 4.69905 5.94331 4.82436 5.94331 4.98099V7.8944C5.94331 8.05104 5.8195 8.17634 5.66472 8.17634H2.78593C2.63115 8.17634 2.50734 8.05104 2.50734 7.8944V4.98099ZM6.00522 14.1911C6.00522 14.3478 5.8814 14.4731 5.72663 14.4731H2.84784C2.69306 14.4731 2.56925 14.3478 2.56925 14.1911V11.2777C2.56925 11.1211 2.69306 10.9958 2.84784 10.9958H5.72663C5.8814 10.9958 6.00522 11.1211 6.00522 11.2777V14.1911ZM8.26492 4.94966C8.26492 4.79303 8.38874 4.66772 8.54351 4.66772H11.4533C11.608 4.66772 11.7319 4.79303 11.7319 4.94966V7.86307C11.7319 8.01971 11.608 8.14502 11.4533 8.14502H8.57447C8.4197 8.14502 8.29588 8.01971 8.29588 7.86307V4.94966H8.26492ZM8.60542 14.4731C8.45065 14.4731 8.32683 14.3478 8.32683 14.1911V11.2777C8.32683 11.1211 8.45065 10.9958 8.60542 10.9958H11.4842C11.639 10.9958 11.7628 11.1211 11.7628 11.2777V14.1911C11.7628 14.3478 11.639 14.4731 11.4842 14.4731H8.60542Z" fill="url(#paint0_linear_1_279)"/>
<path d="M25.5308 14.3889V10.1598H23.2402V12.2587L20.2066 9.43927C20.1137 9.34529 19.9899 9.31396 19.8661 9.31396C19.7423 9.31396 19.6185 9.34529 19.5256 9.43927L11.7869 16.4879L14.1704 16.5505V22.0954C14.1704 22.44 14.449 22.7219 14.7895 22.7219H18.1945V19.5579C18.1945 19.182 18.5041 18.8687 18.8755 18.8687H20.9186C21.29 18.8687 21.5996 19.182 21.5996 19.5579V22.7219H24.9737C25.3142 22.7219 25.5928 22.44 25.5928 22.0954V16.6758L27.8525 16.5192L25.5308 14.3889ZM21.321 15.2035C21.321 15.4854 21.1043 15.7047 20.8257 15.7047H18.9684C18.6898 15.7047 18.4731 15.4854 18.4731 15.2035V14.7022C18.4731 14.4203 18.6898 14.201 18.9684 14.201H20.8257C21.1043 14.201 21.321 14.4203 21.321 14.7022V15.2035Z" fill="url(#paint1_linear_1_279)"/>
<defs>
<linearGradient id="paint0_linear_1_279" x1="7.13507" y1="0" x2="7.13507" y2="22.7747" gradientUnits="userSpaceOnUse">
<stop stop-color="#FD8C4D"/>
<stop offset="1" stop-color="#FD6C4D"/>
</linearGradient>
<linearGradient id="paint1_linear_1_279" x1="19.8197" y1="9.31396" x2="19.8197" y2="22.7219" gradientUnits="userSpaceOnUse">
<stop stop-color="#FD8C4D"/>
<stop offset="1" stop-color="#FD6C4D"/>
</linearGradient>
</defs>
</svg>
