<svg width="87" height="100" viewBox="0 0 87 100" fill="none" xmlns="http://www.w3.org/2000/svg">
<g id="Icon" filter="url(#filter0_d_5_263)">
<path id="Subtract" fill-rule="evenodd" clip-rule="evenodd" d="M44.1802 57.9659C44.1802 57.9659 65.3486 36.8893 65.3486 23.1684C65.3486 11.4774 55.8712 2 44.1802 2C32.4892 2 23.0117 11.4774 23.0117 23.1684C23.0117 36.8893 44.1802 57.9659 44.1802 57.9659ZM33.4509 23.1684C33.4509 17.2429 38.2546 12.4392 44.1802 12.4392C50.1057 12.4392 54.9094 17.2429 54.9094 23.1684C54.9094 29.094 50.1057 33.8977 44.1802 33.8977C38.2546 33.8977 33.4509 29.094 33.4509 23.1684ZM44.1802 9.53945C36.6531 9.53945 30.5512 15.6413 30.5512 23.1684C30.5512 30.6956 36.6531 36.7974 44.1802 36.7974C51.7072 36.7974 57.8092 30.6956 57.8092 23.1684C57.8092 15.6413 51.7072 9.53945 44.1802 9.53945Z" fill="#FF7B29"/>
<g id="Union">
<path d="M34.6233 51.1513H26.3057L20.2047 67.1001L66.376 67.1001L60.8398 51.1513H53.6169L56.0817 48.3965H62.7247L70.5807 69.9999L16 69.9999L24.4209 48.3965H32.0135L34.6233 51.1513Z" fill="#FF7B29"/>
<path d="M50.0151 59.8101C49.4213 59.2729 48.3918 58.8316 47.0932 58.5574L44.048 60.8655L41.2286 58.512C39.9044 58.7658 38.833 59.1908 38.1876 59.7184C37.5421 60.2459 37.3605 60.8451 37.6719 61.4191C37.9833 61.9931 38.7697 62.5082 39.9038 62.8813C41.0379 63.2543 42.4535 63.4635 43.9215 63.4748C45.3896 63.4862 46.8243 63.2992 47.9937 62.944C49.1631 62.5888 49.9988 62.0862 50.3656 61.5175C50.7324 60.9488 50.6089 60.3472 50.0151 59.8101Z" fill="#FF7B29"/>
</g>
</g>
<defs>
<filter id="filter0_d_5_263" x="0" y="0" width="86.5807" height="100" filterUnits="userSpaceOnUse" color-interpolation-filters="sRGB">
<feFlood flood-opacity="0" result="BackgroundImageFix"/>
<feColorMatrix in="SourceAlpha" type="matrix" values="0 0 0 0 0 0 0 0 0 0 0 0 0 0 0 0 0 0 127 0" result="hardAlpha"/>
<feOffset dy="14"/>
<feGaussianBlur stdDeviation="8"/>
<feColorMatrix type="matrix" values="0 0 0 0 0.988235 0 0 0 0 0.709804 0 0 0 0 0.34902 0 0 0 0.18 0"/>
<feBlend mode="normal" in2="BackgroundImageFix" result="effect1_dropShadow_5_263"/>
<feBlend mode="normal" in="SourceGraphic" in2="effect1_dropShadow_5_263" result="shape"/>
</filter>
</defs>
</svg>
