<svg width="76" height="76" viewBox="0 0 76 76" fill="none" xmlns="http://www.w3.org/2000/svg">
<g filter="url(#filter0_d_1_214)">
<rect x="16" y="9" width="44" height="44" rx="8" fill="white"/>
</g>
<path d="M48 31C48 36.5228 43.5228 41 38 41C32.4772 41 28 36.5228 28 31C28 25.4772 32.4772 21 38 21C43.5228 21 48 25.4772 48 31Z" fill="#FF7B29"/>
<path d="M35.9612 29.8189H37.4349C37.4136 28.5227 36.3483 27.6278 34.729 27.6278C33.1345 27.6278 31.9662 28.5085 31.9733 29.8295C31.9697 30.902 32.7261 31.5163 33.9548 31.8111L34.7467 32.0099C35.5386 32.2017 35.979 32.429 35.9825 32.919C35.979 33.4517 35.4747 33.8139 34.6934 33.8139C33.8944 33.8139 33.3192 33.4446 33.2694 32.7166H31.7815C31.8206 34.2898 32.9463 35.103 34.7112 35.103C36.4868 35.103 37.5308 34.2543 37.5344 32.9226C37.5308 31.7116 36.6182 31.0689 35.354 30.7848L34.7006 30.6286C34.0684 30.483 33.5393 30.2486 33.55 29.7266C33.55 29.2578 33.9655 28.9134 34.7183 28.9134C35.4534 28.9134 35.9044 29.2472 35.9612 29.8189ZM38.2916 28.995H40.5182V35H42.0381V28.995H44.2646V27.7273H38.2916V28.995Z" fill="white"/>
<defs>
<filter id="filter0_d_1_214" x="0" y="0" width="76" height="76" filterUnits="userSpaceOnUse" color-interpolation-filters="sRGB">
<feFlood flood-opacity="0" result="BackgroundImageFix"/>
<feColorMatrix in="SourceAlpha" type="matrix" values="0 0 0 0 0 0 0 0 0 0 0 0 0 0 0 0 0 0 127 0" result="hardAlpha"/>
<feOffset dy="7"/>
<feGaussianBlur stdDeviation="8"/>
<feColorMatrix type="matrix" values="0 0 0 0 0 0 0 0 0 0 0 0 0 0 0 0 0 0 0.04 0"/>
<feBlend mode="normal" in2="BackgroundImageFix" result="effect1_dropShadow_1_214"/>
<feBlend mode="normal" in="SourceGraphic" in2="effect1_dropShadow_1_214" result="shape"/>
</filter>
</defs>
</svg>
