<svg width="80" height="68" viewBox="0 0 80 68" fill="none" xmlns="http://www.w3.org/2000/svg">
<g id="Icon">
<path id="Vector" d="M79.3363 68H0V63.5677H79.3363V68ZM79.3363 18.0375H0V22.4698H79.3363V18.0375ZM56.2882 8.31091V0H48.9752V4.65439L39.6681 0L12.5201 13.5753H66.8161L56.2882 8.31091ZM15.2026 29.0618L15.4979 57.7066H17.4699V59.1364H21.5336V57.7066H23.5029L23.7498 29.03C23.0313 28.5373 22.5112 27.7818 22.3191 26.902H16.6827C16.487 27.8012 15.9475 28.5708 15.2026 29.0618ZM55.7575 29.0618L56.0528 57.7066H58.0239V59.1364H62.0877V57.7066H64.0561L64.3029 29.03C63.5845 28.5373 63.0644 27.7818 62.8731 26.902H57.2358C57.041 27.8012 56.5024 28.5708 55.7575 29.0618ZM69.6476 26.902C69.451 27.8021 68.9124 28.5716 68.1675 29.0618L68.4628 57.7066H70.4348V59.1364H74.294V26.902H69.6476ZM9.12367 57.7057H11.093L11.3398 29.0291C10.6214 28.5364 10.1013 27.7809 9.90998 26.9012H3.60099V59.1355H9.12367V57.7057ZM49.6777 59.1355V57.7057H51.6462L51.893 29.0291C51.1745 28.5364 50.6545 27.7809 50.4632 26.9012H29.0935C28.8969 27.8012 28.3574 28.5708 27.6126 29.0609L27.9079 57.7057H29.8798V59.1355H34.7369V41.8499H43.1589V59.1355H49.6777Z" fill="#FF7B29"/>
</g>
</svg>
