<svg width="72" height="14" viewBox="0 0 72 14" fill="none" xmlns="http://www.w3.org/2000/svg">
<g id="Rating">
<path id="Star 17" d="M64.2987 0.945683C64.4799 0.566122 65.0201 0.566122 65.2013 0.945683L66.5772 3.82926C66.6501 3.98201 66.7953 4.08752 66.9631 4.10964L70.1308 4.5272C70.5477 4.58216 70.7147 5.09599 70.4097 5.38554L68.0924 7.58524C67.9697 7.70177 67.9142 7.87249 67.945 8.03891L68.5268 11.1805C68.6033 11.5941 68.1662 11.9116 67.7966 11.711L64.9885 10.1869C64.8398 10.1062 64.6602 10.1062 64.5115 10.1869L61.7034 11.711C61.3338 11.9116 60.8967 11.5941 60.9732 11.1805L61.555 8.03891C61.5858 7.87248 61.5303 7.70177 61.4076 7.58524L59.0903 5.38554C58.7853 5.09599 58.9523 4.58216 59.3692 4.5272L62.5369 4.10964C62.7047 4.08752 62.8499 3.98201 62.9228 3.82926L64.2987 0.945683Z" fill="url(#paint0_linear_1_59)"/>
<path id="Star 14" d="M6.29874 0.945683C6.47986 0.566122 7.02014 0.566122 7.20126 0.945683L8.57723 3.82926C8.65012 3.98201 8.79534 4.08752 8.96314 4.10964L12.1308 4.5272C12.5477 4.58216 12.7147 5.09599 12.4097 5.38554L10.0924 7.58524C9.96968 7.70177 9.91421 7.87249 9.94503 8.03891L10.5268 11.1805C10.6033 11.5941 10.1662 11.9116 9.79662 11.711L6.98851 10.1869C6.83975 10.1062 6.66025 10.1062 6.51149 10.1869L3.70338 11.711C3.33376 11.9116 2.89666 11.5941 2.97323 11.1805L3.55497 8.03891C3.58579 7.87248 3.53032 7.70177 3.40756 7.58524L1.09032 5.38554C0.785304 5.09599 0.952261 4.58216 1.36921 4.5272L4.53686 4.10964C4.70466 4.08752 4.84988 3.98201 4.92277 3.82926L6.29874 0.945683Z" fill="url(#paint1_linear_1_59)"/>
<path id="Star 15" d="M20.7987 0.945683C20.9799 0.566122 21.5201 0.566122 21.7013 0.945683L23.0772 3.82926C23.1501 3.98201 23.2953 4.08752 23.4631 4.10964L26.6308 4.5272C27.0477 4.58216 27.2147 5.09599 26.9097 5.38554L24.5924 7.58524C24.4697 7.70177 24.4142 7.87249 24.445 8.03891L25.0268 11.1805C25.1033 11.5941 24.6662 11.9116 24.2966 11.711L21.4885 10.1869C21.3398 10.1062 21.1602 10.1062 21.0115 10.1869L18.2034 11.711C17.8338 11.9116 17.3967 11.5941 17.4732 11.1805L18.055 8.03891C18.0858 7.87248 18.0303 7.70177 17.9076 7.58524L15.5903 5.38554C15.2853 5.09599 15.4523 4.58216 15.8692 4.5272L19.0369 4.10964C19.2047 4.08752 19.3499 3.98201 19.4228 3.82926L20.7987 0.945683Z" fill="url(#paint2_linear_1_59)"/>
<path id="Star 16" d="M49.7987 0.945683C49.9799 0.566122 50.5201 0.566122 50.7013 0.945683L52.0772 3.82926C52.1501 3.98201 52.2953 4.08752 52.4631 4.10964L55.6308 4.5272C56.0477 4.58216 56.2147 5.09599 55.9097 5.38554L53.5924 7.58524C53.4697 7.70177 53.4142 7.87249 53.445 8.03891L54.0268 11.1805C54.1033 11.5941 53.6662 11.9116 53.2966 11.711L50.4885 10.1869C50.3398 10.1062 50.1602 10.1062 50.0115 10.1869L47.2034 11.711C46.8338 11.9116 46.3967 11.5941 46.4732 11.1805L47.055 8.03891C47.0858 7.87248 47.0303 7.70177 46.9076 7.58524L44.5903 5.38554C44.2853 5.09599 44.4523 4.58216 44.8692 4.5272L48.0369 4.10964C48.2047 4.08752 48.3499 3.98201 48.4228 3.82926L49.7987 0.945683Z" fill="url(#paint3_linear_1_59)"/>
<path id="Star 18" d="M35.2987 0.945683C35.4799 0.566122 36.0201 0.566122 36.2013 0.945683L37.5772 3.82926C37.6501 3.98201 37.7953 4.08752 37.9631 4.10964L41.1308 4.5272C41.5477 4.58216 41.7147 5.09599 41.4097 5.38554L39.0924 7.58524C38.9697 7.70177 38.9142 7.87249 38.945 8.03891L39.5268 11.1805C39.6033 11.5941 39.1662 11.9116 38.7966 11.711L35.9885 10.1869C35.8398 10.1062 35.6602 10.1062 35.5115 10.1869L32.7034 11.711C32.3338 11.9116 31.8967 11.5941 31.9732 11.1805L32.555 8.03891C32.5858 7.87248 32.5303 7.70177 32.4076 7.58524L30.0903 5.38554C29.7853 5.09599 29.9523 4.58216 30.3692 4.5272L33.5369 4.10964C33.7047 4.08752 33.8499 3.98201 33.9228 3.82926L35.2987 0.945683Z" fill="url(#paint4_linear_1_59)"/>
</g>
<defs>
<linearGradient id="paint0_linear_1_59" x1="64.75" y1="0" x2="64.75" y2="13.5" gradientUnits="userSpaceOnUse">
<stop offset="0.0985536" stop-color="#FFA364"/>
<stop offset="0.788912" stop-color="#FFC112"/>
</linearGradient>
<linearGradient id="paint1_linear_1_59" x1="6.75" y1="0" x2="6.75" y2="13.5" gradientUnits="userSpaceOnUse">
<stop offset="0.0985536" stop-color="#FFA364"/>
<stop offset="0.788912" stop-color="#FFC112"/>
</linearGradient>
<linearGradient id="paint2_linear_1_59" x1="21.25" y1="0" x2="21.25" y2="13.5" gradientUnits="userSpaceOnUse">
<stop offset="0.0985536" stop-color="#FFA364"/>
<stop offset="0.788912" stop-color="#FFC112"/>
</linearGradient>
<linearGradient id="paint3_linear_1_59" x1="50.25" y1="0" x2="50.25" y2="13.5" gradientUnits="userSpaceOnUse">
<stop offset="0.0985536" stop-color="#FFA364"/>
<stop offset="0.788912" stop-color="#FFC112"/>
</linearGradient>
<linearGradient id="paint4_linear_1_59" x1="35.75" y1="0" x2="35.75" y2="13.5" gradientUnits="userSpaceOnUse">
<stop offset="0.0985536" stop-color="#FFA364"/>
<stop offset="0.788912" stop-color="#FFC112"/>
</linearGradient>
</defs>
</svg>
