<svg width="572" height="473" viewBox="0 0 572 473" fill="none" xmlns="http://www.w3.org/2000/svg">
<path d="M127.777 121.933C163.051 139.438 227.617 181.661 238.436 179.198C250.575 176.471 294.821 158.174 312.59 143.66C320.947 136.799 355.429 212.536 347.072 218.254C314.525 240.509 248.992 254.583 230.783 256.606C210.464 258.893 149.065 196.263 114.847 153.6C101.212 136.535 84.9388 100.557 127.777 121.933Z" fill="#D3766A"/>
<path d="M328.336 140.229C335.549 136.447 342.586 132.753 347.864 130.026C352.438 127.563 355.605 125.891 356.221 125.539C368.36 118.063 383.578 94.5761 393.166 99.59C400.291 103.372 393.43 113.049 391.846 115.072C391.788 115.189 391.729 115.277 391.67 115.336C391.758 115.248 391.846 115.16 391.934 115.072C394.045 112.961 404.161 103.548 409.879 110.498C416.212 118.238 406.36 131.433 406.36 131.433C406.419 131.433 406.624 131.286 406.976 130.993C407.064 130.993 407.064 130.993 407.064 130.905C407.24 130.817 407.416 130.729 407.592 130.553C411.11 128.266 420.962 122.549 425.8 129.234C431.606 137.503 421.138 149.554 421.138 149.554C421.138 149.554 430.111 143.132 435.125 151.753C440.139 160.373 411.726 184.651 401.083 192.04C383.314 204.267 358.86 215.615 345.049 220.629C341.795 221.772 339.156 222.564 337.309 223.004L320.507 194.591L319.98 193.8L319.892 193.624L297.725 156.151C297.725 156.151 313.294 148.058 328.336 140.229Z" fill="#D3766A"/>
<path d="M353.846 146.651C360.971 143.396 366.513 140.581 371.263 137.327C378.828 132.225 384.458 126.067 391.231 115.512C391.465 115.218 391.671 115.072 391.847 115.072C391.905 115.013 391.935 115.013 391.935 115.072C392.198 115.072 392.374 115.424 392.111 115.951C386.657 128.354 380.147 135.04 371.175 140.054C366.337 142.693 360.707 144.892 354.022 147.267C353.67 147.443 353.494 146.827 353.846 146.651Z" fill="#2D3134"/>
<path d="M366.865 164.068C385.425 153.864 393.87 147.706 406.977 130.993C407.065 130.993 407.065 130.993 407.065 130.905C407.241 130.641 407.504 130.553 407.592 130.553C407.944 130.553 408.208 131.169 407.856 131.697C396.861 150.257 386.129 156.063 367.041 164.596C366.777 164.684 366.601 164.244 366.865 164.068Z" fill="#2D3134"/>
<path d="M420.434 151.313C409.791 167.058 398.443 175.855 378.036 181.748C377.508 181.836 377.332 181.221 377.772 181.045C397.036 173.392 406.096 166.267 419.995 150.873C420.874 149.905 421.138 150.257 420.434 151.313Z" fill="#2D3134"/>
<path d="M283.122 161.253C283.122 161.253 299.835 134.16 305.905 129.41C310.655 125.715 324.729 120.174 337.66 117.007C349.447 114.104 360.267 113.224 362.202 117.447C362.261 117.505 362.319 117.564 362.378 117.623C362.671 118.444 362.847 119.265 362.906 120.086C362.994 121.493 362.73 123.076 362.114 124.572C362.114 124.572 362.202 124.572 362.114 124.572C359.915 130.114 353.405 135.479 346.28 139.79C340.915 143.132 335.197 145.771 330.799 147.531C330.799 147.531 339.947 171.281 329.391 185.091V185.179C329.157 185.414 328.951 185.648 328.775 185.883C328.072 186.675 327.368 187.554 326.488 188.258C311.535 201.277 283.122 161.253 283.122 161.253Z" fill="#D3766A"/>
<path d="M362.641 121.317C361.41 136.623 344.873 142.692 332.822 148.234C337.66 161.077 337.923 178.758 327.72 188.698C327.456 188.962 327.104 188.61 327.28 188.258C335.372 177.878 333.701 160.021 330.007 148.146C329.567 147.53 329.479 146.651 330.359 146.211C342.058 140.581 358.859 135.303 362.553 121.317C362.553 121.229 362.641 121.229 362.641 121.317Z" fill="#2D3134"/>
<path d="M224.626 258.102C204.13 254.319 128.129 178.494 110.536 149.642C92.8557 120.789 96.2863 107.067 122.939 118.414C149.505 129.674 230.432 178.406 237.293 177.878C244.154 177.262 279.956 159.054 279.956 159.054L327.104 233.12C327.104 233.12 245.034 261.884 224.626 258.102Z" fill="#31C3E0"/>
<path opacity="0.2" fill-rule="evenodd" clip-rule="evenodd" d="M154.431 159.845C153.727 160.901 153.112 162.22 151.616 162.924C150.209 163.54 148.362 163.1 147.218 161.956C146.514 161.253 145.371 160.989 144.315 161.253C143.787 161.341 143.348 161.605 142.82 162.044C142.204 162.484 141.676 162.836 141.148 163.188C141.852 162.132 142.38 160.813 143.875 160.109C145.283 159.406 147.13 159.757 148.362 160.901C149.065 161.693 150.121 161.956 151.264 161.781C151.792 161.693 152.32 161.429 152.76 160.989C153.375 160.637 153.903 160.197 154.431 159.845ZM317.253 236.462C316.608 236.697 315.933 236.902 315.23 237.078C315.845 236.726 316.549 236.462 317.253 236.462ZM321.299 235.055C320.713 235.289 320.097 235.495 319.452 235.67C319.687 235.495 319.921 235.231 320.156 234.879C320.42 234.439 320.595 233.911 320.595 233.207C320.771 232.504 320.859 231.888 321.035 231.184C321.211 232.416 321.651 233.647 321.299 235.055ZM272.127 209.193C271.599 210.689 270.104 211.744 268.433 211.744C267.377 211.744 266.41 212.272 265.706 213.24C265.442 213.679 265.266 214.207 265.178 214.823C265.09 215.527 265.002 216.23 264.826 216.846C264.65 215.527 264.035 214.207 264.65 212.712C265.178 211.216 266.849 210.161 268.433 210.249C269.488 210.249 270.456 209.633 271.072 208.665C271.336 208.226 271.423 207.698 271.511 206.994C271.687 206.378 271.687 205.675 271.863 205.059C272.127 206.378 272.655 207.61 272.127 209.193ZM212.575 244.379C212.136 245.874 210.552 247.018 208.881 247.018C208.001 247.018 207.122 247.37 206.506 248.073C206.154 247.839 205.802 247.575 205.45 247.282C206.154 246.138 207.561 245.435 208.881 245.435C209.937 245.435 210.904 244.819 211.52 243.939C211.784 243.411 211.96 242.884 211.96 242.268C212.136 241.564 212.224 240.948 212.4 240.245C212.575 241.564 213.103 242.884 212.575 244.379ZM183.107 150.169C183.107 150.169 183.078 150.199 183.019 150.257C182.756 150.697 182.58 151.225 182.492 151.929C182.404 152.544 182.316 153.248 182.14 153.864C181.876 152.544 181.348 151.225 181.964 149.729C181.964 149.671 181.993 149.612 182.052 149.554C182.404 149.729 182.756 149.935 183.107 150.169ZM149.065 195.735C148.831 195.5 148.625 195.295 148.45 195.119C148.508 194.708 148.596 194.298 148.713 193.887C148.801 194.503 148.977 195.119 149.065 195.735ZM116.694 137.59C116.167 139.086 114.583 140.141 113 140.141C111.856 140.141 110.889 140.669 110.273 141.637C110.009 142.077 109.833 142.604 109.745 143.308C109.657 143.924 109.569 144.628 109.393 145.243C109.13 143.924 108.602 142.604 109.217 141.109C109.745 139.614 111.417 138.558 113 138.646C113.968 138.646 115.023 138.03 115.551 137.063C115.903 136.623 115.991 136.095 116.079 135.391C116.167 134.776 116.255 134.072 116.431 133.456C116.694 134.776 117.222 136.007 116.694 137.59ZM198.325 181.748C197.534 182.892 197.006 184.123 195.51 184.915C194.103 185.531 192.256 185.267 191.112 184.123C190.32 183.332 189.265 182.98 188.209 183.244C187.594 183.332 187.154 183.596 186.626 184.036C186.098 184.387 185.57 184.827 184.955 185.179C185.746 184.035 186.274 182.716 187.857 182.1C189.265 181.397 191.112 181.836 192.168 182.98C192.959 183.772 194.015 184.035 195.159 183.772C195.686 183.596 196.126 183.332 196.654 182.892C197.182 182.54 197.709 182.1 198.325 181.748ZM286.289 169.082C286.172 169.258 286.026 169.404 285.85 169.521C284.53 170.489 282.683 170.401 281.363 169.521C280.484 168.818 279.34 168.73 278.285 169.082C277.757 169.345 277.317 169.609 276.877 170.137C276.437 170.577 275.998 171.105 275.47 171.545C275.998 170.313 276.349 168.994 277.757 168.026C279.076 167.146 280.924 167.322 282.243 168.202C283.035 168.818 284.178 168.906 285.234 168.466C285.41 168.407 285.586 168.319 285.762 168.202L286.289 169.082ZM232.543 210.953C231.928 212.096 231.576 213.504 230.256 214.471C229.025 215.351 227.09 215.351 225.77 214.383C224.89 213.767 223.835 213.679 222.779 214.031C222.251 214.207 221.812 214.559 221.372 215.087C220.844 215.527 220.404 215.967 219.876 216.406C220.492 215.263 220.756 213.855 222.164 212.976C223.483 212.096 225.418 212.184 226.65 213.152C227.529 213.767 228.673 213.855 229.64 213.416C230.256 213.152 230.608 212.888 231.048 212.36C231.576 211.832 232.016 211.392 232.543 210.953ZM288.401 240.421C287.609 241.564 287.081 242.796 285.586 243.587C284.178 244.291 282.331 243.939 281.188 242.796C280.396 242.004 279.34 241.74 278.285 241.916C277.669 242.004 277.229 242.268 276.701 242.708C276.174 243.059 275.646 243.499 275.03 243.851C275.822 242.708 276.349 241.388 277.845 240.772C279.34 240.069 281.188 240.509 282.243 241.652C282.947 242.444 284.09 242.708 285.146 242.444C285.762 242.356 286.201 242.004 286.729 241.564C287.257 241.212 287.785 240.772 288.401 240.421ZM246.178 184.915C244.858 185.179 243.539 185.707 242.043 185.091C240.548 184.563 239.58 182.892 239.58 181.309C239.58 180.341 238.965 179.285 237.997 178.758C237.557 178.406 237.029 178.318 236.326 178.23C235.71 178.142 235.006 178.054 234.391 177.878C234.83 177.79 235.27 177.702 235.798 177.614C236.443 177.79 236.942 177.878 237.293 177.878C237.587 177.819 237.997 177.731 238.525 177.614C240.02 178.142 241.076 179.725 241.164 181.309C241.076 182.452 241.604 183.42 242.571 184.036C243.011 184.299 243.539 184.475 244.243 184.563C244.858 184.651 245.562 184.739 246.178 184.915ZM252.071 243.763C250.84 244.027 249.52 244.555 247.937 243.939C246.442 243.411 245.474 241.74 245.474 240.245C245.474 239.189 244.858 238.133 243.979 237.606C243.451 237.254 242.923 237.166 242.219 237.078C241.604 236.99 240.9 236.902 240.284 236.726C241.604 236.462 242.835 235.934 244.418 236.462C245.914 236.99 247.057 238.573 247.057 240.157C246.969 241.3 247.585 242.268 248.465 242.884C248.905 243.235 249.432 243.323 250.136 243.411C250.752 243.499 251.456 243.587 252.071 243.763ZM186.538 223.268C185.219 223.531 183.899 224.059 182.404 223.443C180.908 222.916 179.941 221.244 179.941 219.661C179.941 218.605 179.325 217.638 178.357 217.022C177.918 216.758 177.39 216.67 176.686 216.582C176.07 216.406 175.367 216.406 174.751 216.23C176.07 215.966 177.302 215.439 178.885 215.967C180.381 216.494 181.436 217.99 181.524 219.661C181.436 220.717 181.964 221.684 182.931 222.388C183.371 222.652 183.899 222.828 184.603 222.916C185.219 223.004 185.922 223.092 186.538 223.268Z" fill="black"/>
<path d="M268.785 170.313C275.998 180.693 282.859 191.337 289.632 202.068C292.975 207.258 296.405 212.448 299.748 217.726C303.179 223.18 306.345 228.809 309.776 234.263C309.952 234.527 309.6 234.703 309.424 234.527C305.554 229.249 301.595 224.235 297.901 218.869C294.294 213.768 290.952 208.578 287.609 203.388C280.748 192.744 274.15 181.837 268.433 170.489C268.257 170.313 268.609 170.049 268.785 170.313Z" fill="#2D3134"/>
<path d="M239.492 177.438C239.756 177.35 239.932 177.79 239.58 177.878C234.39 179.198 229.464 181.485 224.362 183.156C219.26 184.827 214.07 186.235 208.968 187.906C208.88 187.906 208.792 187.73 208.88 187.642C213.63 185.267 218.468 182.892 223.482 181.221C228.76 179.462 234.126 178.758 239.492 177.438Z" fill="#2D3134"/>
<path d="M306.169 240.069C280.396 248.337 238.349 260.652 224.627 258.101C204.131 254.319 128.13 178.494 110.537 149.642C107.634 144.979 105.347 140.757 103.588 136.887L306.169 240.069Z" fill="#2D3134"/>
<path d="M516.404 464.114C510.159 466.225 331.591 467.368 324.73 463.146C322.179 461.563 320.508 435.525 319.276 404.034C319.1 397.261 295.878 288.009 295.878 288.009L415.421 286.866L434.422 402.979C434.422 402.979 503.034 433.062 510.071 438.516C517.02 444.058 522.65 461.915 516.404 464.114Z" fill="#D3766A"/>
<path d="M516.404 464.026C510.159 466.225 331.591 467.368 324.73 463.146C322.179 461.475 320.42 435.525 319.364 404.034C319.276 402.451 317.957 395.326 316.021 385.298H431.518L434.421 402.979C434.421 402.979 503.033 433.062 510.071 438.516C517.02 444.058 522.649 461.915 516.404 464.026Z" fill="white"/>
<path d="M516.404 464.114C510.159 466.225 331.591 467.368 324.73 463.146C322.179 461.563 320.508 435.525 319.276 404.034L434.421 402.979C434.421 402.979 503.034 433.062 510.071 438.516C517.02 444.058 522.65 461.915 516.404 464.114Z" fill="#31C3E0"/>
<path d="M513.854 457.429C483.858 458.572 363.083 460.155 333.439 459.012C333.175 459.012 333.175 458.836 333.439 458.836C363.083 457.077 483.858 456.373 513.854 456.901C514.47 456.989 514.47 457.429 513.854 457.429Z" fill="#2D3134"/>
<path d="M498.548 432.623C486.672 433.59 476.029 443.97 474.445 455.669C474.445 455.845 474.094 455.845 474.094 455.669C473.83 449.424 476.996 443.706 480.691 439.66C484.473 435.349 491.422 432.007 498.548 432.183C498.723 432.183 498.723 432.535 498.548 432.623Z" fill="#2D3134"/>
<path d="M446.297 407.289C434.509 410.632 424.306 414.854 413.486 420.571C413.134 420.747 412.606 420.308 412.87 419.956C420.259 410.104 434.07 405.793 446.121 405.881C446.912 405.881 447.176 407.113 446.297 407.289Z" fill="#2D3134"/>
<path d="M455.621 410.895C443.834 414.15 433.542 418.46 422.722 424.09C422.37 424.266 421.843 423.826 422.106 423.474C429.495 413.622 443.394 409.312 455.357 409.4C456.237 409.4 456.413 410.632 455.621 410.895Z" fill="#2D3134"/>
<path d="M464.857 414.414C453.07 417.757 442.866 421.979 432.046 427.609C431.695 427.785 431.167 427.433 431.431 426.993C438.82 417.141 452.63 412.831 464.681 412.919C465.473 412.919 465.649 414.15 464.857 414.414Z" fill="#2D3134"/>
<path d="M474.093 417.933C462.394 421.275 452.102 425.497 441.283 431.127C440.931 431.391 440.403 430.951 440.667 430.599C448.056 420.747 461.954 416.437 473.917 416.525C474.797 416.525 474.973 417.757 474.093 417.933Z" fill="#2D3134"/>
<path d="M340.828 430.336C327.369 430.424 327.545 451.359 341.004 451.183C354.462 451.095 354.286 430.16 340.828 430.336Z" fill="white"/>
<path fill-rule="evenodd" clip-rule="evenodd" d="M457.996 391.367C451.575 399.724 441.723 405.09 433.278 410.983C432.399 411.599 431.343 410.895 431.079 410.104C430.903 410.104 430.728 410.016 430.728 409.752C431.343 399.372 435.39 387.497 441.459 379.052C445.154 373.774 452.719 368.761 458.788 373.774C464.594 378.525 461.779 386.441 457.996 391.367ZM458.524 381.427C457.205 368.409 445.505 378.525 442.955 382.483C441.283 385.034 439.876 387.849 438.644 390.576C435.917 396.381 434.07 402.363 431.959 408.344C436.005 405.178 440.228 402.363 444.274 399.372C449.2 395.766 459.228 388.64 458.524 381.427Z" fill="#2D3134"/>
<path fill-rule="evenodd" clip-rule="evenodd" d="M388.152 402.363C389.032 394.534 397.916 392.775 404.25 393.918C414.454 395.854 425.713 401.483 433.366 408.52C433.542 408.696 433.454 408.872 433.278 409.048C433.718 409.84 433.454 411.071 432.398 411.159C422.195 412.831 411.463 415.909 400.995 414.326C394.926 413.446 387.273 409.752 388.152 402.363ZM416.389 410.544C421.403 409.84 426.417 408.872 431.519 408.432C425.801 405.618 420.259 402.539 414.366 400.252C411.463 399.196 408.56 398.141 405.569 397.525C400.995 396.469 385.514 397.349 393.694 407.553C398.18 413.27 410.319 411.335 416.389 410.544Z" fill="#2D3134"/>
<path opacity="0.1" d="M516.404 464.114C511.742 465.697 408.56 466.753 355.518 465.345L343.643 403.858L434.422 402.979C434.422 402.979 503.034 433.062 510.071 438.516C517.02 444.058 522.65 461.915 516.404 464.114Z" fill="black"/>
<path d="M377.069 134.864C402.051 177.086 442.25 372.455 442.25 372.455L310.92 373.774L286.114 281.588C286.114 281.588 254.183 388.025 153.552 441.155C109.569 464.378 28.2026 449.16 10.1699 379.404L94.9674 273.319C94.9674 273.319 123.644 280.181 135.255 267.954C175.279 225.907 242.132 130.905 266.938 113.049C298.956 90.0019 354.198 96.1594 377.069 134.864Z" fill="#37474F"/>
<path d="M259.724 185.355C261.659 189.929 262.539 195.119 263.858 199.957C265.178 204.707 266.497 209.457 267.817 214.207C269.136 219.133 285.058 276.574 286.113 281.412C286.201 281.676 285.938 281.764 285.762 281.588C283.387 278.685 268.257 224.499 267.729 222.212C267.377 221.772 267.113 221.244 266.849 220.805C266.321 219.749 265.794 218.781 265.266 217.726C264.328 215.849 263.419 213.914 262.539 211.92C260.78 207.874 259.724 203.388 258.317 199.165C258.229 198.902 258.581 198.726 258.669 198.99C260.164 203.212 262.363 207.082 264.21 211.129C264.797 212.36 265.354 213.562 265.882 214.735C265.882 214.676 265.882 214.618 265.882 214.559C264.738 209.633 263.683 204.619 262.539 199.693C261.483 194.943 259.9 190.193 259.372 185.355C259.372 185.179 259.636 185.179 259.724 185.355Z" fill="#2D3134"/>
<path d="M430.463 350.552C422.37 351.256 414.102 351.256 406.009 351.432C391.055 351.696 376.189 351.783 361.235 351.871C346.369 351.959 331.503 352.135 316.637 351.256C316.285 351.256 316.197 350.64 316.549 350.64C324.73 350.112 332.911 349.848 341.091 349.672C356.045 349.408 370.911 349.496 385.865 349.408C393.313 349.408 400.76 349.438 408.208 349.496C415.597 349.496 423.074 349.496 430.463 350.024C430.815 350.024 430.815 350.552 430.463 350.552Z" fill="#2D3134"/>
<path d="M442.251 372.455L330.448 373.511L281.716 105.044C313.911 92.3769 357.365 101.613 377.069 134.864C402.051 177.086 442.251 372.455 442.251 372.455Z" fill="#2D3134"/>
<path d="M568.478 471.239C562.233 473.35 383.578 474.23 376.804 470.007C374.165 468.336 372.494 442.387 371.439 410.895C371.175 404.122 323.498 304.019 323.498 304.019L442.953 303.051L486.584 410.016C486.584 410.016 555.108 440.275 562.145 445.729C569.094 451.183 574.636 469.128 568.478 471.239Z" fill="#D3766A"/>
<path d="M568.39 471.239C562.233 473.35 383.577 474.23 376.804 470.007C374.165 468.336 372.494 442.387 371.438 410.895C371.438 409.4 367.392 399.46 363.697 390.928L477.963 388.816L486.583 410.016C486.583 410.016 555.107 440.275 562.145 445.729C569.094 451.271 574.635 469.128 568.39 471.239Z" fill="white"/>
<path d="M568.478 471.239C562.233 473.35 383.578 474.23 376.804 470.007C374.165 468.336 372.494 442.387 371.438 410.896L486.584 410.016C486.584 410.016 555.108 440.276 562.145 445.729C569.094 451.183 574.636 469.128 568.478 471.239Z" fill="#31C3E0"/>
<path d="M565.839 464.642C535.931 465.697 415.068 467.105 385.424 465.873C385.161 465.873 385.161 465.697 385.424 465.697C415.068 463.938 535.931 463.498 565.839 464.114C566.455 464.114 566.455 464.554 565.839 464.642Z" fill="#2D3134"/>
<path d="M550.622 439.748C538.747 440.715 528.103 451.007 526.432 462.794C526.432 462.97 526.08 462.97 526.08 462.794C525.816 456.549 528.983 450.831 532.677 446.785C536.548 442.475 543.497 439.132 550.622 439.396C550.798 439.396 550.798 439.748 550.622 439.748Z" fill="#2D3134"/>
<path d="M498.459 414.414C486.672 417.669 476.38 421.891 465.56 427.521C465.208 427.697 464.68 427.345 464.944 426.905C472.333 417.141 486.232 412.831 498.195 412.919C499.074 412.919 499.25 414.15 498.459 414.414Z" fill="#2D3134"/>
<path d="M507.695 417.933C495.908 421.275 485.616 425.498 474.796 431.127C474.445 431.303 473.917 430.863 474.181 430.512C481.658 420.66 495.468 416.349 507.519 416.437C508.311 416.437 508.487 417.669 507.695 417.933Z" fill="#2D3134"/>
<path d="M516.931 421.539C505.144 424.794 494.94 429.016 484.121 434.646C483.769 434.822 483.241 434.47 483.505 434.03C490.894 424.178 504.792 419.956 516.755 420.044C517.635 420.044 517.811 421.275 516.931 421.539Z" fill="#2D3134"/>
<path d="M526.256 425.058C514.468 428.401 504.177 432.623 493.357 438.253C493.005 438.429 492.477 437.989 492.741 437.637C500.13 427.785 514.029 423.475 525.992 423.563C526.871 423.563 527.047 424.794 526.256 425.058Z" fill="#2D3134"/>
<path d="M392.902 437.197C379.443 437.285 379.619 458.22 393.078 458.132C406.536 457.956 406.36 437.109 392.902 437.197Z" fill="white"/>
<path fill-rule="evenodd" clip-rule="evenodd" d="M510.159 398.405C503.737 406.849 493.885 412.127 485.353 418.021C484.473 418.636 483.505 417.933 483.242 417.141C482.978 417.141 482.802 417.053 482.802 416.789C483.505 406.409 487.552 394.534 493.621 386.09C497.316 380.812 504.881 375.886 511.038 380.9C516.756 385.562 513.853 393.567 510.159 398.405ZM510.598 388.553C509.367 375.446 497.668 385.562 495.117 389.52C493.445 392.071 492.038 394.886 490.719 397.613C488.08 403.419 486.232 409.4 484.121 415.382C488.08 412.215 492.302 409.4 496.436 406.409C501.362 402.803 511.302 395.678 510.598 388.553Z" fill="#2D3134"/>
<path fill-rule="evenodd" clip-rule="evenodd" d="M440.226 409.312C441.194 401.483 450.078 399.724 456.412 400.956C466.616 402.891 477.787 408.521 485.44 415.558C485.616 415.734 485.528 415.91 485.44 416.085C485.792 416.877 485.616 418.109 484.56 418.197C474.268 419.868 463.537 422.859 453.069 421.363C447 420.396 439.435 416.701 440.226 409.312ZM468.463 417.581C473.565 416.877 478.579 415.91 483.593 415.47C477.963 412.567 472.421 409.576 466.44 407.289C463.625 406.233 460.634 405.178 457.731 404.474C453.069 403.419 437.675 404.298 445.856 414.59C450.342 420.22 462.481 418.373 468.463 417.581Z" fill="#2D3134"/>
<path d="M381.554 126.771C406.536 168.994 491.158 381.515 491.158 381.515L351.647 382.747L305.993 270.856C305.993 270.856 244.77 462.003 120.037 462.003C58.2859 462.003 25.0354 430.687 4.8916 386.265L118.19 274.727C118.19 274.727 130.153 283.171 136.398 276.75C176.95 235.231 246.617 122.9 271.423 104.956C303.442 81.9092 358.596 88.0666 381.554 126.771Z" fill="#37474F"/>
<path d="M471.277 359.612C463.097 360.228 454.916 360.228 446.735 360.404C431.781 360.668 416.915 360.756 401.962 360.844C387.096 360.932 372.23 361.196 357.364 360.316C357.012 360.228 356.924 359.7 357.276 359.612C365.456 359.085 373.637 358.821 381.818 358.733C396.772 358.469 411.638 358.469 426.592 358.469C434.039 358.41 441.487 358.41 448.934 358.469C456.323 358.557 463.8 358.469 471.189 358.997C471.541 358.997 471.541 359.524 471.277 359.612Z" fill="#2D3134"/>
<path d="M306.257 270.68C306.257 270.768 306.081 270.944 305.993 270.768C303.53 266.37 301.507 261.532 299.747 256.87C297.812 251.885 296.023 246.871 294.381 241.828C292.622 239.013 290.599 236.198 288.752 233.471C286.465 230.041 284.441 226.434 283.21 222.564C283.21 222.388 283.386 222.3 283.474 222.476C284.969 226.434 287.256 229.865 289.631 233.296C291.039 235.495 292.446 237.606 293.678 239.805C292.681 236.814 291.713 233.794 290.775 230.745C288.136 221.948 286.201 212.8 284.266 203.74C284.178 203.476 284.617 203.3 284.793 203.652C285.614 206.115 286.465 208.607 287.344 211.129C288.312 213.504 289.016 215.967 289.895 218.342C293.062 226.874 295.613 235.671 298.516 244.291C299.923 248.689 301.331 253.088 302.65 257.486C303.969 261.796 305.377 266.194 306.257 270.68Z" fill="#2D3134"/>
<path d="M361.41 349.584C354.549 339.117 348.216 328.297 342.234 317.477C331.503 298.125 321.563 278.421 312.414 258.541C307.84 248.602 303.266 238.662 299.22 228.546C294.997 218.342 290.687 208.138 286.905 197.846C286.817 197.67 287.081 197.67 287.081 197.758C289.544 203.476 291.831 209.194 294.294 214.823C296.757 220.453 299.308 226.083 301.859 231.624C310.948 251.68 320.536 271.531 330.623 291.176C340.651 310.792 351.47 329.968 361.674 349.409C361.762 349.584 361.498 349.76 361.41 349.584Z" fill="#2D3134"/>
<path d="M140.092 273.671C136.867 277.717 133.583 281.735 130.24 285.722C127.337 289.241 124.435 292.935 121.444 296.454C118.453 299.914 115.492 303.374 112.559 306.834C109.657 310.44 106.666 313.959 103.763 317.565C100.772 321.172 97.6935 324.514 94.7907 328.209C94.6147 328.385 94.3508 328.121 94.5268 327.945C97.5176 323.635 100.42 319.149 103.587 314.926C106.93 310.44 110.448 305.954 113.967 301.468C111.914 303.169 109.891 304.84 107.897 306.482C104.203 309.473 100.42 312.463 96.9018 315.63C96.7259 315.806 96.6379 315.542 96.7259 315.454C100.244 312.112 103.587 308.681 107.194 305.514C110.448 302.699 113.791 300.06 117.222 297.509C118.394 296.043 119.597 294.607 120.828 293.199C126.81 286.25 133.231 279.653 139.828 273.319C140.004 273.143 140.268 273.495 140.092 273.671Z" fill="#2D3134"/>
<path d="M78.8695 378.876C75.7907 383.187 71.6564 386.529 66.9943 389.432C62.2443 392.335 56.9664 394.358 51.6006 396.469C51.3367 396.557 50.9848 396.117 51.2487 395.942C56.2627 392.863 61.2767 389.696 65.9388 386.177C69.9851 383.187 73.7676 379.844 76.4065 375.798C79.2214 371.4 80.4529 366.298 80.4529 361.02C80.3649 355.566 79.0454 350.2 77.4621 344.922C76.6704 342.195 75.6148 339.468 74.6472 336.742C74.1194 335.246 73.5037 333.839 72.8879 332.343C72.624 331.728 72.2722 331.112 72.0083 330.496C72.0083 330.496 71.979 330.467 71.9203 330.408C71.8617 330.174 71.803 329.968 71.7444 329.792C71.6271 329.382 71.5391 329.001 71.4805 328.649C71.3925 328.297 71.8324 328.121 72.0963 328.385C73.2398 329.616 73.9435 331.288 74.7352 332.695C75.5562 334.22 76.3772 335.745 77.1982 337.269C78.8695 340.26 80.189 343.339 81.4205 346.418C85.6427 357.237 85.3788 369.728 78.8695 378.876Z" fill="#2D3134"/>
<path d="M298.516 244.731C297.196 247.986 295.965 251.152 294.646 254.407C283.65 280.444 270.543 305.514 255.677 329.352C241.339 352.311 225.506 374.742 206.505 393.478C188.209 411.599 166.57 426.377 142.203 432.974C118.541 439.396 93.4713 436.933 71.3043 425.761C60.2208 420.219 50.1929 412.567 41.6604 403.154C32.5121 393.302 24.9472 382.043 17.7341 370.52C17.5582 370.344 17.9101 370.08 17.998 370.344C19.9332 373.1 21.8685 375.827 23.8037 378.524C31.5445 389.432 39.8132 399.988 49.7531 408.696C59.0773 416.877 69.8089 423.298 81.0684 427.52C92.2398 431.743 104.027 434.03 115.814 434.03C128.041 434.03 140.268 431.567 151.792 427.257C175.454 418.46 195.95 402.275 213.279 383.362C231.223 363.746 246.353 341.228 260.251 318.269C274.414 294.607 286.729 269.801 297.988 244.467C298.164 244.115 298.604 244.379 298.516 244.731Z" fill="#2D3134"/>
<path d="M348.567 373.247C348.743 373.774 347.952 374.126 347.688 373.599C346.808 371.839 345.753 370.168 344.785 368.497C343.817 366.737 343.026 364.89 342.146 363.131C340.387 359.612 338.686 356.035 337.044 352.399C331.151 339.468 325.873 326.274 320.771 313.079C318.132 306.511 315.64 299.885 313.294 293.199C312.062 289.857 310.831 286.514 309.775 283.171C308.72 279.917 306.169 273.759 305.641 270.416C305.553 269.889 306.433 269.713 306.697 270.065C307.664 271.736 309.511 276.398 310.215 278.157C310.977 279.975 311.71 281.793 312.414 283.611C313.91 287.306 315.317 291.088 316.812 294.783C321.914 307.889 327.104 320.908 332.558 333.927C335.314 340.436 338.07 346.945 340.827 353.455C342.234 356.797 343.466 360.052 344.785 363.307C346.104 366.649 347.248 369.992 348.567 373.247Z" fill="#2D3134"/>
<path d="M246.177 133.368C239.756 142.692 233.07 151.929 226.385 161.165C214.422 177.614 202.459 193.976 190.32 210.249C178.181 226.522 166.042 242.884 153.375 258.717C153.287 258.805 153.111 258.717 153.199 258.541C159.62 249.129 166.305 239.893 172.991 230.745C184.954 214.295 197.005 198.022 209.056 181.661C215.126 173.568 221.371 165.475 227.529 157.383C233.686 149.29 239.844 141.197 246.089 133.28C246.177 133.192 246.265 133.28 246.177 133.368Z" fill="#2D3134"/>
<path d="M77.1983 130.553C100.069 103.46 131.032 118.326 134.375 124.484C154.167 161.253 174.311 289.153 171.496 291.704L1.10926 391.543C1.10926 391.543 -13.7567 238.31 77.1983 130.553Z" fill="#31C3E0"/>
<path opacity="0.2" d="M111.944 180.957C110.625 181.221 109.305 181.748 107.722 181.133C106.314 180.605 105.259 178.934 105.259 177.35C105.347 176.295 104.731 175.327 103.763 174.799C103.324 174.448 102.796 174.36 102.092 174.272C101.388 174.096 100.773 174.096 100.069 173.92C101.388 173.656 102.708 173.128 104.291 173.656C105.787 174.184 106.842 175.679 106.842 177.35C106.842 178.406 107.37 179.374 108.338 180.077C108.777 180.341 109.305 180.517 109.921 180.605C110.625 180.693 111.24 180.781 111.944 180.957ZM124.875 263.731C123.643 263.995 122.324 264.523 120.74 263.907C119.245 263.379 118.277 261.708 118.277 260.213C118.277 259.157 117.662 258.101 116.782 257.574C116.254 257.222 115.727 257.134 115.023 257.046C114.407 256.958 113.703 256.87 113.088 256.694C114.407 256.518 115.639 255.99 117.222 256.518C118.717 256.958 119.861 258.541 119.861 260.125C119.773 261.268 120.389 262.236 121.268 262.852C121.708 263.203 122.236 263.291 122.94 263.379C123.555 263.467 124.259 263.555 124.875 263.731ZM75.9667 208.578C74.7352 208.754 73.3278 209.281 71.8324 208.666C70.337 208.138 69.3694 206.554 69.3694 204.971C69.3694 203.916 68.7536 202.948 67.874 202.332C67.3462 202.068 66.8184 201.892 66.1147 201.892C65.4989 201.716 64.7952 201.628 64.1795 201.453C65.4989 201.277 66.7304 200.749 68.3138 201.277C69.8092 201.716 70.8648 203.3 70.9527 204.971C70.8648 206.027 71.4805 206.994 72.3602 207.61C72.8 207.962 73.3278 208.138 74.0315 208.138C74.6472 208.314 75.3509 208.402 75.9667 208.578ZM49.4895 293.375C48.17 293.551 46.8505 294.079 45.2672 293.463C43.8597 292.935 42.8042 291.352 42.8042 289.769C42.8921 288.713 42.2764 287.745 41.3088 287.13C40.869 286.866 40.3412 286.69 39.6375 286.69C38.9338 286.514 38.318 286.426 37.6143 286.25C38.9338 286.074 40.2532 285.546 41.8366 286.074C43.332 286.602 44.3875 288.097 44.3875 289.769C44.3875 290.824 44.9153 291.792 45.8829 292.407C46.3227 292.759 46.8505 292.935 47.4663 292.935C48.17 293.111 48.7857 293.199 49.4895 293.375ZM46.1468 347.913C44.8273 348.089 43.5079 348.617 42.0125 348.001C40.5171 347.473 39.4615 345.89 39.5495 344.306C39.5495 343.251 38.9337 342.283 37.9661 341.667C37.5263 341.404 36.9985 341.228 36.2948 341.228C35.6791 341.052 34.9754 340.964 34.3596 340.788C35.6791 340.612 36.9106 340.084 38.4939 340.612C39.9893 341.052 41.0449 342.635 41.0449 344.218C41.0449 345.362 41.5727 346.33 42.5403 346.945C42.9801 347.297 43.5079 347.473 44.2116 347.473C44.8274 347.649 45.5311 347.737 46.1468 347.913ZM90.5688 121.141C89.5132 121.317 88.3696 121.757 87.1381 121.493C87.5486 121.258 87.9592 121.024 88.3697 120.789C88.4283 120.789 88.4869 120.789 88.5456 120.789C89.2493 120.877 89.865 120.965 90.5688 121.141ZM149.681 233.647C148.889 234.791 148.361 236.022 146.866 236.814C145.458 237.43 143.611 237.166 142.468 236.022C141.676 235.231 140.62 234.879 139.565 235.143C138.949 235.231 138.509 235.495 137.981 235.935C137.454 236.286 136.926 236.726 136.31 237.078C137.102 235.934 137.63 234.615 139.125 233.999C140.62 233.296 142.468 233.735 143.523 234.879C144.227 235.583 145.37 235.934 146.514 235.671C147.042 235.495 147.482 235.231 148.009 234.791C148.537 234.439 149.065 233.999 149.681 233.647ZM167.889 257.574C167.713 257.691 167.567 257.838 167.449 258.014C166.922 258.453 166.482 258.981 165.954 259.421C166.394 258.365 166.746 257.222 167.713 256.342C167.772 256.753 167.831 257.163 167.889 257.574ZM21.4289 264.171C20.6372 265.315 20.1094 266.546 18.614 267.338C17.2066 268.041 15.3593 267.69 14.2158 266.546C13.6 265.93 12.8084 265.578 11.9287 265.578L12.2806 264.171C13.3362 264.171 14.4797 264.611 15.2714 265.403C15.9751 266.194 17.1186 266.458 18.1742 266.194C18.7899 266.018 19.2298 265.754 19.7575 265.315C20.2853 264.963 20.8131 264.523 21.4289 264.171ZM76.7584 321.788C75.9667 322.843 75.4389 324.075 73.9435 324.866C72.5361 325.57 70.6888 325.218 69.5453 324.075C68.7536 323.283 67.698 323.019 66.5545 323.195C66.0267 323.283 65.5869 323.547 65.0591 323.987C64.4434 324.339 63.9156 324.778 63.3878 325.13C64.0915 324.075 64.7073 322.755 66.2027 322.051C67.6101 321.348 69.5453 321.788 70.6009 322.931C71.3046 323.723 72.4481 323.987 73.5037 323.723C74.1194 323.635 74.5593 323.283 75.0871 322.843C75.6148 322.491 76.1426 322.051 76.7584 321.788ZM6.91478 356.709C6.1231 357.765 5.5953 359.084 4.09991 359.788C2.86841 360.404 1.37303 360.228 0.229492 359.524C0.288135 358.879 0.317462 358.205 0.317462 357.501C0.49339 357.618 0.639997 357.765 0.757283 357.941C1.461 358.645 2.60452 358.908 3.66009 358.645C4.27584 358.557 4.71566 358.293 5.24345 357.853C5.77124 357.413 6.29903 357.061 6.91478 356.709ZM80.8927 251.944C80.101 253 79.5732 254.231 78.0778 255.023C76.6704 255.726 74.8232 255.375 73.6796 254.231C72.8879 253.439 71.8324 253.175 70.7768 253.351C70.161 253.439 69.7212 253.703 69.1934 254.143C68.6656 254.495 68.1379 254.935 67.5221 255.287C68.3138 254.231 68.8416 252.912 70.337 252.208C71.8324 251.592 73.6796 252.032 74.7352 253.088C75.4389 253.879 76.5824 254.143 77.638 253.879C78.2538 253.791 78.6936 253.527 79.2214 253.088C79.7491 252.648 80.2769 252.296 80.8927 251.944ZM127.778 309.912C126.986 310.968 126.458 312.287 124.963 312.991C123.555 313.695 121.708 313.431 120.565 312.287C119.773 311.496 118.717 311.144 117.662 311.32C117.046 311.496 116.606 311.76 116.078 312.111C115.551 312.551 115.023 312.903 114.407 313.255C115.199 312.199 115.727 310.88 117.222 310.264C118.717 309.561 120.565 310 121.62 311.144C122.412 311.848 123.467 312.111 124.611 311.936C125.139 311.76 125.579 311.496 126.106 311.056C126.634 310.704 127.162 310.264 127.778 309.912ZM116.694 137.59C116.166 139.086 114.583 140.141 113 140.141C111.856 140.141 110.888 140.669 110.273 141.637C110.009 142.077 109.833 142.604 109.745 143.308C109.657 143.924 109.569 144.628 109.393 145.243C109.129 143.924 108.601 142.604 109.217 141.109C109.745 139.614 111.416 138.558 113 138.646C113.967 138.646 115.023 138.03 115.551 137.063C115.902 136.623 115.99 136.095 116.078 135.391C116.166 134.776 116.254 134.072 116.43 133.456C116.694 134.776 117.222 136.007 116.694 137.59ZM155.486 285.282C155.047 286.69 153.463 287.833 151.792 287.833C150.736 287.833 149.769 288.361 149.153 289.241C148.801 289.769 148.625 290.208 148.625 290.912C148.449 291.616 148.361 292.232 148.185 292.935C148.009 291.616 147.482 290.296 148.097 288.713C148.625 287.218 150.208 286.25 151.792 286.25C152.847 286.25 153.815 285.634 154.431 284.755C154.695 284.227 154.871 283.787 154.871 283.083C155.047 282.38 155.134 281.764 155.31 281.06C155.486 282.38 156.014 283.699 155.486 285.282ZM148.889 198.022C148.449 199.517 146.866 200.573 145.282 200.661C144.139 200.573 143.171 201.189 142.556 202.068C142.204 202.508 142.116 203.036 142.028 203.74C141.852 204.355 141.852 205.059 141.676 205.675C141.412 204.443 140.884 203.036 141.5 201.54C142.028 200.045 143.611 199.077 145.195 199.077C146.25 199.077 147.218 198.462 147.833 197.582C148.185 197.054 148.273 196.526 148.361 195.823C148.449 195.207 148.537 194.503 148.713 193.888C148.889 195.207 149.417 196.439 148.889 198.022ZM107.81 219.925C107.282 221.42 105.787 222.476 104.115 222.476C103.06 222.476 102.092 223.004 101.476 223.971C101.124 224.411 100.949 224.939 100.949 225.555C100.773 226.258 100.685 226.874 100.509 227.578C100.333 226.258 99.805 224.939 100.421 223.444C100.949 221.948 102.532 220.893 104.115 220.981C105.171 220.981 106.138 220.365 106.754 219.397C107.018 218.957 107.194 218.43 107.194 217.726C107.37 217.11 107.458 216.406 107.634 215.791C107.81 217.11 108.338 218.342 107.81 219.925ZM18.4381 315.806C17.9983 317.301 16.4149 318.357 14.8316 318.445C13.688 318.357 12.7204 318.885 12.1047 319.852C11.7528 320.292 11.6648 320.82 11.5769 321.524C11.4009 322.139 11.4009 322.843 11.225 323.459C10.9611 322.139 10.4333 320.82 11.0491 319.325C11.5769 317.829 13.1602 316.774 14.7436 316.862C15.7992 316.862 16.7668 316.246 17.3825 315.278C17.7344 314.838 17.8223 314.311 17.9103 313.607C17.9983 312.991 18.0862 312.287 18.2622 311.672C18.4381 312.991 18.9659 314.223 18.4381 315.806ZM30.6651 374.214L30.3133 374.39C30.4305 374.097 30.5185 373.804 30.5771 373.511C30.5771 373.745 30.6065 373.98 30.6651 374.214ZM47.2903 177.526C46.8505 179.022 45.3551 180.077 43.7718 180.077C44.065 179.491 44.3582 178.904 44.6514 178.318C45.2672 178.054 45.8829 177.614 46.2348 176.998C46.4987 176.559 46.6746 176.031 46.6746 175.327C46.7332 175.034 46.7919 174.711 46.8505 174.36C46.9678 174.184 47.0851 174.008 47.2024 173.832C47.3783 174.975 47.7302 176.119 47.2903 177.526ZM47.2903 235.407C46.7626 236.902 45.2672 237.958 43.5959 237.958C42.5403 237.958 41.5727 238.485 40.9569 239.453C40.6051 239.893 40.4291 240.421 40.4291 241.036C40.2532 241.74 40.1652 242.356 39.9893 243.06C39.8134 241.74 39.2856 240.421 39.9014 238.837C40.4291 237.43 42.0125 236.374 43.5959 236.462C44.6514 236.462 45.619 235.847 46.2348 234.879C46.4987 234.439 46.6746 233.911 46.6746 233.208C46.8505 232.504 46.9385 231.888 47.1144 231.184C47.2904 232.504 47.8181 233.823 47.2903 235.407ZM93.8234 285.282C93.2956 286.69 91.8003 287.833 90.1289 287.833C89.0734 287.833 88.1058 288.361 87.49 289.241C87.1382 289.769 86.9622 290.208 86.8742 290.912C86.7863 291.616 86.6983 292.232 86.5224 292.935C86.3465 291.616 85.7307 290.296 86.3465 288.713C86.9622 287.218 88.5456 286.25 90.1289 286.25C91.1845 286.25 92.1521 285.634 92.7679 284.755C93.0318 284.227 93.1197 283.787 93.2077 283.083C93.3836 282.38 93.3836 281.764 93.5595 281.06C93.8234 282.38 94.3512 283.699 93.8234 285.282ZM148.097 162.66C147.745 162.484 147.482 162.22 147.218 161.957C146.514 161.253 145.37 160.989 144.315 161.253C143.787 161.341 143.347 161.605 142.82 162.045C142.204 162.484 141.676 162.836 141.148 163.188C141.852 162.133 142.38 160.813 143.875 160.109C144.931 159.582 146.25 159.669 147.394 160.197C147.628 161.018 147.863 161.839 148.097 162.66ZM83.4436 153.952C82.652 155.007 82.1242 156.327 80.5408 157.031C79.1334 157.646 77.2861 157.206 76.1426 156.063C75.4389 155.359 74.2954 155.095 73.2398 155.359C72.712 155.447 72.2722 155.711 71.7444 156.151C71.1286 156.503 70.6009 156.943 70.0731 157.294C70.8648 156.239 71.3925 154.919 72.8 154.216C74.2074 153.512 76.1426 153.864 77.2862 154.919C77.9899 155.711 79.1334 156.063 80.189 155.887C80.7167 155.711 81.2445 155.535 81.7723 155.095C82.3001 154.656 82.8279 154.304 83.4436 153.952Z" fill="black"/>
<path d="M131.296 158.702C122.412 159.494 99.0135 137.942 97.2542 122.901C97.1663 121.845 114.407 89.5621 117.222 82.7888C117.75 81.3814 155.399 110.41 155.399 110.41C155.399 110.41 145.371 122.901 140.709 134.688C140.298 135.685 140.005 136.652 139.829 137.591C139.77 137.708 139.741 137.854 139.741 138.03C138.422 143.66 141.148 157.91 131.296 158.702Z" fill="#D3766A"/>
<path d="M155.398 110.41C155.398 110.41 145.37 122.9 140.708 134.688C140.298 135.685 140.004 136.652 139.829 137.591C139.77 137.708 139.741 137.854 139.741 138.03C138.333 137.678 136.838 137.151 135.254 136.535C112.032 126.419 117.222 95.0158 119.861 84.1083C128.481 89.738 155.398 110.41 155.398 110.41Z" fill="#2D3134"/>
<path d="M192.607 32.8251C201.403 46.3716 191.111 108.122 172.375 122.021C153.023 136.359 127.689 125.188 117.397 104.956C110.272 90.9695 118.981 43.7327 129.448 30.1862C144.93 10.2183 179.764 12.7693 192.607 32.8251Z" fill="#D3766A"/>
<path opacity="0.4" d="M183.019 86.1315C183.019 86.1315 185.658 84.9 185.658 85.3398C185.658 85.4278 184.515 86.7473 184.251 87.363C184.075 87.8028 183.019 88.4186 183.019 88.5065C183.019 89.914 183.019 90.9695 183.019 91.5853C183.019 92.377 182.579 95.1039 182.579 95.8955C182.579 96.6872 183.107 99.4141 183.107 100.558C183.107 101.701 183.195 107.243 182.755 108.123C182.315 109.002 183.107 113.4 181.964 114.456C180.82 115.512 181.084 111.201 181.612 110.322C182.14 109.354 182.14 102.053 182.315 100.997C182.491 100.03 181.788 96.9511 181.788 96.1594C181.788 95.3678 182.315 93.4325 182.315 91.9372C182.315 90.8816 182.315 89.1223 182.315 87.7149C182.315 87.5389 180.644 86.6593 180.644 86.4834C180.644 86.3954 179.94 85.2519 179.94 85.1639C179.94 84.9 182.315 86.1315 182.315 86.1315H183.019Z" fill="white"/>
<path d="M156.367 63.0849C157.774 62.645 159.094 62.5571 160.589 62.2932C162.172 62.0293 163.492 61.6774 164.987 62.3812C165.867 62.821 166.307 64.0525 166.043 64.9321C165.339 66.8673 163.404 67.659 161.469 68.0988C159.358 68.5387 157.598 68.3627 155.751 67.3072C153.904 66.3396 154.52 63.5247 156.367 63.0849Z" fill="#2D3134"/>
<path d="M189.089 78.5665C186.978 78.1267 185.482 77.2471 184.075 75.5757C182.843 74.0803 181.876 72.2331 182.491 70.2979C182.843 69.4182 183.987 68.7145 184.867 68.9784C186.538 69.3303 187.33 70.3858 188.385 71.6173C189.353 72.6729 190.408 73.6405 191.288 74.872C192.431 76.3674 191.112 78.9184 189.089 78.5665Z" fill="#2D3134"/>
<path d="M148.537 102.845C149.065 103.724 149.593 104.956 150.737 105.308C151.792 105.659 153.2 105.484 154.343 105.308C154.431 105.308 154.519 105.396 154.431 105.484C153.287 106.539 151.44 106.891 150.033 106.275C148.625 105.747 148.186 104.34 148.186 102.933C148.186 102.757 148.449 102.757 148.537 102.845Z" fill="#2D3134"/>
<path d="M156.19 98.4465C162.172 96.3354 168.154 99.678 168.154 99.678C168.505 98.6225 169.121 91.4094 169.561 91.4094C170.793 91.6733 172.904 93.1687 174.223 94.0483C176.158 83.8445 176.422 73.3767 178.445 63.2608C178.533 62.909 179.061 62.909 179.061 63.2608C179.589 74.2564 177.654 86.0436 175.982 96.6872C175.718 97.9187 171.672 94.9279 170.88 94.2242C170.88 94.2242 169.649 100.91 169.561 100.997V101.085C169.473 101.437 168.945 102.053 168.593 102.053C165.339 100.91 160.325 99.1502 155.927 99.854C153.815 100.206 154.607 99.0623 156.19 98.4465Z" fill="#2D3134"/>
<path d="M180.82 78.8303C180.82 78.7424 180.996 79.0063 180.908 79.1822C180.028 81.9971 179.412 85.5156 181.787 87.1869C181.787 87.2749 181.787 87.4508 181.699 87.3629C178.621 85.9555 179.412 81.3813 180.82 78.8303Z" fill="#2D3134"/>
<path d="M181.084 78.3905C180.82 79.7979 180.644 81.2933 180.732 82.7008C180.82 84.0202 181.348 85.1637 182.491 85.4276C183.459 85.6915 184.514 84.8999 185.218 83.7563C185.57 83.1699 185.892 82.5541 186.186 81.9091C186.479 81.264 186.713 80.5603 186.889 79.7979C187.065 80.7655 186.977 81.8211 186.713 82.8767C186.596 83.3458 186.45 83.815 186.274 84.2841C185.922 84.9878 185.482 85.6916 184.778 86.2193C184.075 86.8351 183.019 87.099 182.051 86.8351C181.172 86.5712 180.38 85.9554 179.94 85.1638C179.588 84.2841 179.5 83.4045 179.588 82.6128C179.764 81.1174 180.292 79.622 181.084 78.3905Z" fill="#2D3134"/>
<path opacity="0.4" d="M158.037 79.7101C159.269 80.062 160.764 79.7981 160.764 80.3259C160.764 80.4139 160.412 81.1176 159.885 81.3815C158.829 81.9093 158.301 83.2287 158.301 83.3167C158.037 86.5714 157.158 90.7937 157.158 91.0575C157.158 91.4974 157.334 94.2243 156.894 94.928C156.454 95.7196 151.88 98.4465 151.352 98.9743C150.736 99.4142 146.426 104.868 146.338 105.396C146.25 105.836 145.458 116.831 145.458 117.447C145.371 118.063 146.778 122.285 146.778 123.34C146.778 123.956 146.162 126.155 146.162 126.771C146.25 127.387 146.778 127.739 146.778 127.827C146.866 128.003 146.69 128.178 146.426 128.178C146.162 128.09 145.986 128.003 145.81 127.651C145.634 127.299 145.634 124.66 145.81 123.516C145.986 122.285 145.019 119.206 144.931 117.711C144.755 116.215 145.371 107.507 145.546 105.66C145.722 103.812 149.681 99.766 150.736 98.4465C151.792 97.1271 155.398 94.928 155.838 94.4881C156.19 94.1363 156.278 92.9928 156.102 91.4094C155.926 89.826 157.246 86.4834 157.246 85.2519C157.334 84.5482 157.246 84.4602 157.246 83.4047C157.158 81.9093 156.718 81.2935 156.278 80.7657C155.662 80.062 155.398 78.0388 155.398 77.8629C155.486 77.599 156.718 79.3583 158.037 79.7101Z" fill="white"/>
<path d="M157.95 81.3813C157.862 81.3813 157.862 81.2054 157.95 81.2054C160.853 80.7656 161.908 77.4229 162.436 74.4321C162.436 74.3442 162.7 74.0803 162.7 74.2562C162.7 77.159 161.292 81.5572 157.95 81.3813Z" fill="#2D3134"/>
<path d="M161.996 78.1268C161.732 78.9184 161.204 79.6221 160.5 80.1499C159.797 80.7657 158.741 80.9416 157.862 80.7657C156.894 80.5018 156.102 79.7981 155.75 78.9184C155.399 78.1268 155.311 77.3351 155.311 76.5434C155.369 76.0156 155.457 75.5172 155.574 75.048C155.838 73.9924 156.19 73.0248 156.894 72.2332C156.659 72.9955 156.513 73.7285 156.454 74.4323C156.454 75.136 156.483 75.8104 156.542 76.4555C156.63 77.8629 157.158 79.0944 158.213 79.2703C159.269 79.5342 160.237 78.8305 160.94 77.599C161.644 76.4554 162.172 75.048 162.7 73.6406C162.788 75.136 162.612 76.7193 161.996 78.1268Z" fill="#2D3134"/>
<path opacity="0.2" d="M130.593 52.1773C127.074 56.3996 119.421 66.6035 116.87 66.6914C119.861 49.9782 124.435 35.5521 131.296 27.8992C134.287 24.6445 137.542 22.1816 141.324 20.2463C140.269 24.6445 134.375 47.6912 130.593 52.1773Z" fill="#2D3134"/>
<path d="M180.996 43.4688C176.862 47.7791 170.176 49.6263 164.459 47.955C158.389 46.2837 154.343 40.9178 153.023 34.9363C153.023 34.7603 153.287 34.7603 153.287 34.9363C154.519 40.478 159.533 45.0521 164.899 46.7235C170.44 48.3948 176.422 46.9874 180.732 43.2049C180.908 43.029 181.172 43.2929 180.996 43.4688Z" fill="#2D3134"/>
<path d="M186.978 12.5934C187.066 12.9452 186.274 13.0332 186.186 12.6814C184.955 9.33872 182.052 6.4359 178.269 4.32476C170.968 0.366373 161.996 0.542307 154.695 3.97291C147.218 7.49148 142.996 14.4406 142.644 21.038C142.644 21.1259 142.292 21.1259 142.292 20.95C142.204 16.8157 143.084 12.8573 145.723 9.16279C150.121 3.18123 159.621 -0.953101 169.209 0.190434C177.83 1.15804 185.131 6.25997 186.978 12.5934Z" fill="#2D3134"/>
<path d="M218.645 43.3809C212.927 52.1773 200.964 54.9921 191.728 50.2421C191.464 50.1541 191.728 49.8902 191.904 49.9782C197.006 52.4412 203.075 52.6171 208.265 50.506C217.501 46.8994 222.691 36.1678 220.052 26.5797C218.821 22.0056 215.742 17.9592 211.872 15.2323C207.122 11.8897 201.316 11.3619 195.686 11.098C195.51 11.098 195.51 10.8341 195.686 10.8341C202.372 11.098 209.057 11.4499 214.423 15.8481C218.205 19.0148 220.932 23.501 221.812 28.427C222.779 33.5289 221.46 38.9827 218.645 43.3809Z" fill="#2D3134"/>
<path d="M123.555 41.4458C123.555 41.4458 116.958 23.0612 125.93 14.2648C130.944 9.25085 145.107 11.9777 145.107 11.9777C145.107 11.9777 150.824 4.41283 163.051 3.44522C175.366 2.38965 188.561 11.362 188.561 11.362C188.561 11.362 200.788 6.43601 210.552 14.0009C224.098 24.5566 219.084 46.8116 203.163 52.0015C191.991 55.608 179.149 44.3486 179.149 44.3486C177.741 44.2606 162.611 50.77 153.815 36.7837C153.815 36.7837 144.139 43.205 137.19 36.7837C137.19 36.7837 132.176 43.9967 123.555 41.4458Z" fill="#2D3134"/>
<path d="M123.379 82.9647C123.379 82.9647 118.013 89.0343 111.416 83.4046C104.731 77.7748 104.643 54.2884 112.472 52.9689C120.213 51.7374 125.139 69.6821 125.139 69.6821L123.379 82.9647Z" fill="#D3766A"/>
<path d="M119.069 81.3814C119.069 81.4401 119.069 81.4694 119.069 81.4694C119.069 82.0851 118.102 82.0851 118.014 81.4694C117.75 79.7981 117.662 77.9508 117.046 76.3675C116.166 73.9924 114.671 73.1128 112.296 72.7609C112.208 72.7609 112.12 72.497 112.296 72.4091C115.639 71.4415 117.398 73.3767 118.277 75.9276C118.19 70.034 117.134 64.0525 112.56 59.9181C112.472 59.8302 112.56 59.6543 112.648 59.7422C119.773 63.0849 121.62 74.5202 119.069 81.3814Z" fill="#2D3134"/>
<path d="M430.374 163.276C435.652 171.545 429.142 179.286 429.142 179.286C429.142 179.286 436.267 182.452 439.082 189.402C442.337 197.406 431.253 205.939 431.253 205.939C431.253 205.939 437.763 210.689 440.05 218.342C442.337 226.259 432.397 236.55 432.397 236.55C432.397 236.55 436.092 244.291 433.277 252.296C428.527 265.93 406.887 270.768 393.165 274.023C379.443 277.278 337.484 273.495 329.391 273.671L308.016 185.707C308.016 185.707 365.456 153.776 382.081 152.281C396.156 151.049 424.392 154.04 430.374 163.276Z" fill="#D3766A"/>
<path d="M428.175 178.758C413.045 179.901 397.74 178.582 382.698 180.253C382.346 180.253 382.258 179.725 382.61 179.725C397.828 178.23 412.869 175.767 428.175 178.054C428.527 178.142 428.527 178.758 428.175 178.758Z" fill="#2D3134"/>
<path d="M430.726 205.939C427.472 207.082 423.865 207.258 420.434 207.698C416.74 208.167 413.045 208.666 409.351 209.193C401.962 210.161 394.661 211.393 387.36 212.712C387.008 212.8 386.92 212.272 387.272 212.272C394.544 210.513 401.845 208.959 409.175 207.61C412.811 206.906 416.476 206.291 420.17 205.763C423.601 205.235 427.208 204.531 430.638 204.883C431.166 204.971 431.254 205.763 430.726 205.939Z" fill="#2D3134"/>
<path d="M432.134 236.902C429.671 238.398 426.064 238.75 423.25 239.189C419.907 239.776 416.564 240.362 413.222 240.949C406.36 242.004 399.499 242.972 392.726 244.027C392.374 244.115 392.286 243.588 392.638 243.5C399.323 242.444 406.009 241.125 412.694 239.805C416.037 239.16 419.379 238.515 422.722 237.87C425.625 237.254 429.055 236.111 432.046 236.55C432.222 236.55 432.31 236.814 432.134 236.902Z" fill="#2D3134"/>
<path d="M329.392 273.671C287.521 275.958 186.362 292.32 161.908 280.269C139.565 269.273 103.411 223.18 74.2953 178.406C58.8136 154.568 65.059 136.711 92.152 149.202C120.301 162.133 176.51 211.744 182.579 214.383C190.496 217.726 296.581 189.401 314.789 182.012C328.072 176.735 337.924 273.143 329.392 273.671Z" fill="#D3766A"/>
<path d="M163.667 287.746C144.139 278.597 91.0967 220.629 70.9529 177.614C55.1194 143.836 74.2076 133.456 98.0459 149.29C123.38 166.179 175.366 209.106 182.052 211.481C194.279 215.791 308.368 181.309 308.368 181.309L325.345 280.005C325.345 280.005 178.533 294.695 163.667 287.746Z" fill="#31C3E0"/>
<path opacity="0.2" d="M111.944 180.957C110.625 181.221 109.305 181.749 107.722 181.133C106.315 180.605 105.259 178.934 105.259 177.35C105.347 176.295 104.731 175.327 103.764 174.799C103.324 174.448 102.796 174.36 102.092 174.272C101.388 174.096 100.773 174.096 100.069 173.92C101.389 173.656 102.708 173.128 104.291 173.656C105.787 174.184 106.842 175.679 106.842 177.35C106.842 178.406 107.37 179.374 108.338 180.077C108.778 180.341 109.305 180.517 109.921 180.605C110.625 180.693 111.241 180.781 111.944 180.957ZM186.626 223.268C185.306 223.532 183.987 224.059 182.404 223.444C180.908 222.916 179.941 221.245 179.941 219.661C179.941 218.606 179.325 217.638 178.445 217.022C177.917 216.758 177.478 216.67 176.774 216.582C176.07 216.407 175.454 216.406 174.751 216.231C176.07 215.967 177.39 215.439 178.973 215.967C180.38 216.494 181.524 217.99 181.524 219.661C181.524 220.717 182.052 221.684 182.931 222.388C183.459 222.652 183.899 222.828 184.603 222.916C185.306 223.004 185.922 223.092 186.626 223.268ZM199.645 289.329C198.999 289.387 198.384 289.417 197.797 289.417C197.182 288.713 196.83 287.745 196.83 286.778C196.83 285.722 196.214 284.755 195.334 284.227C194.806 283.875 194.367 283.787 193.663 283.699C192.959 283.611 192.344 283.523 191.64 283.347C192.959 283.083 194.279 282.556 195.862 283.083C197.27 283.611 198.413 285.195 198.413 286.778C198.413 287.833 198.853 288.713 199.645 289.329ZM252.159 243.763C250.84 244.027 249.52 244.555 247.937 243.939C246.529 243.411 245.474 241.74 245.474 240.245C245.562 239.189 244.946 238.134 243.979 237.606C243.451 237.254 243.011 237.166 242.307 237.078C241.603 236.99 240.988 236.902 240.284 236.726C241.603 236.462 242.923 235.935 244.506 236.462C246.002 236.99 247.057 238.573 247.057 240.157C247.057 241.3 247.585 242.268 248.465 242.884C248.992 243.236 249.52 243.324 250.136 243.412C250.84 243.499 251.455 243.587 252.159 243.763ZM312.327 204.091C311.359 203.388 310.831 202.156 310.831 201.013C310.831 199.957 310.216 198.99 309.336 198.374C308.808 198.022 308.368 197.934 307.665 197.846C306.961 197.758 306.345 197.67 305.641 197.494C306.961 197.318 308.28 196.79 309.864 197.318C310.391 197.494 310.919 197.846 311.271 198.286L312.327 204.091ZM305.817 277.19C304.498 277.366 303.178 277.893 301.595 277.366C300.188 276.75 299.132 275.167 299.132 273.583C299.22 272.528 298.604 271.56 297.637 270.944C297.197 270.68 296.669 270.504 295.965 270.504C295.262 270.329 294.646 270.241 293.942 270.065C295.262 269.889 296.581 269.361 298.164 269.889C299.66 270.417 300.715 271.912 300.715 273.583C300.715 274.639 301.243 275.606 302.211 276.222C302.651 276.574 303.178 276.75 303.794 276.75C304.498 276.926 305.114 277.014 305.817 277.19ZM149.769 233.647C148.977 234.703 148.449 236.022 146.954 236.726C145.547 237.43 143.699 237.078 142.468 235.935C141.764 235.143 140.709 234.879 139.565 235.055C139.037 235.143 138.597 235.407 138.07 235.847C137.454 236.198 136.926 236.638 136.398 236.99C137.102 235.935 137.718 234.615 139.213 233.911C140.621 233.296 142.468 233.735 143.611 234.791C144.315 235.583 145.459 235.847 146.514 235.583C147.13 235.495 147.482 235.231 148.098 234.791C148.625 234.351 149.153 233.999 149.769 233.647ZM288.488 240.421C287.697 241.476 287.169 242.796 285.674 243.499C284.266 244.203 282.419 243.851 281.275 242.708C280.484 241.916 279.428 241.652 278.373 241.828C277.757 241.916 277.317 242.18 276.789 242.62C276.261 243.06 275.734 243.411 275.118 243.763C275.91 242.708 276.437 241.388 277.933 240.685C279.428 240.069 281.275 240.509 282.331 241.652C283.035 242.356 284.178 242.62 285.234 242.356C285.849 242.268 286.289 242.004 286.817 241.564C287.345 241.124 287.873 240.773 288.488 240.421ZM237.645 268.042C236.853 269.185 236.326 270.417 234.83 271.208C233.423 271.912 231.576 271.56 230.432 270.416C229.64 269.625 228.585 269.273 227.529 269.537C226.913 269.625 226.474 269.889 225.946 270.329C225.418 270.68 224.89 271.12 224.275 271.472C225.066 270.329 225.594 269.009 227.089 268.393C228.585 267.69 230.432 268.129 231.488 269.273C232.191 270.065 233.335 270.329 234.39 270.065C235.006 269.889 235.446 269.625 235.974 269.185C236.502 268.833 237.029 268.393 237.645 268.042ZM178.621 253.791C178.005 255.023 177.741 256.342 176.422 257.31C175.103 258.277 173.255 258.277 171.848 257.31C171.056 256.694 169.913 256.518 168.857 256.958C168.329 257.134 167.889 257.398 167.45 257.926C167.01 258.453 166.57 258.893 166.042 259.333C166.57 258.189 166.922 256.782 168.329 255.814C169.561 254.935 171.496 255.111 172.815 255.99C173.607 256.606 174.751 256.694 175.806 256.342C176.334 256.078 176.686 255.726 177.126 255.199C177.653 254.759 178.093 254.231 178.621 253.791ZM232.631 210.865C232.015 212.096 231.664 213.416 230.344 214.383C229.113 215.351 227.177 215.263 225.858 214.383C224.978 213.68 223.923 213.592 222.867 213.944C222.339 214.119 221.899 214.471 221.46 214.999C220.932 215.439 220.492 215.967 219.964 216.406C220.58 215.175 220.844 213.768 222.251 212.888C223.571 212.008 225.506 212.184 226.738 213.064C227.617 213.68 228.761 213.768 229.728 213.328C230.344 213.152 230.696 212.8 231.136 212.272C231.664 211.832 232.103 211.305 232.631 210.865ZM155.662 282.644C155.487 282.468 155.311 282.321 155.135 282.204C155.193 281.793 155.252 281.412 155.311 281.06C155.399 281.588 155.574 282.028 155.662 282.644ZM148.977 198.022C148.449 199.517 146.954 200.573 145.283 200.573C144.227 200.573 143.259 201.101 142.644 201.98C142.292 202.508 142.116 203.036 142.028 203.652C141.94 204.355 141.852 204.971 141.676 205.675C141.5 204.355 140.884 203.036 141.5 201.453C142.116 199.957 143.699 198.99 145.283 198.99C146.338 198.99 147.306 198.462 147.922 197.494C148.185 196.966 148.273 196.527 148.361 195.823C148.537 195.119 148.537 194.503 148.713 193.8C148.977 195.119 149.505 196.439 148.977 198.022ZM268.169 269.801C267.729 271.296 266.145 272.352 264.562 272.352C263.419 272.352 262.451 272.88 261.835 273.847C261.483 274.287 261.307 274.815 261.307 275.43C261.132 276.134 261.044 276.75 260.868 277.454C260.692 276.134 260.164 274.815 260.78 273.319C261.307 271.824 262.891 270.768 264.474 270.856C265.53 270.856 266.497 270.241 267.113 269.273C267.377 268.833 267.553 268.305 267.641 267.602C267.729 266.986 267.817 266.282 267.993 265.666C268.169 266.986 268.696 268.217 268.169 269.801ZM107.898 219.837C107.37 221.332 105.787 222.476 104.203 222.476C103.148 222.388 102.18 223.004 101.476 223.883C101.301 224.235 101.154 224.616 101.037 225.027C100.743 224.675 100.48 224.323 100.245 223.971C100.304 223.795 100.362 223.59 100.421 223.356C100.949 221.86 102.62 220.893 104.203 220.893C105.259 220.893 106.227 220.277 106.754 219.397C107.106 218.869 107.194 218.342 107.282 217.638C107.37 217.022 107.458 216.319 107.634 215.703C107.898 217.022 108.426 218.254 107.898 219.837ZM212.663 244.379C212.135 245.874 210.64 246.93 208.969 246.93C207.913 246.93 206.946 247.458 206.242 248.425C205.978 248.865 205.802 249.393 205.714 250.009C205.626 250.713 205.538 251.328 205.362 252.032C205.098 250.713 204.571 249.393 205.186 247.81C205.714 246.402 207.385 245.347 208.969 245.347C210.024 245.435 210.992 244.819 211.52 243.851C211.872 243.412 211.96 242.884 212.047 242.18C212.223 241.476 212.223 240.861 212.399 240.157C212.663 241.476 213.191 242.796 212.663 244.379ZM272.127 209.105C271.687 210.601 270.104 211.744 268.521 211.744C267.377 211.656 266.409 212.272 265.794 213.152C265.442 213.592 265.354 214.119 265.266 214.823C265.178 215.439 265.09 216.143 264.914 216.758C264.65 215.527 264.122 214.207 264.738 212.624C265.266 211.129 266.937 210.161 268.433 210.161C269.488 210.161 270.544 209.545 271.071 208.666C271.423 208.138 271.511 207.61 271.599 206.994C271.687 206.291 271.775 205.675 271.951 204.971C272.127 206.291 272.655 207.61 272.127 209.105ZM318.132 237.87C317.956 237.928 317.78 237.958 317.605 237.958C316.549 237.87 315.581 238.485 314.878 239.365C314.614 239.805 314.438 240.333 314.35 241.036C314.262 241.652 314.174 242.356 313.998 242.972C313.734 241.74 313.206 240.333 313.822 238.837C314.35 237.342 316.021 236.374 317.605 236.374C317.722 236.374 317.81 236.374 317.868 236.374L318.132 237.87ZM83.4438 153.864C82.7401 154.919 82.1243 156.239 80.6289 156.943C79.2215 157.558 77.3743 157.119 76.2307 155.975C75.527 155.271 74.3835 155.007 73.3279 155.271C72.8001 155.359 72.3603 155.623 71.7446 156.063C71.2168 156.415 70.689 156.855 70.0732 157.207C70.8649 156.151 71.3927 154.832 72.8881 154.128C74.2955 153.424 76.1428 153.776 77.3743 154.832C78.078 155.623 79.1336 155.975 80.2771 155.799C80.8049 155.623 81.3327 155.447 81.7725 155.007C82.3882 154.568 82.916 154.216 83.4438 153.864Z" fill="black"/>
<path d="M293.942 191.249C296.493 204.795 298.516 218.43 300.539 232.064C301.595 238.749 302.65 245.347 303.53 252.032C304.586 258.981 305.201 266.018 306.257 272.879C306.257 273.231 305.817 273.319 305.729 272.967C304.322 266.106 302.562 259.333 301.243 252.384C300.011 245.786 298.868 239.101 297.9 232.416C295.877 218.781 294.118 205.059 293.414 191.337C293.414 190.985 293.854 190.985 293.942 191.249Z" fill="#2D3134"/>
<path d="M155.135 192.92C153.112 191.425 150.913 190.105 148.889 188.522C146.896 186.997 144.931 185.472 142.996 183.948C139.037 180.869 135.431 177.526 131.736 174.184C131.648 174.096 131.736 174.008 131.736 174.096C135.607 176.735 139.477 179.461 143.172 182.364C142.996 182.13 142.82 181.895 142.644 181.661C141.412 180.165 140.357 178.582 139.125 176.998H139.213C140.357 178.318 141.588 179.549 142.732 180.869C143.348 181.485 143.875 182.188 144.403 182.892C144.696 183.185 144.96 183.508 145.195 183.86C145.312 183.977 145.4 184.094 145.459 184.212C145.635 184.387 145.84 184.563 146.075 184.739C146.075 184.739 146.104 184.739 146.162 184.739C146.25 184.739 146.25 184.827 146.25 184.915C147.423 185.795 148.567 186.704 149.681 187.642C151.616 189.226 153.376 191.073 155.311 192.744C155.487 192.832 155.223 193.008 155.135 192.92Z" fill="#2D3134"/>
<path d="M172.2 289.241C171.057 289.505 166.482 289.681 165.427 289.417C161.38 288.449 156.015 284.051 149.945 279.917C146.251 277.366 142.996 274.111 139.653 271.032C127.954 260.037 117.398 247.81 107.722 234.967C105.025 231.39 102.386 227.783 99.8055 224.147C99.7469 224.089 99.6882 224.03 99.6296 223.971C99.2777 223.62 98.8966 223.268 98.4861 222.916C97.6944 222.212 96.9907 221.42 96.199 220.717C93.1202 217.638 90.0415 214.559 87.3146 211.217C87.2266 211.129 87.3146 210.953 87.4026 211.041C89.8656 213.152 92.2406 215.351 94.5277 217.638C95.4073 218.518 96.287 219.427 97.1666 220.365C91.4489 212.008 85.9072 203.476 80.2775 195.031C80.1895 194.855 80.4534 194.767 80.5414 194.855C85.9072 202.156 91.273 209.457 96.8147 216.582C106.667 229.249 116.255 242.004 126.986 253.879C132.264 259.861 137.806 265.579 143.612 271.032C146.515 273.759 159.005 284.667 165.867 287.658C166.922 288.097 171.145 288.801 172.2 289.065C172.288 289.065 172.288 289.241 172.2 289.241Z" fill="#2D3134"/>
</svg>
