<svg width="425" height="430" viewBox="0 0 425 430" fill="none" xmlns="http://www.w3.org/2000/svg">
<path fill-rule="evenodd" clip-rule="evenodd" d="M121.511 196.851C122.588 195.885 121.537 198.099 122.659 196.923C122.443 195.482 123.594 193.193 122.705 192.173C122.521 193.517 121.995 193.443 121.267 194.644C122.52 193.066 122.716 195.856 121.511 196.851ZM148.979 205.945C149.442 206.086 149.405 205.099 149.843 205.145C152.892 207.037 155.281 210.939 159.819 210.984C161.265 214.276 164.789 214.99 167.289 216.553C169.099 217.684 170.285 220.403 173.614 218.641C170.322 215.988 166.156 214.361 163.884 211.596C159.695 210.407 155.7 206.749 150.625 203.608C150.543 203.134 151.859 201.788 151.528 201.47C150.724 202.362 150.014 202.805 149.394 202.801C142.853 197.663 137.062 193.904 132.81 190.59C132.739 190.086 134.187 187.317 132.771 188.518C132.857 188.773 132.779 190.371 132.194 190.187C130.202 187.444 121.274 184.107 119.757 179.324C119.919 179.574 119.712 180.053 119.51 180.529C116.21 177.861 111.892 177.422 110.397 173.887C112.327 177.953 114.293 182.867 119.138 182.333C118.81 182.801 118.481 183.269 118.153 183.734C120.681 182.131 120.162 186.995 121.188 187.088C126.285 184.268 124.749 190.11 127.963 191.515C130.282 189.259 131.877 192.216 132.191 193.6C137.408 196.64 143.89 200.598 148.979 205.945ZM107.602 176.155C107.189 175.086 108.407 174.894 109.122 174.419C109.377 173.052 108.127 172.668 106.865 172.942C108.565 172.855 106.013 175.982 106.905 175.015C107.25 175.229 107.933 173.794 108.303 173.88C107.746 174.706 107.234 175.303 106.781 175.617C107.701 175.28 106.705 177.326 107.602 176.155ZM105.097 175.88C107.095 170.902 101.941 171.607 101.366 167.978C100.575 168.809 99.9413 168.868 99.3548 168.709C98.613 167.863 97.2247 165.212 95.33 166.762C96.0968 167.158 95.4021 168.465 95.7804 169.101C96.9717 167.88 98.9393 168.775 98.899 169.78C97.5356 171.584 98.5092 169.018 97.4222 170.176C99.0368 170.95 103.802 171.443 105.097 175.88ZM95.2481 166.024C93.8905 165.776 93.9513 162.607 91.8406 164.479C93.1698 164.341 93.8781 167.278 95.2481 166.024ZM114.297 176.437C114.873 176.764 116.037 176.012 116.229 174.97C115.787 174.475 115.1 175.175 114.297 176.437ZM109.21 171.741C109.734 171.068 110.35 169.968 110.731 170.006C111.329 170.943 113.156 172.432 114.341 171.689C108.391 165.794 101.066 161.213 97.514 157.269C97.7455 157.271 97.9281 157.522 98.2537 157.069C97.8368 156.077 96.8976 157.622 96.2401 157.802C94.9361 154.805 91.1344 153.819 89.8844 151.481C90.0851 151.024 89.7713 150.891 89.5514 150.698C89.6187 150.983 89.7519 151.231 89.8844 151.481C89.82 151.625 89.7038 151.806 89.5078 152.034C87.6941 150.14 86.2402 151.513 86.4714 148.682C85.2577 150.444 84.9352 147.853 83.7215 149.611C90.0908 156.001 101.776 162.327 108.471 168.531C107.953 170.028 106.931 168.843 107.279 169.8C108.331 168.808 107.382 171.262 108.634 170.003C108.887 167.088 109.538 169.988 109.21 171.741ZM58.7175 135.311C57.7423 136.959 59.0859 136.678 59.95 136.116C59.3773 135.51 59.9924 134.167 58.7611 133.971C58.114 134.724 58.2229 135.37 57.7748 135.374C56.8255 135.266 58.8495 133.305 57.7344 133.301C57.1706 134.157 56.7606 134.262 56.4592 133.836C54.755 136.497 56.8559 137.385 58.7175 135.311ZM51.7387 130.746C51.7448 132.358 53.6158 133.843 54.9809 134.231C56.0962 129.339 51.1122 132.237 51.8237 128.072C51.3262 128.603 50.8862 128.854 50.5505 128.602C48.7319 131.26 50.5431 131.212 51.7387 130.746ZM61.6377 132.439C60.6124 132.555 61.6547 131.379 61.4721 130.97C60.8168 131.895 60.4955 131.197 59.7474 132.571C60.3488 133.318 60.2666 133.771 61.6377 132.439ZM79.6555 145.59C75.0013 142.437 71.913 137.838 66.3146 136.868C70.2056 139.785 73.7932 143.403 79.6555 145.59ZM83.9234 153.159C83.8167 153.05 83.729 152.929 84.0466 152.556C84.3803 152.815 84.8248 152.541 85.3197 152.026C84.8119 151.1 83.8813 152.227 83.1024 152.621C83.7985 152.425 82.8031 154.469 83.9234 153.159ZM81.9561 145.731C80.9094 147.047 80.4903 145.315 79.533 146.194C79.854 146.605 79.4204 147.487 79.3662 148.133C82.1901 146.768 80.9256 150.221 83.8426 149.013C84.0541 146.936 79.7887 147.741 81.9561 145.731ZM107.411 158.966C107.195 158.545 107.877 158.392 108.397 157.563C106.759 158.269 109.009 155.699 107.494 156.291C107.738 156.831 107.416 157.304 106.712 157.828C106.907 158.093 106.763 159.841 107.411 158.966ZM70.5947 127.378C71.2375 126.892 72.0115 125.768 72.5244 125.912C70.9826 128.256 73.6648 128.491 74.2924 126.383C72.9099 127.661 72.0621 123.098 68.9554 122.894C67.8211 126.369 69.6979 125.855 70.5947 127.378ZM60.3348 117.255C59.532 117.081 59.4804 114.151 58.2828 115.913C58.264 116.599 58.7833 119.237 60.3348 117.255ZM55.5312 113.432C55.7617 112.417 54.7737 112.313 53.9719 113.092C54.2526 113.756 54.4915 114.106 55.5312 113.432ZM54.0937 112.494C54.3453 111.193 52.9409 109.553 51.5505 110.145C52.5072 111.213 52.604 113.031 54.0937 112.494ZM176.142 188.217C175.282 186.559 174.436 185.441 172.858 186.069C172.936 187.253 174.972 188.586 176.142 188.217ZM172.242 185.667C171.93 185.312 171.731 183.571 170.601 184.593C170.467 185.224 171.386 186.519 172.242 185.667ZM190.018 196.608C190.815 198.092 192.897 198.228 194.248 198.693C193.289 197.615 192.398 196.568 190.018 196.608ZM182.629 191.776C180.632 190.632 178.692 188.369 176.224 188.952C179.207 190.16 179.743 192.321 182.629 191.776ZM90.0967 136.719C90.3972 137.08 90.884 139.449 92.2712 137.463C91.0215 137.266 91.5625 135.395 90.0967 136.719ZM75.0308 126.185C73.9322 127.581 74.6808 128.734 75.7284 127.323C76.0229 126.019 74.776 127.3 75.0308 126.185ZM59.8812 118.327C62.81 118.334 63.2781 122.616 66.9021 121.551C64.363 120.411 63.8599 116.877 59.8812 118.327ZM81.0646 130.815C78.9509 130.076 78.295 126.248 75.2741 128.394C77.571 128.743 77.9082 133.494 81.0646 130.815ZM132.016 155.945C131.796 154.595 130.243 154.076 130.663 152.33C131.881 153.872 134.679 156.693 136.533 155.486C133.184 152.288 129.094 151.176 126.642 146.971C126.851 146.578 127.285 146.045 127.093 145.902C126.656 146.524 126.216 147.149 125.778 147.772C125.656 146.657 123.918 145.157 122.577 146.359C123.092 149.556 125.859 151.459 127.829 152.525C127.92 152.23 127.317 151.181 128.076 151.32C128.814 153.049 130.337 155.675 132.016 155.945ZM118.018 144.743C119.162 144.182 118.359 146.009 119.578 145.083C119.362 144.75 120.129 142.508 119.209 143.478C119.299 143.683 119.174 144.024 118.759 144.544C118.495 144.32 117.9 144.135 118.018 144.743ZM117.608 144.476C118.046 143.853 118.484 143.229 118.924 142.606C115.85 138.753 112.972 138.153 109.116 134.823C109.984 141.237 115.717 139.05 117.608 144.476ZM108.293 134.288C107.992 132.916 103.51 132.746 105.461 131.073C105.662 130.444 102.715 131.425 102.831 131.4C104.156 132.663 106.458 135.719 108.293 134.288ZM101.601 130.593C102.044 129.947 102.419 129.632 102.793 129.325C102.603 128.747 103.049 127.14 101.766 128.655C102.087 129.067 101.654 129.949 101.601 130.593ZM138.426 151.947C137.866 150.284 135.475 149.766 136.375 147.194C136.711 147.452 137.156 147.176 137.647 146.663C135.713 147.76 138.56 144.365 136.952 145.525C135.894 146.888 133.625 143.526 132.477 144.643C132.84 148.326 134.942 151.97 138.426 151.947ZM146.845 154.039C146.771 149.694 144.788 154.187 142.657 150.619C142.065 153.019 145.895 153.582 142.692 156.105C145.47 154.142 146.492 160.689 149.179 159.664C149.4 158.479 148.284 158.126 149.388 156.388C149.225 157.071 150.214 157.176 150.949 156.723C149.264 156.115 148.904 153.011 146.845 154.039ZM150.826 157.326C151.446 157.327 151.766 158.786 152.591 157.798C152.019 157.09 152.102 156.154 150.826 157.326ZM236.057 201.462C239.309 202.644 238.821 204.177 242.05 204.019C241.22 202.535 238.788 199.234 236.057 201.462ZM252.561 209.528C251.954 208.945 250.642 208.803 250.836 207.718C250.136 209.73 251.11 210.575 252.561 209.528ZM158.8 146.845C156.58 145.901 156.791 142.787 154.572 144.761C155.896 144.173 156.917 148.637 158.8 146.845ZM140.536 131.488C140.865 131.02 141.195 130.551 141.523 130.085C141.504 129.299 139.747 129.213 140.459 127.339C138.205 130.122 137.999 125.579 135.899 125.726C135.474 129.334 139.291 128.916 140.536 131.488ZM134.422 126.121C134.98 121.964 130.362 123.613 131.183 119.225C134.79 121.125 136.648 125.14 141.526 126.673C141.467 126.01 140.614 125.842 140.952 124.933C143.366 124.947 143.172 126.913 143.126 129.085C143.87 127.735 144.186 128.459 144.728 128.085C144.548 129.538 144.433 131.781 146.328 130.498C142.194 120.849 128.347 112.113 121.784 108.303C125.066 112.577 129.044 112.735 130.936 117.019C128.105 118.308 128.991 112.506 125.148 114.598C126.648 114.857 127.409 117.512 128.593 118.219C129.4 116.787 130.538 119.882 128.18 121.359C130.145 122.655 133.107 124.411 134.422 126.121ZM123.424 112.787C121.898 110.106 120.2 110.043 118.088 109.296C119.838 111.564 120.775 114.088 123.424 112.787ZM105.814 99.9041C105.225 99.7491 104.592 99.8064 103.802 100.635C104.389 101.157 104.859 103.107 106.264 102.247C106.389 101.068 104.919 100.884 105.28 100.24C105.422 100.294 105.571 100.328 105.814 99.9041ZM102.239 100.299C104.039 97.9227 103.286 100.585 103.925 100.035C103.69 99.7029 104.503 98.9171 104.912 98.6323C102.609 98.7978 103.442 96.4128 100.312 98.3549C100.27 97.0687 98.3023 96.9851 99.3691 95.0072C98.3729 95.7149 98.97 95.615 98.0552 96.8758C99.3894 97.2679 99.3601 98.5119 99.8579 99.4244C101.548 96.9029 101.765 99.7317 102.239 100.299ZM96.7417 95.3359C95.0421 94.9518 96.0128 92.7032 94.7285 92.6571C95.0379 93.6896 93.713 95.7376 94.397 96.5373C95.5569 93.7035 95.0569 96.8043 96.7417 95.3359ZM149.492 129.835C149.796 134.709 154.228 135.653 156.671 137.946C156.288 137.504 157.078 136.389 157.783 135.938C155.098 133.392 152.658 130.527 149.492 129.835ZM110.985 105.334C111.422 105.465 110.984 107.854 111.476 106.341C111.37 106.23 111.284 106.11 111.601 105.736C112.449 105.995 112.622 106.674 112.913 107.278C114.156 105.616 111.667 104.926 110.985 105.334ZM116.948 95.5841C117.263 94.07 115.764 95.595 115.182 95.1111C115.364 94.8525 115.388 94.4737 114.977 94.9767C114.711 96.6634 115.689 96.1095 116.948 95.5841ZM137.845 210.265C136.363 211.238 137.213 210.703 135.914 211.733C131.239 206.872 128.099 204.937 123.478 200.87C123.784 200.515 124.011 200.54 124.341 200.07C123.594 199.975 121.237 200.953 122.208 197.988C121.776 198.206 121.298 198.637 120.809 199.125C120.622 198.891 121.237 198.157 121.591 197.588C121.363 197.568 121.057 197.923 120.854 197.786C119.941 197.877 121.193 198.653 119.866 199.188C118.69 197.864 120.306 196.068 117.607 197.713C116.82 196.772 117.237 194.649 115.473 195.636C115.231 195.094 115.552 194.621 116.256 194.096C114.149 195.134 114.128 193.189 112.642 192.416C113.217 191.879 113.694 191.833 114.121 192.019C115.087 190.303 112.862 191.616 113.671 189.677C114.628 189.623 115.616 188.602 115.765 189.683C116.377 186.329 112.119 184.797 110.595 184.252C111.475 184.044 111.962 181.675 110.718 183.652C110.655 182.992 111.589 181.709 111.214 181.245C112.074 180.054 112.639 181.202 112.939 179.644C112.335 179.063 111.559 181.659 110.596 180.844C110.408 181.746 111.016 182.155 109.775 183.715C109.546 183.314 109.129 183.827 108.704 184.384C108.588 182.889 110.877 183.021 110.146 181.91C108.811 183.058 106.81 182.429 105.955 181.902C106.955 184.793 109.92 183.974 110.715 187.061C108.599 189.706 108.319 187.427 108.335 186.187C107.727 185.954 108.05 187.175 107.019 188.057C106.995 187.613 105.607 186.945 105.377 186.983C105.419 185.408 106.881 186.351 107.514 185.65C107.155 185.256 106.321 182.6 103.735 185.907C104.108 184.801 104.851 183.464 104.354 182.9C104.151 183.376 103.944 183.855 104.105 184.105C102.832 184.532 104.93 181.553 106.079 181.3C104.607 178.305 99.42 175.608 95.5729 172.379C93.6979 170.81 91.2396 169.423 90.0717 167.419C89.3435 166.166 85.3967 164.034 83.0929 162.855C82.9163 162.529 83.7477 161.572 84.2025 160.852C80.9911 162.634 80.8594 158.531 77.3873 157.757C77.2021 157.525 77.8148 156.792 78.1693 156.223C77.93 155.747 76.2738 157.084 77.6773 155.218C73.6844 156.769 72.3615 152.731 70.2456 151.724C69.9494 151.579 69.1282 152.345 69.1782 152.389C68.7811 152.038 69.2927 150.231 68.522 149.914C67.6179 149.54 67.4291 149.144 66.7991 148.102C66.2297 147.164 64.9454 145.435 64.5829 145.289C64.2983 145.174 63.6404 146.279 63.309 145.822C63.0443 145.451 63.7273 144.587 63.6738 144.121C63.49 144.309 61.7601 143.355 60.7658 143.473C62.2758 141.75 57.5772 141.353 56.4971 139.318C57.2815 138.442 57.7578 138.806 58.0167 137.582C56.3714 137.512 54.6853 139.894 55.2264 136.439C52.9276 137.755 53.1193 136.311 51.4906 135.359C52.1452 134.434 52.467 135.133 53.2152 133.758C51.6975 135.332 52.3983 132.691 50.7942 134.22C50.6665 134.014 50.9535 133.564 51.2021 133.37C48.8184 134.347 47.2382 131.77 46.1948 130.532C47.3262 129.414 47.248 128.776 47.9217 128.93C47.7737 127.939 46.6922 126.545 48.4571 125.189C47.7718 125.531 47.5584 125.393 47.6374 124.65C47.1719 125.195 47.1438 125.471 47.2457 125.664C45.4619 123.261 42.6037 120.303 41.7681 118.083C40.8377 119.221 41.3826 118.226 40.0849 118.346C40.5353 118.035 41.0474 117.435 41.606 116.611C41.0187 116.443 39.9265 118.745 39.4698 117.941C41.5916 114.574 37.1115 116.963 38.199 115.064C37.9043 114.982 37.4249 115.805 37.0071 116.331C36.6955 114.987 36.163 115.113 34.543 114.721C37.6056 113.805 34.9493 113.492 33.8446 113.583C34.4599 112.474 34.7057 113.174 35.243 112.449C35.516 111.379 34.9779 110.312 33.6815 112.111C34.3134 109.21 33.1101 108.481 32.6199 105.954C34.8832 104.695 36.7629 105.501 39.1904 106.842C39.6398 106.835 39.529 106.191 40.1766 105.439C43.8635 106.284 45.7834 109.637 49.9082 109.073C47.101 102.96 40.0722 101.417 36.3653 96.8001C38.6125 96.4279 39.4262 96.5386 41.5799 97.4818C42.3387 96.0479 40.7082 96.1027 40.9244 95.0069C41.7656 94.3144 42.253 95.3394 43.0187 95.0115C41.2995 91.5914 37.9171 90.6449 34.5634 87.4348C35.5609 85.6036 35.716 87.8727 36.825 85.5005C42.825 90.457 51.1835 88.9979 52.6699 94.5005C51.7758 95.454 51.3913 93.9285 50.7012 93.8917C50.9793 97.0599 53.771 98.0876 55.8708 99.3231C61.7429 102.774 67.6817 106.093 73.3605 109.394C73.6734 108.936 73.3655 108.865 73.2773 108.658C80.477 110.476 89.5705 116.327 94.0099 122.214C94.5526 121.841 94.8693 122.565 95.6107 121.216C95.6693 124.658 98.6295 124.257 100.823 125.31C106.438 127.997 110.305 134.614 115.767 136.445C113.571 138.347 116.267 137.022 117.203 137.384C120.946 138.84 124.897 143.953 128.861 146.373C129.428 142.629 123.865 142.908 123.445 138.736C124.19 137.371 124.176 139.704 124.923 138.338C124.144 132.77 118.045 134.753 117.252 129.225C116.639 129.507 116.797 130.051 115.852 130.359C109.767 127.845 102.761 120.895 96.7255 115.802C96.011 115.197 94.4592 116.164 93.4781 115.728C85.2332 112.062 82.1588 102.961 74.3925 99.8333C78.9489 100.791 80.7697 104.008 86.1352 106.148C86.4299 106.23 86.9087 105.407 87.3272 104.877C89.9316 106.635 89.8196 108.66 91.8829 109.905C101.844 115.929 112.38 124.628 125.013 128.844C126.043 128.975 126.175 127.218 127.068 126.774C127.673 130.255 131.842 128.994 131.252 133.606C132.102 133.549 131.613 132.194 131.624 131.801C134.594 131.613 133.49 138.202 137.287 138.233C138.103 136.588 136.879 136.216 137.289 134.823C137.474 134.393 138.685 135.502 138.397 136.23C140.583 134.206 143.109 137.935 144.473 139.522C146.389 137.469 147.972 142.528 150.509 140.739C145.737 136.007 137.579 133.191 133.559 126.921C132.921 127.669 133.096 127.911 133.309 128.125C132.251 128.443 131.71 127.778 132.532 126.251C131.776 125.64 132.092 127.011 131.135 127.384C130.843 126.549 130.862 126.19 130.765 125.779C127.993 125.907 127.16 122.866 125.881 121.219C122.695 118.123 126.699 122.583 128.635 120.29C125.421 116.222 118.862 114.251 116.279 110.163C117.838 107.717 117.012 110.629 118.209 108.697C117.253 106.819 115.241 106.712 114.229 105.408C113.425 107.135 115.44 107.103 113.897 109.29C112.096 108.53 110.726 106.554 109.383 106.335C111.802 102.975 108.46 102.309 106.713 104.591C105.463 104.757 107.223 103.047 106.345 102.984C106.007 102.929 105.484 103.776 105.687 103.919C102.562 102.653 95.5873 98.7328 93.1667 95.7304C93.1072 95.2428 93.4888 94.479 94.0726 93.5906C93.1911 93.5956 93.1346 95.1774 92.4269 95.9275C91.3365 93.7624 88.8766 94.4773 88.979 92.3103C90.0675 90.4241 90.3684 92.3496 91.0751 92.3133C91.3789 91.1191 90.4103 91.6856 91.9803 90.176C86.8322 87.4629 85.6317 86.6159 81.5121 83.3294C86.3164 82.0688 87.6288 87.4528 91.777 86.6307C92.6924 89.1157 95.1146 88.4911 96.3755 90.3183C96.9828 90.5536 96.6602 89.3301 97.6915 88.4484C98.7044 88.3501 98.1855 88.711 98.9225 89.2558C99.948 88.0917 99.1334 88.0741 99.293 87.4503C100.319 86.3513 99.5613 88.9396 100.854 87.7878C101.143 85.1657 97.2432 88.4908 96.6252 85.7061C97.0927 84.7227 96.2408 84.9802 97.4058 84.1707C96.3229 83.6216 96.4326 82.3266 95.067 81.956C94.1637 81.3801 95.5993 81.1274 95.8082 81.757C97.9379 82.6889 101.475 82.5629 101.347 85.3825C103.261 84.4412 102.195 86.5629 103.525 86.1229C103.226 86.9984 102.356 88.1948 101.468 88.1922C103.603 92.463 108.576 93.5251 112.225 95.9067C113.024 92.1037 108.141 93.797 108.328 89.9449C110.512 89.9376 111.627 91.4762 113.172 92.432C111.713 93.7457 113.639 94.7107 114.566 94.7093C115.013 94.7067 114.907 94.0568 115.553 93.3063C116.345 94.9681 118.035 94.452 119.658 95.9909C119.427 96.7479 118.629 97.8584 118.957 98.2657C120.719 94.8726 119.123 99.8106 120.929 98.8706C117.159 101.629 119.409 95.6461 116.701 96.7865C117.692 100.181 118.765 103.147 122.156 103.087C122.989 101.87 121.626 102.019 123.188 100.346C124.721 101.355 125.018 102.508 126.882 102.763C126.372 103.356 126.094 102.815 125.73 102.695C125.666 106.573 128.789 108.502 131.352 110.464C132.311 109.891 132.318 108.983 132.257 108.326C133.201 107.137 133.601 108.588 134.475 107.729C135.041 115.021 144.162 113.545 144.325 120.994C144.884 120.07 145.55 120.62 146.789 119.195C148.459 120.103 148.913 122.364 151.757 121.08C151.736 124.251 157.345 122.808 155.078 128.712C159.526 126.295 161.01 128.015 163.702 130.936C163.181 131.58 162.972 130.701 162.427 131.471C162.842 132.872 164.365 133.583 165.258 134.688C165.958 133.115 164.418 132.939 163.659 132.276C165.495 129.949 164.957 132.545 166.37 132.681C164.527 137.957 169.373 137.971 171.827 138.982C172.183 137.975 171.014 137.915 171.047 137.11C174.213 136.454 174.42 140.421 176.92 140.265C176.479 140.89 176.042 141.512 175.604 142.135C178.813 145.836 182.325 146.752 186.934 148.181C187.584 148.221 187.198 147.289 188.128 146.912C192.887 149.716 197.357 154.146 203.276 154.772C203.375 154.207 200.98 154.046 202.744 151.695C203.047 152.942 205.136 154.073 204.793 156.449C210.038 159.049 216.574 161.212 222.038 164.315C226.559 166.878 231.823 168.307 236.284 170.901C245.086 176.016 251.221 182.118 258.492 187.471C260.608 189.029 262.237 190.923 262.347 194.77C258.831 198.684 257.686 196.535 254.747 196.625C254.701 197.791 253.963 199.388 254.744 200.038C254.483 200.285 252.968 201.5 253.428 201.908C249.661 205.846 248.122 202.584 245.173 204.694C244.925 207.589 248.309 206.229 249.975 208.519C250.627 206.801 249.936 205.92 249.03 205.172C251.988 204.565 254.261 207.746 255.024 211.138C252.758 212.7 253.43 209.959 250.959 210.526C249.888 213.013 248.325 212.885 247.258 214.933C247.25 215.987 248.102 216.506 248.652 217.21C247.731 217.544 246.468 219.534 245.653 219.343C244.458 220.963 244.722 221.672 244.5 222.685C244.745 223.173 246.669 220.975 246.35 220.483C248.129 218.841 247.369 223.297 249.061 220.888C248.071 223.155 246.663 222.221 245.65 222.755C245.158 224.286 245.857 225.073 245.853 226.3C244.468 227.231 244.201 225.247 243.595 224.823C243.147 224.827 243.254 225.475 242.609 226.226C243.326 227.951 245.332 230.156 246.342 230.715C244.919 232.804 245.918 230.113 244.862 231.114C244.779 233.658 242.199 237.435 239.391 241.869C237.648 241.966 236.958 242.442 235.862 240.923C235.334 241.193 235.137 241.977 234.134 242.525C233.11 244.817 234.894 246.187 235.898 246.407C233.923 248.11 234.146 250.384 234.374 251.554C233.356 253.114 232.786 252.486 231.908 253.354C228.895 259.196 225.322 258.315 222.251 260.687C217.593 259.124 215.113 253.81 210.47 252.301C209.003 251.823 206.871 252.304 205.46 251.754C202.245 250.509 199.607 248.229 196.509 246.585C187.12 241.594 179.28 235.168 169.045 230.67C165.805 229.246 161.6 227.849 158.205 225.628C152.541 221.925 145.8 219.373 142.649 214.088C142.122 214.358 141.903 215.25 141.045 215.09C141.247 212.177 135.913 215.235 137.845 210.265Z" fill="#73CAE4" fill-opacity="0.26"/>
<path fill-rule="evenodd" clip-rule="evenodd" d="M304.461 231.855C303.373 232.808 304.449 230.606 303.313 231.77C303.513 233.212 302.336 235.489 303.214 236.519C303.413 235.177 303.938 235.257 304.68 234.064C303.409 235.628 303.245 232.836 304.461 231.855ZM277.098 222.449C276.636 222.302 276.662 223.29 276.225 223.238C273.198 221.312 270.853 217.383 266.316 217.286C264.908 213.978 261.392 213.224 258.91 211.633C257.113 210.481 255.958 207.749 252.609 209.473C255.87 212.164 260.018 213.838 262.258 216.628C266.433 217.865 270.387 221.568 275.426 224.767C275.502 225.242 274.171 226.572 274.498 226.895C275.312 226.012 276.027 225.576 276.647 225.587C283.129 230.8 288.877 234.624 293.091 237.986C293.156 238.492 291.677 241.243 293.107 240.059C293.024 239.803 293.12 238.206 293.703 238.396C295.664 241.162 304.553 244.601 306.015 249.401C305.856 249.149 306.068 248.672 306.276 248.198C309.545 250.903 313.858 251.392 315.313 254.943C313.429 250.856 311.519 245.919 306.668 246.398C307.002 245.934 307.336 245.47 307.67 245.009C305.124 246.584 305.698 241.725 304.673 241.621C299.544 244.382 301.146 238.559 297.949 237.116C295.604 239.347 294.043 236.372 293.745 234.984C288.562 231.884 282.126 227.853 277.098 222.449ZM318.133 252.708C318.534 253.781 317.314 253.959 316.593 254.426C316.324 255.79 317.568 256.188 318.834 255.929C317.133 255.997 319.72 252.899 318.817 253.855C318.475 253.637 317.775 255.064 317.407 254.974C317.973 254.155 318.491 253.564 318.949 253.255C318.024 253.582 319.043 251.547 318.133 252.708ZM320.635 253.011C318.58 257.966 323.743 257.319 324.276 260.955C325.076 260.133 325.711 260.081 326.295 260.247C327.027 261.102 328.385 263.768 330.298 262.24C329.535 261.835 330.245 260.536 329.874 259.895C328.669 261.103 326.712 260.185 326.763 259.181C328.147 257.393 327.144 259.948 328.244 258.802C326.639 258.009 321.879 257.463 320.635 253.011ZM330.371 262.979C331.726 263.242 331.629 266.41 333.761 264.562C332.43 264.685 331.755 261.74 330.371 262.979ZM311.442 252.349C310.87 252.016 309.697 252.754 309.493 253.795C309.93 254.295 310.625 253.602 311.442 252.349ZM316.476 257.103C315.943 257.77 315.315 258.863 314.935 258.821C314.347 257.876 312.537 256.367 311.344 257.096C317.226 263.059 324.498 267.723 328.006 271.707C327.774 271.703 327.595 271.45 327.264 271.898C327.669 272.895 328.626 271.361 329.286 271.189C330.555 274.201 334.346 275.23 335.569 277.582C335.363 278.036 335.675 278.173 335.893 278.368C335.829 278.082 335.699 277.833 335.569 277.582C335.635 277.438 335.753 277.259 335.952 277.033C337.744 278.948 339.213 277.591 338.95 280.419C340.184 278.671 340.477 281.266 341.71 279.521C335.414 273.06 323.801 266.601 317.177 260.322C317.713 258.83 318.721 260.027 318.384 259.065C317.321 260.046 318.297 257.602 317.031 258.848C316.745 261.759 316.127 258.853 316.476 257.103ZM366.55 294.106C367.544 292.469 366.197 292.734 365.327 293.286C365.892 293.899 365.262 295.235 366.491 295.445C367.146 294.7 367.045 294.052 367.493 294.053C368.441 294.172 366.395 296.109 367.51 296.126C368.083 295.277 368.495 295.176 368.791 295.606C370.526 292.965 368.435 292.053 366.55 294.106ZM373.476 298.749C373.488 297.137 371.634 295.631 370.274 295.228C369.103 300.107 374.12 297.266 373.361 301.422C373.864 300.897 374.307 300.651 374.64 300.907C376.489 298.27 374.677 298.298 373.476 298.749ZM363.597 296.944C364.624 296.84 363.568 298.004 363.746 298.415C364.412 297.497 364.725 298.199 365.489 296.833C364.896 296.08 364.983 295.627 363.597 296.944ZM345.73 283.588C350.348 286.795 353.384 291.428 358.971 292.462C355.113 289.5 351.567 285.842 345.73 283.588ZM341.549 275.972C341.654 276.082 341.74 276.204 341.419 276.573C341.088 276.31 340.64 276.579 340.14 277.089C340.637 278.02 341.58 276.904 342.363 276.519C341.665 276.707 342.684 274.675 341.549 275.972ZM343.431 283.422C344.493 282.118 344.892 283.854 345.859 282.986C345.543 282.572 345.987 281.695 346.048 281.049C343.209 282.382 344.513 278.944 341.582 280.118C341.347 282.193 345.621 281.436 343.431 283.422ZM318.129 269.897C318.34 270.321 317.656 270.467 317.127 271.289C318.772 270.602 316.494 273.146 318.015 272.572C317.777 272.029 318.105 271.56 318.815 271.044C318.623 270.776 318.786 269.03 318.129 269.897ZM354.583 301.902C353.935 302.381 353.148 303.496 352.637 303.346C354.205 301.02 351.526 300.755 350.874 302.855C352.271 301.593 353.067 306.165 356.171 306.405C357.345 302.943 355.462 303.435 354.583 301.902ZM364.727 312.142C365.528 312.324 365.546 315.255 366.764 313.507C366.79 312.821 366.301 310.177 364.727 312.142ZM369.487 316.019C369.245 317.032 370.232 317.147 371.042 316.376C370.769 315.71 370.534 315.358 369.487 316.019ZM370.914 316.973C370.647 318.272 372.033 319.928 373.43 319.351C372.485 318.272 372.409 316.454 370.914 316.973ZM249.735 239.866C250.576 241.534 251.41 242.661 252.995 242.051C252.93 240.867 250.909 239.51 249.735 239.866ZM253.606 242.46C253.914 242.819 254.093 244.562 255.235 243.553C255.375 242.924 254.472 241.618 253.606 242.46ZM235.955 231.318C235.175 229.825 233.095 229.665 231.75 229.185C232.696 230.274 233.576 231.331 235.955 231.318ZM243.289 236.233C245.273 237.401 247.187 239.686 249.661 239.13C246.692 237.888 246.181 235.721 243.289 236.233ZM335.189 292.34C334.892 291.976 334.432 289.602 333.023 291.572C334.27 291.783 333.708 293.647 335.189 292.34ZM350.134 303.045C351.248 301.662 350.513 300.5 349.449 301.9C349.14 303.199 350.401 301.933 350.134 303.045ZM365.193 311.075C362.264 311.035 361.845 306.747 358.209 307.771C360.735 308.94 361.198 312.48 365.193 311.075ZM344.153 298.347C346.258 299.11 346.87 302.945 349.916 300.833C347.623 300.458 347.34 295.704 344.153 298.347ZM293.491 272.639C293.696 273.99 295.242 274.527 294.802 276.269C293.602 274.713 290.836 271.86 288.969 273.046C292.281 276.281 296.358 277.441 298.762 281.673C298.549 282.064 298.109 282.592 298.299 282.737C298.743 282.12 299.19 281.5 299.636 280.881C299.745 281.998 301.465 283.518 302.82 282.332C302.341 279.129 299.597 277.195 297.639 276.106C297.544 276.4 298.135 277.455 297.378 277.308C296.659 275.571 295.166 272.927 293.491 272.639ZM307.361 283.999C306.21 284.547 307.034 282.729 305.804 283.641C306.016 283.977 305.224 286.21 306.155 285.25C306.067 285.044 306.196 284.705 306.617 284.189C306.879 284.417 307.471 284.609 307.361 283.999ZM307.768 284.271C307.322 284.889 306.877 285.507 306.431 286.125C309.46 290.013 312.331 290.646 316.149 294.019C315.354 287.597 309.596 289.717 307.768 284.271ZM316.966 294.564C317.251 295.94 321.731 296.16 319.762 297.811C319.552 298.438 322.511 297.49 322.395 297.514C321.084 296.236 318.817 293.154 316.966 294.564ZM323.616 298.335C323.165 298.976 322.786 299.286 322.409 299.589C322.592 300.169 322.128 301.771 323.428 300.27C323.112 299.856 323.555 298.978 323.616 298.335ZM287.035 276.563C287.576 278.232 289.962 278.778 289.033 281.339C288.7 281.077 288.252 281.348 287.754 281.855C289.701 280.78 286.815 284.143 288.437 283.002C289.51 281.65 291.741 285.039 292.902 283.934C292.58 280.248 290.52 276.579 287.035 276.563ZM278.641 274.375C278.665 278.721 280.699 274.251 282.79 277.843C283.409 275.45 279.586 274.843 282.818 272.357C280.017 274.288 279.07 267.73 276.372 268.724C276.137 269.907 277.249 270.272 276.125 271.997C276.296 271.316 275.308 271.201 274.567 271.645C276.245 272.272 276.57 275.38 278.641 274.375ZM274.698 271.044C274.078 271.035 273.774 269.573 272.938 270.551C273.502 271.266 273.408 272.201 274.698 271.044ZM189.975 225.94C186.736 224.721 187.242 223.193 184.011 223.315C184.825 224.809 187.218 228.137 189.975 225.94ZM173.564 217.687C174.164 218.277 175.474 218.434 175.267 219.516C175.99 217.513 175.027 216.656 173.564 217.687ZM266.605 281.433C268.815 282.402 268.567 285.513 270.809 283.565C269.478 284.138 268.509 279.663 266.605 281.433ZM284.693 296.997C284.359 297.461 284.023 297.926 283.69 298.388C283.7 299.175 285.456 299.281 284.723 301.147C287.008 298.389 287.163 302.934 289.264 302.811C289.73 299.208 285.908 299.582 284.693 296.997ZM290.746 302.433C290.14 306.583 294.777 304.987 293.906 309.366C290.321 307.424 288.509 303.389 283.648 301.8C283.7 302.464 284.55 302.641 284.202 303.546C281.789 303.505 282.006 301.541 282.076 299.37C281.317 300.712 281.009 299.985 280.463 300.352C280.659 298.901 280.799 296.66 278.89 297.921C282.914 307.616 296.66 316.509 303.18 320.394C299.947 316.083 295.971 315.88 294.127 311.574C296.974 310.317 296.021 316.109 299.888 314.061C298.39 313.785 297.66 311.121 296.484 310.401C295.661 311.824 294.559 308.716 296.932 307.266C294.983 305.947 292.041 304.158 290.746 302.433ZM301.591 315.891C303.086 318.59 304.783 318.672 306.887 319.443C305.163 317.156 304.254 314.621 301.591 315.891ZM319.053 328.974C319.641 329.136 320.274 329.086 321.074 328.266C320.493 327.737 320.045 325.782 318.63 326.626C318.492 327.803 319.959 328.005 319.591 328.644C319.45 328.588 319.301 328.553 319.053 328.974ZM322.632 328.62C320.806 330.975 321.589 328.322 320.944 328.865C321.175 329.199 320.353 329.976 319.941 330.256C322.245 330.117 321.385 332.492 324.538 330.586C324.565 331.872 326.531 331.978 325.442 333.944C326.446 333.248 325.848 333.341 326.777 332.09C325.447 331.683 325.491 330.439 325.004 329.521C323.284 332.024 323.1 329.192 322.632 328.62ZM328.073 333.645C329.768 334.049 328.772 336.286 330.056 336.347C329.758 335.311 331.106 333.278 330.431 332.47C329.239 335.291 329.774 332.196 328.073 333.645ZM275.719 298.548C275.47 293.671 271.049 292.676 268.633 290.356C269.011 290.802 268.208 291.908 267.498 292.351C270.153 294.928 272.561 297.82 275.719 298.548ZM313.945 323.486C313.509 323.35 313.974 320.966 313.465 322.473C313.57 322.585 313.655 322.707 313.334 323.077C312.488 322.808 312.323 322.127 312.038 321.519C310.777 323.167 313.257 323.886 313.945 323.486ZM307.871 333.167C307.539 334.677 309.055 333.169 309.632 333.66C309.446 333.917 309.418 334.295 309.835 333.797C310.12 332.113 309.136 332.656 307.871 333.167ZM288.28 218.255C289.773 217.3 288.917 217.824 290.228 216.809C294.848 221.723 297.965 223.694 302.54 227.814C302.229 228.165 302.003 228.138 301.668 228.604C302.413 228.707 304.782 227.756 303.776 230.71C304.211 230.497 304.694 230.071 305.188 229.589C305.373 229.824 304.749 230.551 304.389 231.117C304.617 231.14 304.927 230.788 305.129 230.927C306.043 230.847 304.799 230.056 306.133 229.536C307.293 230.874 305.657 232.651 308.375 231.037C309.151 231.987 308.71 234.105 310.485 233.138C310.721 233.683 310.394 234.153 309.684 234.669C311.803 233.656 311.802 235.6 313.278 236.39C312.697 236.921 312.22 236.961 311.795 236.771C310.81 238.476 313.049 237.187 312.218 239.118C311.261 239.161 310.262 240.171 310.125 239.087C309.475 242.434 313.715 244.015 315.232 244.577C314.351 244.775 313.837 247.139 315.103 245.176C315.159 245.837 314.21 247.108 314.58 247.577C313.706 248.758 313.154 247.604 312.836 249.158C313.434 249.746 314.24 247.159 315.192 247.984C315.391 247.085 314.788 246.669 316.046 245.123C316.271 245.527 316.693 245.018 317.126 244.467C317.224 245.963 314.937 245.804 315.655 246.924C317.003 245.792 318.997 246.443 319.845 246.979C318.879 244.078 315.904 244.862 315.144 241.767C317.291 239.146 317.544 241.429 317.515 242.668C318.12 242.908 317.811 241.683 318.852 240.813C318.871 241.258 320.251 241.941 320.481 241.906C320.421 243.48 318.971 242.521 318.329 243.214C318.683 243.612 319.487 246.277 322.111 243C321.725 244.102 320.967 245.43 321.458 246C321.666 245.526 321.879 245.05 321.72 244.798C322.998 244.385 320.866 247.341 319.714 247.58C321.153 250.592 326.309 253.347 330.119 256.62C331.976 258.211 334.418 259.625 335.563 261.642C336.277 262.903 340.199 265.08 342.489 266.286C342.662 266.613 341.82 267.561 341.357 268.276C344.589 266.531 344.674 270.635 348.137 271.448C348.319 271.682 347.698 272.408 347.337 272.973C347.571 273.452 349.242 272.134 347.818 273.984C351.828 272.478 353.105 276.532 355.209 277.562C355.504 277.71 356.334 276.954 356.284 276.909C356.677 277.265 356.145 279.066 356.912 279.392C357.812 279.776 357.996 280.174 358.614 281.224C359.173 282.167 360.437 283.911 360.798 284.061C361.082 284.18 361.752 283.082 362.078 283.543C362.339 283.917 361.646 284.773 361.694 285.24C361.88 285.054 363.599 286.027 364.594 285.921C363.065 287.626 367.759 288.077 368.816 290.124C368.021 290.991 367.549 290.622 367.276 291.842C368.921 291.931 370.634 289.569 370.053 293.018C372.367 291.728 372.159 293.17 373.777 294.139C373.112 295.057 372.798 294.355 372.034 295.72C373.57 294.164 372.839 296.797 374.46 295.286C374.585 295.493 374.293 295.941 374.043 296.132C376.437 295.182 377.988 297.777 379.017 299.027C377.873 300.131 377.944 300.771 377.272 300.609C377.409 301.601 378.475 303.008 376.694 304.343C377.383 304.01 377.595 304.15 377.508 304.892C377.98 304.352 378.011 304.076 377.911 303.882C379.667 306.306 382.492 309.296 383.302 311.526C384.245 310.398 383.689 311.387 384.988 311.282C384.534 311.587 384.015 312.181 383.447 312.999C384.033 313.174 385.151 310.884 385.598 311.694C383.439 315.036 387.945 312.699 386.836 314.585C387.13 314.67 387.619 313.853 388.043 313.331C388.339 314.679 388.873 314.559 390.488 314.969C387.416 315.85 390.068 316.193 391.174 316.115C390.546 317.217 390.308 316.514 389.762 317.233C389.477 318.3 390.003 319.373 391.32 317.589C390.655 320.483 391.85 321.225 392.312 323.757C390.034 324.991 388.164 324.164 385.752 322.795C385.302 322.797 385.406 323.442 384.749 324.187C381.072 323.3 379.191 319.925 375.06 320.442C377.797 326.587 384.808 328.21 388.462 332.868C386.211 333.215 385.399 333.095 383.256 332.127C382.481 333.552 384.112 333.516 383.883 334.609C383.034 335.292 382.558 334.262 381.789 334.581C383.469 338.02 386.84 339.005 390.157 342.253C389.139 344.073 389.01 341.802 387.874 344.162C381.931 339.137 373.556 340.501 372.132 334.982C373.037 334.039 373.404 335.569 374.094 335.613C373.852 332.442 371.072 331.383 368.987 330.123C363.154 326.606 357.254 323.219 351.613 319.854C351.295 320.309 351.602 320.383 351.687 320.591C344.509 318.691 335.483 312.737 331.111 306.8C330.564 307.167 330.255 306.439 329.499 307.78C329.479 304.338 326.514 304.705 324.333 303.626C318.749 300.876 314.958 294.215 309.517 292.322C311.734 290.445 309.024 291.74 308.091 291.367C304.365 289.868 300.473 284.71 296.537 282.246C295.927 285.983 301.493 285.767 301.866 289.944C301.105 291.3 301.146 288.967 300.383 290.325C301.098 295.901 307.22 293.988 307.95 299.524C308.566 299.25 308.414 298.704 309.362 298.406C315.419 300.989 322.345 308.019 328.322 313.18C329.03 313.793 330.592 312.845 331.569 313.291C339.771 317.051 342.742 326.187 350.472 329.402C345.927 328.393 344.143 325.155 338.802 322.955C338.508 322.869 338.02 323.687 337.595 324.211C335.011 322.424 335.146 320.4 333.097 319.132C323.205 312.995 312.769 304.177 300.185 299.817C299.156 299.674 299.005 301.43 298.106 301.864C297.541 298.376 293.358 299.59 294 294.985C293.15 295.032 293.624 296.392 293.609 296.785C290.636 296.94 291.815 290.363 288.019 290.289C287.183 291.924 288.404 292.311 287.978 293.699C287.788 294.127 286.59 293.004 286.886 292.28C284.677 294.278 282.194 290.521 280.848 288.919C278.909 290.949 277.384 285.872 274.826 287.633C279.544 292.418 287.669 295.327 291.618 301.643C292.264 300.902 292.092 300.658 291.881 300.442C292.943 300.136 293.476 300.807 292.637 302.324C293.386 302.944 293.086 301.569 294.046 301.207C294.329 302.046 294.306 302.404 294.398 302.817C297.172 302.721 297.97 305.771 299.23 307.432C302.381 310.565 298.428 306.059 296.466 308.33C299.633 312.434 306.169 314.48 308.706 318.597C307.119 321.025 307.978 318.123 306.76 320.041C307.693 321.929 309.704 322.059 310.701 323.374C311.525 321.657 309.509 321.666 311.078 319.496C312.87 320.278 314.218 322.269 315.557 322.503C313.1 325.835 316.435 326.539 318.208 324.277C319.46 324.125 317.68 325.815 318.557 325.888C318.895 325.947 319.428 325.106 319.226 324.961C322.337 326.263 329.266 330.262 331.652 333.291C331.706 333.78 331.316 334.539 330.722 335.421C331.604 335.426 331.678 333.845 332.394 333.103C333.46 335.28 335.928 334.593 335.801 336.759C334.691 338.633 334.412 336.704 333.705 336.732C333.387 337.923 334.362 337.367 332.775 338.859C337.892 341.63 339.083 342.491 343.165 345.824C338.347 347.03 337.096 341.631 332.938 342.406C332.051 339.911 329.622 340.508 328.382 338.666C327.778 338.424 328.086 339.651 327.045 340.521C326.031 340.608 326.554 340.253 325.823 339.7C324.784 340.852 325.599 340.879 325.432 341.501C324.393 342.588 325.181 340.009 323.875 341.146C323.557 343.765 327.494 340.484 328.08 343.276C327.601 344.254 328.456 344.006 327.282 344.802C328.358 345.363 328.234 346.657 329.595 347.043C330.492 347.629 329.054 347.866 328.852 347.234C326.733 346.278 323.195 346.363 323.354 343.545C321.43 344.465 322.52 342.355 321.186 342.78C321.494 341.908 322.378 340.722 323.266 340.735C321.18 336.44 316.219 335.321 312.598 332.898C311.755 336.692 316.657 335.054 316.427 338.904C314.242 338.886 313.145 337.335 311.611 336.362C313.085 335.065 311.17 334.078 310.242 334.069C309.796 334.066 309.894 334.717 309.24 335.46C308.467 333.79 306.771 334.287 305.166 332.729C305.406 331.975 306.216 330.874 305.892 330.463C304.092 333.835 305.744 328.916 303.928 329.835C307.729 327.12 305.411 333.077 308.132 331.967C307.179 328.562 306.14 325.584 302.748 325.605C301.902 326.813 303.267 326.679 301.685 328.334C300.164 327.308 299.88 326.152 298.019 325.875C298.536 325.288 298.807 325.833 299.17 325.957C299.278 322.08 296.178 320.115 293.637 318.124C292.671 318.686 292.654 319.594 292.708 320.251C291.75 321.43 291.367 319.974 290.483 320.823C290 313.525 280.863 314.898 280.785 307.447C280.215 308.364 279.556 307.807 278.301 309.217C276.641 308.29 276.213 306.025 273.354 307.276C273.412 304.106 267.786 305.485 270.121 299.607C265.645 301.973 264.181 300.236 261.522 297.285C262.05 296.647 262.249 297.528 262.803 296.765C262.404 295.359 260.89 294.63 260.009 293.516C259.291 295.08 260.829 295.274 261.581 295.946C259.718 298.251 260.286 295.662 258.874 295.51C260.777 290.255 255.932 290.186 253.489 289.147C253.122 290.15 254.29 290.223 254.248 291.028C251.075 291.647 250.913 287.678 248.411 287.806C248.859 287.186 249.303 286.57 249.749 285.951C246.582 282.214 243.08 281.258 238.488 279.777C237.839 279.73 238.213 280.665 237.28 281.032C232.552 278.174 228.134 273.694 222.222 273C222.117 273.564 224.509 273.752 222.719 276.083C222.43 274.833 220.354 273.678 220.724 271.306C215.51 268.646 208.998 266.409 203.57 263.244C199.079 260.63 193.831 259.141 189.4 256.497C180.657 251.281 174.592 245.11 167.382 239.675C165.284 238.093 163.677 236.18 163.61 232.332C167.17 228.459 168.291 230.621 171.231 230.564C171.29 229.399 172.047 227.81 171.273 227.151C171.537 226.908 173.065 225.71 172.61 225.296C176.421 221.401 177.923 224.681 180.896 222.604C181.177 219.713 177.778 221.034 176.138 218.725C175.466 220.436 176.147 221.325 177.044 222.082C174.08 222.656 171.843 219.45 171.119 216.049C173.402 214.512 172.7 217.246 175.177 216.707C176.276 214.232 177.837 214.378 178.928 212.343C178.948 211.288 178.101 210.76 177.559 210.05C178.485 209.727 179.77 207.751 180.583 207.951C181.796 206.345 181.541 205.632 181.774 204.622C181.535 204.131 179.585 206.308 179.899 206.803C178.102 208.424 178.912 203.978 177.192 206.367C178.208 204.112 179.605 205.062 180.625 204.539C181.134 203.014 180.444 202.219 180.462 200.992C181.857 200.077 182.102 202.064 182.703 202.495C183.151 202.496 183.052 201.847 183.705 201.104C183.007 199.37 181.026 197.142 180.023 196.572C181.47 194.5 180.44 197.179 181.508 196.19C181.619 193.647 184.243 189.9 187.101 185.498C188.845 185.421 189.54 184.952 190.619 186.484C191.149 186.22 191.355 185.438 192.365 184.902C193.415 182.622 191.646 181.231 190.645 181C192.64 179.319 192.442 177.043 192.228 175.87C193.263 174.322 193.827 174.957 194.714 174.098C197.794 168.291 201.356 169.212 204.454 166.876C209.094 168.492 211.513 173.834 216.139 175.395C217.6 175.89 219.738 175.434 221.143 176C224.343 177.281 226.955 179.591 230.034 181.27C239.365 186.368 247.132 192.882 257.315 197.497C260.538 198.957 264.727 200.403 268.096 202.661C273.718 206.429 280.43 209.058 283.52 214.378C284.051 214.114 284.28 213.225 285.136 213.395C284.901 216.305 290.269 213.308 288.28 218.255Z" fill="#73CAE4" fill-opacity="0.26"/>
<path fill-rule="evenodd" clip-rule="evenodd" d="M272.66 127.803C271.571 128.756 272.648 126.554 271.512 127.718C271.712 129.16 270.535 131.437 271.413 132.467C271.612 131.125 272.136 131.205 272.879 130.012C271.608 131.576 271.444 128.784 272.66 127.803ZM245.297 118.397C244.835 118.25 244.861 119.238 244.424 119.186C241.396 117.26 239.052 113.331 234.515 113.234C233.106 109.926 229.591 109.172 227.108 107.581C225.311 106.429 224.156 103.697 220.808 105.421C224.069 108.112 228.216 109.786 230.457 112.576C234.632 113.813 238.585 117.516 243.625 120.715C243.701 121.19 242.369 122.52 242.697 122.843C243.511 121.96 244.226 121.524 244.846 121.535C251.328 126.748 257.076 130.572 261.29 133.934C261.355 134.44 259.875 137.191 261.306 136.007C261.223 135.751 261.319 134.154 261.902 134.344C263.862 137.11 272.752 140.549 274.214 145.349C274.055 145.097 274.267 144.62 274.474 144.146C277.744 146.851 282.057 147.34 283.511 150.891C281.628 146.804 279.718 141.867 274.867 142.346C275.2 141.882 275.535 141.418 275.868 140.957C273.322 142.532 273.896 137.673 272.872 137.569C267.742 140.33 269.345 134.507 266.147 133.064C263.803 135.295 262.241 132.32 261.944 130.932C256.761 127.832 250.324 123.801 245.297 118.397ZM286.332 148.656C286.733 149.729 285.513 149.907 284.792 150.374C284.522 151.738 285.767 152.136 287.033 151.877C285.332 151.945 287.919 148.847 287.016 149.803C286.674 149.585 285.974 151.012 285.605 150.922C286.172 150.103 286.69 149.512 287.147 149.203C286.223 149.53 287.242 147.495 286.332 148.656ZM288.834 148.959C286.779 153.914 291.941 153.267 292.474 156.903C293.275 156.081 293.909 156.029 294.494 156.195C295.226 157.05 296.584 159.716 298.496 158.188C297.734 157.783 298.444 156.484 298.073 155.843C296.867 157.051 294.91 156.133 294.962 155.129C296.346 153.341 295.343 155.895 296.443 154.75C294.838 153.957 290.078 153.411 288.834 148.959ZM298.57 158.927C299.925 159.19 299.828 162.358 301.96 160.51C300.629 160.633 299.954 157.688 298.57 158.927ZM279.641 148.297C279.068 147.964 277.896 148.702 277.692 149.743C278.128 150.243 278.824 149.55 279.641 148.297ZM284.674 153.051C284.142 153.718 283.513 154.811 283.134 154.769C282.546 153.824 280.736 152.315 279.543 153.044C285.425 159.007 292.697 163.671 296.204 167.655C295.973 167.651 295.793 167.398 295.462 167.846C295.868 168.843 296.825 167.309 297.484 167.137C298.754 170.149 302.544 171.178 303.768 173.53C303.562 173.984 303.874 174.121 304.092 174.316C304.028 174.03 303.897 173.781 303.768 173.53C303.834 173.386 303.952 173.207 304.151 172.981C305.942 174.896 307.412 173.539 307.149 176.367C308.382 174.619 308.675 177.214 309.909 175.469C303.613 169.008 292 162.549 285.376 156.27C285.911 154.778 286.92 155.975 286.583 155.013C285.519 155.994 286.496 153.55 285.23 154.796C284.944 157.707 284.326 154.801 284.674 153.051ZM334.748 190.054C335.742 188.417 334.396 188.682 333.525 189.234C334.091 189.847 333.461 191.183 334.69 191.393C335.345 190.648 335.244 190 335.692 190.001C336.64 190.12 334.594 192.057 335.709 192.074C336.282 191.225 336.693 191.124 336.99 191.554C338.724 188.913 336.634 188.001 334.748 190.054ZM341.675 194.697C341.687 193.085 339.833 191.579 338.473 191.176C337.302 196.055 342.318 193.214 341.559 197.37C342.063 196.845 342.506 196.599 342.839 196.855C344.687 194.218 342.876 194.246 341.675 194.697ZM331.796 192.892C332.822 192.788 331.767 193.952 331.945 194.363C332.61 193.445 332.924 194.147 333.687 192.781C333.095 192.028 333.182 191.575 331.796 192.892ZM313.929 179.536C318.547 182.743 321.583 187.376 327.17 188.41C323.312 185.448 319.766 181.79 313.929 179.536ZM309.747 171.92C309.853 172.03 309.939 172.152 309.617 172.521C309.287 172.258 308.839 172.527 308.338 173.037C308.835 173.968 309.779 172.852 310.562 172.467C309.864 172.655 310.882 170.623 309.747 171.92ZM311.63 179.37C312.692 178.066 313.091 179.802 314.058 178.934C313.742 178.52 314.186 177.643 314.247 176.997C311.408 178.33 312.712 174.892 309.781 176.066C309.546 178.141 313.82 177.384 311.63 179.37ZM286.328 165.845C286.539 166.269 285.855 166.415 285.325 167.237C286.971 166.55 284.692 169.094 286.214 168.52C285.976 167.977 286.303 167.508 287.014 166.992C286.822 166.724 286.985 164.978 286.328 165.845ZM322.782 197.85C322.133 198.329 321.347 199.444 320.835 199.294C322.404 196.968 319.724 196.703 319.073 198.803C320.47 197.541 321.266 202.113 324.37 202.353C325.544 198.891 323.661 199.383 322.782 197.85ZM332.926 208.09C333.727 208.272 333.745 211.203 334.962 209.455C334.989 208.769 334.5 206.125 332.926 208.09ZM337.686 211.967C337.443 212.98 338.43 213.095 339.241 212.324C338.968 211.658 338.733 211.306 337.686 211.967ZM339.112 212.921C338.846 214.22 340.231 215.876 341.629 215.299C340.684 214.22 340.608 212.402 339.112 212.921ZM217.934 135.814C218.775 137.482 219.608 138.609 221.193 137.999C221.129 136.815 219.108 135.458 217.934 135.814ZM221.805 138.408C222.112 138.767 222.292 140.51 223.434 139.501C223.574 138.872 222.67 137.566 221.805 138.408ZM204.154 127.266C203.374 125.773 201.294 125.613 199.949 125.133C200.895 126.222 201.774 127.279 204.154 127.266ZM211.488 132.181C213.472 133.349 215.386 135.634 217.86 135.078C214.891 133.836 214.38 131.669 211.488 132.181ZM303.387 188.288C303.091 187.924 302.631 185.55 301.221 187.52C302.469 187.731 301.907 189.595 303.387 188.288ZM318.332 198.993C319.447 197.61 318.711 196.448 317.648 197.848C317.338 199.147 318.6 197.881 318.332 198.993ZM333.392 207.023C330.463 206.983 330.044 202.695 326.408 203.719C328.934 204.888 329.397 208.428 333.392 207.023ZM312.352 194.295C314.457 195.058 315.069 198.893 318.114 196.781C315.821 196.406 315.538 191.652 312.352 194.295ZM261.69 168.587C261.894 169.938 263.441 170.475 263.001 172.217C261.801 170.661 259.035 167.808 257.167 168.994C260.48 172.229 264.557 173.389 266.961 177.621C266.748 178.012 266.308 178.54 266.498 178.685C266.942 178.068 267.389 177.448 267.834 176.829C267.944 177.946 269.664 179.466 271.019 178.28C270.54 175.077 267.795 173.143 265.838 172.054C265.743 172.348 266.334 173.403 265.577 173.256C264.858 171.519 263.365 168.875 261.69 168.587ZM275.559 179.947C274.409 180.495 275.232 178.677 274.003 179.589C274.215 179.925 273.423 182.158 274.354 181.198C274.266 180.992 274.395 180.653 274.816 180.137C275.078 180.365 275.67 180.557 275.559 179.947ZM275.966 180.219C275.521 180.837 275.076 181.455 274.629 182.073C277.659 185.961 280.53 186.594 284.348 189.967C283.553 183.545 277.795 185.665 275.966 180.219ZM285.164 190.512C285.45 191.888 289.929 192.108 287.96 193.759C287.751 194.386 290.71 193.438 290.593 193.462C289.283 192.184 287.015 189.102 285.164 190.512ZM291.814 194.283C291.363 194.924 290.985 195.234 290.608 195.537C290.791 196.117 290.326 197.719 291.627 196.218C291.311 195.804 291.754 194.926 291.814 194.283ZM255.234 172.511C255.775 174.18 258.161 174.726 257.232 177.287C256.899 177.025 256.45 177.296 255.953 177.803C257.899 176.728 255.014 180.091 256.636 178.95C257.708 177.598 259.939 180.987 261.1 179.882C260.779 176.196 258.718 172.527 255.234 172.511ZM246.84 170.323C246.864 174.669 248.898 170.199 250.988 173.791C251.608 171.398 247.784 170.791 251.016 168.305C248.216 170.236 247.269 163.678 244.571 164.672C244.336 165.855 245.447 166.22 244.324 167.945C244.494 167.264 243.506 167.149 242.766 167.593C244.444 168.22 244.769 171.328 246.84 170.323ZM242.897 166.992C242.277 166.983 241.973 165.521 241.137 166.499C241.701 167.214 241.607 168.149 242.897 166.992ZM158.173 121.888C154.935 120.669 155.441 119.141 152.209 119.263C153.023 120.757 155.417 124.085 158.173 121.888ZM141.763 113.635C142.363 114.225 143.673 114.382 143.466 115.464C144.189 113.461 143.226 112.604 141.763 113.635ZM234.804 177.381C237.013 178.35 236.766 181.461 239.008 179.513C237.677 180.086 236.707 175.611 234.804 177.381ZM252.892 192.945C252.558 193.409 252.222 193.874 251.889 194.336C251.899 195.123 253.655 195.229 252.922 197.095C255.207 194.337 255.361 198.882 257.463 198.759C257.928 195.156 254.107 195.53 252.892 192.945ZM258.945 198.381C258.339 202.531 262.976 200.935 262.105 205.314C258.52 203.372 256.707 199.337 251.847 197.748C251.898 198.412 252.749 198.589 252.401 199.494C249.987 199.453 250.204 197.489 250.275 195.318C249.515 196.66 249.208 195.933 248.661 196.3C248.858 194.849 248.998 192.608 247.089 193.869C251.113 203.564 264.859 212.457 271.378 216.342C268.146 212.031 264.169 211.828 262.326 207.522C265.172 206.265 264.22 212.057 268.087 210.009C266.589 209.733 265.859 207.069 264.683 206.349C263.86 207.772 262.757 204.664 265.131 203.214C263.182 201.895 260.239 200.106 258.945 198.381ZM269.79 211.839C271.285 214.538 272.982 214.62 275.086 215.391C273.362 213.104 272.453 210.569 269.79 211.839ZM287.252 224.922C287.84 225.084 288.473 225.034 289.273 224.214C288.692 223.685 288.244 221.73 286.828 222.574C286.69 223.751 288.158 223.953 287.79 224.592C287.649 224.536 287.5 224.501 287.252 224.922ZM290.831 224.568C289.005 226.923 289.788 224.27 289.143 224.813C289.373 225.147 288.551 225.924 288.14 226.204C290.444 226.065 289.584 228.44 292.736 226.534C292.764 227.82 294.73 227.926 293.641 229.892C294.645 229.196 294.047 229.289 294.976 228.038C293.646 227.631 293.69 226.387 293.202 225.469C291.483 227.972 291.298 225.14 290.831 224.568ZM296.272 229.593C297.967 229.997 296.971 232.234 298.254 232.295C297.957 231.259 299.305 229.226 298.63 228.418C297.438 231.239 297.973 228.144 296.272 229.593ZM243.918 194.496C243.669 189.619 239.248 188.624 236.831 186.304C237.21 186.75 236.407 187.856 235.697 188.299C238.352 190.876 240.76 193.768 243.918 194.496ZM282.143 219.434C281.708 219.298 282.173 216.914 281.664 218.421C281.768 218.533 281.853 218.655 281.532 219.025C280.686 218.756 280.522 218.075 280.237 217.467C278.976 219.115 281.456 219.834 282.143 219.434ZM276.069 229.115C275.737 230.625 277.254 229.117 277.83 229.608C277.645 229.865 277.617 230.243 278.033 229.745C278.319 228.061 277.335 228.604 276.069 229.115ZM256.479 114.203C257.972 113.248 257.116 113.772 258.427 112.757C263.047 117.671 266.164 119.642 270.739 123.762C270.428 124.113 270.202 124.086 269.867 124.552C270.612 124.655 272.981 123.704 271.975 126.658C272.41 126.445 272.893 126.019 273.387 125.537C273.572 125.772 272.948 126.499 272.588 127.065C272.816 127.088 273.126 126.736 273.328 126.875C274.241 126.795 272.998 126.004 274.331 125.484C275.492 126.822 273.855 128.599 276.573 126.985C277.349 127.935 276.908 130.053 278.683 129.086C278.919 129.631 278.593 130.101 277.883 130.617C280.002 129.604 280.001 131.548 281.477 132.338C280.896 132.869 280.419 132.909 279.994 132.719C279.008 134.424 281.248 133.135 280.417 135.066C279.46 135.109 278.461 136.119 278.324 135.035C277.673 138.382 281.914 139.963 283.431 140.525C282.549 140.723 282.035 143.087 283.302 141.124C283.357 141.785 282.409 143.056 282.779 143.525C281.904 144.706 281.352 143.552 281.035 145.106C281.632 145.694 282.438 143.107 283.391 143.932C283.59 143.033 282.986 142.617 284.245 141.071C284.47 141.475 284.892 140.966 285.324 140.415C285.423 141.911 283.136 141.752 283.853 142.872C285.202 141.74 287.195 142.391 288.044 142.927C287.078 140.026 284.103 140.81 283.343 137.715C285.49 135.094 285.743 137.377 285.714 138.616C286.319 138.856 286.01 137.631 287.051 136.761C287.07 137.206 288.45 137.889 288.68 137.854C288.62 139.428 287.169 138.469 286.528 139.162C286.882 139.56 287.686 142.225 290.31 138.948C289.924 140.05 289.166 141.378 289.657 141.948C289.865 141.474 290.078 140.998 289.919 140.746C291.197 140.333 289.065 143.289 287.913 143.528C289.352 146.54 294.507 149.295 298.317 152.568C300.174 154.159 302.617 155.573 303.762 157.59C304.476 158.851 308.398 161.028 310.688 162.234C310.861 162.561 310.019 163.509 309.556 164.224C312.787 162.479 312.872 166.583 316.335 167.396C316.518 167.63 315.897 168.356 315.536 168.921C315.77 169.4 317.441 168.082 316.016 169.932C320.027 168.426 321.304 172.48 323.408 173.51C323.702 173.658 324.532 172.902 324.483 172.857C324.876 173.213 324.344 175.014 325.111 175.34C326.011 175.724 326.195 176.122 326.813 177.172C327.372 178.115 328.636 179.859 328.997 180.009C329.28 180.128 329.951 179.03 330.277 179.491C330.537 179.865 329.845 180.721 329.893 181.188C330.079 181.002 331.798 181.975 332.793 181.869C331.264 183.574 335.957 184.025 337.014 186.072C336.22 186.939 335.748 186.57 335.475 187.79C337.12 187.879 338.833 185.517 338.252 188.966C340.566 187.676 340.358 189.118 341.975 190.087C341.31 191.005 340.997 190.303 340.233 191.668C341.768 190.112 341.037 192.745 342.659 191.234C342.784 191.441 342.492 191.889 342.241 192.08C344.636 191.13 346.187 193.725 347.216 194.975C346.072 196.079 346.143 196.719 345.471 196.557C345.608 197.549 346.673 198.956 344.893 200.291C345.582 199.958 345.794 200.098 345.707 200.84C346.178 200.3 346.209 200.024 346.11 199.83C347.866 202.254 350.69 205.244 351.501 207.474C352.444 206.346 351.888 207.335 353.187 207.23C352.733 207.535 352.214 208.129 351.646 208.947C352.231 209.122 353.35 206.832 353.797 207.642C351.637 210.984 356.144 208.647 355.035 210.533C355.329 210.618 355.818 209.801 356.241 209.279C356.538 210.627 357.072 210.507 358.687 210.917C355.614 211.798 358.267 212.141 359.372 212.063C358.745 213.165 358.507 212.462 357.961 213.181C357.676 214.248 358.202 215.321 359.519 213.537C358.854 216.431 360.049 217.173 360.51 219.705C358.233 220.939 356.362 220.112 353.95 218.743C353.501 218.745 353.604 219.39 352.948 220.135C349.271 219.248 347.389 215.873 343.259 216.39C345.996 222.535 353.007 224.158 356.661 228.816C354.41 229.163 353.597 229.043 351.454 228.075C350.679 229.5 352.31 229.464 352.082 230.557C351.233 231.24 350.757 230.21 349.988 230.529C351.668 233.968 355.039 234.953 358.356 238.201C357.338 240.021 357.209 237.75 356.073 240.11C350.129 235.085 341.755 236.449 340.331 230.93C341.236 229.987 341.603 231.517 342.293 231.561C342.051 228.39 339.271 227.331 337.185 226.071C331.353 222.554 325.452 219.167 319.811 215.802C319.493 216.257 319.8 216.331 319.886 216.539C312.708 214.639 303.681 208.685 299.309 202.748C298.762 203.115 298.454 202.387 297.697 203.728C297.678 200.286 294.713 200.653 292.532 199.574C286.948 196.824 283.157 190.163 277.715 188.27C279.933 186.393 277.222 187.688 276.29 187.315C272.564 185.816 268.672 180.658 264.736 178.194C264.126 181.931 269.692 181.715 270.065 185.892C269.304 187.248 269.344 184.915 268.582 186.273C269.297 191.849 275.419 189.936 276.149 195.472C276.765 195.198 276.613 194.652 277.561 194.354C283.617 196.937 290.544 203.967 296.521 209.128C297.228 209.741 298.791 208.793 299.767 209.239C307.97 212.999 310.941 222.135 318.671 225.35C314.125 224.341 312.341 221.103 307.001 218.903C306.707 218.817 306.219 219.635 305.794 220.159C303.21 218.372 303.345 216.348 301.296 215.08C291.404 208.943 280.968 200.125 268.384 195.765C267.355 195.622 267.204 197.378 266.305 197.812C265.74 194.324 261.557 195.538 262.199 190.933C261.349 190.98 261.823 192.34 261.807 192.733C258.834 192.888 260.013 186.311 256.217 186.237C255.382 187.872 256.602 188.259 256.177 189.647C255.987 190.075 254.789 188.952 255.085 188.228C252.876 190.226 250.392 186.469 249.047 184.867C247.107 186.897 245.582 181.82 243.025 183.581C247.743 188.366 255.868 191.275 259.817 197.591C260.462 196.85 260.29 196.606 260.08 196.39C261.142 196.084 261.675 196.755 260.836 198.272C261.585 198.892 261.285 197.517 262.245 197.155C262.527 197.994 262.505 198.352 262.597 198.765C265.371 198.669 266.168 201.719 267.429 203.38C270.58 206.513 266.626 202.007 264.665 204.278C267.832 208.382 274.368 210.428 276.905 214.545C275.318 216.973 276.177 214.071 274.958 215.989C275.892 217.877 277.903 218.007 278.9 219.322C279.724 217.605 277.708 217.614 279.277 215.444C281.069 216.226 282.416 218.217 283.756 218.451C281.299 221.783 284.633 222.487 286.407 220.225C287.658 220.073 285.879 221.763 286.756 221.836C287.094 221.895 287.626 221.054 287.425 220.909C290.535 222.211 297.465 226.21 299.851 229.239C299.905 229.728 299.515 230.487 298.921 231.369C299.802 231.374 299.877 229.793 300.593 229.051C301.659 231.228 304.127 230.541 304 232.707C302.89 234.581 302.611 232.652 301.904 232.68C301.586 233.871 302.561 233.315 300.974 234.807C306.091 237.578 307.282 238.439 311.364 241.772C306.545 242.978 305.294 237.579 301.137 238.354C300.25 235.859 297.821 236.456 296.581 234.614C295.976 234.372 296.285 235.599 295.244 236.469C294.23 236.556 294.753 236.201 294.022 235.648C292.983 236.8 293.798 236.827 293.631 237.449C292.592 238.536 293.38 235.957 292.074 237.094C291.755 239.713 295.692 236.432 296.279 239.224C295.8 240.202 296.655 239.954 295.481 240.75C296.557 241.311 296.433 242.605 297.794 242.991C298.691 243.577 297.252 243.814 297.051 243.182C294.932 242.226 291.393 242.311 291.553 239.493C289.628 240.413 290.719 238.303 289.384 238.728C289.693 237.856 290.576 236.67 291.464 236.683C289.378 232.388 284.418 231.269 280.796 228.846C279.953 232.64 284.856 231.002 284.625 234.852C282.441 234.834 281.344 233.283 279.81 232.31C281.283 231.013 279.368 230.026 278.441 230.017C277.994 230.014 278.093 230.665 277.439 231.408C276.666 229.738 274.97 230.235 273.364 228.677C273.604 227.923 274.414 226.822 274.091 226.411C272.291 229.783 273.943 224.864 272.127 225.783C275.928 223.068 273.609 229.025 276.33 227.915C275.378 224.51 274.339 221.532 270.947 221.553C270.101 222.761 271.466 222.627 269.884 224.282C268.362 223.256 268.079 222.1 266.218 221.823C266.735 221.236 267.006 221.781 267.369 221.905C267.477 218.028 264.377 216.063 261.836 214.072C260.87 214.634 260.853 215.542 260.907 216.199C259.949 217.378 259.566 215.922 258.682 216.771C258.199 209.473 249.062 210.846 248.984 203.395C248.414 204.312 247.754 203.755 246.5 205.165C244.839 204.238 244.412 201.973 241.553 203.224C241.61 200.054 235.985 201.433 238.319 195.555C233.844 197.921 232.379 196.184 229.721 193.233C230.249 192.595 230.448 193.476 231.002 192.713C230.603 191.307 229.088 190.578 228.208 189.464C227.49 191.028 229.028 191.222 229.78 191.894C227.917 194.199 228.485 191.61 227.073 191.458C228.976 186.203 224.131 186.134 221.688 185.095C221.321 186.098 222.488 186.171 222.447 186.976C219.274 187.595 219.112 183.626 216.61 183.754C217.058 183.134 217.502 182.518 217.947 181.899C214.781 178.162 211.279 177.206 206.687 175.725C206.038 175.678 206.412 176.613 205.479 176.98C200.751 174.122 196.333 169.642 190.421 168.948C190.315 169.512 192.708 169.7 190.917 172.031C190.629 170.781 188.553 169.626 188.923 167.254C183.708 164.594 177.197 162.357 171.769 159.192C167.277 156.578 162.03 155.089 157.598 152.445C148.856 147.229 142.79 141.058 135.581 135.623C133.482 134.041 131.875 132.128 131.809 128.28C135.369 124.407 136.49 126.569 139.43 126.512C139.488 125.347 140.245 123.758 139.471 123.099C139.736 122.856 141.264 121.658 140.809 121.244C144.62 117.349 146.122 120.629 149.095 118.552C149.376 115.661 145.976 116.982 144.337 114.673C143.665 116.384 144.346 117.273 145.243 118.03C142.279 118.604 140.042 115.398 139.318 111.997C141.601 110.46 140.899 113.194 143.375 112.655C144.475 110.18 146.036 110.326 147.127 108.291C147.146 107.236 146.3 106.708 145.758 105.998C146.683 105.675 147.969 103.699 148.781 103.899C149.995 102.293 149.739 101.58 149.972 100.57C149.734 100.079 147.784 102.256 148.097 102.751C146.3 104.372 147.11 99.9257 145.391 102.315C146.407 100.06 147.804 101.01 148.823 100.487C149.333 98.9617 148.643 98.1671 148.661 96.9402C150.056 96.0252 150.301 98.0118 150.902 98.4431C151.35 98.4437 151.251 97.7952 151.904 97.0515C151.206 95.3179 149.225 93.09 148.222 92.5204C149.669 90.4477 148.639 93.1269 149.707 92.1378C149.818 89.5946 152.442 85.8477 155.3 81.4458C157.044 81.3686 157.739 80.9005 158.818 82.4322C159.348 82.1681 159.554 81.3859 160.564 80.85C161.614 78.5697 159.845 77.1791 158.844 76.9476C160.838 75.2673 160.641 72.9906 160.427 71.8181C161.462 70.2705 162.025 70.9049 162.913 70.0464C165.992 64.2391 169.555 65.1605 172.653 62.824C177.292 64.4398 179.712 69.7823 184.338 71.3434C185.799 71.8381 187.937 71.3821 189.341 71.9477C192.541 73.2293 195.154 75.5386 198.232 77.2184C207.564 82.3161 215.331 88.8304 225.514 93.4447C228.737 94.9055 232.926 96.3506 236.295 98.6094C241.917 102.377 248.628 105.006 251.719 110.326C252.249 110.062 252.478 109.173 253.335 109.343C253.1 112.253 258.468 109.256 256.479 114.203Z" fill="#73CAE4" fill-opacity="0.26"/>
<path fill-rule="evenodd" clip-rule="evenodd" d="M132.937 268.864C134.017 267.901 132.96 270.113 134.085 268.939C133.873 267.498 135.029 265.211 134.142 264.189C133.955 265.533 133.43 265.458 132.698 266.657C133.955 265.082 134.144 267.872 132.937 268.864ZM160.384 278.023C160.847 278.166 160.812 277.178 161.249 277.226C164.294 279.124 166.674 283.032 171.212 283.088C172.65 286.384 176.172 287.106 178.669 288.675C180.476 289.81 181.656 292.532 184.989 290.778C181.703 288.117 177.541 286.48 175.276 283.71C171.089 282.511 167.103 278.844 162.035 275.69C161.954 275.216 163.274 273.874 162.944 273.554C162.138 274.444 161.426 274.886 160.806 274.881C154.277 269.727 148.496 265.954 144.251 262.631C144.182 262.126 145.636 259.361 144.217 260.558C144.302 260.813 144.22 262.412 143.636 262.226C141.65 259.479 132.73 256.12 131.225 251.333C131.386 251.584 131.178 252.062 130.975 252.538C127.682 249.862 123.364 249.413 121.878 245.875C123.798 249.945 125.752 254.864 130.599 254.341C130.27 254.809 129.939 255.275 129.61 255.74C132.142 254.142 131.611 259.006 132.637 259.101C137.741 256.293 136.191 262.131 139.402 263.544C141.726 261.293 143.314 264.254 143.625 265.638C148.835 268.692 155.308 272.664 160.384 278.023ZM119.077 248.136C118.667 247.066 119.885 246.877 120.602 246.404C120.859 245.037 119.611 244.65 118.348 244.921C120.047 244.838 117.489 247.959 118.383 246.994C118.727 247.209 119.414 245.776 119.784 245.863C119.224 246.687 118.712 247.283 118.257 247.596C119.179 247.261 118.178 249.305 119.077 248.136ZM116.573 247.855C118.583 242.882 113.427 243.575 112.861 239.944C112.068 240.773 111.434 240.831 110.848 240.671C110.108 239.822 108.726 237.168 106.827 238.713C107.593 239.111 106.895 240.417 107.272 241.054C108.466 239.836 110.432 240.736 110.389 241.74C109.022 243.541 110.001 240.978 108.912 242.133C110.524 242.911 115.289 243.414 116.573 247.855ZM106.747 237.975C105.39 237.724 105.458 234.556 103.343 236.423C104.673 236.288 105.374 239.226 106.747 237.975ZM125.772 248.434C126.347 248.762 127.512 248.013 127.707 246.971C127.266 246.475 126.577 247.174 125.772 248.434ZM120.695 243.725C121.221 243.053 121.84 241.956 122.22 241.994C122.816 242.933 124.64 244.426 125.827 243.686C119.891 237.776 112.577 233.178 109.034 229.226C109.265 229.228 109.447 229.48 109.774 229.028C109.359 228.035 108.417 229.578 107.759 229.756C106.462 226.756 102.662 225.761 101.418 223.42C101.62 222.964 101.306 222.829 101.087 222.636C101.153 222.922 101.286 223.17 101.418 223.42C101.353 223.564 101.237 223.744 101.04 223.973C99.2308 222.074 97.7737 223.443 98.0115 220.613C96.7936 222.372 96.4773 219.78 95.2594 221.536C101.614 227.94 113.284 234.294 119.965 240.513C119.443 242.01 118.423 240.822 118.769 241.78C119.824 240.791 118.869 243.243 120.124 241.986C120.384 239.072 121.028 241.973 120.695 243.725ZM70.2893 207.176C69.3102 208.822 70.6544 208.544 71.5199 207.984C70.9486 207.377 71.5669 206.035 70.336 205.837C69.6872 206.588 69.7945 207.234 69.3464 207.237C68.3974 207.127 70.4261 205.171 69.3109 205.164C68.7452 206.019 68.3349 206.123 68.0345 205.696C66.324 208.353 68.4228 209.246 70.2893 207.176ZM63.3213 202.595C63.3236 204.207 65.1911 205.696 66.5553 206.087C67.6822 201.198 62.6913 204.084 63.4127 199.921C62.9139 200.451 62.4733 200.701 62.1382 200.448C60.3133 203.102 62.1246 203.058 63.3213 202.595ZM73.2163 204.311C72.1907 204.425 73.2358 203.251 73.0541 202.842C72.3966 203.766 72.077 203.067 71.3256 204.439C71.9253 205.187 71.842 205.641 73.2163 204.311ZM91.203 217.505C86.5562 214.341 83.4788 209.735 77.8827 208.751C81.7668 211.678 85.3459 215.304 91.203 217.505ZM95.4529 225.084C95.3466 224.975 95.2591 224.853 95.5775 224.481C95.9107 224.741 96.3558 224.469 96.852 223.954C96.3464 223.027 95.413 224.151 94.6333 224.544C95.3298 224.35 94.3296 226.391 95.4529 225.084ZM93.5032 217.651C92.4534 218.964 92.0384 217.232 91.0791 218.108C91.3991 218.52 90.9634 219.401 90.9077 220.047C93.7348 218.689 92.4621 222.139 95.382 220.938C95.5984 218.861 91.3311 219.657 93.5032 217.651ZM118.927 230.947C118.712 230.525 119.394 230.373 119.916 229.546C118.277 230.248 120.532 227.683 119.017 228.272C119.259 228.812 118.936 229.284 118.23 229.807C118.424 230.072 118.277 231.82 118.927 230.947ZM82.1852 199.272C82.8292 198.787 83.6059 197.665 84.1184 197.81C82.571 200.151 85.2527 200.392 85.8852 198.285C84.4997 199.56 83.6627 194.995 80.5565 194.783C79.414 198.256 81.292 197.747 82.1852 199.272ZM71.9492 189.124C71.1469 188.949 71.1022 186.019 69.9005 187.777C69.88 188.463 70.3931 191.103 71.9492 189.124ZM67.1547 185.29C67.3876 184.275 66.3999 184.169 65.5962 184.947C65.8753 185.611 66.1134 185.961 67.1547 185.29ZM65.7194 184.349C65.9741 183.048 64.5736 181.405 63.1818 181.994C64.1359 183.064 64.2285 184.882 65.7194 184.349ZM187.588 260.359C186.733 258.7 185.889 257.58 184.309 258.204C184.384 259.388 186.417 260.726 187.588 260.359ZM183.694 257.801C183.383 257.445 183.189 255.703 182.056 256.722C181.921 257.353 182.836 258.65 183.694 257.801ZM201.445 268.784C202.238 270.269 204.32 270.41 205.669 270.879C204.713 269.798 203.824 268.749 201.445 268.784ZM194.067 263.934C192.073 262.785 190.138 260.517 187.669 261.095C190.649 262.31 191.18 264.472 194.067 263.934ZM101.665 208.658C101.965 209.021 102.446 211.39 103.838 209.408C102.589 209.208 103.134 207.338 101.665 208.658ZM86.6241 198.089C85.5222 199.482 86.2681 200.638 87.319 199.228C87.6166 197.926 86.3667 199.204 86.6241 198.089ZM71.4931 190.195C74.4219 190.209 74.8799 194.492 78.5063 193.436C75.97 192.29 75.4752 188.755 71.4931 190.195ZM92.647 202.733C90.535 201.989 89.8882 198.159 86.8622 200.299C89.1583 200.653 89.4843 205.405 92.647 202.733ZM143.538 227.983C143.322 226.634 141.771 226.111 142.195 224.365C143.409 225.91 146.2 228.738 148.057 227.536C144.716 224.33 140.628 223.207 138.186 218.996C138.396 218.604 138.831 218.072 138.64 217.929C138.201 218.549 137.76 219.174 137.32 219.796C137.2 218.681 135.467 217.176 134.123 218.375C134.63 221.573 137.392 223.483 139.36 224.554C139.452 224.259 138.851 223.209 139.61 223.349C140.344 225.08 141.861 227.71 143.538 227.983ZM129.567 216.749C130.713 216.191 129.906 218.016 131.127 217.093C130.912 216.759 131.684 214.518 130.761 215.486C130.851 215.692 130.725 216.032 130.309 216.551C130.045 216.327 129.451 216.14 129.567 216.749ZM129.158 216.481C129.598 215.858 130.037 215.236 130.478 214.614C127.414 210.754 124.537 210.146 120.688 206.808C121.542 213.223 127.28 211.051 129.158 216.481ZM119.867 206.27C119.569 204.897 115.088 204.718 117.042 203.049C117.246 202.42 114.296 203.394 114.412 203.369C115.734 204.636 118.029 207.697 119.867 206.27ZM113.183 202.56C113.629 201.915 114.004 201.601 114.379 201.295C114.19 200.717 114.64 199.11 113.353 200.623C113.673 201.035 113.239 201.916 113.183 202.56ZM149.959 224.001C149.403 222.337 147.012 221.812 147.918 219.243C148.253 219.502 148.699 219.227 149.192 218.715C147.255 219.808 150.11 216.419 148.499 217.575C147.439 218.936 145.177 215.568 144.026 216.683C144.381 220.367 146.475 224.016 149.959 224.001ZM158.372 226.113C158.309 221.767 156.315 226.256 154.193 222.683C153.595 225.081 157.424 225.654 154.214 228.169C156.997 226.213 158.004 232.761 160.693 231.744C160.917 230.558 159.802 230.203 160.91 228.468C160.745 229.15 161.734 229.257 162.47 228.807C160.787 228.195 160.434 225.09 158.372 226.113ZM162.345 229.409C162.966 229.412 163.282 230.871 164.11 229.885C163.539 229.176 163.624 228.24 162.345 229.409ZM247.472 273.747C250.722 274.936 250.23 276.468 253.459 276.317C252.632 274.831 250.208 271.525 247.472 273.747ZM263.957 281.851C263.351 281.266 262.04 281.121 262.237 280.037C261.532 282.047 262.503 282.895 263.957 281.851ZM170.344 218.947C168.126 217.997 168.345 214.884 166.121 216.852C167.447 216.268 168.457 220.734 170.344 218.947ZM152.117 203.546C152.447 203.08 152.778 202.611 153.107 202.146C153.09 201.36 151.333 201.27 152.049 199.397C149.789 202.175 149.593 197.632 147.493 197.774C147.06 201.381 150.878 200.972 152.117 203.546ZM146.015 198.166C146.583 194.01 141.961 195.648 142.792 191.261C146.395 193.171 148.243 197.189 153.118 198.734C153.061 198.071 152.208 197.901 152.548 196.993C154.962 197.012 154.763 198.978 154.712 201.15C155.459 199.801 155.774 200.526 156.316 200.154C156.133 201.606 156.013 203.849 157.911 202.57C153.799 192.912 139.974 184.143 133.42 180.317C136.691 184.599 140.669 184.766 142.551 189.055C139.716 190.338 140.617 184.538 136.769 186.62C138.268 186.883 139.022 189.54 140.205 190.249C141.015 188.819 142.146 191.917 139.785 193.388C141.746 194.69 144.705 196.452 146.015 198.166ZM135.048 184.806C133.529 182.121 131.832 182.053 129.721 181.302C131.465 183.573 132.397 186.1 135.048 184.806ZM117.469 171.881C116.88 171.725 116.248 171.78 115.455 172.607C116.041 173.131 116.506 175.081 117.914 174.225C118.042 173.046 116.572 172.858 116.934 172.215C117.076 172.27 117.225 172.304 117.469 171.881ZM113.894 172.268C115.699 169.895 114.939 172.556 115.58 172.007C115.346 171.675 116.161 170.891 116.57 170.607C114.267 170.767 115.106 168.384 111.971 170.319C111.932 169.032 109.965 168.944 111.036 166.969C110.038 167.674 110.635 167.576 109.718 168.834C111.051 169.23 111.019 170.474 111.514 171.387C113.211 168.87 113.421 171.699 113.894 172.268ZM108.408 167.291C106.709 166.903 107.685 164.657 106.401 164.608C106.708 165.641 105.378 167.686 106.06 168.487C107.227 165.656 106.72 168.756 108.408 167.291ZM161.076 201.915C161.369 206.789 165.799 207.745 168.236 210.042C167.854 209.6 168.647 208.487 169.353 208.038C166.675 205.485 164.241 202.615 161.076 201.915ZM122.627 177.323C123.064 177.455 122.62 179.843 123.116 178.331C123.01 178.22 122.924 178.099 123.242 177.726C124.09 177.987 124.261 178.667 124.551 179.272C125.798 177.613 123.311 176.916 122.627 177.323ZM128.614 167.587C128.932 166.074 127.429 167.595 126.848 167.11C127.032 166.852 127.056 166.473 126.644 166.975C126.374 168.661 127.353 168.11 128.614 167.587ZM149.24 282.318C147.756 283.286 148.607 282.754 147.305 283.781C142.641 278.909 139.506 276.966 134.894 272.888C135.202 272.534 135.429 272.559 135.759 272.09C135.013 271.994 132.653 272.966 133.632 270.003C133.199 270.22 132.72 270.65 132.23 271.137C132.043 270.903 132.661 270.17 133.016 269.601C132.788 269.581 132.481 269.936 132.278 269.798C131.365 269.887 132.615 270.666 131.287 271.198C130.114 269.871 131.734 268.079 129.031 269.717C128.246 268.775 128.668 266.652 126.902 267.635C126.661 267.093 126.984 266.62 127.688 266.097C125.579 267.13 125.563 265.185 124.079 264.409C124.655 263.873 125.132 263.828 125.559 264.015C126.529 262.301 124.301 263.609 125.115 261.672C126.071 261.62 127.061 260.601 127.208 261.684C127.828 258.331 123.573 256.789 122.051 256.24C122.931 256.034 123.424 253.666 122.175 255.64C122.114 254.98 123.051 253.7 122.677 253.234C123.54 252.045 124.103 253.194 124.406 251.638C123.803 251.055 123.021 253.649 122.061 252.832C121.87 253.734 122.477 254.144 121.232 255.701C121.004 255.3 120.587 255.812 120.159 256.367C120.047 254.872 122.336 255.01 121.608 253.897C120.27 255.041 118.27 254.408 117.417 253.879C118.409 256.772 121.377 255.961 122.165 259.05C120.042 261.689 119.768 259.409 119.786 258.17C119.179 257.935 119.499 259.157 118.466 260.036C118.443 259.592 117.057 258.921 116.827 258.958C116.873 257.383 118.332 258.33 118.967 257.631C118.609 257.236 117.781 254.578 115.187 257.879C115.563 256.774 116.309 255.438 115.813 254.874C115.609 255.349 115.401 255.827 115.562 256.077C114.288 256.502 116.393 253.527 117.542 253.277C116.077 250.279 110.897 247.57 107.057 244.332C105.186 242.758 102.731 241.365 101.568 239.359C100.842 238.104 96.9006 235.963 94.5996 234.778C94.4238 234.452 95.2574 233.497 95.7139 232.778C92.4983 234.552 92.3763 230.449 88.906 229.667C88.7214 229.435 89.3358 228.703 89.6916 228.134C89.4535 227.658 87.7941 228.991 89.2021 227.128C85.2055 228.67 83.8921 224.628 81.7786 223.616C81.4827 223.471 80.6598 224.235 80.7097 224.279C80.3134 223.927 80.8292 222.121 80.0593 221.803C79.1561 221.426 78.9682 221.03 78.3406 219.986C77.7735 219.048 76.4933 217.315 76.1311 217.169C75.8468 217.052 75.1863 218.156 74.856 217.698C74.5922 217.327 75.2772 216.464 75.2248 215.998C75.0405 216.185 73.3129 215.228 72.3184 215.343C73.8324 213.624 69.1347 213.216 68.0594 211.179C68.8459 210.304 69.3213 210.669 69.5831 209.446C67.938 209.372 66.2463 211.749 66.7955 208.296C64.4937 209.607 64.6887 208.163 63.0623 207.208C63.7191 206.284 64.0393 206.983 64.7906 205.611C63.2693 207.181 63.9764 204.541 62.3686 206.067C62.2414 205.861 62.5295 205.411 62.7785 205.217C60.3925 206.189 58.8184 203.609 57.778 202.368C58.912 201.253 58.8352 200.614 59.5086 200.769C59.363 199.779 58.2847 198.382 60.0528 197.031C59.3667 197.37 59.1536 197.232 59.2344 196.489C58.7676 197.034 58.7389 197.309 58.8403 197.502C57.0622 195.095 54.211 192.13 53.3807 189.908C52.4476 191.044 52.9948 190.05 51.6968 190.167C52.148 189.858 52.6615 189.259 53.2221 188.436C52.6351 188.266 51.5375 190.566 51.0827 189.761C53.2124 186.399 48.7267 188.777 49.8187 186.881C49.5241 186.798 49.0429 187.62 48.6239 188.146C48.3154 186.801 47.7826 186.925 46.1635 186.53C49.2282 185.621 46.5727 185.301 45.4678 185.39C46.0857 184.283 46.3299 184.983 46.8689 184.259C47.1444 183.19 46.6089 182.121 45.3082 183.917C45.9469 181.018 44.7453 180.286 44.2611 177.758C46.5274 176.504 48.4052 177.314 50.8295 178.661C51.279 178.656 51.1696 178.011 51.8191 177.26C55.5039 178.114 57.4159 181.472 61.542 180.918C58.7492 174.798 51.7241 173.238 48.0281 168.613C50.2762 168.246 51.0896 168.359 53.2411 169.307C54.0033 167.875 52.3727 167.926 52.5915 166.83C53.4344 166.14 53.9193 167.166 54.6857 166.84C52.9746 163.416 49.5945 162.461 46.2483 159.243C47.2502 157.414 47.3999 159.684 48.5146 157.314C54.5028 162.285 62.8648 160.846 64.3381 166.352C63.4418 167.303 63.0609 165.777 62.3709 165.738C62.6414 168.907 65.4307 169.941 67.5276 171.182C73.3916 174.646 79.3225 177.98 84.9935 181.294C85.3075 180.836 84.9997 180.765 84.9121 180.558C92.1074 182.393 101.187 188.266 105.613 194.163C106.156 193.791 106.471 194.516 107.216 193.168C107.266 196.61 110.227 196.216 112.418 197.275C118.027 199.975 121.878 206.601 127.336 208.445C125.136 210.342 127.834 209.023 128.77 209.388C132.51 210.853 136.448 215.975 140.406 218.404C140.982 214.662 135.419 214.927 135.008 210.754C135.757 209.392 135.737 211.724 136.487 210.36C135.722 204.79 129.618 206.759 128.838 201.229C128.224 201.509 128.381 202.054 127.436 202.36C121.356 199.831 114.366 192.865 108.343 187.758C107.63 187.151 106.076 188.114 105.096 187.676C96.8598 183.99 93.8069 174.882 86.0481 171.736C90.6022 172.704 92.4154 175.926 97.7758 178.078C98.0703 178.161 98.5511 177.339 98.9708 176.811C101.571 178.574 101.454 180.599 103.515 181.849C113.461 187.896 123.977 196.62 136.6 200.866C137.63 201 137.765 199.243 138.66 198.801C139.257 202.283 143.429 201.032 142.828 205.643C143.678 205.588 143.191 204.232 143.203 203.839C146.175 203.657 145.055 210.244 148.852 210.284C149.672 208.641 148.448 208.266 148.861 206.874C149.047 206.444 150.256 207.556 149.966 208.284C152.157 206.265 154.674 209.999 156.034 211.59C157.955 209.542 159.526 214.605 162.068 212.821C157.307 208.078 149.156 205.243 145.15 198.964C144.511 199.71 144.685 199.952 144.898 200.167C143.838 200.482 143.3 199.816 144.125 198.291C143.37 197.678 143.683 199.05 142.726 199.421C142.436 198.585 142.455 198.226 142.36 197.814C139.587 197.936 138.761 194.893 137.486 193.243C134.307 190.139 138.301 194.609 140.242 192.32C137.038 188.245 130.483 186.259 127.91 182.164C129.474 179.722 128.642 182.632 129.843 180.703C128.892 178.823 126.88 178.711 125.872 177.405C125.063 179.13 127.079 179.103 125.53 181.286C123.731 180.521 122.365 178.542 121.023 178.32C123.45 174.966 120.11 174.293 118.357 176.57C117.107 176.733 118.871 175.027 117.993 174.962C117.655 174.907 117.13 175.752 117.333 175.895C114.211 174.622 107.245 170.685 104.832 167.677C104.774 167.19 105.157 166.427 105.743 165.54C104.861 165.543 104.801 167.124 104.092 167.873C103.006 165.705 100.545 166.414 100.652 164.247C101.745 162.364 102.042 164.29 102.748 164.255C103.055 163.062 102.085 163.626 103.659 162.12C98.517 159.395 97.3185 158.545 93.2067 155.249C98.0139 154 99.3136 159.387 103.464 158.574C104.373 161.062 106.797 160.443 108.053 162.273C108.66 162.51 108.34 161.285 109.374 160.406C110.387 160.31 109.867 160.67 110.603 161.216C111.631 160.055 110.817 160.035 110.978 159.412C112.007 158.315 111.242 160.902 112.538 159.753C112.833 157.132 108.926 160.447 108.314 157.661C108.784 156.679 107.931 156.934 109.098 156.128C108.017 155.576 108.13 154.281 106.765 153.907C105.863 153.329 107.299 153.08 107.506 153.71C109.634 154.647 113.171 154.53 113.037 157.349C114.953 156.412 113.882 158.531 115.212 158.094C114.912 158.969 114.039 160.163 113.151 160.159C115.276 164.435 120.246 165.508 123.889 167.899C124.698 164.098 119.811 165.779 120.006 161.928C122.191 161.926 123.302 163.467 124.845 164.426C123.383 165.737 125.307 166.706 126.234 166.707C126.681 166.705 126.576 166.055 127.224 165.306C128.012 166.97 129.703 166.458 131.322 168C131.089 168.757 130.289 169.865 130.616 170.274C132.386 166.885 130.779 171.819 132.586 170.883C128.81 173.633 131.075 167.655 128.364 168.789C129.347 172.186 130.412 175.155 133.804 175.103C134.639 173.887 133.276 174.034 134.843 172.364C136.373 173.377 136.667 174.53 138.531 174.79C138.019 175.381 137.743 174.839 137.379 174.718C137.306 178.597 140.424 180.533 142.982 182.501C143.943 181.931 143.952 181.022 143.892 180.366C144.84 179.178 145.236 180.631 146.112 179.773C146.661 187.067 155.785 185.612 155.93 193.062C156.492 192.14 157.156 192.691 158.398 191.269C160.067 192.181 160.515 194.442 163.362 193.165C163.333 196.336 168.946 194.906 166.665 200.805C171.119 198.399 172.599 200.122 175.284 203.05C174.762 203.692 174.554 202.813 174.007 203.581C174.419 204.983 175.94 205.698 176.831 206.805C177.535 205.234 175.995 205.054 175.237 204.389C177.079 202.067 176.535 204.662 177.948 204.8C176.092 210.073 180.938 210.098 183.39 211.115C183.748 210.108 182.58 210.046 182.614 209.24C185.781 208.593 185.979 212.56 188.48 212.41C188.038 213.034 187.599 213.654 187.159 214.277C190.36 217.985 193.869 218.91 198.475 220.349C199.124 220.391 198.742 219.458 199.672 219.083C204.425 221.898 208.884 226.339 214.801 226.979C214.902 226.415 212.507 226.248 214.277 223.9C214.577 225.148 216.663 226.285 216.315 228.659C221.553 231.272 228.085 233.451 233.541 236.567C238.056 239.14 243.317 240.581 247.772 243.186C256.561 248.322 262.682 254.438 269.94 259.808C272.052 261.371 273.677 263.269 273.778 267.117C270.253 271.022 269.113 268.87 266.173 268.954C266.125 270.119 265.382 271.715 266.162 272.367C265.9 272.612 264.383 273.824 264.842 274.233C261.066 278.163 259.534 274.897 256.58 277C256.325 279.894 259.713 278.542 261.373 280.836C262.03 279.12 261.34 278.237 260.437 277.487C263.395 276.886 265.661 280.073 266.416 283.467C264.147 285.024 264.825 282.285 262.353 282.846C261.276 285.33 259.713 285.198 258.641 287.243C258.631 288.298 259.482 288.819 260.03 289.524C259.108 289.855 257.84 291.842 257.026 291.65C255.827 293.267 256.089 293.977 255.865 294.989C256.108 295.478 258.038 293.284 257.72 292.791C259.503 291.154 258.733 295.608 260.431 293.203C259.435 295.467 258.029 294.53 257.015 295.062C256.519 296.592 257.216 297.38 257.209 298.607C255.823 299.535 255.559 297.55 254.955 297.125C254.507 297.128 254.612 297.776 253.965 298.525C254.679 300.252 256.68 302.462 257.688 303.023C256.26 305.109 257.266 302.42 256.207 303.419C256.118 305.963 253.529 309.733 250.711 314.161C248.967 314.254 248.276 314.728 247.183 313.206C246.656 313.475 246.457 314.259 245.452 314.804C244.422 317.094 246.204 318.468 247.207 318.691C245.228 320.389 245.446 322.664 245.671 323.834C244.65 325.391 244.08 324.762 243.2 325.629C240.173 331.463 236.602 330.574 233.526 332.939C228.872 331.365 226.404 326.044 221.765 324.525C220.299 324.043 218.166 324.519 216.756 323.966C213.544 322.713 210.912 320.427 207.818 318.775C198.441 313.762 190.615 307.318 180.391 302.796C177.155 301.364 172.953 299.957 169.564 297.729C163.908 294.012 157.173 291.444 154.034 286.152C153.507 286.42 153.286 287.312 152.428 287.15C152.636 284.237 147.296 287.282 149.24 282.318Z" fill="#73CAE4" fill-opacity="0.26"/>
</svg>
