<svg width="164" height="36" viewBox="0 0 164 36" fill="none" xmlns="http://www.w3.org/2000/svg">
<path d="M18 36C27.9411 36 36 27.9411 36 18C36 8.05887 27.9411 0 18 0C8.05887 0 0 8.05887 0 18C0 27.9411 8.05887 36 18 36Z" fill="#FF7B29"/>
<path d="M14.7379 15.2102H17.0959C17.0618 13.1364 15.3572 11.7045 12.7663 11.7045C10.2152 11.7045 8.34588 13.1136 8.35724 15.2273C8.35156 16.9432 9.56179 17.9261 11.5277 18.3977L12.7947 18.7159C14.0618 19.0227 14.7663 19.3864 14.772 20.1705C14.7663 21.0227 13.9595 21.6023 12.7095 21.6023C11.4311 21.6023 10.5107 21.0114 10.4311 19.8466H8.05043C8.11293 22.3636 9.91406 23.6648 12.7379 23.6648C15.5788 23.6648 17.2493 22.3068 17.255 20.1761C17.2493 18.2386 15.7891 17.2102 13.7663 16.7557L12.7209 16.5057C11.7095 16.2727 10.8629 15.8977 10.88 15.0625C10.88 14.3125 11.5447 13.7614 12.7493 13.7614C13.9254 13.7614 14.647 14.2955 14.7379 15.2102ZM18.4666 13.892H22.0291V23.5H24.4609V13.892H28.0234V11.8636H18.4666V13.892Z" fill="white"/>
<path d="M54.9858 14.5653H58.5227C58.4716 11.4545 55.9148 9.30682 52.0284 9.30682C48.2017 9.30682 45.3977 11.4205 45.4148 14.5909C45.4062 17.1648 47.2216 18.6392 50.1705 19.3466L52.071 19.8239C53.9716 20.2841 55.0284 20.8295 55.0369 22.0057C55.0284 23.2841 53.8182 24.1534 51.9432 24.1534C50.0256 24.1534 48.6449 23.267 48.5256 21.5199H44.9545C45.0483 25.2955 47.75 27.2472 51.9858 27.2472C56.2472 27.2472 58.7528 25.2102 58.7614 22.0142C58.7528 19.108 56.5625 17.5653 53.5284 16.8835L51.9602 16.5085C50.4432 16.1591 49.1733 15.5966 49.1989 14.3438C49.1989 13.2188 50.196 12.392 52.0028 12.392C53.767 12.392 54.8494 13.1932 54.9858 14.5653ZM64.9084 27.2472C66.843 27.2472 68.0959 26.4034 68.7351 25.1847H68.8374V27H72.2805V18.1705C72.2805 15.0511 69.6385 13.7386 66.7237 13.7386C63.5874 13.7386 61.5249 15.2386 61.022 17.625L64.38 17.8977C64.6271 17.0284 65.4027 16.3892 66.7067 16.3892C67.9425 16.3892 68.6499 17.0114 68.6499 18.0852V18.1364C68.6499 18.9801 67.755 19.0909 65.4794 19.3125C62.8885 19.5511 60.5618 20.4205 60.5618 23.3438C60.5618 25.9347 62.4112 27.2472 64.9084 27.2472ZM65.9482 24.7415C64.8317 24.7415 64.0305 24.2216 64.0305 23.2244C64.0305 22.2017 64.8743 21.6989 66.1527 21.5199C66.9453 21.4091 68.2408 21.2216 68.6754 20.9318V22.321C68.6754 23.6932 67.5419 24.7415 65.9482 24.7415ZM82.1371 13.9091H79.5376V13.0312C79.5376 12.1449 79.8956 11.625 80.9609 11.625C81.3956 11.625 81.8388 11.7188 82.1286 11.8125L82.7678 9.08523C82.3161 8.94886 81.3189 8.72727 80.2024 8.72727C77.7393 8.72727 75.907 10.1165 75.907 12.9631V13.9091H74.0575V16.6364H75.907V27H79.5376V16.6364H82.1371V13.9091ZM89.8523 27.2557C93.0909 27.2557 95.2727 25.679 95.7841 23.25L92.4261 23.0284C92.0597 24.0256 91.1222 24.5455 89.9119 24.5455C88.0966 24.5455 86.946 23.3438 86.946 21.392V21.3835H95.8608V20.3864C95.8608 15.9375 93.1676 13.7386 89.7074 13.7386C85.8551 13.7386 83.358 16.4744 83.358 20.5142C83.358 24.6648 85.821 27.2557 89.8523 27.2557ZM86.946 19.1335C87.0227 17.642 88.1562 16.4489 89.767 16.4489C91.3438 16.4489 92.4347 17.5739 92.4432 19.1335H86.946ZM103.188 12.5881H108.532V27H112.18V12.5881H117.523V9.54545H103.188V12.5881ZM123.832 27.2557C127.804 27.2557 130.276 24.5369 130.276 20.5057C130.276 16.4489 127.804 13.7386 123.832 13.7386C119.861 13.7386 117.389 16.4489 117.389 20.5057C117.389 24.5369 119.861 27.2557 123.832 27.2557ZM123.849 24.4432C122.017 24.4432 121.08 22.7642 121.08 20.4801C121.08 18.196 122.017 16.5085 123.849 16.5085C125.648 16.5085 126.585 18.196 126.585 20.4801C126.585 22.7642 125.648 24.4432 123.849 24.4432ZM141.031 21.4261C141.04 23.1818 139.838 24.1023 138.534 24.1023C137.162 24.1023 136.276 23.1392 136.267 21.5966V13.9091H132.636V22.2443C132.645 25.304 134.435 27.1705 137.068 27.1705C139.037 27.1705 140.452 26.1562 141.04 24.6222H141.176V27H144.662V13.9091H141.031V21.4261ZM147.566 27H151.197V19.5938C151.197 17.983 152.373 16.875 153.975 16.875C154.478 16.875 155.168 16.9602 155.509 17.071V13.8494C155.185 13.7727 154.734 13.7216 154.367 13.7216C152.901 13.7216 151.7 14.5739 151.222 16.1932H151.086V13.9091H147.566V27Z" fill="#212832"/>
<path d="M159.509 27.2216C160.599 27.2216 161.545 26.3097 161.554 25.1761C161.545 24.0597 160.599 23.1477 159.509 23.1477C158.384 23.1477 157.455 24.0597 157.463 25.1761C157.455 26.3097 158.384 27.2216 159.509 27.2216Z" fill="#FF7B29"/>
</svg>
