<svg width="168" height="325" viewBox="0 0 168 325" fill="none" xmlns="http://www.w3.org/2000/svg">
<path d="M97.9741 167.584C96.1988 175.129 94.3125 182.674 93.8686 190.552C94.0906 190.885 94.0906 192.327 93.8686 191.995C93.7577 193.215 91.8714 192.993 91.8714 191.773C91.8714 190.959 91.9084 190.145 91.9823 189.332C87.433 183.784 80.8864 180.233 75.6713 175.351C71.4548 171.467 68.3479 166.807 66.7945 161.148C62.3561 146.057 66.4616 130.079 61.2465 115.1C56.6972 102.117 48.5971 90.9105 41.6067 79.1487C34.3943 66.7213 29.0682 53.628 28.5134 39.0923C28.0696 27.9964 29.4011 13.1278 37.8341 4.80582C46.8218 -4.07094 58.0287 2.58664 64.9082 10.4648C84.8809 33.4334 94.0905 62.2829 97.8632 91.9091C99.8605 108.331 102.08 124.753 101.525 141.286C101.303 150.274 99.9714 158.929 97.9741 167.584Z" fill="#EBEBEB"/>
<path d="M85.9901 259.014C85.8791 259.569 84.9914 259.458 85.1024 258.903C86.6558 238.709 90.0956 218.736 91.3161 198.43C91.76 190.811 91.9819 183.229 91.9819 175.684C84.3257 165.364 78.7777 152.493 74.7832 140.509C74.6722 140.177 75.116 139.955 75.227 140.287C79.9983 151.827 86.101 162.257 91.8709 173.242C91.76 162.479 91.0942 151.716 89.6517 141.064C88.5421 133.297 87.0997 125.604 85.3243 117.985C75.116 99.2325 59.1379 84.2529 49.4844 65.1678C49.4844 65.1678 49.5953 65.0569 49.7063 65.1678C60.4694 82.2556 74.8941 96.7913 84.5476 114.656C78.2229 88.8023 68.0146 63.9473 54.1447 41.4225C53.9228 40.9786 54.5885 40.5348 54.9214 40.9786C74.1174 70.9377 87.0997 104.448 92.2038 139.733C92.3148 137.403 92.5367 135.072 92.7586 132.742C93.1285 125.715 93.1655 118.65 92.8696 111.549C92.4257 98.3447 90.9833 85.0296 88.5421 72.0473C88.4312 71.9364 88.7641 71.8254 88.7641 72.0473C91.76 85.3625 93.7572 98.6776 94.312 112.326C94.7559 124.975 93.7572 137.403 93.5353 149.941C93.5353 150.052 93.4244 150.052 93.4244 150.163C94.9778 165.586 94.9778 181.121 93.9792 196.544C92.6476 217.293 90.2065 238.598 85.9901 259.014Z" fill="#A6A6A6"/>
<path d="M81.4411 71.3815C81.5521 71.8254 80.8863 71.9363 80.6644 71.4925C78.0013 60.9513 76.0041 50.6321 72.2314 40.4238C72.2314 40.2019 72.4534 40.0909 72.4534 40.3129C76.5589 50.0773 80.4425 60.7294 81.4411 71.3815Z" fill="#A6A6A6"/>
<path d="M166.436 83.143C164.106 89.1348 161.11 95.0157 157.892 100.675C151.234 112.769 144.355 123.865 143.023 137.957C142.469 144.282 142.358 150.606 140.36 156.598C138.696 161.924 136.033 166.696 132.926 171.245C125.714 181.786 116.726 190.885 109.957 201.759C103.078 213.077 97.8629 225.615 94.756 238.486C94.645 239.263 93.4245 239.041 93.6464 238.376C93.6464 238.302 93.6464 238.228 93.6464 238.154C93.6464 238.154 93.6464 238.117 93.6464 238.043C92.5368 207.751 94.9779 177.348 104.188 148.387C108.182 135.738 113.175 123.199 118.834 111.105C123.716 100.675 129.93 90.5773 138.585 82.6992C144.244 77.5951 156.449 68.0525 164.439 73.1567C168.211 75.5978 167.989 79.3704 166.436 83.143Z" fill="#EBEBEB"/>
<path d="M136.366 151.827C132.15 159.705 127.156 167.139 121.83 174.352C118.945 178.124 115.95 181.897 112.954 185.67C110.291 189.109 106.629 192.771 104.743 196.877C101.969 208.084 99.1947 219.29 96.6426 230.608C94.7933 238.302 93.0179 246.032 91.3165 253.799C89.6521 261.455 88.4316 269.333 86.3234 276.989C86.2124 277.322 85.7686 277.211 85.7686 276.878C87.5439 262.787 91.0946 248.584 94.0905 234.603C95.496 228.093 96.9385 221.584 98.4179 215.074C97.1974 203.312 98.5289 191.107 101.303 179.678C101.414 179.456 101.747 179.456 101.747 179.678C99.5275 190.885 98.8618 201.981 98.7508 213.299C102.634 196.211 106.851 179.123 111.622 162.146C112.732 158.152 113.952 154.194 115.284 150.274C116.393 135.96 120.388 121.202 125.936 107.998C125.936 107.887 126.158 107.887 126.158 108.109C121.498 121.535 118.391 134.85 115.839 148.72C118.058 142.174 120.499 135.849 123.495 129.635C128.932 118.65 135.367 108.109 141.803 97.5678C142.025 97.2349 142.58 97.5678 142.358 97.9007C134.591 111.216 127.046 124.642 121.387 139.067C115.506 153.713 111.844 169.137 107.96 184.338C107.147 187.519 106.333 190.7 105.519 193.881C106.74 191.994 108.293 190.108 109.736 188.333C112.621 184.56 115.617 180.787 118.502 176.904C124.715 168.804 130.929 160.482 136.033 151.716C136.144 151.494 136.477 151.605 136.366 151.827Z" fill="#A6A6A6"/>
<path d="M137.698 138.956C131.817 147.943 126.158 157.153 120.388 166.141C120.277 166.363 120.166 166.141 120.166 166.03C124.826 156.487 130.818 147.167 137.365 138.734C137.476 138.623 137.698 138.734 137.698 138.956Z" fill="#A6A6A6"/>
<path d="M1.21774 82.6994C5.43421 72.6021 16.0863 80.7021 21.3014 85.1405C40.1646 101.562 53.3687 123.311 65.9072 144.615C73.3415 157.264 79.5552 170.135 82.6621 184.449C85.658 198.43 85.658 212.744 82.9949 226.836C82.9949 226.947 82.9949 226.947 82.884 227.058C82.958 227.132 82.9949 227.206 82.9949 227.28C83.1059 228.167 81.3306 228.389 81.2196 227.502C77.447 199.651 49.0413 187.556 28.2919 173.908C19.9699 168.471 8.43011 160.815 9.98354 149.275C10.6493 144.06 14.4219 139.844 15.4206 134.739C17.085 126.639 12.6466 118.539 8.76299 111.771C3.99173 103.56 -2.7768 92.6857 1.21774 82.6994Z" fill="#EBEBEB"/>
<path d="M27.7375 157.042C41.4965 171.911 63.3555 180.233 75.2282 196.877C68.2378 171.356 56.587 148.388 38.7225 128.415C38.2787 127.86 38.9444 127.194 39.4992 127.638C52.5925 140.176 62.2459 154.823 69.3474 170.801C66.1295 159.373 61.6912 148.72 56.476 137.957C56.2541 137.514 56.8089 137.181 57.0308 137.624C63.6884 148.942 68.1268 161.703 70.9008 174.574C86.5461 212.3 87.9886 256.573 84.6598 296.408C84.6598 296.962 83.7721 296.962 83.7721 296.408C84.6598 265.006 84.2159 233.161 76.6707 202.425C76.5227 201.833 76.3378 201.204 76.1159 200.539C63.2446 182.563 41.4965 174.241 27.5156 157.264C27.4046 157.042 27.6265 156.82 27.7375 157.042Z" fill="#A6A6A6"/>
<path d="M24.519 144.171C31.7313 150.829 38.8328 157.597 46.1561 164.255L46.0451 164.366C38.167 159.04 30.1779 151.938 24.0751 144.615C23.8532 144.282 24.2971 143.949 24.519 144.171Z" fill="#A6A6A6"/>
<path d="M23.4097 115.543C29.9564 125.974 36.8358 135.849 45.0469 145.17C45.1578 145.392 44.9359 145.502 44.8249 145.392C36.0591 136.959 28.292 126.75 22.9659 115.765C22.8549 115.433 23.2988 115.211 23.4097 115.543Z" fill="#A6A6A6"/>
<path d="M65.6853 239.374H110.624L119.168 324.48H55.9209L65.6853 239.374Z" fill="#EBEBEB"/>
<path d="M65.6849 239.374H110.624L112.066 253.244H64.0205L65.6849 239.374Z" fill="#C7C7C7"/>
<path d="M57.918 229.943H117.17V243.591H57.918V229.943Z" fill="#EBEBEB"/>
</svg>
