<svg width="538" height="859" viewBox="0 0 538 859" fill="none" xmlns="http://www.w3.org/2000/svg">
<path d="M438.542 6.20869C434.257 -1.85507 422.916 -2.10706 418.127 5.70471C394.436 45.2676 338.736 140.017 323.11 176.557C303.199 222.923 364.444 431.322 380.07 482.225C382.087 489.029 388.388 493.565 395.192 493.565H453.917C461.477 493.565 468.031 488.776 470.551 481.721C487.941 430.566 553.219 229.223 526.755 176.557C503.82 130.19 458.453 43.7559 438.542 6.20869Z" fill="#F5ECE4"/>
<path d="M445.348 83.571C445.348 83.571 485.673 195.204 491.974 226.199C498.275 257.194 485.673 421.495 432.997 494.32L467.023 492.809C467.023 492.809 536.837 292.978 532.803 222.42C532.803 222.42 533.56 199.992 529.779 183.613C525.999 167.233 460.469 51.0641 460.469 51.0641C460.469 51.0641 442.322 83.571 445.348 83.571Z" fill="#EFDED0"/>
<path d="M374.021 83.3189L478.365 83.5711L440.811 11.5004C435.771 1.67289 421.908 1.16891 416.364 10.7445L374.021 83.3189Z" fill="#FF7B29"/>
<path d="M373.517 241.319C392.309 241.319 407.542 226.088 407.542 207.3C407.542 188.512 392.309 173.281 373.517 173.281C354.726 173.281 339.492 188.512 339.492 207.3C339.492 226.088 354.726 241.319 373.517 241.319Z" fill="#74B0DB"/>
<path d="M364.696 240.563C383.488 240.563 398.721 225.332 398.721 206.544C398.721 187.755 383.488 172.525 364.696 172.525C345.905 172.525 330.672 187.755 330.672 206.544C330.672 225.332 345.905 240.563 364.696 240.563Z" fill="#95CAF0"/>
<path d="M364.697 221.663C375.136 221.663 383.6 213.201 383.6 202.763C383.6 192.326 375.136 183.864 364.697 183.864C354.257 183.864 345.794 192.326 345.794 202.763C345.794 213.201 354.257 221.663 364.697 221.663Z" fill="white"/>
<path d="M324.371 258.958L529.528 260.722" stroke="#1A1A2D" stroke-width="6" stroke-miterlimit="10"/>
<path d="M351.339 379.159L501.048 379.663" stroke="#1A1A2D" stroke-width="6" stroke-miterlimit="10"/>
<path d="M397.713 493.313L398.217 503.393C398.469 510.449 404.265 515.993 411.322 515.993H439.802C446.103 515.993 451.396 510.701 451.396 504.401V493.313H397.713Z" fill="#4B4343"/>
<path d="M428.713 395.288V470.633L400.485 541.192C399.98 542.452 397.964 542.2 397.964 540.94C395.696 520.024 389.899 440.899 428.713 395.288Z" fill="#FF7B29"/>
<path d="M472.567 474.917L529.276 547.239C531.292 549.759 535.072 548.499 535.325 545.476C537.089 531.111 539.861 500.368 534.316 478.193C526.755 447.954 495.755 403.099 495.755 403.099L472.567 474.917Z" fill="#FF7B29"/>
<path d="M356.63 399.067L381.078 482.981L323.362 545.223C320.085 548.751 314.54 546.736 314.036 541.948C312.02 514.228 311.516 443.67 356.63 399.067Z" fill="#FF7B29"/>
<path d="M274.717 208.307C274.717 208.307 282.531 222.166 272.198 236.025C266.652 243.334 249.262 239.302 251.782 206.543C254.303 175.295 274.717 208.307 274.717 208.307Z" fill="#F7AE81"/>
<path d="M221.287 264.755C221.287 264.755 228.848 233.255 233.637 221.159L258.841 239.051C258.841 239.051 253.043 273.574 255.06 276.598C255.06 276.598 226.075 294.237 221.287 264.755Z" fill="#F7AE81"/>
<path d="M258.336 200.244C258.336 200.244 282.531 222.923 287.572 195.204C287.572 195.204 284.295 205.283 274.718 201C274.718 201 282.783 200.495 283.791 194.699C285.303 186.888 275.978 187.896 270.433 189.407C264.889 190.92 258.839 182.1 245.986 182.351C233.132 182.604 225.319 196.716 225.319 196.716C225.319 196.716 220.782 193.188 219.018 203.267C217.253 213.347 228.344 223.175 228.847 233.506C228.847 233.506 235.904 237.287 239.181 232.751C242.709 228.214 243.718 255.178 256.823 254.926L260.352 244.343C260.352 244.343 274.718 249.634 275.726 244.594C276.734 239.554 272.198 236.279 275.978 229.223C275.978 229.223 261.36 238.798 257.328 233.003C253.547 227.206 254.051 209.82 258.336 200.244Z" fill="#1A1A2D"/>
<path d="M246.49 215.614C246.49 215.614 240.441 216.37 244.474 220.15C246.742 222.418 248.002 225.442 243.718 224.434C239.181 223.678 238.425 211.078 246.49 215.614Z" fill="#F7AE81"/>
<path d="M123.497 503.141C123.497 503.141 90.7321 497.346 85.6915 498.605L76.3662 530.356C76.3662 530.356 103.586 527.836 127.782 525.569L134.586 507.173L123.497 503.141Z" fill="#F7AE81"/>
<path d="M92.4982 498.857C92.4982 498.857 78.1323 517.756 90.2297 529.852C90.2297 529.852 77.6278 544.467 85.6927 548.499C93.7585 552.532 93.7585 556.563 65.2782 552.532C65.2782 552.532 56.4565 541.948 65.2782 519.772C73.3431 499.613 82.1648 492.557 92.4982 498.857Z" fill="#FF7B29"/>
<path d="M160.547 386.466C160.547 386.466 130.05 406.626 160.547 504.4L102.326 497.596L99.0498 529.851C99.0498 529.851 186.506 558.83 207.93 552.026C229.353 545.222 203.141 467.357 191.043 423.51C178.945 379.662 160.547 386.466 160.547 386.466Z" fill="#37474F"/>
<path d="M172.14 499.613C172.14 499.613 133.074 493.817 128.286 495.077L125.262 528.088C125.262 528.088 152.482 525.568 176.677 523.3L183.482 504.904L172.14 499.613Z" fill="#F7AE81"/>
<path d="M166.595 393.271C166.595 393.271 142.147 433.842 224.815 497.849L163.57 494.573L159.033 538.672C159.033 538.672 301.182 569.667 297.905 538.167C294.125 501.124 262.62 448.962 237.417 409.147C212.213 369.332 166.595 393.271 166.595 393.271Z" fill="#2D3134"/>
<path d="M347.81 276.598L373.517 289.45L377.046 264.503C377.046 264.503 405.526 223.428 389.143 232.5C389.143 232.5 393.176 217.884 390.151 218.892C386.875 219.648 382.339 232.248 382.339 232.248C382.339 232.248 391.412 213.096 387.883 214.357C384.355 215.616 379.567 222.672 378.306 229.728C378.306 229.728 386.875 211.08 383.599 212.088C380.322 212.844 370.997 228.216 370.997 228.216C370.997 228.216 372.509 220.908 369.232 221.916C365.957 222.672 364.444 229.979 364.696 243.588C364.948 257.447 347.81 276.598 347.81 276.598Z" fill="#F7AE81"/>
<path d="M221.792 260.723L225.069 250.139C225.069 250.139 247.752 251.651 255.313 261.983C255.313 261.983 255.817 268.535 256.825 272.063C258.085 275.59 221.792 260.723 221.792 260.723Z" fill="#FF7B29"/>
<path d="M125.767 396.548C125.767 396.548 156.011 403.351 186.759 403.351C217.508 403.351 220.784 418.47 239.183 427.543L270.94 325.485C270.94 325.485 324.371 354.464 339.746 354.464C355.12 354.464 382.591 284.158 382.591 284.158L352.095 271.81C352.095 271.81 332.184 313.137 329.16 313.137C326.136 313.137 295.639 282.646 277.241 273.323C258.841 263.998 219.02 254.927 200.873 264.25C182.727 273.574 179.45 322.461 164.076 343.628C149.206 364.292 125.767 396.548 125.767 396.548Z" fill="#31C3E0"/>
<path opacity="0.2" d="M230.221 276.543C229.071 276.774 227.92 277.235 226.54 276.697C225.312 276.236 224.392 274.776 224.392 273.394C224.469 272.472 223.932 271.627 223.088 271.166C222.705 270.859 222.245 270.782 221.631 270.705C221.017 270.552 220.481 270.552 219.867 270.398C221.017 270.167 222.168 269.707 223.548 270.167C224.852 270.628 225.773 271.934 225.773 273.394C225.773 274.316 226.233 275.161 227.076 275.775C227.46 276.006 227.92 276.159 228.457 276.236C229.071 276.313 229.607 276.39 230.221 276.543ZM246.495 323.829C245.422 324.059 244.271 324.52 242.891 323.983C241.587 323.522 240.743 322.062 240.743 320.756C240.743 319.834 240.206 318.913 239.439 318.452C238.979 318.144 238.519 318.068 237.905 317.991C237.368 317.914 236.755 317.837 236.218 317.683C237.368 317.53 238.442 317.069 239.823 317.53C241.127 317.914 242.124 319.297 242.124 320.679C242.047 321.678 242.584 322.523 243.351 323.061C243.734 323.368 244.194 323.445 244.808 323.522C245.345 323.598 245.959 323.675 246.495 323.829ZM210.852 278.664C209.778 278.818 208.551 279.279 207.247 278.741C205.944 278.28 205.1 276.897 205.1 275.515C205.1 274.593 204.563 273.748 203.796 273.21C203.336 272.98 202.876 272.826 202.262 272.826C201.725 272.672 201.112 272.596 200.575 272.442C201.725 272.288 202.799 271.827 204.18 272.288C205.483 272.672 206.404 274.055 206.48 275.515C206.404 276.436 206.941 277.281 207.708 277.819C208.091 278.126 208.551 278.28 209.165 278.28C209.702 278.434 210.315 278.51 210.852 278.664ZM180.766 349.716C179.616 349.87 178.466 350.331 177.085 349.793C175.858 349.332 174.938 347.95 174.938 346.567C175.014 345.645 174.477 344.8 173.634 344.262C173.25 344.032 172.79 343.878 172.176 343.878C171.563 343.725 171.026 343.648 170.412 343.494C171.563 343.341 172.713 342.88 174.094 343.341C175.398 343.802 176.318 345.107 176.318 346.567C176.318 347.489 176.778 348.334 177.622 348.871C178.005 349.179 178.466 349.332 179.002 349.332C179.616 349.486 180.153 349.563 180.766 349.716ZM177.852 379.878C176.702 380.031 175.551 380.492 174.247 379.955C172.943 379.494 172.023 378.111 172.1 376.728C172.1 375.806 171.563 374.961 170.719 374.424C170.336 374.193 169.876 374.04 169.262 374.04C168.725 373.886 168.112 373.809 167.575 373.656C168.725 373.502 169.799 373.041 171.179 373.502C172.483 373.886 173.404 375.269 173.404 376.651C173.404 377.65 173.864 378.495 174.707 379.033C175.091 379.34 175.551 379.494 176.165 379.494C176.702 379.647 177.315 379.724 177.852 379.878ZM192.584 301.307C191.663 301.461 190.666 301.845 189.593 301.614C189.95 301.41 190.308 301.205 190.666 301C190.717 301 190.769 301 190.82 301C191.433 301.077 191.97 301.154 192.584 301.307ZM268.124 297.557C267.434 298.556 266.973 299.631 265.67 300.323C264.442 300.86 262.832 300.63 261.835 299.631C261.144 298.94 260.224 298.633 259.304 298.863C258.767 298.94 258.383 299.17 257.923 299.554C257.463 299.862 257.003 300.246 256.466 300.553C257.156 299.554 257.616 298.402 258.92 297.864C260.224 297.25 261.835 297.634 262.755 298.633C263.369 299.247 264.366 299.554 265.363 299.324C265.823 299.17 266.206 298.94 266.667 298.556C267.127 298.249 267.587 297.864 268.124 297.557ZM284 318.452C283.847 318.554 283.719 318.682 283.617 318.836C283.156 319.22 282.773 319.681 282.313 320.065C282.696 319.143 283.003 318.144 283.847 317.376C283.898 317.735 283.949 318.093 284 318.452ZM199.3 338.213C198.61 339.212 198.15 340.287 196.846 340.978C195.619 341.593 194.008 341.286 193.011 340.287C192.474 339.749 191.784 339.442 191.017 339.442L191.324 338.213C192.244 338.213 193.241 338.597 193.932 339.288C194.545 339.98 195.542 340.21 196.462 339.98C196.999 339.826 197.383 339.596 197.843 339.212C198.303 338.904 198.763 338.52 199.3 338.213ZM204.542 374.529C203.852 375.45 203.392 376.526 202.088 377.217C200.861 377.832 199.25 377.524 198.253 376.526C197.563 375.834 196.643 375.604 195.646 375.758C195.185 375.834 194.802 376.065 194.342 376.449C193.805 376.756 193.345 377.14 192.885 377.448C193.498 376.526 194.035 375.374 195.339 374.759C196.566 374.145 198.253 374.529 199.174 375.527C199.787 376.219 200.784 376.449 201.705 376.219C202.241 376.142 202.625 375.835 203.085 375.45C203.545 375.143 204.006 374.759 204.542 374.529ZM230.836 387.56C230.146 388.481 229.685 389.634 228.382 390.248C227.308 390.786 226.004 390.632 225.007 390.018C225.058 389.454 225.084 388.865 225.084 388.251C225.237 388.353 225.365 388.481 225.467 388.635C226.081 389.25 227.078 389.48 227.998 389.25C228.535 389.173 228.919 388.942 229.379 388.558C229.839 388.174 230.299 387.867 230.836 387.56ZM218.147 315.535C217.457 316.457 216.997 317.533 215.693 318.224C214.466 318.838 212.855 318.531 211.858 317.533C211.168 316.841 210.247 316.611 209.327 316.764C208.79 316.841 208.407 317.072 207.946 317.456C207.486 317.763 207.026 318.147 206.489 318.454C207.18 317.533 207.64 316.38 208.944 315.766C210.247 315.228 211.858 315.612 212.778 316.534C213.392 317.225 214.389 317.456 215.309 317.225C215.846 317.148 216.23 316.918 216.69 316.534C217.15 316.15 217.61 315.843 218.147 315.535ZM249.026 364.158C248.336 365.08 247.876 366.232 246.572 366.847C245.345 367.461 243.734 367.231 242.737 366.232C242.047 365.541 241.127 365.234 240.206 365.387C239.669 365.541 239.286 365.771 238.826 366.079C238.366 366.463 237.905 366.77 237.368 367.077C238.059 366.155 238.519 365.003 239.823 364.465C241.127 363.851 242.737 364.235 243.658 365.234C244.348 365.848 245.268 366.079 246.265 365.925C246.725 365.771 247.109 365.541 247.569 365.157C248.029 364.85 248.49 364.465 249.026 364.158ZM239.363 339.672C238.902 340.978 237.522 341.9 236.141 341.9C235.144 341.9 234.301 342.361 233.764 343.206C233.534 343.59 233.38 344.051 233.304 344.665C233.227 345.203 233.15 345.818 232.997 346.355C232.767 345.203 232.307 344.051 232.843 342.745C233.304 341.439 234.761 340.517 236.141 340.594C236.985 340.594 237.905 340.056 238.366 339.211C238.672 338.827 238.749 338.366 238.826 337.752C238.902 337.214 238.979 336.599 239.133 336.062C239.363 337.214 239.823 338.289 239.363 339.672ZM262.186 336.649C261.802 337.878 260.422 338.877 258.965 338.877C258.044 338.877 257.201 339.338 256.664 340.106C256.357 340.567 256.203 340.951 256.203 341.566C256.05 342.18 255.973 342.718 255.82 343.332C255.667 342.18 255.206 341.028 255.743 339.645C256.203 338.339 257.584 337.494 258.965 337.494C259.885 337.494 260.729 336.957 261.265 336.188C261.496 335.727 261.649 335.343 261.649 334.729C261.802 334.114 261.879 333.577 262.032 332.962C262.186 334.114 262.646 335.266 262.186 336.649ZM267.434 279.446C267.05 280.752 265.67 281.674 264.289 281.75C263.292 281.674 262.448 282.211 261.911 282.98C261.605 283.364 261.528 283.825 261.451 284.439C261.298 284.977 261.298 285.591 261.144 286.129C260.914 285.054 260.454 283.825 260.991 282.519C261.451 281.213 262.832 280.368 264.212 280.368C265.133 280.368 265.976 279.83 266.513 279.062C266.82 278.601 266.897 278.14 266.973 277.526C267.05 276.988 267.127 276.373 267.28 275.836C267.434 276.988 267.894 278.063 267.434 279.446ZM241.616 287.574C241.156 288.88 239.852 289.801 238.395 289.801C237.475 289.801 236.631 290.262 236.094 291.107C235.787 291.491 235.634 291.952 235.634 292.49C235.481 293.104 235.404 293.642 235.25 294.257C235.097 293.104 234.637 291.952 235.174 290.646C235.634 289.34 237.014 288.419 238.395 288.495C239.315 288.495 240.159 287.958 240.696 287.113C240.926 286.729 241.079 286.268 241.079 285.653C241.233 285.115 241.309 284.501 241.463 283.963C241.616 285.115 242.076 286.191 241.616 287.574ZM153.693 369.305C153.309 370.611 151.929 371.533 150.548 371.61C149.551 371.533 148.707 371.994 148.17 372.839C147.864 373.223 147.787 373.684 147.71 374.298C147.557 374.836 147.557 375.45 147.403 375.988C147.173 374.836 146.713 373.684 147.25 372.378C147.71 371.072 149.091 370.15 150.471 370.227C151.392 370.227 152.235 369.689 152.772 368.844C153.079 368.46 153.156 367.999 153.232 367.385C153.309 366.847 153.386 366.232 153.539 365.695C153.693 366.847 154.153 367.922 153.693 369.305ZM251.544 402.846L251.237 403C251.339 402.744 251.416 402.488 251.467 402.232C251.467 402.437 251.493 402.641 251.544 402.846ZM208.849 294.547C208.466 295.853 207.162 296.775 205.781 296.775C206.037 296.263 206.292 295.751 206.548 295.239C207.085 295.008 207.622 294.624 207.929 294.087C208.159 293.702 208.312 293.242 208.312 292.627C208.363 292.371 208.414 292.089 208.466 291.782C208.568 291.628 208.67 291.475 208.772 291.321C208.926 292.32 209.233 293.318 208.849 294.547ZM205.849 391.094C205.389 392.399 204.085 393.321 202.628 393.321C201.707 393.321 200.864 393.782 200.327 394.627C200.02 395.011 199.867 395.472 199.867 396.01C199.713 396.624 199.637 397.162 199.483 397.777C199.33 396.624 198.87 395.472 199.407 394.089C199.867 392.86 201.247 391.939 202.628 392.015C203.548 392.015 204.392 391.478 204.929 390.633C205.159 390.249 205.312 389.788 205.312 389.173C205.466 388.559 205.542 388.021 205.696 387.406C205.849 388.559 206.309 389.711 205.849 391.094ZM219.422 342.649C218.961 343.878 217.658 344.877 216.2 344.877C215.28 344.877 214.436 345.338 213.899 346.106C213.593 346.567 213.439 346.951 213.362 347.566C213.286 348.18 213.209 348.718 213.056 349.332C212.902 348.18 212.365 347.028 212.902 345.645C213.439 344.339 214.82 343.494 216.2 343.494C217.121 343.494 217.964 342.957 218.501 342.188C218.731 341.727 218.808 341.343 218.885 340.729C219.038 340.114 219.038 339.577 219.191 338.962C219.422 340.114 219.882 341.266 219.422 342.649ZM288.743 299.565C288.436 299.412 288.206 299.181 287.976 298.951C287.363 298.336 286.366 298.106 285.445 298.336C284.985 298.413 284.602 298.643 284.141 299.028C283.605 299.412 283.144 299.719 282.684 300.026C283.298 299.104 283.758 297.952 285.062 297.338C285.982 296.877 287.133 296.953 288.13 297.414C288.334 298.131 288.539 298.848 288.743 299.565ZM165.371 387.96C164.681 388.882 164.221 390.034 162.84 390.649C161.613 391.187 160.003 390.802 159.005 389.804C158.392 389.189 157.395 388.959 156.475 389.189C156.014 389.266 155.631 389.497 155.171 389.881C154.634 390.188 154.174 390.572 153.713 390.879C154.404 389.958 154.864 388.805 156.091 388.191C157.318 387.576 159.006 387.883 160.003 388.805C160.616 389.497 161.613 389.804 162.534 389.65C162.994 389.497 163.454 389.343 163.914 388.959C164.374 388.575 164.834 388.268 165.371 387.96Z" fill="black"/>
<path d="M345.794 284.159L376.291 299.53L387.884 285.671L347.81 267.779L345.794 284.159Z" fill="#FF7B29"/>
<path d="M140.636 495.329C140.636 495.329 129.043 515.489 141.393 527.836C141.393 527.836 126.523 542.451 134.588 546.484C142.653 550.515 145.426 556.311 116.945 552.279C116.945 552.279 105.351 539.931 114.173 518.008C122.238 497.345 130.555 489.029 140.636 495.329Z" fill="#FF7B29"/>
<path d="M497.266 552.279H53.1787V572.187H497.266V552.279Z" fill="#FFB588"/>
<path d="M0 855.173L12.8541 858.704L92.4971 569.919L78.8871 568.911L0 855.173Z" fill="#FFB588"/>
<path d="M184.337 572.455L171.458 568.914L92.7207 855.131L105.6 858.679L184.337 572.455Z" fill="#FFB588"/>
<path d="M159.034 618.553H66.2852V631.909H159.034V618.553Z" fill="#FFB588"/>
<path d="M145.928 678.023H53.1787V691.379H145.928V678.023Z" fill="#FFB588"/>
<path d="M126.018 737.747H33.2686V751.102H126.018V737.747Z" fill="#FFB588"/>
<path d="M110.644 797.469H17.8945V810.821H110.644V797.469Z" fill="#FFB588"/>
<path d="M224.792 497.522L254.557 521.033L208.551 496.785L224.792 497.522Z" fill="#1C1D37"/>
<path d="M253.658 292.221C253.658 292.221 260.211 316.665 271.301 325.484L263.488 355.975C263.739 355.975 242.569 314.396 253.658 292.221Z" fill="#62E1FB"/>
<path d="M241.771 417.834L258.381 421.154C258.381 421.154 263.271 372.211 269.824 331.135C270.076 330.884 250.844 380.035 241.771 417.834Z" fill="#FF7B29"/>
<path d="M382.591 66.9401L469.795 67.1923L438.543 6.9654C434.51 -1.35035 422.665 -1.60234 418.128 6.20944L382.591 66.9401Z" fill="#FFB588"/>
<path d="M507.349 421.495C508.862 424.267 475.593 465.594 475.593 465.594L495.724 403.076C496.817 403.305 504.325 415.447 507.349 421.495Z" fill="#FF7B29"/>
<path d="M348.815 407.503L373.266 456.521L356.567 399.018L352.507 403.076L348.815 407.503Z" fill="#FF7B29"/>
</svg>
