<svg width="438" height="441" viewBox="0 0 438 441" fill="none" xmlns="http://www.w3.org/2000/svg">
<path fill-rule="evenodd" clip-rule="evenodd" d="M136.711 226.794C137.409 225.716 137.023 227.858 137.711 226.589C137.191 225.405 137.645 223.176 136.645 222.509C136.801 223.703 136.333 223.762 135.988 224.96C136.694 223.316 137.512 225.662 136.711 226.794ZM162.36 228.195C162.79 228.209 162.529 227.372 162.914 227.31C165.967 228.221 168.922 231.008 172.82 229.991C174.825 232.475 178.01 232.267 180.516 233.025C182.33 233.572 183.979 235.626 186.421 233.342C182.983 231.834 179.036 231.41 176.446 229.57C172.58 229.525 168.306 227.321 163.227 225.81C163.046 225.423 163.861 223.964 163.504 223.768C163.022 224.719 162.517 225.265 161.985 225.405C155.185 222.525 149.349 220.652 144.935 218.802C144.757 218.386 145.354 215.677 144.419 217.035C144.552 217.234 144.857 218.621 144.313 218.6C141.968 216.713 133.543 215.931 131.131 212.185C131.327 212.362 131.262 212.82 131.2 213.276C127.752 211.758 123.949 212.386 121.846 209.705C124.446 212.74 127.273 216.493 131.301 214.908C131.128 215.385 130.955 215.862 130.782 216.337C132.575 214.375 133.262 218.664 134.163 218.505C137.874 214.903 137.917 220.265 140.997 220.722C142.459 218.249 144.514 220.411 145.105 221.524C150.282 222.916 156.757 224.798 162.36 228.195ZM119.979 212.298C119.377 211.479 120.376 211.031 120.878 210.458C120.778 209.227 119.618 209.189 118.6 209.717C120.036 209.247 118.578 212.52 119.117 211.484C119.462 211.587 119.714 210.199 120.051 210.186C119.765 211.023 119.466 211.654 119.15 212.028C119.861 211.525 119.483 213.51 119.979 212.298ZM117.769 212.645C118.323 207.916 114.071 209.719 112.734 206.743C112.25 207.639 111.721 207.838 111.181 207.838C110.349 207.285 108.542 205.337 107.28 207.105C108.029 207.266 107.738 208.548 108.21 209.005C108.946 207.682 110.84 207.991 111.04 208.861C110.291 210.724 110.528 208.299 109.867 209.544C111.43 209.832 115.627 209.145 117.769 212.645ZM107.038 206.492C105.817 206.596 105.132 203.866 103.759 205.962C104.866 205.534 106.156 207.886 107.038 206.492ZM125.781 210.983C126.351 211.129 127.173 210.214 127.095 209.276C126.601 208.955 126.175 209.715 125.781 210.983ZM120.33 208.142C120.622 207.444 120.895 206.358 121.229 206.302C121.96 206.966 123.872 207.816 124.714 206.905C118.245 203.237 110.904 201.017 106.942 198.464C107.141 198.412 107.356 198.584 107.53 198.121C106.942 197.368 106.496 198.91 105.975 199.217C104.16 196.953 100.674 196.992 99.059 195.28C99.1247 194.842 98.8248 194.801 98.5916 194.687C98.7156 194.916 98.8873 195.097 99.059 195.28C99.0374 195.419 98.9798 195.6 98.8652 195.842C96.8704 194.641 95.9442 196.155 95.4837 193.677C94.8537 195.468 93.9746 193.323 93.3438 195.112C100.287 199.104 111.771 201.806 118.95 205.564C118.855 206.967 117.703 206.19 118.224 206.929C118.895 205.834 118.653 208.158 119.433 206.787C118.971 204.231 120.203 206.564 120.33 208.142ZM68.5941 188.677C68.1419 190.315 69.2278 189.762 69.8373 189.08C69.2057 188.694 69.4202 187.4 68.3198 187.519C67.9405 188.314 68.184 188.842 67.8011 188.95C66.9627 189.079 68.2407 186.928 67.2843 187.184C67.0004 188.048 66.6735 188.234 66.316 187.938C65.475 190.615 67.4816 190.887 68.5941 188.677ZM61.5529 186.39C61.9332 187.769 63.8816 188.606 65.1414 188.621C64.9589 184.17 61.3629 187.812 61.0036 184.079C60.701 184.65 60.3822 184.966 60.036 184.829C59.0964 187.529 60.6369 187.066 61.5529 186.39ZM70.4279 185.537C69.5764 185.875 70.1959 184.625 69.9443 184.317C69.5981 185.262 69.1604 184.739 68.8391 186.09C69.528 186.59 69.5632 186.997 70.4279 185.537ZM88.9248 192.613C84.2035 190.994 80.4877 187.772 75.4653 188.243C79.4778 189.838 83.3932 192.103 88.9248 192.613ZM94.342 198.104C94.2255 198.036 94.1221 197.953 94.3073 197.559C94.6536 197.704 94.9708 197.366 95.2748 196.809C94.6245 196.134 94.0892 197.316 93.5137 197.835C94.0644 197.505 93.6871 199.487 94.342 198.104ZM90.9285 192.198C90.3378 193.569 89.5759 192.183 88.9602 193.159C89.3309 193.436 89.1645 194.292 89.2685 194.859C91.3703 193.032 91.0902 196.285 93.3084 194.571C93.0064 192.742 89.5393 194.425 90.9285 192.198ZM115.817 197.616C115.534 197.306 116.082 197.015 116.335 196.185C115.096 197.17 116.426 194.445 115.266 195.304C115.6 195.711 115.434 196.19 114.953 196.803C115.181 196.985 115.465 198.516 115.817 197.616ZM76.9248 179.117C77.3624 178.551 77.764 177.408 78.237 177.412C77.4613 179.779 79.814 179.356 79.8613 177.404C78.9741 178.821 77.1862 175.109 74.4769 175.656C74.3136 178.898 75.802 178.021 76.9248 179.117ZM65.7791 172.83C65.051 172.869 64.3251 170.37 63.7088 172.158C63.8524 172.751 64.911 174.89 65.7791 172.83ZM60.7741 170.673C60.7355 169.749 59.8649 169.891 59.3592 170.745C59.7541 171.248 60.04 171.492 60.7741 170.673ZM59.3245 170.204C59.2372 169.03 57.6524 167.952 56.599 168.783C57.6671 169.475 58.1729 171.01 59.3245 170.204ZM181.509 206.687C180.386 205.467 179.401 204.706 178.195 205.612C178.537 206.607 180.592 207.276 181.509 206.687ZM177.574 205.41C177.224 205.179 176.649 203.733 175.918 204.871C175.95 205.443 177.039 206.339 177.574 205.41ZM195.35 210.648C196.378 211.734 198.193 211.367 199.458 211.451C198.386 210.75 197.379 210.06 195.35 210.648ZM187.895 208.228C185.917 207.712 183.729 206.224 181.751 207.298C184.587 207.639 185.549 209.366 187.895 208.228ZM95.8066 182.583C96.1481 182.823 97.1163 184.739 97.8428 182.715C96.7262 182.837 96.7546 181.108 95.8066 182.583ZM80.4479 177.063C79.8313 178.514 80.7411 179.329 81.3102 177.875C81.2594 176.69 80.489 178.078 80.4479 177.063ZM65.6399 173.855C68.1509 173.179 69.5482 176.739 72.4053 174.984C69.9647 174.598 68.7114 171.687 65.6399 173.855ZM86.6945 179.626C84.7117 179.484 83.2591 176.357 81.1703 178.899C83.2194 178.664 84.6136 182.656 86.6945 179.626ZM136.194 189.303C135.692 188.198 134.241 188.115 134.195 186.521C135.597 187.558 138.651 189.325 139.959 187.859C136.345 185.899 132.582 185.897 129.503 182.864C129.59 182.479 129.838 181.922 129.641 181.844C129.411 182.478 129.179 183.116 128.949 183.752C128.585 182.825 126.747 181.944 125.878 183.286C127.063 185.905 129.876 186.892 131.812 187.347C131.821 187.073 131.061 186.315 131.743 186.257C132.778 187.567 134.694 189.463 136.194 189.303ZM121.595 182.962C122.445 182.216 122.183 183.968 123.012 182.891C122.749 182.656 122.884 180.556 122.322 181.601C122.447 181.756 122.419 182.077 122.184 182.619C121.906 182.489 121.353 182.468 121.595 182.962ZM121.182 182.829C121.413 182.193 121.643 181.557 121.874 180.921C118.345 178.335 115.739 178.49 111.66 176.534C113.896 181.827 118.3 178.62 121.182 182.829ZM110.831 176.267C110.254 175.161 106.375 176.059 107.656 174.171C107.683 173.586 105.386 175.112 105.48 175.063C106.908 175.838 109.592 177.92 110.831 176.267ZM104.238 174.658C104.468 174.001 104.716 173.645 104.964 173.295C104.667 172.844 104.676 171.363 103.929 172.96C104.299 173.237 104.134 174.094 104.238 174.658ZM140.757 184.387C139.89 183.092 137.721 183.204 137.893 180.792C138.241 180.934 138.558 180.594 138.86 180.041C137.459 181.431 139.108 177.859 137.999 179.227C137.411 180.642 134.684 178.288 133.96 179.513C135.128 182.584 137.777 185.217 140.757 184.387ZM148.457 184.22C147.383 180.514 146.729 184.826 144.073 182.264C144.124 184.458 147.537 184.05 145.379 186.957C147.303 184.629 149.701 190 151.765 188.497C151.678 187.43 150.64 187.387 151.182 185.642C151.201 186.264 152.073 186.124 152.598 185.565C151.013 185.436 149.982 182.861 148.457 184.22ZM152.632 186.11C153.164 185.967 153.777 187.143 154.254 186.104C153.599 185.631 153.453 184.809 152.632 186.11ZM235.924 204.097C238.985 204.352 238.924 205.78 241.654 204.893C240.597 203.814 237.746 201.552 235.924 204.097ZM251.94 207.168C251.285 206.809 250.128 206.993 250.042 206.018C249.91 207.904 250.941 208.402 251.94 207.168ZM157.025 175.275C154.904 174.983 154.361 172.266 152.918 174.473C153.916 173.662 155.829 177.249 157.025 175.275ZM137.805 166.367C137.978 165.89 138.152 165.411 138.324 164.936C138.125 164.266 136.599 164.601 136.773 162.83C135.49 165.739 134.256 161.895 132.491 162.509C132.967 165.699 136.14 164.453 137.805 166.367ZM131.318 163.191C130.829 159.5 127.256 161.987 126.938 158.036C130.471 158.825 132.997 161.833 137.533 162.011C137.328 161.457 136.559 161.512 136.637 160.654C138.708 160.104 138.999 161.834 139.465 163.706C139.788 162.376 140.227 162.922 140.605 162.476C140.789 163.763 141.212 165.711 142.537 164.171C136.75 156.866 122.854 152.602 116.345 150.865C120.151 153.763 123.596 152.973 126.214 156.204C124.088 157.967 123.497 152.79 120.691 155.476C122.037 155.349 123.306 157.447 124.485 157.777C124.843 156.362 126.539 158.749 124.862 160.563C126.847 161.217 129.794 162.032 131.318 163.191ZM118.793 154.326C116.862 152.383 115.393 152.724 113.409 152.576C115.436 154.112 116.826 156.056 118.793 154.326ZM100.708 147.385C100.167 147.389 99.6385 147.585 99.1538 148.479C99.7784 148.79 100.635 150.351 101.639 149.287C101.472 148.248 100.169 148.432 100.328 147.796C100.463 147.81 100.598 147.804 100.708 147.385ZM97.7374 148.555C98.7259 146.1 98.7002 148.556 99.1198 147.936C98.8417 147.706 99.3556 146.844 99.6392 146.505C97.7047 147.182 97.864 144.945 95.6333 147.337C95.2982 146.245 93.5931 146.631 94.047 144.688C93.3581 145.526 93.8464 145.302 93.356 146.595C94.5903 146.621 94.8546 147.693 95.4934 148.359C96.3551 145.805 97.1992 148.179 97.7374 148.555ZM91.8724 145.581C90.3268 145.647 90.6354 143.495 89.5242 143.754C90.0296 144.567 89.3709 146.63 90.143 147.156C90.4774 144.458 90.7705 147.231 91.8724 145.581ZM145.093 162.867C146.488 166.972 150.505 166.75 153.131 168.146C152.7 167.857 153.118 166.717 153.617 166.167C150.724 164.61 147.967 162.724 145.093 162.867ZM106.401 150.833C106.806 150.844 106.987 152.993 107.057 151.582C106.94 151.512 106.838 151.429 107.023 151.035C107.81 151.059 108.116 151.601 108.506 152.051C109.184 150.338 106.891 150.325 106.401 150.833ZM109.242 141.093C109.16 139.722 108.23 141.378 107.619 141.099C107.715 140.835 107.647 140.505 107.413 141.031C107.577 142.538 108.286 141.836 109.242 141.093ZM153.827 234.487C152.783 235.665 153.387 235.01 152.514 236.194C147.377 233.117 144.236 232.189 139.331 229.78C139.511 229.405 139.711 229.373 139.884 228.894C139.223 228.986 137.43 230.373 137.573 227.606C137.253 227.893 136.944 228.374 136.639 228.906C136.424 228.749 136.781 227.977 136.951 227.407C136.751 227.443 136.572 227.818 136.365 227.749C135.604 228.039 136.858 228.412 135.845 229.179C134.53 228.318 135.497 226.404 133.566 228.441C132.673 227.818 132.537 225.902 131.255 227.158C130.921 226.75 131.087 226.27 131.567 225.657C130.004 227.036 129.533 225.375 128.081 225.058C128.448 224.464 128.846 224.314 129.255 224.373C129.684 222.678 128.083 224.321 128.325 222.471C129.132 222.203 129.741 221.098 130.12 221.99C129.865 218.974 125.859 218.652 124.428 218.539C125.133 218.156 124.999 216.013 124.393 217.996C124.185 217.446 124.687 216.13 124.258 215.819C124.718 214.598 125.469 215.45 125.364 214.046C124.711 213.689 124.65 216.093 123.636 215.619C123.684 216.436 124.3 216.645 123.6 218.27C123.31 217.98 123.073 218.517 122.837 219.092C122.39 217.839 124.382 217.42 123.498 216.637C122.621 217.931 120.76 217.858 119.906 217.606C121.434 219.85 123.785 218.458 125.184 220.918C123.986 223.676 123.216 221.789 122.941 220.723C122.366 220.665 122.927 221.636 122.248 222.631C122.125 222.256 120.78 222.007 120.592 222.093C120.262 220.734 121.733 221.202 122.113 220.454C121.714 220.2 120.381 218.119 118.935 221.554C118.997 220.519 119.323 219.201 118.766 218.833C118.703 219.288 118.636 219.746 118.833 219.923C117.842 220.586 118.946 217.545 119.872 217.061C117.913 214.837 112.842 213.734 108.795 211.862C106.823 210.953 104.394 210.337 102.927 208.892C102.012 207.988 98.1345 207.08 95.8863 206.605C95.6593 206.367 96.1489 205.354 96.371 204.631C94.0341 206.905 92.9667 203.42 89.812 203.565C89.5994 203.409 89.9538 202.639 90.125 202.069C89.8093 201.717 88.7013 203.247 89.4698 201.322C86.4095 203.58 84.3366 200.428 82.2895 200.057C82.0021 200.002 81.4766 200.849 81.5298 200.876C81.1078 200.667 81.1258 199 80.3917 198.907C79.53 198.797 79.2762 198.502 78.4939 197.756C77.7881 197.085 76.2853 195.902 75.9409 195.862C75.6702 195.829 75.3636 196.929 74.9734 196.614C74.6603 196.358 75.0443 195.459 74.8901 195.072C74.7763 195.276 73.0724 194.861 72.2479 195.193C73.1409 193.366 69.0228 194.119 67.624 192.627C68.0921 191.693 68.5849 191.894 68.5221 190.786C67.0962 191.109 66.2056 193.541 65.8654 190.455C64.2021 192.118 64.0303 190.836 62.4136 190.4C62.759 189.454 63.1974 189.978 63.5187 188.627C62.5844 190.328 62.5705 187.902 61.5519 189.586C61.3946 189.439 61.5357 188.986 61.7035 188.762C59.8886 190.154 57.9352 188.314 56.7532 187.496C57.4625 186.275 57.2469 185.746 57.8599 185.721C57.5028 184.907 56.2518 183.964 57.4485 182.392C56.9408 182.844 56.7259 182.775 56.6207 182.121C56.3488 182.696 56.3889 182.939 56.5211 183.081C54.4336 181.436 51.2966 179.567 50.0642 177.859C49.5319 179.051 49.7672 178.071 48.6833 178.476C48.9971 178.106 49.2962 177.472 49.583 176.636C49.0406 176.628 48.6405 178.855 48.0622 178.272C49.0967 174.894 45.814 177.983 46.3041 176.103C46.0325 176.102 45.8131 176.918 45.5778 177.467C44.998 176.387 44.571 176.619 43.0919 176.66C45.5027 175.163 43.1541 175.513 42.2289 175.848C42.498 174.755 42.8715 175.297 43.1631 174.55C43.1481 173.57 42.4388 172.781 41.7465 174.624C41.613 171.992 40.4125 171.647 39.4047 169.597C41.0509 167.991 42.8488 168.244 45.2406 168.828C45.6241 168.718 45.3792 168.191 45.7592 167.397C49.1146 167.263 51.5396 169.689 54.9425 168.246C51.115 163.662 44.734 163.975 40.484 160.882C42.3227 160.04 43.0456 159.946 45.1103 160.253C45.4269 158.848 44.0427 159.274 43.9729 158.285C44.5326 157.496 45.1887 158.261 45.7683 157.802C43.4997 155.271 40.3816 155.247 36.7613 153.277C37.19 151.476 37.8508 153.384 38.2491 151.094C44.5428 153.944 51.3648 150.75 53.9184 155.119C53.3742 156.143 52.6899 154.926 52.09 155.055C53.0653 157.705 55.6963 157.936 57.7828 158.506C63.6166 160.096 69.4772 161.559 75.1105 163.065C75.2719 162.6 74.9916 162.611 74.868 162.454C81.4594 162.336 90.6117 165.234 95.785 169.245C96.1631 168.799 96.6029 169.346 96.9241 168.018C97.7751 170.953 100.218 169.921 102.342 170.313C107.778 171.309 112.631 176.078 117.737 176.376C116.298 178.517 118.299 176.754 119.186 176.847C122.731 177.224 127.306 180.685 131.265 181.836C130.879 178.497 126.178 180.03 124.847 176.553C125.169 175.21 125.699 177.212 126.021 175.868C124.059 171.279 119.294 174.397 117.329 169.845C116.869 170.229 117.131 170.658 116.394 171.142C110.595 170.404 102.975 166.079 96.6198 163.12C95.8669 162.768 94.7622 163.957 93.8203 163.812C85.9034 162.589 81.152 155.507 73.7704 154.634C77.897 154.394 80.2055 156.727 85.3003 157.312C85.5719 157.314 85.7906 156.497 86.026 155.946C88.6663 156.846 89.0415 158.608 91.0989 159.194C101.035 162.038 112.085 167.04 123.89 167.713C124.803 167.586 124.507 166.05 125.17 165.461C126.497 168.303 129.776 166.253 130.344 170.341C131.058 170.095 130.324 169.048 130.242 168.709C132.743 167.856 133.33 173.759 136.59 172.902C136.907 171.303 135.772 171.269 135.798 169.979C135.857 169.568 137.152 170.237 137.075 170.927C138.477 168.685 141.509 171.292 143.047 172.334C144.211 170.13 146.744 174.096 148.501 171.972C143.312 169.029 135.667 168.514 130.764 164.078C130.392 164.867 130.598 165.033 130.831 165.167C129.998 165.685 129.38 165.242 129.729 163.742C128.939 163.395 129.528 164.496 128.796 165.038C128.351 164.39 128.284 164.079 128.105 163.748C125.76 164.503 124.339 162.092 122.86 160.978C119.409 159.066 123.878 161.956 125.003 159.541C121.303 156.804 115.225 156.641 112.061 153.739C112.827 151.281 112.797 153.968 113.373 152.034C112.118 150.648 110.369 151.024 109.199 150.143C108.911 151.809 110.631 151.313 109.817 153.546C108.097 153.313 106.463 151.939 105.262 152.064C106.553 148.623 103.535 148.83 102.568 151.191C101.536 151.624 102.646 149.749 101.88 149.9C101.577 149.932 101.326 150.779 101.533 150.854C98.561 150.496 91.6735 148.76 88.9011 146.751C88.7368 146.347 88.886 145.604 89.1795 144.707C88.4254 144.916 88.745 146.285 88.3131 147.092C86.8753 145.491 84.934 146.675 84.5175 144.795C85.0113 142.926 85.7171 144.505 86.3142 144.31C86.2966 143.216 85.5986 143.927 86.5924 142.268C81.5506 141.141 80.3249 140.695 76.0308 138.837C79.8537 136.64 82.2307 140.947 85.5935 139.278C86.9559 141.194 88.8859 140.095 90.3913 141.367C90.9663 141.428 90.4053 140.455 91.0838 139.459C91.9287 139.139 91.5681 139.569 92.3263 139.865C92.9341 138.629 92.232 138.803 92.2237 138.232C92.8474 137.051 92.8 139.445 93.6394 138.158C93.2769 135.844 90.7096 139.6 89.5322 137.358C89.704 136.406 89.034 136.825 89.8438 135.861C88.7882 135.642 88.581 134.507 87.3247 134.507C86.4168 134.224 87.5881 133.674 87.9135 134.164C89.9549 134.467 92.956 133.536 93.5027 135.982C94.9238 134.73 94.5038 136.796 95.5404 136.11C95.4881 136.929 95.0212 138.157 94.2599 138.361C97.0825 141.524 101.59 141.277 105.27 142.468C105.071 139.024 101.281 141.611 100.545 138.267C102.414 137.753 103.728 138.811 105.274 139.271C104.329 140.736 106.204 141.114 106.998 140.897C107.38 140.791 107.138 140.259 107.517 139.466C108.582 140.706 109.91 139.87 111.659 140.811C111.637 141.513 111.212 142.65 111.588 142.923C112.307 139.606 112.089 144.208 113.417 142.983C110.829 146.223 111.365 140.573 109.31 142.181C110.949 144.858 112.558 147.15 115.45 146.31C115.88 145.073 114.747 145.518 115.697 143.721C117.245 144.229 117.768 145.147 119.424 144.933C119.125 145.559 118.761 145.16 118.421 145.142C119.268 148.48 122.392 149.406 125.045 150.491C125.734 149.777 125.528 148.997 125.323 148.449C125.855 147.21 126.536 148.36 127.085 147.421C129.266 153.537 136.737 150.15 138.61 156.494C138.874 155.573 139.572 155.889 140.302 154.38C141.945 154.77 142.859 156.601 144.997 154.839C145.717 157.561 150.187 155.019 149.618 160.605C152.867 157.5 154.539 158.628 157.525 160.505C157.228 161.178 156.844 160.473 156.556 161.259C157.238 162.363 158.708 162.618 159.731 163.357C159.964 161.847 158.604 162.054 157.799 161.662C158.831 159.242 158.974 161.592 160.216 161.379C159.865 166.328 164.02 165.213 166.358 165.508C166.428 164.562 165.413 164.783 165.253 164.085C167.813 162.787 168.914 166.138 171.02 165.422C170.787 166.06 170.558 166.695 170.327 167.331C173.938 169.755 177.16 169.723 181.441 169.875C182.007 169.758 181.46 169.049 182.168 168.51C186.899 169.805 191.759 172.561 196.976 171.72C196.929 171.213 194.84 171.632 195.804 169.207C196.354 170.205 198.407 170.689 198.666 172.804C203.764 173.812 209.868 174.144 215.271 175.532C219.74 176.676 224.583 176.675 229.009 177.86C237.74 180.195 244.416 183.995 251.891 186.89C254.066 187.732 255.902 188.976 256.892 192.247C254.79 196.418 253.309 194.843 250.811 195.605C251.044 196.614 250.783 198.154 251.603 198.529C251.437 198.801 250.422 200.195 250.911 200.437C248.599 204.688 246.522 202.251 244.486 204.745C244.947 207.283 247.53 205.33 249.49 206.905C249.649 205.281 248.852 204.687 247.902 204.257C250.295 203.049 252.983 205.245 254.425 207.974C252.848 209.84 252.785 207.335 250.8 208.395C250.461 210.776 249.092 211.029 248.654 213.032C248.893 213.937 249.744 214.184 250.379 214.659C249.667 215.159 249.048 217.158 248.306 217.184C247.658 218.85 248.049 219.396 248.095 220.316C248.418 220.677 249.556 218.346 249.168 217.998C250.31 216.178 250.696 220.172 251.585 217.715C251.264 219.887 249.841 219.415 249.097 220.108C249.031 221.534 249.813 222.046 250.095 223.098C249.125 224.218 248.434 222.58 247.817 222.358C247.434 222.466 247.676 222.996 247.298 223.789C248.314 225.101 250.546 226.523 251.541 226.767C250.808 228.887 251.038 226.35 250.366 227.453C250.887 229.652 249.555 233.488 248.181 237.941C246.71 238.429 246.23 238.998 244.937 237.951C244.548 238.305 244.562 239.023 243.829 239.725C243.485 241.927 245.333 242.686 246.244 242.641C244.948 244.56 245.669 246.456 246.135 247.406C245.627 248.979 244.991 248.573 244.442 249.522C243.219 255.228 239.953 255.305 237.873 258.051C233.519 257.796 230.158 253.819 225.829 253.607C224.461 253.539 222.746 254.446 221.409 254.304C218.365 253.985 215.574 252.646 212.538 251.957C203.332 249.865 195.12 246.184 185.304 244.711C182.198 244.245 178.27 244.026 174.845 242.913C169.13 241.058 162.761 240.44 158.832 236.645C158.443 236.999 158.463 237.814 157.69 237.877C157.185 235.334 153.327 239.195 153.827 234.487Z" fill="#FF7B29" fill-opacity="0.3"/>
<path fill-rule="evenodd" clip-rule="evenodd" d="M301.602 214.222C300.891 215.293 301.301 213.155 300.599 214.417C301.105 215.606 300.627 217.83 301.618 218.508C301.477 217.312 301.945 217.259 302.303 216.065C301.578 217.7 300.788 215.346 301.602 214.222ZM275.97 212.529C275.54 212.511 275.792 213.351 275.405 213.409C272.363 212.463 269.441 209.642 265.531 210.615C263.554 208.108 260.367 208.28 257.87 207.494C256.062 206.926 254.437 204.853 251.969 207.109C255.389 208.656 259.332 209.125 261.901 210.995C265.766 211.083 270.014 213.336 275.076 214.904C275.252 215.294 274.421 216.743 274.776 216.943C275.268 215.998 275.78 215.458 276.313 215.323C283.08 218.282 288.894 220.221 293.286 222.121C293.46 222.539 292.832 225.24 293.782 223.893C293.652 223.693 293.363 222.302 293.906 222.33C296.229 224.243 304.646 225.121 307.015 228.894C306.82 228.715 306.891 228.257 306.959 227.803C310.389 229.36 314.198 228.775 316.27 231.479C313.705 228.415 310.921 224.631 306.876 226.169C307.054 225.694 307.232 225.219 307.411 224.746C305.596 226.687 304.957 222.391 304.055 222.54C300.303 226.1 300.321 220.737 297.246 220.245C295.756 222.702 293.726 220.516 293.148 219.397C287.987 217.946 281.534 215.99 275.97 212.529ZM318.167 228.908C318.76 229.734 317.756 230.17 317.247 230.738C317.333 231.97 318.493 232.021 319.517 231.504C318.075 231.958 319.571 228.703 319.02 229.732C318.676 229.625 318.408 231.01 318.072 231.019C318.366 230.185 318.673 229.558 318.993 229.187C318.277 229.682 318.677 227.702 318.167 228.908ZM320.381 228.586C319.773 233.309 324.046 231.554 325.348 234.545C325.843 233.654 326.374 233.462 326.914 233.468C327.74 234.031 329.524 235.999 330.807 234.245C330.059 234.075 330.365 232.797 329.898 232.335C329.147 233.65 327.256 233.319 327.067 232.446C327.836 230.592 327.572 233.014 328.248 231.777C326.688 231.471 322.483 232.111 320.381 228.586ZM331.041 234.861C332.263 234.771 332.918 237.508 334.314 235.429C333.203 235.844 331.939 233.478 331.041 234.861ZM312.35 230.157C311.783 230.005 310.95 230.91 311.017 231.849C311.507 232.176 311.942 231.421 312.35 230.157ZM317.769 233.06C317.469 233.755 317.184 234.837 316.849 234.889C316.126 234.217 314.224 233.345 313.371 234.247C319.798 237.988 327.114 240.292 331.045 242.889C330.846 242.939 330.633 242.765 330.454 243.226C331.034 243.986 331.497 242.449 332.022 242.148C333.81 244.433 337.297 244.433 338.892 246.163C338.822 246.6 339.121 246.645 339.353 246.761C339.231 246.531 339.062 246.348 338.892 246.163C338.915 246.025 338.975 245.844 339.092 245.603C341.073 246.827 342.017 245.323 342.449 247.807C343.099 246.023 343.954 248.178 344.605 246.396C337.707 242.325 326.255 239.493 319.119 235.654C319.231 234.251 320.374 235.042 319.861 234.297C319.178 235.384 319.446 233.063 318.651 234.425C319.083 236.986 317.878 234.639 317.769 233.06ZM369.28 253.113C369.751 251.479 368.659 252.02 368.041 252.695C368.669 253.088 368.439 254.38 369.541 254.274C369.929 253.483 369.692 252.952 370.076 252.848C370.916 252.729 369.613 254.866 370.573 254.62C370.866 253.759 371.195 253.578 371.549 253.877C372.421 251.21 370.418 250.916 369.28 253.113ZM376.295 255.48C375.93 254.096 373.991 253.237 372.732 253.208C372.864 257.661 376.501 254.059 376.818 257.797C377.127 257.23 377.449 256.916 377.794 257.058C378.764 254.368 377.218 254.813 376.295 255.48ZM367.41 256.232C368.266 255.904 367.632 257.146 367.88 257.457C368.237 256.516 368.669 257.044 369.005 255.697C368.322 255.189 368.292 254.781 367.41 256.232ZM348.995 248.945C353.698 250.618 357.377 253.882 362.404 253.468C358.41 251.828 354.521 249.519 348.995 248.945ZM343.641 243.393C343.757 243.462 343.859 243.547 343.669 243.938C343.325 243.79 343.004 244.124 342.693 244.677C343.336 245.36 343.885 244.184 344.466 243.672C343.912 243.995 344.312 242.017 343.641 243.393ZM346.987 249.337C347.593 247.973 348.339 249.368 348.966 248.399C348.599 248.118 348.775 247.263 348.677 246.696C346.555 248.498 346.872 245.249 344.634 246.937C344.916 248.77 348.402 247.127 346.987 249.337ZM322.162 243.637C322.442 243.95 321.89 244.234 321.627 245.062C322.878 244.091 321.517 246.8 322.687 245.954C322.357 245.544 322.528 245.066 323.017 244.459C322.79 244.275 322.524 242.74 322.162 243.637ZM360.841 262.577C360.397 263.138 359.982 264.276 359.509 264.267C360.312 261.909 357.955 262.305 357.885 264.256C358.788 262.85 360.534 266.582 363.249 266.065C363.449 262.826 361.951 263.686 360.841 262.577ZM371.914 268.99C372.643 268.96 373.34 271.466 373.977 269.686C373.84 269.092 372.806 266.941 371.914 268.99ZM376.894 271.205C376.923 272.128 377.795 271.997 378.31 271.149C377.921 270.641 377.638 270.394 376.894 271.205ZM378.339 271.69C378.413 272.865 379.985 273.961 381.048 273.142C379.988 272.437 379.499 270.897 378.339 271.69ZM256.578 233.818C257.686 235.051 258.662 235.823 259.879 234.932C259.548 233.932 257.501 233.24 256.578 233.818ZM260.498 235.14C260.845 235.375 261.404 236.827 262.147 235.698C262.121 235.126 261.043 234.217 260.498 235.14ZM242.783 229.7C241.767 228.602 239.948 228.949 238.683 228.85C239.747 229.563 240.747 230.265 242.783 229.7ZM250.21 232.205C252.181 232.744 254.353 234.256 256.343 233.205C253.511 232.831 252.568 231.094 250.21 232.205ZM342 258.896C341.661 258.653 340.715 256.726 339.965 258.741C341.083 258.632 341.035 260.36 342 258.896ZM357.295 264.591C357.928 263.146 357.027 262.322 356.442 263.769C356.479 264.954 357.265 263.576 357.295 264.591ZM372.065 267.967C369.547 268.614 368.19 265.038 365.313 266.762C367.749 267.175 368.969 270.1 372.065 267.967ZM351.078 261.957C353.059 262.121 354.476 265.265 356.593 262.746C354.542 262.959 353.193 258.951 351.078 261.957ZM301.691 251.717C302.181 252.828 303.631 252.928 303.659 254.522C302.268 253.468 299.235 251.668 297.911 253.118C301.502 255.12 305.264 255.164 308.309 258.232C308.217 258.615 307.963 259.17 308.16 259.25C308.397 258.619 308.635 257.983 308.873 257.35C309.227 258.281 311.054 259.183 311.939 257.851C310.784 255.219 307.982 254.2 306.051 253.723C306.039 253.996 306.79 254.763 306.108 254.814C305.088 253.492 303.193 251.575 301.691 251.717ZM316.217 258.224C315.359 258.961 315.641 257.212 314.8 258.279C315.06 258.517 314.901 260.615 315.475 259.576C315.352 259.42 315.384 259.099 315.624 258.56C315.901 258.693 316.454 258.72 316.217 258.224ZM316.629 258.362C316.391 258.995 316.153 259.629 315.915 260.262C319.415 262.888 322.022 262.763 326.078 264.764C323.903 259.446 319.463 262.603 316.629 258.362ZM326.904 265.041C327.469 266.153 331.358 265.3 330.055 267.173C330.022 267.758 332.336 266.258 332.242 266.306C330.822 265.515 328.162 263.402 326.904 265.041ZM333.479 266.725C333.242 267.379 332.99 267.733 332.737 268.08C333.029 268.534 333.004 270.015 333.769 268.427C333.401 268.145 333.577 267.29 333.479 266.725ZM297.073 256.581C297.925 257.885 300.096 257.798 299.895 260.209C299.549 260.062 299.228 260.398 298.92 260.948C300.338 259.574 298.648 263.127 299.772 261.772C300.376 260.364 303.076 262.748 303.814 261.532C302.681 258.448 300.062 255.785 297.073 256.581ZM289.372 256.66C290.404 260.378 291.106 256.074 293.733 258.666C293.707 256.471 290.29 256.841 292.481 253.959C290.53 256.265 288.193 250.867 286.113 252.346C286.187 253.414 287.224 253.469 286.663 255.208C286.651 254.585 285.777 254.715 285.246 255.268C286.83 255.415 287.831 258.002 289.372 256.66ZM285.219 254.723C284.685 254.859 284.085 253.677 283.596 254.71C284.246 255.191 284.383 256.014 285.219 254.723ZM202.136 235.789C199.078 235.499 199.156 234.072 196.416 234.928C197.461 236.018 200.286 238.312 202.136 235.789ZM186.156 232.536C186.808 232.902 187.967 232.732 188.041 233.707C188.195 231.822 187.17 231.313 186.156 232.536ZM280.702 265.507C282.82 265.823 283.332 268.546 284.8 266.356C283.793 267.156 281.921 263.547 280.702 265.507ZM299.82 274.634C299.641 275.109 299.462 275.586 299.284 276.059C299.476 276.73 301.005 276.412 300.811 278.182C302.127 275.288 303.317 279.146 305.089 278.552C304.65 275.356 301.463 276.566 299.82 274.634ZM306.27 277.882C306.717 281.579 310.318 279.133 310.591 283.087C307.068 282.258 304.576 279.222 300.042 278.992C300.241 279.548 301.011 279.502 300.923 280.359C298.845 280.885 298.575 279.152 298.13 277.275C297.791 278.602 297.358 278.05 296.976 278.492C296.806 277.204 296.405 275.25 295.063 276.775C300.767 284.146 314.613 288.567 321.102 290.379C317.329 287.437 313.875 288.188 311.294 284.928C313.44 283.189 313.972 288.373 316.808 285.719C315.461 285.83 314.216 283.718 313.041 283.375C312.666 284.785 310.999 282.379 312.695 280.584C310.718 279.908 307.781 279.059 306.27 277.882ZM318.694 286.89C320.602 288.854 322.075 288.53 324.057 288.701C322.048 287.143 320.68 285.182 318.694 286.89ZM336.698 294.037C337.239 294.039 337.77 293.848 338.265 292.96C337.644 292.642 336.805 291.072 335.789 292.124C335.944 293.165 337.249 292.996 337.082 293.629C336.948 293.614 336.812 293.618 336.698 294.037ZM339.682 292.901C338.665 295.344 338.719 292.888 338.292 293.504C338.568 293.736 338.044 294.593 337.757 294.929C339.699 294.273 339.514 296.509 341.772 294.142C342.095 295.238 343.804 294.871 343.328 296.809C344.026 295.978 343.536 296.197 344.041 294.91C342.807 294.87 342.555 293.795 341.923 293.122C341.033 295.665 340.216 293.283 339.682 292.901ZM345.513 295.941C347.059 295.892 346.726 298.041 347.84 297.794C347.344 296.976 348.026 294.92 347.26 294.386C346.895 297.079 346.633 294.303 345.513 295.941ZM292.492 278.05C291.144 273.929 287.125 274.105 284.515 272.68C284.942 272.974 284.512 274.109 284.007 274.653C286.881 276.243 289.617 278.161 292.492 278.05ZM331.044 290.523C330.64 290.508 330.483 288.357 330.398 289.767C330.514 289.839 330.615 289.923 330.426 290.315C329.638 290.282 329.339 289.736 328.954 289.282C328.256 290.987 330.549 291.026 331.044 290.523ZM328.093 300.231C328.159 301.602 329.108 299.957 329.716 300.244C329.617 300.507 329.681 300.837 329.922 300.314C329.774 298.805 329.058 299.499 328.093 300.231ZM284.574 206.335C285.631 205.169 285.02 205.818 285.907 204.643C291.008 207.779 294.138 208.742 299.016 211.207C298.831 211.58 298.631 211.61 298.452 212.087C299.115 212.002 300.923 210.636 300.749 213.401C301.072 213.117 301.386 212.64 301.698 212.112C301.911 212.271 301.545 213.039 301.368 213.607C301.569 213.573 301.752 213.2 301.958 213.272C302.722 212.991 301.473 212.603 302.494 211.847C303.8 212.723 302.811 214.627 304.764 212.612C305.65 213.244 305.765 215.162 307.061 213.921C307.39 214.333 307.219 214.811 306.732 215.418C308.311 214.057 308.763 215.724 310.211 216.057C309.837 216.647 309.437 216.792 309.029 216.728C308.581 218.418 310.2 216.793 309.937 218.64C309.128 218.9 308.506 219.998 308.137 219.101C308.358 222.12 312.359 222.488 313.79 222.616C313.081 222.992 313.19 225.136 313.818 223.16C314.02 223.713 313.503 225.023 313.929 225.339C313.455 226.554 312.713 225.694 312.803 227.099C313.451 227.464 313.54 225.06 314.548 225.545C314.509 224.728 313.896 224.513 314.614 222.895C314.901 223.189 315.144 222.655 315.386 222.082C315.819 223.34 313.822 223.737 314.698 224.529C315.59 223.245 317.449 223.34 318.301 223.602C316.798 221.34 314.432 222.705 313.061 220.229C314.29 217.485 315.038 219.381 315.302 220.45C315.876 220.514 315.326 219.537 316.016 218.55C316.135 218.926 317.477 219.191 317.665 219.107C317.981 220.47 316.514 219.985 316.126 220.728C316.522 220.987 317.831 223.083 319.317 219.665C319.242 220.699 318.902 222.013 319.455 222.387C319.523 221.933 319.594 221.476 319.4 221.297C320.399 220.645 319.26 223.674 318.329 224.147C320.262 226.392 325.32 227.554 329.346 229.472C331.307 230.402 333.729 231.046 335.179 232.508C336.084 233.422 339.951 234.375 342.194 234.875C342.418 235.115 341.917 236.123 341.686 236.844C344.049 234.596 345.077 238.093 348.233 237.984C348.444 238.142 348.081 238.908 347.903 239.477C348.214 239.832 349.34 238.314 348.55 240.231C351.635 238.008 353.672 241.184 355.715 241.577C356.002 241.635 356.537 240.795 356.484 240.767C356.903 240.981 356.867 242.648 357.6 242.748C358.46 242.869 358.71 243.167 359.484 243.922C360.182 244.6 361.671 245.801 362.015 245.845C362.286 245.881 362.605 244.784 362.991 245.103C363.302 245.363 362.907 246.258 363.057 246.646C363.173 246.444 364.872 246.878 365.701 246.555C364.787 248.372 368.913 247.666 370.295 249.174C369.816 250.102 369.326 249.895 369.376 251.004C370.805 250.698 371.724 248.276 372.029 251.365C373.711 249.722 373.868 251.006 375.48 251.46C375.123 252.402 374.691 251.873 374.354 253.22C375.308 251.53 375.294 253.956 376.332 252.284C376.488 252.432 376.341 252.884 376.171 253.106C378.002 251.735 379.934 253.597 381.107 254.429C380.383 255.641 380.593 256.173 379.98 256.19C380.328 257.008 381.568 257.966 380.353 259.524C380.866 259.078 381.08 259.149 381.178 259.805C381.456 259.232 381.419 258.989 381.288 258.846C383.357 260.514 386.473 262.419 387.685 264.14C388.231 262.955 387.985 263.932 389.073 263.539C388.755 263.906 388.449 264.536 388.153 265.369C388.695 265.383 389.12 263.161 389.692 263.75C388.619 267.116 391.937 264.065 391.425 265.939C391.697 265.944 391.926 265.13 392.167 264.584C392.735 265.67 393.164 265.443 394.644 265.419C392.216 266.889 394.568 266.566 395.497 266.241C395.216 267.331 394.849 266.784 394.549 267.528C394.552 268.508 395.253 269.305 395.966 267.47C396.069 270.104 397.266 270.462 398.25 272.524C396.586 274.111 394.791 273.837 392.406 273.226C392.021 273.332 392.26 273.861 391.871 274.652C388.514 274.747 386.117 272.294 382.698 273.697C386.473 278.325 392.857 278.085 397.072 281.226C395.224 282.046 394.5 282.133 392.439 281.802C392.106 283.203 393.495 282.793 393.554 283.783C392.985 284.566 392.338 283.793 391.753 284.246C393.992 286.802 397.11 286.861 400.708 288.872C400.259 290.668 399.62 288.753 399.195 291.039C392.934 288.117 386.076 291.233 383.573 286.836C384.129 285.817 384.799 287.042 385.4 286.92C384.455 284.26 381.827 283.999 379.747 283.405C373.932 281.748 368.088 280.219 362.472 278.648C362.306 279.112 362.586 279.104 362.708 279.262C356.116 279.305 346.997 276.303 341.87 272.233C341.486 272.675 341.053 272.123 340.717 273.448C339.899 270.503 337.445 271.508 335.325 271.091C329.901 270.034 325.103 265.209 320.001 264.853C321.463 262.729 319.443 264.469 318.557 264.366C315.016 263.949 310.481 260.435 306.535 259.24C306.883 262.583 311.601 261.104 312.892 264.596C312.556 265.934 312.048 263.926 311.711 265.267C313.621 269.878 318.42 266.815 320.334 271.388C320.798 271.009 320.541 270.577 321.284 270.102C327.073 270.906 334.644 275.317 340.965 278.349C341.714 278.709 342.832 277.533 343.772 277.689C351.675 279.002 356.345 286.138 363.716 287.094C359.587 287.287 357.306 284.928 352.218 284.285C351.946 284.28 351.718 285.094 351.477 285.643C348.847 284.713 348.492 282.947 346.441 282.338C336.538 279.381 325.545 274.253 313.749 273.446C312.834 273.563 313.113 275.102 312.444 275.683C311.148 272.826 307.847 274.839 307.326 270.744C306.608 270.982 307.331 272.037 307.409 272.378C304.898 273.202 304.378 267.293 301.109 268.113C300.773 269.708 301.909 269.755 301.867 271.044C301.804 271.455 300.516 270.771 300.601 270.081C299.174 272.308 296.172 269.667 294.646 268.607C293.457 270.798 290.969 266.803 289.188 268.906C294.343 271.909 301.981 272.511 306.834 277.003C307.215 276.218 307.011 276.049 306.78 275.913C307.619 275.404 308.231 275.855 307.865 277.35C308.651 277.706 308.074 276.598 308.813 276.065C309.25 276.718 309.314 277.03 309.489 277.362C311.843 276.634 313.236 279.062 314.702 280.192C318.131 282.143 313.695 279.202 312.543 281.604C316.212 284.384 322.287 284.616 325.419 287.553C324.624 290.002 324.685 287.316 324.087 289.243C325.326 290.644 327.079 290.287 328.239 291.182C328.546 289.519 326.821 289.995 327.66 287.772C329.377 288.024 330.995 289.417 332.198 289.306C330.867 292.732 333.888 292.559 334.881 290.209C335.918 289.788 334.787 291.65 335.555 291.508C335.858 291.48 336.119 290.635 335.913 290.558C338.88 290.95 345.748 292.764 348.497 294.805C348.657 295.211 348.499 295.952 348.195 296.845C348.952 296.645 348.648 295.273 349.089 294.47C350.508 296.088 352.463 294.925 352.858 296.811C352.343 298.674 351.655 297.086 351.056 297.275C351.061 298.369 351.767 297.666 350.755 299.314C355.783 300.498 357.004 300.958 361.276 302.864C357.429 305.018 355.101 300.684 351.719 302.315C350.379 300.384 348.436 301.46 346.946 300.171C346.371 300.104 346.921 301.084 346.231 302.071C345.383 302.381 345.748 301.956 344.994 301.652C344.372 302.881 345.076 302.714 345.078 303.286C344.441 304.459 344.515 302.066 343.661 303.344C343.997 305.661 346.607 301.935 347.759 304.19C347.576 305.139 348.251 304.728 347.43 305.684C348.483 305.914 348.678 307.051 349.934 307.066C350.839 307.359 349.661 307.896 349.341 307.402C347.303 307.076 344.292 307.972 343.773 305.521C342.338 306.756 342.781 304.695 341.737 305.37C341.799 304.551 342.279 303.329 343.043 303.133C340.257 299.939 335.746 300.134 332.08 298.901C332.24 302.347 336.059 299.804 336.758 303.156C334.882 303.649 333.581 302.575 332.04 302.098C333.001 300.644 331.131 300.244 330.334 300.452C329.951 300.554 330.187 301.088 329.799 301.877C328.748 300.626 327.411 301.446 325.673 300.485C325.703 299.783 326.141 298.651 325.768 298.374C325.011 301.683 325.281 297.083 323.939 298.294C326.564 295.083 325.964 300.726 328.037 299.142C326.429 296.446 324.846 294.136 321.944 294.944C321.501 296.175 322.639 295.743 321.668 297.529C320.126 297.004 319.614 296.08 317.956 296.275C318.262 295.652 318.621 296.056 318.961 296.078C318.151 292.73 315.038 291.769 312.398 290.654C311.701 291.36 311.898 292.142 312.097 292.692C311.55 293.925 310.883 292.767 310.323 293.7C308.212 287.56 300.703 290.861 298.903 284.496C298.628 285.414 297.933 285.091 297.186 286.591C295.548 286.183 294.655 284.342 292.497 286.078C291.808 283.349 287.309 285.839 287.942 280.26C284.658 283.329 282.999 282.181 280.035 280.27C280.339 279.601 280.714 280.31 281.011 279.527C280.342 278.416 278.875 278.144 277.861 277.393C277.61 278.901 278.973 278.709 279.773 279.11C278.714 281.518 278.598 279.167 277.353 279.366C277.761 274.421 273.593 275.489 271.259 275.167C271.178 276.112 272.195 275.903 272.347 276.603C269.772 277.871 268.71 274.508 266.596 275.2C266.836 274.564 267.073 273.933 267.311 273.299C263.728 270.834 260.506 270.83 256.227 270.629C255.659 270.74 256.198 271.454 255.483 271.986C250.768 270.637 245.94 267.826 240.714 268.607C240.754 269.114 242.848 268.719 241.856 271.133C241.318 270.129 239.271 269.622 239.036 267.504C233.949 266.438 227.85 266.036 222.463 264.588C218.007 263.392 213.164 263.338 208.753 262.103C200.049 259.669 193.416 255.793 185.975 252.813C183.809 251.946 181.987 250.681 181.035 247.399C183.184 243.253 184.647 244.844 187.153 244.111C186.932 243.1 187.211 241.562 186.395 241.178C186.565 240.908 187.595 239.526 187.109 239.278C189.469 235.054 191.518 237.514 193.582 235.043C193.15 232.501 190.545 234.423 188.603 232.827C188.425 234.449 189.216 235.052 190.161 235.492C187.755 236.674 185.092 234.447 183.68 231.702C185.279 229.854 185.313 232.359 187.31 231.321C187.676 228.945 189.048 228.707 189.509 226.709C189.28 225.801 188.432 225.545 187.803 225.063C188.52 224.571 189.162 222.58 189.905 222.562C190.571 220.904 190.186 220.352 190.151 219.433C189.832 219.068 188.668 221.386 189.052 221.738C187.889 223.545 187.548 219.546 186.631 221.994C186.977 219.825 188.395 220.314 189.147 219.629C189.228 218.203 188.453 217.683 188.183 216.628C189.165 215.519 189.837 217.164 190.452 217.394C190.836 217.29 190.6 216.758 190.987 215.969C189.986 214.646 187.77 213.198 186.778 212.943C187.536 210.831 187.276 213.366 187.961 212.27C187.465 210.065 188.841 206.244 190.266 201.808C191.742 201.336 192.229 200.773 193.51 201.835C193.902 201.485 193.897 200.767 194.637 200.073C195.007 197.875 193.167 197.095 192.256 197.129C193.574 195.226 192.875 193.321 192.419 192.366C192.945 190.8 193.576 191.212 194.136 190.27C195.424 184.578 198.691 184.539 200.801 181.816C205.152 182.121 208.468 186.136 212.794 186.397C214.161 186.481 215.887 185.593 217.222 185.751C220.262 186.104 223.037 187.475 226.066 188.198C235.247 190.395 243.417 194.169 253.215 195.753C256.316 196.255 260.241 196.519 263.654 197.67C269.347 199.59 275.708 200.281 279.594 204.121C279.987 203.771 279.976 202.956 280.75 202.902C281.225 205.45 285.127 201.634 284.574 206.335Z" fill="#FF7B29" fill-opacity="0.3"/>
<path fill-rule="evenodd" clip-rule="evenodd" d="M250.148 132.472C249.437 133.542 249.848 131.405 249.145 132.666C249.652 133.855 249.173 136.08 250.165 136.758C250.023 135.561 250.491 135.508 250.85 134.314C250.125 135.949 249.334 133.595 250.148 132.472ZM224.516 130.779C224.086 130.761 224.338 131.6 223.952 131.658C220.91 130.712 217.987 127.891 214.077 128.864C212.101 126.357 208.914 126.529 206.416 125.743C204.609 125.175 202.983 123.102 200.516 125.359C203.936 126.905 207.878 127.375 210.447 129.244C214.312 129.333 218.561 131.585 223.622 133.154C223.799 133.543 222.967 134.993 223.322 135.193C223.814 134.247 224.326 133.707 224.86 133.573C231.626 136.531 237.44 138.47 241.833 140.37C242.006 140.788 241.379 143.49 242.329 142.142C242.198 141.942 241.909 140.551 242.452 140.579C244.776 142.492 253.192 143.371 255.561 147.143C255.367 146.964 255.438 146.507 255.505 146.052C258.935 147.609 262.744 147.024 264.817 149.729C262.252 146.665 259.468 142.88 255.422 144.419C255.6 143.943 255.779 143.468 255.957 142.995C254.142 144.937 253.504 140.641 252.601 140.79C248.849 144.349 248.867 138.986 245.792 138.495C244.303 140.951 242.272 138.765 241.695 137.646C236.533 136.196 230.081 134.24 224.516 130.779ZM266.713 147.157C267.306 147.983 266.303 148.42 265.794 148.987C265.88 150.219 267.039 150.271 268.063 149.754C266.622 150.208 268.117 146.952 267.566 147.981C267.223 147.874 266.955 149.26 266.618 149.268C266.913 148.435 267.219 147.807 267.539 147.436C266.823 147.931 267.223 145.951 266.713 147.157ZM268.927 146.835C268.32 151.558 272.592 149.803 273.894 152.794C274.389 151.904 274.921 151.712 275.46 151.717C276.286 152.28 278.07 154.248 279.353 152.494C278.606 152.325 278.911 151.047 278.444 150.584C277.693 151.899 275.803 151.568 275.613 150.696C276.383 148.842 276.118 151.264 276.794 150.026C275.234 149.721 271.029 150.36 268.927 146.835ZM279.588 153.11C280.81 153.021 281.464 155.757 282.86 153.678C281.749 154.093 280.486 151.727 279.588 153.11ZM260.897 148.407C260.329 148.254 259.496 149.16 259.564 150.098C260.054 150.425 260.488 149.67 260.897 148.407ZM266.316 151.309C266.015 152.004 265.73 153.086 265.395 153.139C264.672 152.466 262.77 151.594 261.917 152.497C268.344 156.237 275.66 158.541 279.592 161.138C279.393 161.189 279.18 161.014 279.001 161.475C279.58 162.235 280.043 160.698 280.568 160.397C282.357 162.682 285.843 162.682 287.439 164.412C287.368 164.849 287.667 164.894 287.899 165.011C287.778 164.781 287.608 164.598 287.439 164.412C287.462 164.274 287.521 164.093 287.639 163.853C289.62 165.077 290.563 163.573 290.995 166.057C291.646 164.272 292.5 166.427 293.151 164.645C286.254 160.574 274.802 157.742 267.665 153.903C267.777 152.501 268.92 153.291 268.407 152.546C267.724 153.633 267.993 151.313 267.197 152.674C267.63 155.235 266.424 152.889 266.316 151.309ZM317.826 171.362C318.297 169.729 317.205 170.269 316.588 170.945C317.215 171.338 316.986 172.629 318.087 172.523C318.476 171.732 318.238 171.201 318.622 171.097C319.462 170.979 318.16 173.115 319.119 172.87C319.413 172.009 319.742 171.827 320.096 172.126C320.967 169.46 318.964 169.165 317.826 171.362ZM324.841 173.729C324.476 172.345 322.538 171.486 321.278 171.457C321.41 175.91 325.047 172.309 325.364 176.046C325.673 175.479 325.995 175.166 326.34 175.307C327.31 172.617 325.765 173.063 324.841 173.729ZM315.957 174.481C316.812 174.153 316.179 175.395 316.427 175.706C316.783 174.765 317.215 175.293 317.552 173.946C316.869 173.438 316.838 173.03 315.957 174.481ZM297.542 167.195C302.244 168.867 305.923 172.131 310.951 171.717C306.957 170.077 303.067 167.768 297.542 167.195ZM292.187 161.642C292.303 161.711 292.406 161.796 292.216 162.187C291.871 162.039 291.55 162.373 291.24 162.927C291.883 163.609 292.431 162.433 293.013 161.921C292.458 162.244 292.858 160.266 292.187 161.642ZM295.533 167.587C296.14 166.223 296.886 167.617 297.513 166.649C297.145 166.367 297.321 165.513 297.224 164.945C295.101 166.748 295.418 163.498 293.181 165.187C293.462 167.019 296.948 165.376 295.533 167.587ZM270.709 161.886C270.988 162.199 270.436 162.483 270.174 163.311C271.424 162.34 270.063 165.05 271.233 164.204C270.903 163.794 271.075 163.316 271.563 162.708C271.337 162.524 271.07 160.99 270.709 161.886ZM309.387 180.826C308.943 181.387 308.529 182.526 308.056 182.516C308.858 180.158 306.501 180.554 306.432 182.505C307.335 181.099 309.08 184.831 311.796 184.315C311.996 181.075 310.498 181.935 309.387 180.826ZM320.461 187.239C321.189 187.209 321.887 189.716 322.523 187.935C322.386 187.341 321.352 185.19 320.461 187.239ZM325.441 189.454C325.469 190.378 326.341 190.246 326.857 189.398C326.467 188.89 326.184 188.643 325.441 189.454ZM326.885 189.939C326.959 191.114 328.531 192.21 329.594 191.391C328.534 190.687 328.046 189.146 326.885 189.939ZM205.124 152.068C206.232 153.3 207.209 154.072 208.425 153.181C208.094 152.181 206.047 151.489 205.124 152.068ZM209.044 153.389C209.391 153.625 209.95 155.077 210.694 153.947C210.668 153.375 209.59 152.466 209.044 153.389ZM191.329 147.949C190.313 146.852 188.494 147.199 187.23 147.1C188.294 147.813 189.293 148.514 191.329 147.949ZM198.756 150.454C200.727 150.993 202.899 152.505 204.889 151.454C202.057 151.08 201.114 149.343 198.756 150.454ZM290.546 177.146C290.207 176.902 289.261 174.975 288.512 176.991C289.63 176.881 289.582 178.61 290.546 177.146ZM305.841 182.84C306.474 181.396 305.574 180.571 304.988 182.018C305.025 183.204 305.812 181.825 305.841 182.84ZM320.612 186.217C318.093 186.863 316.736 183.288 313.86 185.011C316.296 185.424 317.516 188.35 320.612 186.217ZM299.624 180.207C301.605 180.37 303.022 183.514 305.14 180.996C303.088 181.208 301.739 177.2 299.624 180.207ZM250.237 169.966C250.727 171.077 252.177 171.177 252.205 172.771C250.815 171.718 247.782 169.917 246.457 171.367C250.048 173.369 253.811 173.414 256.855 176.481C256.764 176.865 256.509 177.419 256.706 177.5C256.943 176.868 257.182 176.233 257.42 175.599C257.773 176.53 259.6 177.432 260.485 176.101C259.33 173.468 256.528 172.449 254.598 171.972C254.585 172.246 255.337 173.013 254.654 173.063C253.634 171.742 251.74 169.824 250.237 169.966ZM264.763 176.473C263.905 177.21 264.188 175.461 263.346 176.528C263.606 176.766 263.447 178.864 264.022 177.826C263.898 177.669 263.93 177.348 264.171 176.809C264.448 176.943 265 176.969 264.763 176.473ZM265.175 176.611C264.937 177.244 264.7 177.878 264.461 178.511C267.961 181.137 270.569 181.012 274.625 183.014C272.449 177.696 268.009 180.852 265.175 176.611ZM275.451 183.29C276.015 184.402 279.904 183.549 278.602 185.422C278.568 186.007 280.882 184.507 280.788 184.555C279.368 183.764 276.708 181.651 275.451 183.29ZM282.025 184.974C281.788 185.628 281.536 185.982 281.284 186.329C281.575 186.783 281.55 188.264 282.315 186.676C281.948 186.394 282.123 185.539 282.025 184.974ZM245.619 174.83C246.471 176.135 248.642 176.047 248.442 178.458C248.096 178.311 247.775 178.648 247.466 179.197C248.884 177.824 247.194 181.376 248.318 180.021C248.923 178.613 251.622 180.997 252.36 179.781C251.227 176.697 248.608 174.034 245.619 174.83ZM237.918 174.909C238.95 178.627 239.653 174.323 242.279 176.915C242.253 174.721 238.836 175.09 241.027 172.208C239.077 174.514 236.74 169.116 234.659 170.595C234.733 171.663 235.771 171.718 235.209 173.457C235.197 172.834 234.324 172.965 233.793 173.517C235.376 173.664 236.378 176.251 237.918 174.909ZM233.765 172.972C233.232 173.109 232.631 171.926 232.142 172.959C232.792 173.44 232.929 174.263 233.765 172.972ZM150.683 154.038C147.625 153.748 147.702 152.321 144.962 153.177C146.007 154.268 148.832 156.562 150.683 154.038ZM134.702 150.785C135.354 151.151 136.513 150.981 136.588 151.957C136.741 150.072 135.716 149.562 134.702 150.785ZM229.248 183.756C231.367 184.072 231.878 186.795 233.346 184.605C232.339 185.405 230.467 181.796 229.248 183.756ZM248.366 192.883C248.188 193.358 248.008 193.835 247.831 194.308C248.022 194.98 249.551 194.662 249.357 196.431C250.674 193.537 251.863 197.395 253.635 196.801C253.196 193.605 250.009 194.815 248.366 192.883ZM254.817 196.132C255.263 199.829 258.865 197.383 259.137 201.337C255.614 200.507 253.122 197.471 248.588 197.241C248.787 197.798 249.557 197.752 249.469 198.608C247.392 199.135 247.121 197.402 246.676 195.525C246.338 196.851 245.905 196.299 245.522 196.741C245.353 195.453 244.952 193.5 243.609 195.025C249.313 202.395 263.159 206.816 269.648 208.628C265.875 205.686 262.421 206.438 259.84 203.177C261.987 201.438 262.518 206.622 265.355 203.968C264.007 204.08 262.762 201.967 261.587 201.624C261.213 203.034 259.545 200.628 261.242 198.834C259.264 198.157 256.327 197.309 254.817 196.132ZM267.24 205.139C269.149 207.104 270.622 206.78 272.603 206.951C270.594 205.392 269.226 203.432 267.24 205.139ZM285.245 212.286C285.786 212.288 286.316 212.098 286.811 211.21C286.19 210.892 285.352 209.321 284.335 210.373C284.491 211.414 285.795 211.245 285.629 211.879C285.495 211.863 285.359 211.868 285.245 212.286ZM288.228 211.15C287.212 213.593 287.265 211.138 286.839 211.753C287.114 211.986 286.591 212.842 286.303 213.178C288.245 212.522 288.061 214.758 290.318 212.391C290.641 213.487 292.35 213.12 291.874 215.058C292.573 214.228 292.082 214.447 292.587 213.159C291.353 213.12 291.101 212.044 290.47 211.371C289.579 213.915 288.762 211.532 288.228 211.15ZM294.059 214.19C295.605 214.141 295.272 216.29 296.386 216.043C295.89 215.225 296.572 213.17 295.806 212.635C295.441 215.329 295.18 212.552 294.059 214.19ZM241.038 196.299C239.69 192.179 235.671 192.355 233.061 190.929C233.489 191.223 233.058 192.358 232.553 192.902C235.427 194.492 238.163 196.41 241.038 196.299ZM279.591 208.773C279.186 208.757 279.03 206.606 278.944 208.016C279.06 208.088 279.161 208.172 278.972 208.564C278.185 208.531 277.885 207.985 277.5 207.531C276.803 209.236 279.095 209.275 279.591 208.773ZM276.639 218.48C276.706 219.851 277.654 218.207 278.262 218.493C278.163 218.756 278.227 219.086 278.468 218.563C278.321 217.054 277.604 217.748 276.639 218.48ZM233.121 124.584C234.177 123.418 233.566 124.067 234.453 122.892C239.555 126.028 242.684 126.991 247.562 129.456C247.378 129.829 247.177 129.859 246.999 130.336C247.661 130.251 249.469 128.885 249.295 131.65C249.618 131.366 249.933 130.889 250.244 130.361C250.457 130.52 250.092 131.288 249.915 131.856C250.115 131.823 250.299 131.449 250.504 131.521C251.268 131.24 250.019 130.852 251.041 130.096C252.346 130.972 251.358 132.876 253.311 130.861C254.197 131.494 254.312 133.411 255.607 132.17C255.936 132.582 255.766 133.06 255.278 133.668C256.857 132.306 257.309 133.973 258.758 134.306C258.383 134.896 257.984 135.041 257.575 134.977C257.128 136.667 258.747 135.043 258.484 136.89C257.674 137.149 257.053 138.247 256.683 137.35C256.905 140.369 260.906 140.737 262.336 140.866C261.627 141.241 261.736 143.385 262.365 141.409C262.566 141.962 262.049 143.272 262.475 143.588C262.001 144.803 261.26 143.943 261.349 145.348C261.998 145.713 262.086 143.309 263.095 143.795C263.056 142.978 262.442 142.762 263.161 141.144C263.447 141.438 263.691 140.904 263.933 140.331C264.365 141.59 262.369 141.986 263.244 142.778C264.136 141.495 265.996 141.589 266.847 141.851C265.345 139.59 262.978 140.954 261.607 138.478C262.837 135.734 263.585 137.63 263.848 138.699C264.422 138.764 263.872 137.786 264.562 136.799C264.681 137.175 266.023 137.44 266.212 137.356C266.527 138.719 265.061 138.234 264.672 138.978C265.069 139.237 266.378 141.333 267.863 137.914C267.789 138.948 267.448 140.263 268.001 140.636C268.069 140.182 268.141 139.725 267.946 139.546C268.945 138.895 267.806 141.923 266.875 142.396C268.808 144.642 273.866 145.803 277.892 147.721C279.853 148.652 282.275 149.295 283.725 150.757C284.63 151.672 288.497 152.624 290.74 153.124C290.964 153.364 290.463 154.373 290.233 155.093C292.595 152.846 293.623 156.342 296.779 156.233C296.99 156.391 296.627 157.158 296.449 157.726C296.761 158.081 297.886 156.564 297.096 158.48C300.182 156.257 302.219 159.433 304.261 159.827C304.548 159.885 305.083 159.044 305.03 159.017C305.45 159.23 305.413 160.897 306.146 160.998C307.006 161.118 307.257 161.416 308.03 162.171C308.729 162.85 310.218 164.05 310.562 164.094C310.832 164.13 311.151 163.034 311.538 163.352C311.848 163.612 311.454 164.507 311.603 164.895C311.72 164.693 313.419 165.127 314.247 164.804C313.333 166.621 317.46 165.915 318.841 167.423C318.363 168.351 317.872 168.145 317.922 169.254C319.352 168.947 320.27 166.525 320.575 169.615C322.257 167.971 322.414 169.255 324.026 169.709C323.67 170.651 323.237 170.122 322.901 171.47C323.854 169.779 323.841 172.205 324.878 170.533C325.034 170.682 324.888 171.133 324.717 171.355C326.548 169.984 328.48 171.846 329.653 172.678C328.93 173.89 329.139 174.422 328.526 174.44C328.874 175.258 330.114 176.215 328.9 177.773C329.412 177.327 329.627 177.398 329.724 178.054C330.003 177.482 329.965 177.238 329.835 177.095C331.903 178.763 335.019 180.668 336.232 182.39C336.778 181.204 336.531 182.181 337.62 181.788C337.302 182.156 336.995 182.785 336.699 183.618C337.241 183.632 337.667 181.41 338.239 181.999C337.166 185.366 340.483 182.314 339.972 184.188C340.243 184.193 340.472 183.379 340.714 182.833C341.281 183.919 341.711 183.693 343.19 183.668C340.762 185.138 343.115 184.815 344.044 184.49C343.762 185.58 343.395 185.034 343.095 185.777C343.099 186.757 343.799 187.554 344.512 185.719C344.616 188.353 345.812 188.711 346.797 190.773C345.132 192.36 343.337 192.087 340.952 191.475C340.568 191.581 340.807 192.11 340.418 192.901C337.061 192.996 334.664 190.543 331.245 191.946C335.02 196.575 341.404 196.334 345.618 199.475C343.77 200.296 343.046 200.382 340.985 200.051C340.653 201.453 342.041 201.042 342.1 202.032C341.531 202.815 340.884 202.043 340.299 202.495C342.539 205.051 345.656 205.11 349.254 207.122C348.805 208.918 348.166 207.002 347.742 209.288C341.481 206.366 334.623 209.483 332.119 205.085C332.675 204.066 333.345 205.292 333.947 205.17C333.002 202.509 330.373 202.248 328.294 201.654C322.478 199.998 316.635 198.468 311.019 196.897C310.852 197.361 311.133 197.354 311.254 197.511C304.662 197.554 295.543 194.552 290.416 190.483C290.033 190.924 289.599 190.372 289.263 191.697C288.445 188.753 285.991 189.757 283.871 189.34C278.447 188.283 273.649 183.459 268.547 183.102C270.01 180.978 267.989 182.718 267.104 182.615C263.562 182.198 259.028 178.685 255.082 177.489C255.429 180.833 260.147 179.353 261.439 182.845C261.102 184.183 260.594 182.176 260.257 183.516C262.167 188.127 266.967 185.064 268.88 189.638C269.344 189.259 269.087 188.827 269.83 188.351C275.62 189.155 283.19 193.566 289.511 196.598C290.26 196.959 291.379 195.782 292.319 195.938C300.221 197.251 304.892 204.387 312.263 205.344C308.134 205.536 305.852 203.177 300.764 202.534C300.493 202.53 300.265 203.344 300.023 203.892C297.393 202.962 297.038 201.196 294.987 200.587C285.085 197.63 274.092 192.503 262.296 191.695C261.381 191.812 261.66 193.351 260.99 193.932C259.695 191.075 256.393 193.088 255.872 188.993C255.155 189.232 255.877 190.287 255.956 190.627C253.444 191.451 252.925 185.542 249.655 186.362C249.32 187.957 250.455 188.004 250.414 189.293C250.351 189.704 249.063 189.021 249.148 188.331C247.72 190.557 244.718 187.916 243.193 186.856C242.003 189.047 239.516 185.052 237.734 187.156C242.889 190.158 250.528 190.76 255.38 195.252C255.761 194.467 255.557 194.298 255.326 194.162C256.165 193.653 256.778 194.104 256.412 195.599C257.198 195.956 256.621 194.848 257.359 194.314C257.796 194.967 257.86 195.279 258.035 195.611C260.389 194.883 261.782 197.311 263.249 198.441C266.677 200.392 262.242 197.451 261.089 199.854C264.758 202.633 270.834 202.865 273.965 205.802C273.17 208.252 273.231 205.565 272.633 207.492C273.873 208.893 275.626 208.537 276.786 209.431C277.092 207.769 275.367 208.245 276.207 206.021C277.924 206.274 279.541 207.666 280.744 207.555C279.414 210.981 282.434 210.809 283.427 208.458C284.465 208.037 283.333 209.899 284.101 209.757C284.405 209.729 284.665 208.885 284.459 208.808C287.427 209.199 294.294 211.013 297.043 213.054C297.203 213.46 297.045 214.201 296.742 215.095C297.498 214.894 297.194 213.522 297.635 212.72C299.055 214.337 301.009 213.175 301.404 215.06C300.889 216.923 300.202 215.336 299.602 215.524C299.608 216.618 300.314 215.916 299.301 217.563C304.33 218.747 305.55 219.207 309.823 221.113C305.975 223.268 303.647 218.933 300.266 220.564C298.925 218.633 296.983 219.709 295.492 218.42C294.918 218.353 295.468 219.333 294.778 220.32C293.929 220.631 294.295 220.205 293.54 219.901C292.918 221.13 293.622 220.963 293.624 221.535C292.987 222.708 293.062 220.315 292.208 221.593C292.544 223.911 295.154 220.184 296.305 222.439C296.123 223.389 296.798 222.978 295.977 223.933C297.03 224.163 297.224 225.301 298.48 225.315C299.385 225.608 298.208 226.146 297.888 225.651C295.85 225.325 292.838 226.221 292.319 223.77C290.884 225.005 291.328 222.945 290.283 223.619C290.345 222.8 290.826 221.578 291.589 221.382C288.803 218.188 284.293 218.383 280.626 217.15C280.787 220.596 284.606 218.053 285.304 221.405C283.429 221.898 282.127 220.824 280.587 220.347C281.548 218.893 279.677 218.493 278.881 218.701C278.497 218.803 278.733 219.338 278.346 220.127C277.295 218.875 275.958 219.695 274.22 218.734C274.25 218.032 274.687 216.9 274.315 216.623C273.557 219.932 273.828 215.333 272.486 216.543C275.111 213.332 274.51 218.975 276.583 217.392C274.975 214.696 273.392 212.385 270.491 213.193C270.047 214.425 271.185 213.992 270.215 215.778C268.673 215.253 268.161 214.329 266.502 214.525C266.808 213.902 267.167 214.305 267.507 214.327C266.698 210.98 263.584 210.018 260.944 208.903C260.248 209.609 260.444 210.392 260.643 210.942C260.097 212.175 259.43 211.016 258.87 211.95C256.758 205.809 249.249 209.11 247.449 202.745C247.174 203.664 246.48 203.34 245.733 204.84C244.095 204.432 243.201 202.591 241.043 204.328C240.354 201.598 235.856 204.088 236.488 198.509C233.204 201.578 231.545 200.43 228.581 198.52C228.885 197.851 229.261 198.559 229.558 197.776C228.888 196.665 227.421 196.393 226.407 195.643C226.157 197.15 227.52 196.959 228.32 197.359C227.26 199.768 227.144 197.417 225.9 197.615C226.307 192.67 222.14 193.739 219.805 193.416C219.724 194.361 220.741 194.152 220.893 194.852C218.319 196.12 217.256 192.757 215.143 193.449C215.382 192.814 215.619 192.182 215.857 191.549C212.274 189.083 209.052 189.079 204.773 188.879C204.206 188.989 204.744 189.703 204.03 190.235C199.314 188.886 194.486 186.075 189.26 186.856C189.301 187.364 191.395 186.968 190.403 189.382C189.865 188.378 187.817 187.871 187.583 185.754C182.496 184.688 176.396 184.286 171.009 182.837C166.553 181.642 161.711 181.587 157.299 180.353C148.595 177.918 141.963 174.042 134.521 171.062C132.356 170.195 130.534 168.93 129.582 165.649C131.731 161.502 133.194 163.093 135.7 162.36C135.479 161.349 135.758 159.811 134.941 159.427C135.111 159.157 136.142 157.775 135.655 157.527C138.015 153.303 140.064 155.763 142.129 153.293C141.697 150.75 139.091 152.673 137.15 151.076C136.972 152.698 137.762 153.301 138.707 153.741C136.301 154.923 133.638 152.696 132.227 149.951C133.826 148.103 133.86 150.608 135.856 149.571C136.223 147.195 137.594 146.956 138.055 144.959C137.827 144.051 136.978 143.795 136.349 143.312C137.066 142.82 137.708 140.829 138.451 140.811C139.117 139.153 138.732 138.602 138.697 137.682C138.378 137.317 137.214 139.635 137.598 139.987C136.435 141.794 136.095 137.796 135.178 140.243C135.524 138.074 136.941 138.563 137.693 137.878C137.775 136.453 136.999 135.932 136.729 134.877C137.711 133.768 138.384 135.414 138.998 135.643C139.383 135.539 139.147 135.007 139.533 134.218C138.532 132.895 136.317 131.447 135.325 131.192C136.082 129.08 135.823 131.615 136.508 130.519C136.011 128.314 137.388 124.494 138.812 120.057C140.289 119.585 140.775 119.023 142.056 120.084C142.449 119.734 142.443 119.016 143.184 118.322C143.553 116.124 141.714 115.344 140.802 115.379C142.12 113.475 141.421 111.57 140.965 110.616C141.492 109.049 142.122 109.461 142.683 108.519C143.97 102.827 147.237 102.788 149.348 100.065C153.699 100.37 157.015 104.385 161.341 104.646C162.708 104.73 164.433 103.842 165.768 104C168.808 104.353 171.584 105.724 174.612 106.447C183.793 108.644 191.963 112.418 201.761 114.003C204.863 114.504 208.788 114.768 212.2 115.919C217.893 117.839 224.255 118.53 228.141 122.37C228.534 122.02 228.523 121.205 229.296 121.151C229.772 123.699 233.674 119.883 233.121 124.584Z" fill="#FF7B29" fill-opacity="0.3"/>
<path fill-rule="evenodd" clip-rule="evenodd" d="M163.254 285.835C163.955 284.759 163.564 286.9 164.255 285.632C163.738 284.447 164.196 282.219 163.199 281.55C163.351 282.745 162.883 282.802 162.536 284C163.246 282.358 164.057 284.705 163.254 285.835ZM188.9 287.297C189.33 287.311 189.07 286.474 189.456 286.413C192.507 287.331 195.455 290.125 199.356 289.118C201.355 291.607 204.54 291.406 207.045 292.169C208.857 292.721 210.501 294.779 212.948 292.501C209.514 290.985 205.568 290.551 202.982 288.705C199.117 288.651 194.848 286.437 189.772 284.914C189.593 284.527 190.411 283.07 190.054 282.873C189.57 283.823 189.063 284.367 188.531 284.506C181.738 281.609 175.907 279.723 171.497 277.862C171.32 277.446 171.923 274.739 170.986 276.095C171.118 276.293 171.42 277.682 170.876 277.659C168.535 275.767 160.112 274.964 157.709 271.213C157.905 271.391 157.838 271.849 157.775 272.304C154.33 270.778 150.527 271.397 148.43 268.712C151.022 271.752 153.841 275.512 157.872 273.937C157.698 274.413 157.524 274.89 157.35 275.365C159.147 273.407 159.824 277.697 160.725 277.54C164.445 273.947 164.476 279.309 167.555 279.773C169.022 277.304 171.072 279.471 171.66 280.585C176.834 281.989 183.304 283.887 188.9 287.297ZM146.557 271.3C145.956 270.479 146.956 270.034 147.46 269.462C147.363 268.231 146.203 268.19 145.184 268.716C146.621 268.249 145.155 271.518 145.696 270.484C146.041 270.588 146.296 269.2 146.633 269.188C146.346 270.024 146.045 270.655 145.728 271.028C146.44 270.527 146.058 272.511 146.557 271.3ZM144.346 271.642C144.911 266.913 140.654 268.707 139.325 265.728C138.838 266.623 138.308 266.82 137.769 266.819C136.938 266.264 135.136 264.312 133.869 266.077C134.618 266.24 134.324 267.521 134.795 267.979C135.535 266.658 137.428 266.971 137.625 267.842C136.872 269.703 137.115 267.279 136.451 268.522C138.013 268.814 142.212 268.136 144.346 271.642ZM133.629 265.463C132.408 265.564 131.729 262.833 130.351 264.925C131.459 264.5 132.744 266.855 133.629 265.463ZM152.362 269.998C152.931 270.146 153.755 269.233 153.679 268.294C153.186 267.972 152.759 268.731 152.362 269.998ZM146.917 267.145C147.211 266.447 147.486 265.362 147.821 265.307C148.55 265.973 150.46 266.827 151.304 265.918C144.844 262.235 137.508 259.997 133.553 257.436C133.751 257.383 133.966 257.556 134.141 257.093C133.554 256.339 133.105 257.88 132.583 258.186C130.774 255.917 127.287 255.949 125.677 254.233C125.743 253.795 125.444 253.753 125.211 253.638C125.334 253.867 125.505 254.049 125.677 254.233C125.655 254.371 125.597 254.553 125.481 254.794C123.49 253.588 122.56 255.1 122.105 252.62C121.471 254.411 120.597 252.264 119.962 254.051C126.896 258.06 138.373 260.789 145.544 264.563C145.445 265.966 144.295 265.186 144.814 265.927C145.487 264.833 145.24 267.156 146.023 265.788C145.567 263.231 146.794 265.566 146.917 267.145ZM95.2274 247.557C94.7714 249.195 95.8585 248.644 96.4697 247.963C95.839 247.576 96.0566 246.282 94.9558 246.399C94.5747 247.193 94.8169 247.722 94.4338 247.829C93.5951 247.955 94.8782 245.808 93.9212 246.061C93.6352 246.925 93.3079 247.11 92.9511 246.813C92.1038 249.488 94.1097 249.765 95.2274 247.557ZM88.1916 245.253C88.5687 246.634 90.5151 247.475 91.7749 247.493C91.6029 243.042 87.9983 246.676 87.6478 242.941C87.3438 243.511 87.0244 243.828 86.6785 243.689C85.7325 246.387 87.274 245.928 88.1916 245.253ZM97.0687 244.422C96.2163 244.757 96.8388 243.509 96.588 243.201C96.2395 244.145 95.803 243.62 95.4786 244.971C96.1663 245.472 96.2005 245.88 97.0687 244.422ZM115.549 251.541C110.831 249.911 107.123 246.681 102.1 247.14C106.108 248.744 110.018 251.018 115.549 251.541ZM120.953 257.046C120.837 256.977 120.733 256.894 120.92 256.5C121.266 256.646 121.584 256.309 121.889 255.752C121.24 255.076 120.702 256.256 120.125 256.774C120.677 256.446 120.295 258.427 120.953 257.046ZM117.553 251.131C116.96 252.501 116.201 251.113 115.583 252.087C115.953 252.366 115.784 253.221 115.887 253.788C117.993 251.967 117.705 255.218 119.928 253.51C119.63 251.68 116.159 253.355 117.553 251.131ZM142.429 256.608C142.147 256.297 142.696 256.008 142.951 255.178C141.709 256.16 143.045 253.439 141.883 254.295C142.217 254.702 142.05 255.182 141.567 255.793C141.795 255.976 142.075 257.508 142.429 256.608ZM103.581 238.017C104.02 237.452 104.424 236.31 104.897 236.316C104.116 238.681 106.469 238.263 106.521 236.312C105.631 237.726 103.852 234.01 101.141 234.551C100.97 237.792 102.461 236.919 103.581 238.017ZM92.4498 231.704C91.7217 231.741 91.0017 229.241 90.3812 231.027C90.5233 231.62 91.5769 233.762 92.4498 231.704ZM87.45 229.535C87.4136 228.611 86.5426 228.75 86.0349 229.603C86.4286 230.108 86.714 230.352 87.45 229.535ZM86.0015 229.063C85.917 227.889 84.3347 226.806 83.2794 227.635C84.3458 228.33 84.848 229.866 86.0015 229.063ZM208.099 265.834C206.98 264.612 205.996 263.848 204.788 264.751C205.128 265.747 207.181 266.421 208.099 265.834ZM204.167 264.548C203.818 264.316 203.246 262.869 202.513 264.005C202.544 264.577 203.63 265.476 204.167 264.548ZM221.931 269.828C222.956 270.916 224.772 270.553 226.038 270.641C224.967 269.937 223.961 269.245 221.931 269.828ZM214.481 267.39C212.505 266.869 210.32 265.376 208.34 266.446C211.175 266.794 212.133 268.523 214.481 267.39ZM122.454 241.528C122.795 241.768 123.759 243.687 124.49 241.664C123.373 241.784 123.406 240.055 122.454 241.528ZM107.109 235.971C106.489 237.421 107.396 238.238 107.969 236.786C107.921 235.6 107.147 236.986 107.109 235.971ZM92.3083 232.728C94.8209 232.059 96.2097 235.622 99.0709 233.873C96.6313 233.481 95.3849 230.568 92.3083 232.728ZM113.349 238.549C111.367 238.403 109.922 235.272 107.827 237.809C109.876 237.579 111.261 241.574 113.349 238.549ZM162.826 248.343C162.326 247.237 160.876 247.15 160.833 245.556C162.233 246.597 165.282 248.371 166.594 246.908C162.985 244.939 159.222 244.928 156.15 241.889C156.238 241.504 156.487 240.947 156.29 240.869C156.058 241.502 155.826 242.14 155.594 242.776C155.232 241.848 153.396 240.962 152.524 242.302C153.702 244.924 156.513 245.917 158.448 246.377C158.458 246.103 157.7 245.343 158.382 245.287C159.414 246.599 161.325 248.499 162.826 248.343ZM148.242 241.968C149.094 241.223 148.827 242.975 149.659 241.9C149.396 241.664 149.537 239.565 148.972 240.609C149.096 240.764 149.068 241.085 148.832 241.626C148.554 241.495 148.001 241.474 148.242 241.968ZM147.829 241.834C148.061 241.198 148.293 240.562 148.526 239.927C145.002 237.333 142.396 237.482 138.322 235.516C140.546 240.815 144.957 237.618 147.829 241.834ZM137.494 235.247C136.919 234.14 133.038 235.029 134.324 233.144C134.352 232.558 132.051 234.079 132.145 234.031C133.572 234.809 136.251 236.897 137.494 235.247ZM130.904 233.623C131.136 232.967 131.384 232.61 131.634 232.261C131.338 231.809 131.35 230.328 130.599 231.924C130.969 232.202 130.801 233.058 130.904 233.623ZM167.4 243.438C166.537 242.141 164.367 242.248 164.545 239.836C164.893 239.979 165.211 239.64 165.514 239.087C164.109 240.474 165.766 236.906 164.655 238.271C164.063 239.685 161.342 237.325 160.615 238.548C161.776 241.621 164.419 244.261 167.4 243.438ZM175.1 243.29C174.035 239.581 173.371 243.891 170.721 241.323C170.767 243.517 174.181 243.117 172.016 246.019C173.945 243.695 176.331 249.072 178.398 247.574C178.314 246.506 177.277 246.461 177.822 244.717C177.84 245.34 178.712 245.201 179.238 244.644C177.653 244.512 176.628 241.933 175.1 243.29ZM179.271 245.189C179.803 245.048 180.414 246.224 180.894 245.187C180.239 244.712 180.095 243.89 179.271 245.189ZM262.52 263.373C265.581 263.635 265.516 265.063 268.248 264.182C267.194 263.101 264.348 260.832 262.52 263.373ZM278.53 266.481C277.875 266.121 276.717 266.302 276.634 265.327C276.497 267.213 277.527 267.714 278.53 266.481ZM183.69 234.365C181.569 234.067 181.033 231.349 179.585 233.553C180.585 232.744 182.489 236.335 183.69 234.365ZM164.491 225.411C164.665 224.934 164.84 224.455 165.013 223.981C164.816 223.311 163.289 223.643 163.467 221.871C162.177 224.777 160.953 220.93 159.186 221.54C159.655 224.732 162.83 223.493 164.491 225.411ZM158.011 222.22C157.531 218.527 153.952 221.006 153.644 217.054C157.174 217.852 159.693 220.865 164.229 221.055C164.026 220.5 163.256 220.553 163.336 219.695C165.409 219.15 165.695 220.881 166.157 222.754C166.483 221.424 166.921 221.972 167.3 221.527C167.481 222.814 167.9 224.763 169.228 223.226C163.458 215.907 149.573 211.611 143.067 209.858C146.867 212.766 150.314 211.983 152.924 215.22C150.793 216.979 150.215 211.8 147.403 214.479C148.749 214.355 150.013 216.456 151.192 216.789C151.553 215.375 153.242 217.767 151.562 219.576C153.545 220.235 156.49 221.057 158.011 222.22ZM145.507 213.325C143.581 211.378 142.111 211.715 140.128 211.562C142.15 213.103 143.537 215.051 145.507 213.325ZM127.439 206.341C126.898 206.344 126.369 206.539 125.882 207.431C126.506 207.744 127.358 209.307 128.365 208.246C128.2 207.206 126.898 207.387 127.058 206.752C127.192 206.766 127.328 206.76 127.439 206.341ZM124.465 207.504C125.46 205.052 125.428 207.508 125.849 206.889C125.572 206.658 126.088 205.797 126.372 205.459C124.436 206.132 124.601 203.895 122.364 206.282C122.032 205.189 120.326 205.571 120.784 203.629C120.093 204.465 120.582 204.242 120.089 205.534C121.323 205.562 121.585 206.636 122.222 207.303C123.09 204.752 123.928 207.127 124.465 207.504ZM118.607 204.517C117.062 204.579 117.375 202.428 116.264 202.684C116.767 203.498 116.104 205.56 116.874 206.087C117.215 203.391 117.502 206.164 118.607 204.517ZM171.787 221.928C173.172 226.037 177.19 225.824 179.813 227.226C179.382 226.936 179.803 225.798 180.303 225.249C177.414 223.685 174.661 221.792 171.787 221.928ZM133.124 209.803C133.529 209.815 133.704 211.964 133.777 210.553C133.661 210.483 133.559 210.4 133.745 210.006C134.532 210.032 134.836 210.575 135.226 211.026C135.908 209.314 133.615 209.296 133.124 209.803ZM135.988 200.07C135.909 198.699 134.975 200.352 134.365 200.071C134.462 199.808 134.394 199.477 134.158 200.003C134.319 201.511 135.03 200.81 135.988 200.07ZM180.351 293.569C179.305 294.744 179.911 294.09 179.034 295.273C173.905 292.184 170.767 291.248 165.867 288.827C166.048 288.453 166.248 288.421 166.422 287.943C165.761 288.034 163.965 289.416 164.114 286.65C163.794 286.936 163.484 287.416 163.177 287.947C162.962 287.79 163.321 287.019 163.493 286.449C163.292 286.484 163.112 286.859 162.906 286.789C162.145 287.077 163.397 287.454 162.383 288.219C161.069 287.355 162.041 285.442 160.106 287.475C159.214 286.85 159.082 284.933 157.797 286.186C157.465 285.777 157.631 285.298 158.113 284.686C156.546 286.061 156.08 284.399 154.628 284.079C154.997 283.486 155.395 283.337 155.804 283.397C156.237 281.703 154.632 283.342 154.878 281.493C155.686 281.226 156.297 280.123 156.675 281.016C156.426 277.999 152.422 277.668 150.99 277.552C151.696 277.17 151.567 275.027 150.957 277.009C150.75 276.457 151.256 275.143 150.827 274.831C151.29 273.611 152.039 274.465 151.937 273.061C151.285 272.702 151.218 275.106 150.205 274.63C150.252 275.447 150.867 275.657 150.163 277.281C149.874 276.99 149.636 277.526 149.399 278.101C148.955 276.846 150.948 276.432 150.065 275.648C149.185 276.939 147.325 276.861 146.47 276.607C147.994 278.855 150.348 277.469 151.741 279.932C150.536 282.688 149.771 280.798 149.498 279.732C148.923 279.673 149.482 280.645 148.801 281.639C148.679 281.263 147.335 281.011 147.147 281.096C146.819 279.736 148.29 280.208 148.671 279.461C148.273 279.205 146.945 277.121 145.49 280.553C145.555 279.518 145.884 278.201 145.328 277.832C145.264 278.287 145.196 278.745 145.392 278.922C144.399 279.582 145.511 276.544 146.438 276.062C144.485 273.834 139.416 272.718 135.373 270.837C133.404 269.924 130.976 269.302 129.513 267.854C128.6 266.947 124.724 266.03 122.477 265.55C122.251 265.312 122.743 264.299 122.967 263.577C120.624 265.845 119.565 262.358 116.41 262.496C116.198 262.339 116.554 261.57 116.727 261C116.412 260.647 115.3 262.175 116.073 260.252C113.008 262.502 110.942 259.345 108.896 258.97C108.609 258.914 108.081 259.76 108.134 259.787C107.713 259.577 107.735 257.91 107.001 257.816C106.139 257.703 105.886 257.408 105.106 256.659C104.402 255.987 102.902 254.8 102.557 254.76C102.287 254.726 101.977 255.825 101.588 255.51C101.275 255.253 101.662 254.354 101.508 253.967C101.394 254.171 99.6912 253.752 98.8659 254.082C99.7631 252.258 95.6433 253 94.248 251.505C94.7183 250.573 95.2106 250.775 95.1505 249.666C93.7238 249.986 92.8274 252.416 92.4945 249.329C90.8273 250.988 90.6585 249.705 89.0428 249.266C89.3906 248.321 89.8277 248.846 90.1521 247.495C89.2139 249.194 89.2057 246.769 88.1831 248.449C88.0262 248.303 88.1683 247.85 88.3367 247.626C86.5184 249.014 84.5695 247.169 83.3894 246.348C84.1016 245.129 83.8872 244.6 84.5003 244.576C84.1451 243.761 82.8963 242.815 84.0967 241.246C83.588 241.697 83.3732 241.628 83.2696 240.973C82.9963 241.548 83.0358 241.791 83.1676 241.933C81.0841 240.283 77.9515 238.406 76.7232 236.696C76.1881 237.886 76.4257 236.908 75.3408 237.31C75.6554 236.94 75.956 236.307 76.2448 235.472C75.7025 235.463 75.2971 237.688 74.7201 237.104C75.7627 233.729 72.4727 236.81 72.9672 234.931C72.6956 234.929 72.4743 235.745 72.2377 236.293C71.6605 235.212 71.2329 235.443 69.7537 235.48C72.168 233.989 69.8186 234.333 68.8926 234.666C69.1643 233.573 69.5365 234.117 69.8299 233.371C69.8172 232.391 69.1097 231.6 68.4131 233.441C68.2858 230.808 67.0861 230.461 66.0832 228.408C67.7332 226.806 69.5305 227.063 71.9209 227.653C72.3047 227.544 72.061 227.017 72.4428 226.223C75.7986 226.097 78.2178 228.529 81.6241 227.095C77.8075 222.501 71.4257 222.799 67.1831 219.696C69.0238 218.859 69.7469 218.766 71.8109 219.078C72.1307 217.674 70.7455 218.097 70.6781 217.107C71.2397 216.32 71.8939 217.086 72.4747 216.628C70.2121 214.093 67.094 214.061 63.4784 212.082C63.9113 210.283 64.5676 212.192 64.9713 209.903C71.2583 212.768 78.0877 209.59 80.631 213.964C80.0844 214.988 79.403 213.769 78.8028 213.896C79.7719 216.549 82.4023 216.786 84.4874 217.361C90.3175 218.965 96.1746 220.441 101.804 221.961C101.967 221.496 101.686 221.506 101.563 221.35C108.155 221.247 117.3 224.167 122.464 228.19C122.843 227.745 123.282 228.293 123.606 226.965C124.45 229.902 126.896 228.876 129.019 229.273C134.452 230.282 139.294 235.063 144.399 235.373C142.955 237.51 144.96 235.752 145.847 235.847C149.391 236.232 153.958 239.704 157.914 240.865C157.537 237.524 152.832 239.046 151.509 235.566C151.834 234.225 152.36 236.228 152.685 234.884C150.733 230.291 145.961 233.397 144.007 228.841C143.546 229.224 143.807 229.654 143.069 230.136C137.272 229.384 129.662 225.041 123.313 222.067C122.561 221.713 121.454 222.899 120.512 222.752C112.598 221.511 107.864 214.417 100.484 213.527C104.611 213.297 106.914 215.635 112.008 216.232C112.279 216.234 112.5 215.418 112.737 214.868C115.375 215.774 115.746 217.536 117.802 218.128C127.731 220.995 138.77 226.023 150.572 226.724C151.486 226.599 151.194 225.062 151.858 224.476C153.179 227.32 156.462 225.278 157.02 229.368C157.735 229.123 157.003 228.074 156.922 227.735C159.425 226.888 159.999 232.792 163.261 231.943C163.581 230.345 162.446 230.308 162.476 229.019C162.535 228.607 163.829 229.279 163.75 229.97C165.158 227.731 168.183 230.344 169.718 231.391C170.888 229.189 173.412 233.161 175.174 231.042C169.992 228.086 162.348 227.553 157.456 223.105C157.082 223.893 157.287 224.06 157.519 224.195C156.685 224.711 156.069 224.266 156.421 222.767C155.632 222.418 156.219 223.52 155.485 224.061C155.042 223.412 154.975 223.1 154.797 222.769C152.45 223.519 151.035 221.104 149.559 219.987C146.112 218.067 150.574 220.968 151.705 218.555C148.011 215.809 141.934 215.632 138.776 212.723C139.549 210.266 139.512 212.953 140.093 211.021C138.841 209.631 137.091 210.003 135.923 209.119C135.632 210.785 137.352 210.293 136.533 212.524C134.814 212.287 133.183 210.909 131.982 211.031C133.281 207.593 130.262 207.793 129.29 210.152C128.257 210.583 129.371 208.71 128.605 208.859C128.302 208.89 128.049 209.737 128.256 209.812C125.284 209.447 118.401 207.695 115.633 205.679C115.47 205.275 115.621 204.532 115.917 203.636C115.162 203.844 115.478 205.213 115.045 206.019C113.611 204.414 111.667 205.594 111.255 203.713C111.753 201.845 112.455 203.426 113.052 203.232C113.037 202.138 112.338 202.847 113.335 201.191C108.296 200.052 107.072 199.603 102.782 197.736C106.61 195.547 108.977 199.86 112.344 198.199C113.701 200.118 115.634 199.024 117.136 200.3C117.711 200.361 117.152 199.387 117.833 198.393C118.679 198.075 118.317 198.504 119.075 198.801C119.686 197.567 118.983 197.739 118.976 197.168C119.603 195.989 119.55 198.383 120.392 197.097C120.035 194.783 117.459 198.533 116.287 196.288C116.461 195.337 115.79 195.754 116.602 194.791C115.547 194.57 115.342 193.435 114.086 193.432C113.179 193.147 114.351 192.599 114.676 193.091C116.716 193.398 119.72 192.475 120.26 194.921C121.684 193.673 121.26 195.738 122.298 195.054C122.244 195.874 121.774 197.1 121.012 197.302C123.827 200.471 128.335 200.235 132.013 201.435C131.821 197.991 128.025 200.568 127.297 197.223C129.168 196.713 130.479 197.775 132.024 198.238C131.076 199.701 132.95 200.084 133.744 199.869C134.127 199.764 133.886 199.231 134.266 198.439C135.329 199.681 136.659 198.848 138.405 199.793C138.381 200.496 137.954 201.632 138.329 201.905C139.057 198.59 138.828 203.191 140.159 201.969C137.563 205.204 138.112 199.555 136.053 201.157C137.686 203.839 139.29 206.135 142.184 205.301C142.616 204.065 141.482 204.508 142.436 202.713C143.983 203.225 144.504 204.144 146.16 203.933C145.86 204.559 145.497 204.159 145.157 204.14C145.996 207.48 149.118 208.414 151.769 209.505C152.459 208.792 152.255 208.012 152.051 207.463C152.587 206.226 153.264 207.378 153.815 206.439C155.982 212.561 163.461 209.192 165.319 215.54C165.585 214.62 166.283 214.937 167.016 213.43C168.658 213.823 169.568 215.657 171.71 213.9C172.423 216.624 176.899 214.093 176.317 219.677C179.574 216.579 181.243 217.712 184.224 219.596C183.926 220.267 183.544 219.562 183.254 220.348C183.933 221.453 185.403 221.712 186.424 222.453C186.661 220.943 185.3 221.147 184.496 220.754C185.534 218.336 185.671 220.686 186.914 220.476C186.551 225.424 190.708 224.318 193.045 224.62C193.118 223.674 192.103 223.892 191.945 223.194C194.508 221.902 195.6 225.255 197.708 224.545C197.474 225.182 197.243 225.816 197.011 226.452C200.615 228.884 203.838 228.86 208.118 229.022C208.684 228.906 208.139 228.197 208.849 227.658C213.576 228.965 218.43 231.732 223.649 230.904C223.603 230.397 221.513 230.811 222.483 228.388C223.03 229.388 225.082 229.876 225.336 231.991C230.432 233.011 236.535 233.358 241.935 234.759C246.402 235.913 251.244 235.924 255.667 237.119C264.392 239.475 271.06 243.291 278.528 246.204C280.701 247.051 282.534 248.299 283.516 251.572C281.405 255.738 279.927 254.16 277.428 254.916C277.658 255.925 277.393 257.465 278.213 257.842C278.046 258.114 277.027 259.505 277.516 259.749C275.194 263.994 273.123 261.552 271.081 264.041C271.536 266.58 274.124 264.634 276.08 266.212C276.243 264.589 275.447 263.993 274.498 263.561C276.894 262.358 279.576 264.561 281.013 267.293C279.431 269.155 279.374 266.651 277.387 267.706C277.042 270.086 275.672 270.336 275.23 272.338C275.466 273.244 276.317 273.492 276.95 273.969C276.237 274.467 275.614 276.464 274.871 276.489C274.22 278.153 274.61 278.701 274.653 279.62C274.975 279.982 276.119 277.653 275.732 277.305C276.878 275.488 277.254 279.483 278.149 277.027C277.823 279.199 276.401 278.723 275.655 279.415C275.587 280.841 276.367 281.354 276.646 282.407C275.674 283.525 274.987 281.886 274.37 281.661C273.987 281.769 274.228 282.299 273.848 283.092C274.861 284.406 277.09 285.833 278.084 286.079C277.346 288.198 277.582 285.661 276.907 286.763C277.423 288.963 276.082 292.796 274.697 297.245C273.225 297.73 272.744 298.297 271.453 297.248C271.064 297.601 271.076 298.319 270.342 299.02C269.992 301.221 271.838 301.984 272.749 301.941C271.449 303.857 272.165 305.755 272.63 306.706C272.117 308.277 271.483 307.87 270.931 308.817C269.695 314.521 266.428 314.59 264.342 317.331C259.989 317.065 256.637 313.081 252.308 312.859C250.941 312.787 249.223 313.691 247.887 313.545C244.844 313.219 242.056 311.873 239.021 311.177C229.821 309.064 221.617 305.363 211.805 303.867C208.7 303.394 204.772 303.165 201.35 302.045C195.639 300.176 189.272 299.543 185.351 295.738C184.962 296.092 184.98 296.907 184.207 296.967C183.708 294.424 179.841 298.275 180.351 293.569Z" fill="#FF7B29" fill-opacity="0.3"/>
</svg>
